<svg width="382" height="372" viewBox="0 0 382 372" fill="none" xmlns="http://www.w3.org/2000/svg">
<g filter="url(#filter0_d_29_30)">
<rect x="176.504" y="106.714" width="6.77854" height="6.77854" rx="3.38927" fill="url(#paint0_linear_29_30)"/>
</g>
<g filter="url(#filter1_d_29_30)">
<rect x="359.976" y="193.931" width="6.77854" height="6.77854" rx="3.38927" fill="url(#paint1_linear_29_30)"/>
</g>
<g filter="url(#filter2_d_29_30)">
<rect x="287.672" y="262.62" width="6.77854" height="6.77854" rx="3.38927" fill="url(#paint2_linear_29_30)"/>
</g>
<g filter="url(#filter3_d_29_30)">
<rect x="158.879" y="257.197" width="14.009" height="14.009" rx="7.0045" fill="url(#paint3_linear_29_30)"/>
</g>
<g filter="url(#filter4_d_29_30)">
<rect x="283.605" y="236.41" width="8.13425" height="8.13425" rx="4.06713" fill="url(#paint4_linear_29_30)"/>
</g>
<g filter="url(#filter5_d_29_30)">
<rect x="65.7876" y="235.958" width="8.13425" height="8.13425" rx="4.06713" fill="url(#paint5_linear_29_30)"/>
</g>
<g filter="url(#filter6_d_29_30)">
<rect x="240.674" y="273.014" width="4.06713" height="4.06713" rx="2.03356" fill="url(#paint6_linear_29_30)"/>
</g>
<path d="M203.828 41.5948C203.828 41.5948 163.948 42.8851 153.854 61.2708C144.024 79.1765 162.705 112.822 162.705 112.822C162.705 112.822 189.994 157.73 182.471 186.591C169.629 235.861 87.659 184.958 58.3896 226.62C25.7934 273.018 76.1611 370.726 76.1611 370.726" stroke="#FFC819" stroke-width="0.527835"/>
<path d="M334.424 346.061C334.424 346.061 361.712 316.949 355.848 296.811C350.138 277.199 313.137 266.617 313.137 266.617C313.137 266.617 262.086 254.158 246.998 228.432C221.24 184.512 315.195 162.544 306.432 112.388C296.673 56.531 191.968 23.0563 191.968 23.0563" stroke="#FCC822" stroke-width="0.791752"/>
<circle cx="248.808" cy="169.076" r="2.71142" fill="url(#paint7_linear_29_30)"/>
<circle cx="262.365" cy="186.105" r="2.71142" fill="url(#paint8_linear_29_30)"/>
<circle cx="270.951" cy="186.106" r="1.35571" fill="url(#paint9_linear_29_30)"/>
<circle cx="268.436" cy="192.177" r="1.35571" transform="rotate(45 268.436 192.177)" fill="url(#paint10_linear_29_30)"/>
<circle cx="262.22" cy="194.691" r="1.35571" transform="rotate(90 262.22 194.691)" fill="url(#paint11_linear_29_30)"/>
<circle cx="256.148" cy="192.177" r="1.35571" transform="rotate(135 256.148 192.177)" fill="url(#paint12_linear_29_30)"/>
<circle cx="253.779" cy="186.106" r="1.35571" fill="url(#paint13_linear_29_30)"/>
<circle cx="256.294" cy="180.034" r="1.35571" transform="rotate(45 256.294 180.034)" fill="url(#paint14_linear_29_30)"/>
<circle cx="262.22" cy="177.519" r="1.35571" transform="rotate(90 262.22 177.519)" fill="url(#paint15_linear_29_30)"/>
<circle cx="268.291" cy="180.034" r="1.35571" transform="rotate(135 268.291 180.034)" fill="url(#paint16_linear_29_30)"/>
<path d="M233.095 256.951L235.458 257.374C237.969 257.821 239.64 260.221 239.191 262.731L238.758 265.155C238.31 267.666 235.91 269.337 233.401 268.889L231.037 268.466C228.526 268.018 226.855 265.619 227.303 263.108L227.737 260.684C228.185 258.173 230.584 256.502 233.095 256.951ZM248.818 191.715C254.96 192.812 259.213 195.845 261.578 200.812C263.461 204.735 263.985 209.04 263.147 213.726C261.746 221.565 256.864 228.385 248.501 234.186C245.585 236.209 243.754 238.843 243.007 242.086C242.731 243.162 242.473 244.367 242.235 245.701C241.786 248.211 239.388 249.883 236.877 249.434L234.513 249.011C232.003 248.562 230.332 246.164 230.78 243.654V243.653C232.059 236.501 234.765 231.503 238.901 228.656C243.371 225.577 246.666 222.185 248.789 218.477C250.009 216.319 250.846 213.967 251.301 211.421C251.77 208.795 251.553 206.63 250.648 204.925C249.664 202.957 247.913 201.914 245.391 201.796C243.037 201.668 241.094 202.968 239.565 205.697C239.488 205.828 239.412 205.963 239.339 206.101C238.255 208.118 235.846 209.025 233.697 208.239L231.59 207.467C228.982 206.513 227.792 203.48 229.067 201.013C230.332 198.56 232.002 196.48 234.076 194.77C236.323 192.922 239.191 191.807 242.678 191.43C244.508 191.216 246.555 191.309 248.818 191.715Z" fill="#AEDBED"/>
<path d="M143.341 266.624L145.304 266.718C147.388 266.817 148.998 268.588 148.898 270.672L148.803 272.686C148.703 274.77 146.933 276.38 144.848 276.281L142.885 276.188C140.801 276.088 139.191 274.318 139.29 272.233L139.386 270.219C139.485 268.134 141.256 266.525 143.341 266.624ZM149.22 212.019C154.32 212.261 158.091 214.274 160.535 218.056C162.477 221.041 163.356 224.48 163.171 228.372C162.861 234.882 159.618 240.932 153.443 246.523C151.289 248.472 150.081 250.802 149.818 253.514C149.706 254.416 149.625 255.421 149.572 256.529C149.473 258.614 147.703 260.223 145.617 260.125L143.655 260.031C141.569 259.931 139.96 258.161 140.059 256.077C140.342 250.137 142.012 245.794 145.068 243.047C148.371 240.077 150.687 236.976 152.019 233.743C152.781 231.862 153.213 229.865 153.313 227.752C153.417 225.571 153.012 223.836 152.098 222.548C151.092 221.054 149.56 220.393 147.501 220.563C145.577 220.707 144.138 221.967 143.184 224.343C143.136 224.459 143.089 224.576 143.043 224.696C142.377 226.447 140.518 227.437 138.691 227.025L136.899 226.622C134.681 226.122 133.396 223.787 134.17 221.65C134.938 219.525 136.073 217.661 137.576 216.055C139.205 214.317 141.415 213.11 144.206 212.436C145.669 212.068 147.34 211.929 149.22 212.019Z" fill="#AEDBED"/>
<path d="M177.963 188.052L179.46 187.79C181.05 187.51 182.564 188.573 182.843 190.163L183.112 191.698C183.391 193.287 182.329 194.802 180.739 195.081L179.242 195.343C177.653 195.623 176.138 194.56 175.859 192.97L175.59 191.436C175.311 189.846 176.374 188.331 177.963 188.052ZM173.131 145.861C177.019 145.179 180.206 146.057 182.691 148.496C184.663 150.418 185.91 152.863 186.431 155.83C187.302 160.793 185.882 165.908 182.172 171.174C180.879 173.01 180.363 174.972 180.624 177.063C180.693 177.763 180.803 178.535 180.95 179.379C181.23 180.969 180.167 182.483 178.578 182.762L177.081 183.024C175.491 183.304 173.977 182.241 173.697 180.651C172.903 176.123 173.426 172.564 175.265 169.973C177.252 167.172 178.474 164.439 178.929 161.774C179.185 160.226 179.171 158.646 178.888 157.035C178.597 155.371 177.997 154.132 177.089 153.316C176.077 152.359 174.808 152.12 173.284 152.599C171.857 153.034 170.985 154.228 170.67 156.183C170.652 156.278 170.636 156.374 170.622 156.473C170.417 157.906 169.182 158.97 167.734 158.969L166.315 158.968C164.556 158.968 163.19 157.424 163.411 155.68C163.631 153.948 164.171 152.349 165.032 150.883C165.966 149.294 167.429 148.009 169.419 147.027C170.46 146.502 171.697 146.113 173.131 145.861Z" fill="#AEDBED"/>
<path d="M68.4453 233.144L69.439 233.401C70.494 233.674 71.1274 234.751 70.8543 235.806L70.5904 236.824C70.3174 237.88 69.2406 238.513 68.1856 238.24L67.1919 237.983C66.1369 237.71 65.5035 236.634 65.7766 235.579L66.0405 234.559C66.3135 233.505 67.3903 232.87 68.4453 233.144ZM77.2763 205.861C79.8571 206.531 81.5701 207.962 82.416 210.155C83.0903 211.888 83.1726 213.74 82.6624 215.709C81.8094 219.003 79.5066 221.75 75.7533 223.949C74.445 224.714 73.5787 225.776 73.1543 227.135C73.0016 227.584 72.8524 228.088 72.7074 228.649C72.4343 229.704 71.3575 230.338 70.3026 230.064L69.3095 229.808C68.2546 229.534 67.6205 228.458 67.8935 227.403C68.6719 224.397 69.9887 222.356 71.8446 221.278C73.8489 220.112 75.3642 218.774 76.3896 217.264C76.9793 216.384 77.4136 215.41 77.6901 214.339C77.9759 213.236 77.9541 212.307 77.624 211.55C77.27 210.68 76.5571 210.178 75.4866 210.046C74.4879 209.914 73.6181 210.404 72.877 211.517C72.8397 211.571 72.8031 211.626 72.7672 211.682C72.2394 212.506 71.1837 212.813 70.2934 212.409L69.4214 212.011C68.3411 211.518 67.9329 210.188 68.5572 209.178C69.1765 208.175 69.9556 207.343 70.8945 206.682C71.9128 205.968 73.1712 205.587 74.6695 205.54C75.4564 205.508 76.3255 205.616 77.2763 205.861Z" fill="#AEDBED"/>
<path d="M107.477 237.498L110.544 236.71C113.801 235.873 117.119 237.836 117.956 241.093L118.763 244.238C119.6 247.496 117.637 250.815 114.38 251.651L111.313 252.438C108.056 253.274 104.737 251.312 103.901 248.055L103.093 244.909C102.257 241.652 104.22 238.334 107.477 237.498ZM90.6197 150.63C98.5872 148.584 105.35 149.894 110.907 154.557C115.314 158.232 118.299 163.11 119.86 169.19C122.472 179.361 120.349 190.215 113.493 201.754C111.102 205.777 110.348 209.938 111.228 214.238C111.486 215.68 111.837 217.267 112.282 218.997C113.118 222.254 111.156 225.573 107.899 226.409L104.831 227.196C101.575 228.033 98.2557 226.071 97.4196 222.814C95.0366 213.534 95.5475 206.056 98.9503 200.375C102.625 194.235 104.721 188.361 105.237 182.751C105.519 179.494 105.235 176.214 104.387 172.911C103.512 169.505 102.066 167.026 100.048 165.476C97.7905 163.654 95.1168 163.362 92.0272 164.602C89.134 165.737 87.5153 168.359 87.1747 172.47C87.155 172.67 87.1381 172.874 87.1247 173.081C86.9283 176.092 84.5369 178.5 81.5275 178.733L78.5773 178.961C74.9261 179.244 71.8393 176.258 72.016 172.599C72.1919 168.965 73.0554 165.554 74.6066 162.37C76.29 158.921 79.1206 156.014 83.097 153.651C85.1759 152.392 87.6828 151.385 90.6197 150.63Z" fill="#AEDBED"/>
<path d="M308.199 239.523L310.366 238.966C312.668 238.375 315.013 239.762 315.604 242.064L316.175 244.287C316.766 246.588 315.379 248.933 313.077 249.524L310.91 250.081C308.608 250.672 306.263 249.285 305.672 246.984L305.101 244.76C304.51 242.459 305.897 240.114 308.199 239.523ZM296.287 178.136C301.917 176.69 306.696 177.616 310.623 180.911C313.737 183.508 315.847 186.955 316.95 191.251C318.796 198.438 317.296 206.11 312.451 214.264C310.761 217.106 310.228 220.047 310.851 223.086C311.032 224.105 311.281 225.226 311.594 226.449C312.186 228.75 310.799 231.095 308.497 231.686L306.33 232.243C304.028 232.834 301.683 231.447 301.092 229.146C299.408 222.589 299.769 217.304 302.174 213.29C304.771 208.951 306.251 204.799 306.617 200.835C306.815 198.533 306.615 196.215 306.016 193.881C305.398 191.474 304.375 189.722 302.949 188.627C301.354 187.34 299.465 187.133 297.282 188.009C295.237 188.811 294.093 190.664 293.852 193.569C293.837 193.711 293.826 193.855 293.816 194C293.678 196.129 291.988 197.83 289.861 197.995L287.776 198.157C285.196 198.357 283.015 196.247 283.14 193.661C283.264 191.092 283.874 188.683 284.97 186.431C286.161 183.994 288.161 181.94 290.971 180.271C292.439 179.381 294.211 178.668 296.287 178.136Z" fill="#AEDBED"/>
<path d="M298.286 137.678L299.484 137.371C300.756 137.044 302.052 137.81 302.379 139.082L302.694 140.311C303.021 141.584 302.254 142.88 300.983 143.206L299.784 143.514C298.512 143.841 297.215 143.074 296.889 141.802L296.573 140.573C296.247 139.301 297.013 138.005 298.286 137.678ZM291.701 103.747C294.813 102.948 297.455 103.459 299.625 105.281C301.347 106.716 302.513 108.621 303.123 110.997C304.143 114.969 303.314 119.209 300.636 123.716C299.702 125.288 299.407 126.913 299.751 128.593C299.852 129.156 299.989 129.776 300.163 130.451C300.489 131.724 299.723 133.02 298.45 133.347L297.253 133.654C295.98 133.981 294.684 133.214 294.357 131.943C293.427 128.317 293.626 125.397 294.955 123.178C296.391 120.779 297.21 118.485 297.411 116.293C297.521 115.022 297.41 113.74 297.079 112.45C296.737 111.119 296.172 110.151 295.383 109.545C294.502 108.835 293.458 108.72 292.251 109.204C291.12 109.648 290.488 110.672 290.355 112.278C290.348 112.356 290.341 112.436 290.336 112.516C290.259 113.693 289.325 114.633 288.15 114.724L286.997 114.813C285.571 114.924 284.366 113.758 284.435 112.328C284.504 110.909 284.841 109.576 285.447 108.333C286.104 106.985 287.21 105.849 288.763 104.927C289.575 104.435 290.554 104.041 291.701 103.747Z" fill="#AEDBED"/>
<path d="M137.545 158.836C137.545 158.836 144.478 125.04 128.682 126.705L113.582 158.145C113.582 158.145 123.703 162.294 137.545 158.836Z" fill="#361710"/>
<path d="M102.351 158.836C102.351 158.836 98.5088 131.43 110.431 124.475L126.315 158.145C126.315 158.145 116.194 162.294 102.351 158.836Z" fill="#361710"/>
<path d="M77.8801 151.258H79.7184C81.6707 151.258 83.2535 152.84 83.2535 154.792V156.677C83.2535 158.63 81.6707 160.212 79.7184 160.212H77.8801C75.9279 160.212 74.3458 158.63 74.3458 156.677V154.792C74.3458 152.84 75.9279 151.258 77.8801 151.258ZM80.9444 99.9787C85.7195 99.9787 89.3327 101.691 91.784 105.116C93.7321 107.818 94.7061 110.991 94.7061 114.636C94.7061 120.732 91.9452 126.53 86.4247 132.028C84.4992 133.945 83.4745 136.176 83.3485 138.721C83.2852 139.569 83.2535 140.511 83.2535 141.548C83.2535 143.501 81.6707 145.083 79.7184 145.083H77.8801C75.9279 145.083 74.3458 143.501 74.3458 141.548C74.3458 135.987 75.7125 131.856 78.446 129.153C81.399 126.23 83.4252 123.23 84.5259 120.15C85.1537 118.36 85.4683 116.475 85.4683 114.495C85.4683 112.452 85.013 110.851 84.1016 109.688C83.0959 108.337 81.6348 107.786 79.7184 108.038C77.9273 108.258 76.6387 109.499 75.854 111.761C75.8131 111.871 75.7744 111.983 75.7371 112.097C75.1924 113.763 73.4998 114.771 71.7742 114.468L70.0823 114.17C67.9878 113.802 66.6837 111.678 67.3115 109.646C67.935 107.627 68.9133 105.835 70.2448 104.267C71.6904 102.571 73.7011 101.345 76.2783 100.592C77.6289 100.184 79.1835 99.9787 80.9444 99.9787Z" fill="#FCC822"/>
<path d="M121.86 290.098C121.86 290.098 120.985 293.479 119.411 292.969C116.469 292.019 116.298 290.098 116.298 290.098C116.298 290.098 114.443 295.692 114.796 298.356C115.149 301.02 114.796 307.009 114.796 307.009H117.481C117.481 307.009 119.992 307.314 121.033 308.828C122.074 310.342 127.778 309.893 129.586 308.922C131.903 307.678 125.823 301.35 123.673 297.823C121.522 294.296 121.86 290.098 121.86 290.098Z" fill="#1C0906"/>
<path d="M116.835 240.318C118.69 235.736 125.309 235.787 126.941 240.453C127.235 241.294 127.448 242.174 127.587 243.065C128.274 247.441 127.585 254.453 125.778 263.409C123.34 275.493 122.023 299.599 117.789 299.954C113.556 300.309 116.044 280.038 115.955 268.052C115.867 256.066 113.978 247.375 116.659 240.755L116.835 240.318Z" fill="#CF9166"/>
<path d="M119.271 274.896C118.692 259.084 119.744 247.355 117.221 239.018L117.056 238.469C115.31 232.699 109.972 233.727 108.908 240.113C108.716 241.264 108.592 242.455 108.528 243.651C108.212 249.517 109.148 258.659 111.092 270.202C113.716 285.776 114.353 300.101 117.789 299.954C121.224 299.807 119.85 290.707 119.271 274.896Z" fill="#EDAC7C"/>
<path d="M114.474 292.879C114.474 292.879 115.223 298.85 117.307 298.489C119.356 298.134 120.035 292.879 120.035 292.879C120.035 292.879 121.891 298.472 121.538 301.136C121.339 302.637 121.364 305.194 121.424 307.14C121.468 308.591 120.305 309.789 118.853 309.789C118.853 309.789 116.342 310.094 115.3 311.608C114.259 313.122 108.555 312.673 106.747 311.702C104.43 310.459 110.51 304.13 112.661 300.604C114.812 297.076 114.474 292.879 114.474 292.879Z" fill="#361710"/>
<path d="M132.234 202.273L118.793 199.84V199.746L118.535 199.793L118.277 199.746V199.84L104.836 202.273C104.836 202.273 100.083 209.353 101.013 217.68C101.943 226.007 106.229 271.045 106.229 271.045H129.368C129.368 271.045 135.127 226.007 136.057 217.68C136.987 209.353 132.234 202.273 132.234 202.273Z" fill="#195172"/>
<path d="M133.836 205.272C132.988 203.397 132.234 202.272 132.234 202.272L118.793 199.839V199.745L118.535 199.792L118.277 199.745V199.839L104.836 202.272C104.836 202.272 104.082 203.397 103.235 205.272H133.836Z" fill="#0D435E"/>
<path d="M121.425 271.044L121.582 226.053L125.436 271.044" fill="#0D435E"/>
<path d="M100.902 214.993C102.206 214.955 104.403 214.696 107.583 213.69C113.16 211.927 113.207 204.566 113.207 204.566L113.057 200.785L104.836 202.273C104.836 202.273 101.072 207.885 100.902 214.993Z" fill="#0D435E"/>
<path d="M136.168 214.994C135.999 207.885 132.234 202.273 132.234 202.273L123.447 200.682L123.222 204.566C123.222 204.566 123.27 211.927 128.846 213.689C132.625 214.885 135.016 215.027 136.168 214.994Z" fill="#0D435E"/>
<path d="M105.587 164.093L115.136 160.212L122.629 160.293L134.338 165.176C134.338 165.176 128.235 186.156 128.637 191.57C129.039 196.983 132.234 203.109 132.234 203.109H105.587C105.587 203.109 110.358 193.456 109.31 187.762C108.262 182.067 105.587 164.093 105.587 164.093Z" fill="#5C93BC"/>
<path d="M127.989 131.293C124.749 125.231 107.62 123.084 104.47 142.143C102.174 156.033 117.801 159.309 125.722 156.765C139.198 152.438 131.23 137.356 127.989 131.293Z" fill="#3E150D"/>
<path d="M130.778 144.188C130.778 144.188 133.2 141.078 135.428 143.121C137.658 145.166 134.472 151.463 130.203 149.981L130.778 144.188Z" fill="#EDAC7C"/>
<path d="M130.56 146.383L130.263 149.366C133.956 150.029 136.063 144.887 134.365 144.174C132.991 143.598 131.287 145.401 130.56 146.383Z" fill="#F7A588"/>
<path d="M134.96 145.24C134.96 145.24 134.953 145.216 134.942 145.174C134.93 145.131 134.91 145.071 134.886 144.995C134.83 144.847 134.735 144.633 134.555 144.48C134.51 144.441 134.457 144.41 134.403 144.384C134.374 144.372 134.347 144.359 134.315 144.349L134.295 144.342L134.293 144.341C134.31 144.347 134.297 144.342 134.3 144.344L134.297 144.342L134.289 144.341L134.274 144.337L134.216 144.321C134.174 144.309 134.142 144.304 134.11 144.299C134.08 144.294 134.046 144.289 134.007 144.287C133.972 144.285 133.935 144.283 133.899 144.283C133.861 144.283 133.824 144.282 133.786 144.287C133.483 144.308 133.162 144.426 132.856 144.59C132.701 144.67 132.553 144.766 132.407 144.863C132.262 144.962 132.12 145.064 131.986 145.166C131.718 145.374 131.473 145.583 131.262 145.763C130.841 146.136 130.561 146.384 130.561 146.384C130.561 146.384 130.597 146.296 130.675 146.15C130.756 146.005 130.876 145.8 131.044 145.57C131.129 145.456 131.222 145.332 131.331 145.209C131.438 145.085 131.558 144.957 131.689 144.833C131.951 144.584 132.259 144.34 132.614 144.15C132.791 144.057 132.979 143.976 133.175 143.921C133.372 143.866 133.579 143.836 133.781 143.844C133.831 143.845 133.88 143.849 133.931 143.856C133.98 143.859 134.028 143.87 134.076 143.881C134.123 143.89 134.171 143.904 134.22 143.92C134.27 143.936 134.316 143.951 134.348 143.969L134.404 143.995L134.439 144.011L134.471 144.028C134.512 144.05 134.55 144.076 134.587 144.103C134.658 144.159 134.721 144.221 134.769 144.287C134.871 144.415 134.921 144.553 134.95 144.672C134.98 144.79 134.984 144.896 134.985 144.979C134.985 145.062 134.975 145.129 134.97 145.173C134.963 145.217 134.96 145.24 134.96 145.24Z" fill="#CF9166"/>
<path d="M108.325 143.945C108.325 143.945 105.971 140.785 103.699 142.78C101.426 144.774 104.476 151.14 108.777 149.751L108.325 143.945Z" fill="#EDAC7C"/>
<path d="M108.496 146.146L108.728 149.134C105.023 149.719 103.027 144.532 104.741 143.856C106.125 143.31 107.792 145.149 108.496 146.146Z" fill="#F7A588"/>
<path d="M104.123 144.908C104.123 144.908 104.129 144.886 104.142 144.843C104.155 144.8 104.176 144.74 104.203 144.664C104.26 144.517 104.359 144.306 104.545 144.156C104.59 144.119 104.642 144.089 104.698 144.064C104.727 144.053 104.754 144.04 104.784 144.031L104.808 144.024L104.809 144.024C104.792 144.03 104.806 144.024 104.802 144.026H104.806L104.813 144.023L104.827 144.019L104.887 144.005C104.928 143.993 104.961 143.99 104.992 143.986C105.023 143.98 105.058 143.977 105.096 143.976C105.132 143.974 105.167 143.972 105.204 143.974C105.241 143.974 105.279 143.975 105.317 143.981C105.619 144.007 105.938 144.132 106.24 144.304C106.393 144.387 106.54 144.485 106.684 144.586C106.826 144.688 106.966 144.793 107.098 144.899C107.362 145.112 107.601 145.326 107.809 145.51C108.222 145.892 108.496 146.146 108.496 146.146C108.496 146.146 108.462 146.058 108.386 145.91C108.311 145.763 108.194 145.555 108.03 145.322C107.948 145.207 107.857 145.08 107.751 144.955C107.646 144.829 107.531 144.699 107.402 144.57C107.145 144.318 106.843 144.066 106.493 143.868C106.318 143.772 106.13 143.687 105.935 143.628C105.739 143.568 105.533 143.535 105.332 143.537C105.281 143.537 105.232 143.542 105.182 143.546C105.132 143.549 105.084 143.557 105.034 143.568C104.989 143.575 104.941 143.588 104.891 143.604C104.842 143.619 104.795 143.633 104.761 143.651L104.706 143.674L104.671 143.69L104.638 143.706C104.596 143.727 104.557 143.753 104.519 143.779C104.448 143.834 104.385 143.894 104.334 143.958C104.229 144.086 104.177 144.222 104.145 144.339C104.112 144.457 104.106 144.562 104.103 144.646C104.101 144.731 104.109 144.797 104.114 144.841C104.12 144.884 104.123 144.908 104.123 144.908Z" fill="#CF9166"/>
<path d="M122.129 153.752L116.05 153.685C116.05 153.685 115.714 163.201 115.692 163.201C115.692 163.201 116.117 165.104 118.814 165.175C121.51 165.246 122.197 163.27 122.197 163.27C122.175 163.218 122.129 153.752 122.129 153.752Z" fill="#EDAC7C"/>
<path d="M122.197 157.255L115.86 157.043C115.86 157.043 115.824 160.545 115.801 160.545C115.801 160.545 116.142 162.77 118.839 162.841C121.536 162.912 122.17 160.867 122.17 160.867C122.149 160.814 122.197 157.255 122.197 157.255Z" fill="#CF9166"/>
<path d="M122.11 155.502L116.031 155.436C116.031 155.436 115.941 156.651 115.86 157.684C115.848 157.834 117.592 158.117 117.781 158.149C119.266 158.401 120.733 158.226 122.185 157.872C122.149 156.814 122.11 155.502 122.11 155.502Z" fill="#CF9166"/>
<path d="M133.878 141.711C133.796 149.291 127.153 155.365 119.041 155.278C110.928 155.191 104.419 148.974 104.499 141.395C104.581 133.814 111.224 127.739 119.337 127.826C127.449 127.914 133.96 134.13 133.878 141.711Z" fill="#3E150D"/>
<path d="M132.318 141.508C132.217 137.284 130.444 133.277 126.289 131.593C124.176 130.736 121.849 130.489 119.578 130.501C117.334 130.514 114.944 130.633 112.826 131.423C109.034 132.84 108.005 130.528 107.579 134.381C107.537 134.758 107.036 136.372 106.522 141.23C106.43 142.096 106.406 142.956 106.428 143.83C106.48 145.793 106.771 147.765 107.392 149.636C108.143 151.906 109.417 154.019 111.286 155.57C112.348 156.453 113.574 157.133 114.876 157.609C117.026 158.392 119.079 158.666 121.341 158.274C122.873 158.01 124.37 157.526 125.722 156.766C127.964 155.506 129.654 153.529 130.721 151.233C131.618 149.301 132.097 147.194 132.288 145.085C132.392 143.93 132.427 142.755 132.327 141.6C132.324 141.569 132.319 141.539 132.318 141.508Z" fill="#EDAC7C"/>
<path d="M123.345 145.503C123.285 146.703 124.13 147.718 125.232 147.772C126.334 147.827 127.275 146.897 127.335 145.697C127.395 144.498 126.551 143.482 125.448 143.429C124.347 143.374 123.405 144.304 123.345 145.503Z" fill="#CF9166"/>
<path d="M123.37 144.996C123.309 146.196 124.155 147.211 125.256 147.266C126.359 147.32 127.3 146.39 127.36 145.191C127.421 143.992 126.576 142.975 125.473 142.921C124.372 142.868 123.43 143.797 123.37 144.996Z" fill="black"/>
<path d="M124.084 144.441C124.062 144.876 124.404 145.246 124.845 145.267C125.288 145.289 125.663 144.954 125.685 144.519C125.707 144.085 125.366 143.716 124.924 143.695C124.483 143.672 124.106 144.007 124.084 144.441Z" fill="white"/>
<path d="M111.446 145.035C111.386 146.234 112.231 147.25 113.332 147.304C114.435 147.358 115.376 146.428 115.436 145.229C115.496 144.03 114.653 143.014 113.55 142.96C112.449 142.907 111.506 143.835 111.446 145.035Z" fill="#CF9166"/>
<path d="M111.472 144.528C111.411 145.728 112.257 146.742 113.358 146.797C114.461 146.851 115.402 145.923 115.462 144.722C115.523 143.523 114.678 142.506 113.575 142.454C112.475 142.4 111.532 143.329 111.472 144.528Z" fill="black"/>
<path d="M112.186 143.973C112.165 144.407 112.504 144.777 112.947 144.798C113.389 144.82 113.765 144.486 113.787 144.05C113.808 143.616 113.468 143.246 113.025 143.225C112.584 143.204 112.208 143.538 112.186 143.973Z" fill="white"/>
<path d="M118.477 143.712C118.477 143.712 118.77 146.353 117.526 146.133C115.119 145.713 115.113 150.871 118.747 148.95C120.119 148.226 119.667 143.748 119.667 143.748L118.477 143.712Z" fill="#F48470"/>
<path d="M115.927 151.273C115.927 151.273 120.769 152.078 123.071 149.303C123.071 149.303 125.006 154.487 119.806 155.153C116.521 155.571 115.927 151.273 115.927 151.273Z" fill="#B43128"/>
<path d="M117.573 154.542C118.124 154.996 118.851 155.274 119.806 155.153C120.985 155.001 121.796 154.618 122.348 154.117C122.507 153.965 122.648 153.803 122.776 153.635C122.779 153.632 122.782 153.627 122.784 153.624C122.787 153.621 122.787 153.62 122.788 153.618C123.185 153.057 123.355 152.415 123.406 151.8C120.483 151.035 118.389 153.32 117.573 154.542Z" fill="#F05736"/>
<path d="M115.927 151.273C115.927 151.273 115.933 151.31 115.944 151.376C116.415 151.473 117.288 152.498 118.462 152.457C119.206 152.432 119.934 152.227 120.603 151.912C121.018 151.717 121.446 151.529 121.805 151.241C122.08 151.022 122.278 150.371 122.394 149.968C119.938 151.94 115.927 151.273 115.927 151.273Z" fill="white"/>
<path d="M116.251 151.578C116.46 152.547 117.27 155.215 119.773 154.895C121.159 154.719 122.133 154.19 122.668 153.326C123.407 152.132 123.143 150.566 122.952 149.822C120.872 151.885 117.391 151.702 116.251 151.578ZM119.324 155.439C116.27 155.407 115.672 151.352 115.667 151.308C115.655 151.228 115.683 151.145 115.744 151.088C115.804 151.031 115.887 151.005 115.971 151.019C116.018 151.026 120.692 151.765 122.867 149.14C122.927 149.069 123.021 149.033 123.114 149.049C123.208 149.064 123.285 149.128 123.319 149.216C123.357 149.318 124.248 151.763 123.12 153.592C122.499 154.598 121.395 155.211 119.84 155.409C119.66 155.432 119.489 155.441 119.324 155.439Z" fill="#F05B4E"/>
<path d="M114.042 150.99C114.03 152.097 113.108 152.985 111.982 152.972C110.856 152.96 109.952 152.053 109.963 150.946C109.976 149.839 110.899 148.952 112.025 148.963C113.151 148.977 114.054 149.883 114.042 150.99Z" fill="#F49B77"/>
<path d="M128.682 149.859C128.67 150.966 127.747 151.854 126.62 151.842C125.495 151.83 124.591 150.923 124.603 149.815C124.615 148.709 125.537 147.822 126.663 147.834C127.789 147.846 128.694 148.753 128.682 149.859Z" fill="#F49B77"/>
<path d="M110.073 139.557C110.073 139.557 110.118 139.474 110.224 139.346C110.277 139.284 110.342 139.203 110.426 139.125C110.508 139.043 110.606 138.957 110.719 138.868C110.832 138.78 110.959 138.692 111.099 138.606C111.241 138.524 111.392 138.435 111.558 138.365C111.719 138.286 111.895 138.224 112.075 138.165C112.255 138.103 112.445 138.068 112.632 138.02C112.821 137.99 113.013 137.961 113.2 137.943C113.389 137.932 113.575 137.927 113.752 137.928C113.933 137.938 114.105 137.953 114.267 137.969C114.431 137.988 114.581 138.025 114.721 138.053C114.859 138.084 114.985 138.111 115.094 138.153C115.204 138.191 115.299 138.227 115.375 138.257C115.528 138.316 115.614 138.358 115.614 138.358C115.614 138.358 115.517 138.372 115.353 138.383C115.272 138.389 115.173 138.398 115.061 138.4C114.952 138.401 114.825 138.416 114.688 138.427C114.553 138.439 114.408 138.439 114.255 138.456C114.101 138.473 113.942 138.488 113.777 138.5C113.613 138.522 113.446 138.547 113.272 138.566C113.104 138.595 112.932 138.624 112.76 138.654C112.674 138.673 112.59 138.692 112.505 138.71C112.419 138.728 112.335 138.742 112.253 138.767C112.17 138.79 112.087 138.81 112.006 138.83C111.923 138.848 111.847 138.878 111.767 138.899C111.608 138.942 111.459 138.995 111.314 139.042C111.241 139.064 111.174 139.095 111.106 139.118C111.039 139.142 110.972 139.163 110.911 139.191C110.786 139.239 110.671 139.285 110.571 139.329C110.466 139.371 110.38 139.414 110.304 139.446C110.234 139.482 110.172 139.506 110.135 139.527C110.094 139.547 110.073 139.557 110.073 139.557Z" fill="black"/>
<path d="M127.426 142.455C127.426 142.455 127.37 142.378 127.25 142.264C127.187 142.21 127.115 142.137 127.022 142.07C126.93 142 126.82 141.928 126.699 141.854C126.576 141.781 126.438 141.71 126.287 141.643C126.135 141.579 125.975 141.51 125.801 141.463C125.631 141.405 125.448 141.366 125.263 141.329C125.077 141.291 124.884 141.281 124.693 141.258C124.5 141.252 124.308 141.248 124.119 141.254C123.93 141.268 123.745 141.287 123.567 141.31C123.391 141.343 123.222 141.38 123.063 141.416C122.905 141.455 122.76 141.512 122.626 141.558C122.492 141.607 122.369 141.65 122.267 141.705C122.163 141.756 122.075 141.805 122.003 141.844C121.856 141.923 121.778 141.974 121.778 141.974C121.778 141.974 121.876 141.976 122.039 141.967C122.12 141.962 122.219 141.957 122.331 141.947C122.441 141.933 122.567 141.931 122.704 141.924C122.84 141.919 122.984 141.901 123.139 141.897C123.293 141.895 123.453 141.89 123.617 141.881C123.783 141.883 123.954 141.885 124.127 141.881C124.298 141.888 124.472 141.896 124.647 141.903C124.733 141.911 124.82 141.918 124.907 141.925C124.992 141.933 125.079 141.935 125.164 141.95C125.249 141.963 125.333 141.971 125.417 141.98C125.501 141.988 125.582 142.008 125.662 142.019C125.826 142.041 125.98 142.075 126.131 142.103C126.206 142.114 126.275 142.137 126.346 142.15C126.416 142.166 126.486 142.179 126.549 142.197C126.679 142.231 126.8 142.261 126.905 142.292C127.014 142.32 127.104 142.351 127.182 142.374C127.257 142.401 127.321 142.416 127.362 142.432C127.404 142.446 127.426 142.455 127.426 142.455Z" fill="black"/>
<path d="M132.144 147.811C132.144 147.811 132.464 147.221 133.074 146.095C135.354 141.877 136.317 136.928 135.087 132.294C134.425 129.803 133.063 128.591 131.953 128.003C130.817 127.402 125.648 124.138 122.546 123.196C116.946 121.495 110.982 123.266 106.792 126.175C102.602 129.084 97.1354 138.616 101.668 138.714C106.2 138.813 113.089 132.437 111.042 134.08C108.112 136.433 110.98 136.682 117.539 136.907C124.096 137.131 127.985 134.849 127.985 134.849C127.985 134.849 127.738 136.856 128.704 139.83C129.67 142.804 132.35 146.191 132.35 146.191" fill="#361710"/>
<path d="M111.612 161.645L113.206 202.176C113.206 202.176 113.159 209.537 107.583 211.301C102.007 213.064 99.4419 212.535 99.4419 212.535C99.4419 212.535 105.503 186.409 104.287 180.559C103.072 174.708 101.21 165.361 101.21 165.361L111.612 161.645Z" fill="#122738"/>
<path d="M125.572 161.536L123.223 202.176C123.223 202.176 123.27 209.537 128.846 211.301C134.422 213.064 136.987 212.535 136.987 212.535C136.987 212.535 130.926 186.409 132.141 180.559C133.357 174.708 135.219 165.362 135.219 165.362L125.572 161.536Z" fill="#122738"/>
<path d="M141.479 173.142C141.479 173.142 152.729 186.463 152.75 190.654C152.77 194.846 146.868 193.523 146.868 193.523L136.205 178.303L141.479 173.142Z" fill="#EDAC7C"/>
<path d="M141.479 173.142L136.205 178.303L140.444 184.354C140.444 184.354 142.957 180.604 147.512 180.887C144.568 176.801 141.479 173.142 141.479 173.142Z" fill="#CF9166"/>
<path d="M100.562 174.408C100.562 174.408 85.5314 183.246 81.3974 182.557C77.2627 181.869 79.564 176.275 79.564 176.275L96.3675 168.338L100.562 174.408Z" fill="#EDAC7C"/>
<path d="M88.1058 180.791C93.8057 178.379 100.562 174.409 100.562 174.409L96.3675 168.339L88.1016 172.242C88.1016 172.242 91.1665 178.907 88.1058 180.791" fill="#CF9166"/>
<path d="M150.208 193.602C150.238 193.585 150.268 193.567 150.299 193.548C151.482 192.833 152.353 191.676 152.948 190.426C154.216 187.767 154.886 184.687 155.85 181.897C156.6 179.724 157.281 177.38 158.201 175.194C158.06 175.13 157.928 175.047 157.81 174.937C156.641 173.843 156.066 173.1 154.72 172.23C154.335 175.588 149.622 182.18 147.655 187.419C147.267 188.454 146.928 189.526 146.89 190.631C146.82 192.709 147.949 194.908 150.208 193.602Z" fill="#EEC9B1"/>
<path d="M147.71 194.466C148.296 194.818 149.271 195.076 150.613 194.303L150.717 194.241C151.921 193.512 152.944 192.313 153.678 190.775C154.536 188.975 155.126 186.999 155.697 185.087C155.987 184.113 156.287 183.106 156.614 182.162C156.843 181.499 157.066 180.82 157.29 180.135C157.796 178.594 158.318 177.001 158.946 175.507L159.251 174.781L158.533 174.456C158.463 174.424 158.408 174.389 158.363 174.347C158.053 174.057 157.786 173.792 157.534 173.543C156.824 172.84 156.212 172.232 155.159 171.551L154.065 170.844L153.916 172.138C153.719 173.866 152.167 176.719 150.524 179.74C149.175 182.22 147.781 184.783 146.898 187.135C146.518 188.146 146.124 189.349 146.082 190.604C146.023 192.322 146.662 193.837 147.71 194.466Z" fill="#EDAC7C"/>
<path d="M157.374 172.953C157.375 172.949 158.268 170.252 158.613 170.147C158.958 170.042 159.57 170.287 159.57 170.287L158.537 174.154C158.537 174.154 159.977 170.917 160.539 170.639C161.1 170.36 161.728 170.654 161.728 170.654L160.011 175.107C160.011 175.107 161.027 171.891 161.627 171.385C162.228 170.88 162.939 171.095 162.939 171.095L161.49 175.897L161.359 175.289C161.359 175.289 162.35 173.588 162.957 173.459C163.563 173.328 164.146 173.474 164.146 173.474C164.146 173.474 163.056 175.205 162.586 176.317C162.116 177.429 161.263 177.634 161.263 177.634C159.351 177.049 157.72 175.621 156.148 174.4C154.932 173.456 154.065 170.843 154.065 170.843C154.065 170.843 155.714 169.317 157.374 172.953Z" fill="#EDAC7C"/>
<path d="M79.9721 180.886C79.9495 180.859 79.927 180.833 79.9052 180.805C79.0374 179.728 78.6131 178.345 78.4793 176.966C78.1957 174.035 78.6166 170.91 78.6623 167.958C78.6982 165.66 78.858 163.224 78.7404 160.855C78.8939 160.843 79.0473 160.811 79.1951 160.748C80.6674 160.117 81.4612 159.616 83.0229 159.258C82.2396 162.545 84.4192 170.349 84.4812 175.945C84.4931 177.051 84.4453 178.174 84.1039 179.226C83.4614 181.204 81.6492 182.886 79.9721 180.886Z" fill="#EEC9B1"/>
<path d="M82.0254 182.551C81.354 182.682 80.3497 182.593 79.3524 181.407L79.275 181.312C78.3918 180.217 77.8386 178.741 77.6739 177.044C77.4818 175.06 77.6021 173.001 77.7183 171.01C77.7774 169.996 77.8386 168.946 77.8541 167.946C77.8646 167.245 77.8872 166.531 77.9097 165.811C77.9604 164.189 78.0124 162.514 77.9329 160.895L77.8935 160.108L78.6789 160.048C78.7556 160.043 78.8197 160.029 78.8767 160.004C79.2673 159.838 79.6079 159.68 79.9295 159.531C80.8367 159.112 81.62 158.75 82.8418 158.469L84.1114 158.177L83.8102 159.445C83.4062 161.136 83.8918 164.348 84.4049 167.748C84.8264 170.539 85.2621 173.424 85.2902 175.938C85.3022 177.017 85.2621 178.281 84.8736 179.475C84.3422 181.11 83.2246 182.317 82.0254 182.551Z" fill="#EDAC7C"/>
<path d="M80.2814 159.032C80.2814 159.027 80.363 156.187 80.0752 155.971C79.7859 155.755 79.1265 155.775 79.1265 155.775L78.7781 159.764C78.7781 159.764 78.5297 156.229 78.0961 155.776C77.6633 155.323 76.9729 155.385 76.9729 155.385L77.0679 160.156C77.0679 160.156 77.2108 156.787 76.8188 156.107C76.4268 155.427 75.685 155.385 75.685 155.385L75.4091 160.394L75.7385 159.868C75.7385 159.868 75.3873 157.932 74.8616 157.602C74.3359 157.272 73.7383 157.21 73.7383 157.21C73.7383 157.21 74.1719 159.21 74.2345 160.415C74.2971 161.621 75.0284 162.104 75.0284 162.104C77.0264 162.207 79.0462 161.421 80.9408 160.809C82.4054 160.337 84.1114 158.177 84.1114 158.177C84.1114 158.177 83.0824 156.18 80.2814 159.032Z" fill="#EDAC7C"/>
<path d="M135.219 165.36C135.219 165.36 144.38 172.683 146.565 176.97L136.934 183.922L129.645 173.143L135.219 165.36Z" fill="#122738"/>
<path d="M101.211 165.36C101.211 165.36 93.3322 169.221 88.6253 171.72L92.8705 182.111L106.324 177.151L101.211 165.36Z" fill="#122738"/>
<path d="M119.573 308.398C118.269 308.67 116.259 307.91 114.751 310.245C113.297 312.495 109.878 312.46 109.632 312.455C111.916 312.748 114.615 312.605 115.3 311.609C116.342 310.094 118.853 309.789 118.853 309.789C120.305 309.789 121.468 308.591 121.424 307.14C121.421 307.056 121.419 306.964 121.417 306.876C120.947 307.52 120.277 308.252 119.573 308.398Z" fill="#1C0906"/>
<path d="M257.519 127.672L258.603 128.056C259.754 128.464 260.357 129.728 259.949 130.879L259.555 131.991C259.148 133.142 257.884 133.745 256.732 133.337L255.648 132.953C254.498 132.545 253.895 131.281 254.303 130.13L254.696 129.018C255.104 127.867 256.368 127.264 257.519 127.672ZM270.036 98.0738C272.853 99.0711 274.626 100.836 275.356 103.368C275.94 105.368 275.852 107.443 275.09 109.593C273.817 113.187 270.978 116.029 266.574 118.117C265.038 118.846 263.968 119.947 263.362 121.422C263.148 121.909 262.932 122.458 262.715 123.069C262.308 124.221 261.044 124.823 259.893 124.416L258.809 124.031C257.658 123.624 257.055 122.36 257.463 121.208C258.624 117.929 260.293 115.779 262.47 114.755C264.821 113.649 266.643 112.304 267.935 110.717C268.68 109.792 269.26 108.746 269.673 107.579C270.099 106.375 270.165 105.335 269.871 104.459C269.559 103.452 268.813 102.822 267.631 102.57C266.529 102.326 265.51 102.789 264.574 103.959C264.527 104.015 264.481 104.073 264.435 104.133C263.766 105 262.557 105.242 261.603 104.702L260.668 104.173C259.509 103.519 259.184 101.994 259.979 100.927C260.768 99.867 261.719 99.0141 262.832 98.368C264.038 97.6691 265.48 97.3665 267.157 97.4601C268.039 97.5023 268.999 97.7064 270.036 98.0738Z" fill="#FCC822"/>
<path d="M181.813 130.942L183.397 131.252C185.08 131.581 186.178 133.214 185.848 134.896L185.53 136.521C185.201 138.204 183.569 139.301 181.887 138.972L180.302 138.662C178.619 138.333 177.522 136.701 177.851 135.019L178.169 133.393C178.499 131.71 180.129 130.612 181.813 130.942ZM193.105 87.2525C197.222 88.0583 200.048 90.1443 201.583 93.5098C202.807 96.1687 203.111 99.069 202.496 102.211C201.468 107.466 198.109 111.997 192.423 115.806C190.44 117.134 189.179 118.884 188.642 121.056C188.444 121.778 188.257 122.585 188.083 123.479C187.753 125.162 186.122 126.26 184.439 125.929L182.854 125.62C181.171 125.29 180.074 123.659 180.403 121.976C181.342 117.181 183.217 113.85 186.03 111.982C189.068 109.961 191.322 107.716 192.79 105.247C193.633 103.809 194.223 102.237 194.556 100.53C194.901 98.7699 194.778 97.3116 194.189 96.1553C193.55 94.8217 192.384 94.1003 190.689 93.994C189.107 93.8814 187.787 94.7337 186.729 96.5516C186.676 96.6395 186.623 96.7296 186.572 96.8218C185.821 98.1653 184.192 98.7488 182.755 98.1963L181.347 97.6544C179.604 96.9837 178.837 94.9322 179.722 93.2867C180.599 91.6518 181.745 90.271 183.158 89.145C184.69 87.926 186.63 87.2089 188.979 86.9935C190.212 86.8697 191.588 86.9555 193.105 87.2525Z" fill="#FCC822"/>
<path d="M156.263 159.082L157.377 158.796C158.559 158.492 159.765 159.205 160.068 160.387L160.361 161.53C160.665 162.712 159.953 163.918 158.769 164.221L157.655 164.508C156.473 164.811 155.267 164.099 154.964 162.915L154.671 161.773C154.367 160.591 155.08 159.386 156.263 159.082ZM150.14 127.533C153.034 126.79 155.49 127.266 157.508 128.959C159.109 130.294 160.193 132.065 160.76 134.274C161.708 137.968 160.938 141.91 158.448 146.1C157.579 147.561 157.305 149.072 157.625 150.634C157.719 151.158 157.846 151.734 158.007 152.363C158.311 153.546 157.598 154.751 156.415 155.054L155.302 155.34C154.119 155.644 152.914 154.931 152.61 153.748C151.745 150.379 151.93 147.662 153.166 145.6C154.501 143.37 155.262 141.237 155.449 139.199C155.551 138.016 155.448 136.825 155.141 135.625C154.823 134.388 154.298 133.488 153.564 132.925C152.744 132.263 151.774 132.157 150.651 132.608C149.601 133.02 149.013 133.972 148.889 135.465C148.882 135.538 148.876 135.611 148.871 135.687C148.8 136.781 147.931 137.655 146.838 137.74L145.767 137.823C144.441 137.925 143.32 136.841 143.384 135.512C143.448 134.192 143.761 132.954 144.325 131.797C144.937 130.544 145.964 129.488 147.408 128.63C148.164 128.173 149.074 127.807 150.14 127.533Z" fill="#FCC822"/>
<path d="M326.794 159.232L327.908 158.946C329.091 158.642 330.296 159.355 330.6 160.538L330.893 161.68C331.197 162.864 330.484 164.068 329.302 164.372L328.187 164.658C327.005 164.962 325.799 164.249 325.496 163.066L325.202 161.924C324.898 160.742 325.611 159.536 326.794 159.232ZM320.672 127.684C323.566 126.941 326.021 127.417 328.04 129.11C329.64 130.445 330.724 132.216 331.291 134.424C332.24 138.119 331.469 142.061 328.979 146.251C328.111 147.713 327.836 149.223 328.157 150.785C328.25 151.309 328.378 151.885 328.539 152.513C328.843 153.696 328.13 154.902 326.948 155.205L325.834 155.491C324.65 155.795 323.446 155.083 323.142 153.899C322.277 150.53 322.462 147.813 323.698 145.75C325.033 143.521 325.793 141.388 325.981 139.35C326.083 138.166 325.98 136.976 325.672 135.776C325.354 134.538 324.829 133.639 324.096 133.076C323.276 132.414 322.305 132.308 321.184 132.759C320.133 133.17 319.545 134.123 319.421 135.616C319.414 135.688 319.407 135.762 319.403 135.838C319.331 136.931 318.463 137.806 317.37 137.891L316.299 137.974C314.973 138.076 313.852 136.991 313.916 135.663C313.98 134.343 314.293 133.104 314.857 131.947C315.468 130.694 316.496 129.639 317.94 128.782C318.695 128.324 319.606 127.958 320.672 127.684Z" fill="#FCC822"/>
<path d="M200.657 201.03L205.351 181.204L196.814 180.882L192.329 199.183C192.012 200.474 192.086 201.831 192.54 203.08L200.699 225.531L210.47 224.588L200.657 201.03Z" fill="#A7A6BB"/>
<path d="M196.797 198.383C197.667 196.633 198.512 195.068 199.332 193.689C200.465 191.665 201.899 189.949 203.618 188.524L205.352 181.204L196.814 180.882L192.329 199.183C192.108 200.085 192.089 201.017 192.245 201.924C194.152 201.508 195.86 200.267 196.797 198.383Z" fill="#727293"/>
<path d="M208.975 266.433L208.767 267.396L207.676 272.46L202.845 294.873L202.318 297.308L202.201 297.857L201.229 308.501L200.085 308.848C197.179 309.73 194.212 309.539 191.622 308.477C190.561 308.042 189.48 306.983 188.726 306.141C187.873 305.187 187.182 304.092 186.647 302.93C185.111 299.589 184.756 295.784 184.675 292.151C184.648 290.923 184.655 289.695 184.655 288.466V276.423V265.893V262.067C185.542 262.067 186.538 261.956 187.251 261.908C187.892 261.866 189.044 261.651 189.704 261.651C192.292 260.763 194.962 261.006 197.46 260.702C198.647 260.558 199.795 260.489 200.876 260.444C202.383 260.384 203.76 260.474 204.936 260.765C207.401 261.379 208.975 262.998 208.975 266.433Z" fill="#1C1B2D"/>
<path d="M228.355 299.849L202.653 308.07L201.229 308.502L200.085 308.847C197.179 309.73 194.212 309.54 191.622 308.477C190.947 308.098 190.309 307.655 189.719 307.159C189.715 307.156 189.712 307.152 189.708 307.148C187.717 305.31 186.325 302.826 185.846 300.026L200.719 295.516L202.844 294.873L224.941 288.59L228.355 299.849Z" fill="#1C1B2D"/>
<path d="M241.966 301.703C241.636 300.269 241.058 298.494 240.93 297.934C240.44 295.785 239.714 293.687 239.096 291.573C238.87 290.799 238.595 290.264 238.5 290.095C238.452 290.017 238.459 290.021 238.5 290.095C238.569 290.208 238.749 290.486 239.101 290.969C238.456 290.086 237.938 289.255 237.511 288.254C237.029 287.123 236.659 285.992 236.381 284.865L220.492 289.61L224.09 301.659L231.544 299.433C232.004 299.296 232.489 299.557 232.626 300.017L233.393 302.587C233.631 303.383 233.974 304.118 234.387 304.797C234.819 304.646 235.26 304.52 235.711 304.423C237.681 303.999 239.559 303.301 241.445 302.626C241.605 302.312 241.777 302.003 241.966 301.703Z" fill="#361710"/>
<path d="M227.324 291.468C228.72 291.05 230.191 291.845 230.608 293.241C231.025 294.637 230.231 296.108 228.834 296.525C227.438 296.942 225.968 296.148 225.551 294.751C225.134 293.355 225.928 291.885 227.324 291.468Z" fill="white"/>
<path d="M233.462 302.798C235.038 307.663 240.217 310.405 245.143 308.934C245.603 308.796 245.864 308.312 245.727 307.853L243.337 299.849L233.462 302.798Z" fill="white"/>
<path d="M241.925 309.315C242.983 309.373 244.069 309.254 245.143 308.933C245.603 308.796 245.865 308.312 245.727 307.852L238.908 285.018C238.771 284.558 238.287 284.296 237.827 284.434L234.767 285.347L241.925 309.315Z" fill="white"/>
<path d="M228.091 227.818L226.706 230.655L219.447 245.52L207.502 269.99L184.969 260.864L191.868 245.177L196.817 233.931L204.394 216.704L228.091 227.818Z" fill="#A7A6BB"/>
<path d="M224.046 232.691C223.794 232.691 223.319 232.346 222.749 231.864C221.51 238.381 215.129 243.488 208.503 243.488C202.862 243.488 198.246 240.274 195.841 235.681L190.866 247.458L196.136 255.483C197.253 257.14 199.44 257.696 201.215 256.772L218.444 247.802L225.702 232.937C225.169 232.775 224.61 232.691 224.046 232.691Z" fill="#727293"/>
<path d="M216.678 236.269C215.374 236.269 214.131 236.08 212.95 235.759L198.489 265.379L185.329 260.049L184.97 260.864L207.501 269.99L225.48 233.166C222.958 235.098 219.848 236.269 216.678 236.269Z" fill="#727293"/>
<path d="M232.449 208.025C232.449 208.025 235.947 205.988 237.289 208.788C238.631 211.587 233.187 216.369 229.686 213.325L232.449 208.025Z" fill="#EDAC7C"/>
<path d="M231.402 210.034L229.978 212.762C233.243 214.806 237.218 210.713 235.872 209.384C234.784 208.309 232.47 209.376 231.402 210.034Z" fill="#F7A588"/>
<path d="M236.032 210.626C236.032 210.626 236.034 210.601 236.039 210.556C236.045 210.511 236.048 210.445 236.055 210.364C236.059 210.202 236.05 209.962 235.936 209.747C235.908 209.693 235.87 209.644 235.828 209.598C235.806 209.575 235.785 209.553 235.758 209.53L235.741 209.515L235.74 209.514C235.753 209.527 235.743 209.518 235.745 209.52L235.743 209.518L235.735 209.513L235.724 209.503L235.674 209.467C235.639 209.439 235.61 209.422 235.583 209.406C235.555 209.388 235.524 209.371 235.488 209.354C235.456 209.338 235.421 209.321 235.386 209.309C235.35 209.294 235.316 209.278 235.277 209.268C234.981 209.173 234.63 209.164 234.276 209.203C234.097 209.219 233.92 209.254 233.743 209.291C233.568 209.33 233.393 209.373 233.226 209.419C232.891 209.514 232.578 209.62 232.308 209.71C231.765 209.905 231.402 210.033 231.402 210.033C231.402 210.033 231.47 209.964 231.601 209.855C231.734 209.747 231.926 209.598 232.174 209.444C232.299 209.368 232.435 209.285 232.585 209.209C232.735 209.132 232.898 209.057 233.07 208.988C233.416 208.852 233.803 208.735 234.212 208.691C234.418 208.67 234.627 208.664 234.836 208.687C235.044 208.71 235.252 208.762 235.442 208.845C235.49 208.865 235.535 208.888 235.58 208.914C235.626 208.936 235.668 208.965 235.709 208.993C235.751 209.02 235.791 209.051 235.831 209.085C235.872 209.119 235.911 209.152 235.934 209.18L235.978 209.228L236.005 209.256L236.029 209.285C236.06 209.321 236.086 209.36 236.111 209.4C236.158 209.481 236.193 209.563 236.215 209.644C236.262 209.806 236.257 209.957 236.239 210.081C236.223 210.205 236.186 210.307 236.155 210.387C236.124 210.466 236.089 210.526 236.067 210.566C236.044 210.606 236.032 210.626 236.032 210.626Z" fill="#CF9166"/>
<path d="M211.149 199.209C211.149 199.209 210.114 195.297 207.187 196.329C204.258 197.36 204.73 204.591 209.359 204.913L211.149 199.209Z" fill="#EDAC7C"/>
<path d="M210.47 201.37L209.548 204.306C205.795 203.446 205.876 197.742 207.768 197.752C209.296 197.761 210.18 200.151 210.47 201.37Z" fill="#F7A588"/>
<path d="M206.777 198.517C206.777 198.517 206.792 198.499 206.82 198.463C206.849 198.427 206.891 198.378 206.946 198.317C207.056 198.198 207.231 198.034 207.466 197.963C207.523 197.945 207.584 197.937 207.648 197.934C207.679 197.935 207.711 197.932 207.742 197.936L207.767 197.938H207.768C207.749 197.938 207.765 197.938 207.761 197.938L207.764 197.938L207.773 197.939L207.787 197.941L207.849 197.95C207.893 197.954 207.926 197.964 207.957 197.972C207.989 197.978 208.023 197.988 208.06 198.002C208.095 198.013 208.13 198.026 208.164 198.042C208.199 198.057 208.234 198.071 208.269 198.091C208.546 198.232 208.802 198.474 209.025 198.752C209.139 198.89 209.241 199.04 209.34 199.191C209.436 199.342 209.529 199.496 209.614 199.647C209.784 199.952 209.931 200.247 210.059 200.501C210.306 201.024 210.47 201.371 210.47 201.371C210.47 201.371 210.471 201.272 210.456 201.103C210.44 200.935 210.408 200.691 210.341 200.407C210.307 200.265 210.268 200.11 210.216 199.95C210.163 199.79 210.104 199.622 210.03 199.451C209.882 199.111 209.691 198.756 209.432 198.434C209.303 198.275 209.156 198.122 208.992 197.991C208.829 197.859 208.646 197.749 208.453 197.675C208.405 197.654 208.355 197.64 208.306 197.626C208.258 197.609 208.209 197.598 208.158 197.591C208.111 197.58 208.061 197.574 208.007 197.569C207.954 197.565 207.904 197.561 207.866 197.565L207.804 197.565L207.764 197.567L207.728 197.57C207.679 197.574 207.631 197.584 207.585 197.594C207.497 197.619 207.414 197.653 207.34 197.693C207.193 197.775 207.09 197.885 207.015 197.985C206.938 198.085 206.893 198.182 206.858 198.261C206.824 198.341 206.806 198.407 206.794 198.451C206.782 198.494 206.777 198.517 206.777 198.517Z" fill="#CF9166"/>
<path d="M220.551 213.831L214.785 211.443C214.785 211.443 210.826 220.382 210.805 220.372C210.805 220.372 210.482 222.349 213.024 223.447C215.567 224.546 216.976 222.926 216.976 222.926C216.975 222.868 220.551 213.831 220.551 213.831Z" fill="#EDAC7C"/>
<path d="M218.698 218.629L212.541 216.49C212.541 216.49 211.167 219.637 211.145 219.628C211.145 219.628 210.908 221.207 213.449 222.307C215.992 223.405 217.318 222.045 217.318 222.045C217.317 221.987 218.698 218.629 218.698 218.629Z" fill="#CF9166"/>
<path d="M219.864 215.491L214.098 213.103C214.098 213.103 213.547 214.226 213.074 215.18C213.006 215.318 214.559 216.254 214.727 216.357C216.046 217.166 217.511 217.559 219.029 217.779C219.399 216.756 219.864 215.491 219.864 215.491Z" fill="#CF9166"/>
<path d="M234.965 198.979C229.905 198.979 225.666 196.396 223.11 192.55H209.173C208.916 193.389 208.682 194.302 208.479 195.315C206.947 202.946 208.947 212.875 216.643 216.06C224.339 219.246 233.374 214.041 236.35 206.851C237.435 204.229 237.607 201.448 237.024 198.815C236.343 198.922 235.655 198.979 234.965 198.979Z" fill="#3E150D"/>
<path d="M234.941 206.061C236.461 201.998 236.303 197.501 232.988 194.308C231.303 192.684 229.179 191.558 227.011 190.702C224.869 189.855 222.545 189.055 220.226 188.998C216.071 188.897 215.824 190.967 213.945 194.475C213.76 194.818 210.63 195.577 210.469 195.931C210.098 196.745 209.698 197.531 209.385 198.372C208.684 200.263 208.207 202.254 208.083 204.274C207.931 206.723 208.338 209.223 209.525 211.417C210.199 212.665 211.108 213.781 212.166 214.732C213.916 216.301 215.767 217.346 218.071 217.838C219.632 218.172 221.244 218.283 222.822 218.075C225.44 217.733 227.807 216.495 229.701 214.716C231.294 213.219 232.557 211.394 233.545 209.457C234.086 208.396 234.568 207.291 234.914 206.152C234.924 206.121 234.931 206.091 234.941 206.061Z" fill="#EDAC7C"/>
<path d="M224.652 205.146C224.137 206.266 224.553 207.557 225.582 208.03C226.612 208.503 227.864 207.977 228.38 206.857C228.896 205.737 228.48 204.447 227.451 203.974C226.421 203.501 225.168 204.026 224.652 205.146Z" fill="#CF9166"/>
<path d="M224.811 204.338C224.294 205.458 224.711 206.749 225.74 207.222C226.77 207.695 228.022 207.169 228.538 206.05C229.054 204.931 228.639 203.639 227.609 203.166C226.579 202.694 225.326 203.218 224.811 204.338Z" fill="black"/>
<path d="M225.703 204.083C225.516 204.488 225.7 204.971 226.113 205.16C226.526 205.35 227.011 205.176 227.199 204.769C227.385 204.364 227.201 203.882 226.789 203.692C226.377 203.502 225.89 203.677 225.703 204.083Z" fill="white"/>
<path d="M213.045 200.856C212.529 201.977 212.945 203.267 213.975 203.74C215.005 204.213 216.257 203.686 216.772 202.568C217.288 201.448 216.872 200.157 215.843 199.684C214.815 199.212 213.561 199.736 213.045 200.856Z" fill="#CF9166"/>
<path d="M213.264 200.381C212.747 201.502 213.164 202.792 214.193 203.265C215.223 203.738 216.475 203.213 216.991 202.093C217.507 200.974 217.091 199.682 216.062 199.209C215.033 198.737 213.779 199.262 213.264 200.381Z" fill="black"/>
<path d="M214.156 200.127C213.969 200.532 214.152 201.015 214.565 201.204C214.978 201.395 215.465 201.22 215.652 200.814C215.838 200.407 215.656 199.925 215.242 199.735C214.829 199.547 214.343 199.721 214.156 200.127Z" fill="white"/>
<path d="M220.395 201.137C220.395 201.137 219.721 205.527 218.488 205.13C216.098 204.366 215.373 209.612 219.337 208.165C220.834 207.62 221.6 201.339 221.6 201.339L220.395 201.137Z" fill="#F48470"/>
<path d="M212.734 198.491C212.734 198.491 212.809 198.429 212.958 198.347C213.033 198.308 213.126 198.256 213.236 198.214C213.345 198.166 213.471 198.124 213.613 198.082C213.754 198.04 213.91 198.005 214.075 197.977C214.242 197.952 214.42 197.926 214.605 197.922C214.789 197.909 214.979 197.918 215.174 197.93C215.37 197.939 215.564 197.979 215.761 198.005C215.952 198.049 216.145 198.095 216.331 198.149C216.514 198.211 216.694 198.277 216.863 198.345C217.031 198.423 217.189 198.504 217.338 198.582C217.487 198.661 217.616 198.756 217.737 198.834C217.856 198.917 217.968 198.991 218.056 199.074C218.145 199.15 218.221 199.222 218.284 199.279C218.407 199.394 218.472 199.467 218.472 199.467C218.472 199.467 218.374 199.443 218.215 199.391C218.134 199.366 218.037 199.335 217.929 199.297C217.824 199.255 217.699 199.221 217.564 199.178C217.431 199.139 217.293 199.083 217.14 199.041C216.987 198.998 216.83 198.952 216.668 198.9C216.502 198.858 216.333 198.819 216.162 198.77C215.99 198.733 215.815 198.695 215.639 198.658C215.551 198.643 215.463 198.628 215.376 198.613C215.287 198.599 215.201 198.579 215.113 198.571C215.026 198.562 214.939 198.549 214.854 198.537C214.768 198.523 214.684 198.522 214.599 198.511C214.432 198.492 214.269 198.485 214.113 198.475C214.035 198.467 213.96 198.471 213.887 198.467C213.812 198.465 213.741 198.46 213.672 198.462C213.535 198.461 213.407 198.46 213.295 198.463C213.18 198.464 213.081 198.471 212.997 198.473C212.917 198.48 212.848 198.48 212.805 198.486C212.758 198.489 212.734 198.491 212.734 198.491Z" fill="black"/>
<path d="M230.523 202.082C230.523 202.082 230.48 201.995 230.378 201.857C230.324 201.792 230.263 201.706 230.181 201.622C230.1 201.534 230.002 201.442 229.892 201.345C229.781 201.25 229.654 201.154 229.513 201.06C229.37 200.968 229.221 200.871 229.054 200.792C228.891 200.704 228.713 200.633 228.532 200.564C228.351 200.491 228.157 200.448 227.968 200.391C227.774 200.35 227.581 200.312 227.388 200.286C227.195 200.266 227.004 200.253 226.821 200.245C226.637 200.248 226.46 200.255 226.291 200.265C226.125 200.276 225.968 200.308 225.824 200.33C225.681 200.356 225.55 200.379 225.436 200.416C225.322 200.45 225.224 200.484 225.144 200.51C224.982 200.564 224.894 200.602 224.894 200.602C224.894 200.602 224.992 200.622 225.159 200.64C225.243 200.651 225.343 200.663 225.458 200.672C225.572 200.678 225.7 200.697 225.84 200.715C225.978 200.734 226.127 200.74 226.284 200.764C226.44 200.788 226.602 200.812 226.771 200.832C226.938 200.862 227.111 200.896 227.286 200.921C227.458 200.958 227.632 200.997 227.808 201.035C227.895 201.058 227.981 201.08 228.067 201.103C228.152 201.126 228.24 201.143 228.323 201.173C228.406 201.201 228.49 201.225 228.573 201.248C228.658 201.271 228.736 201.305 228.815 201.331C228.976 201.382 229.127 201.443 229.274 201.498C229.348 201.522 229.414 201.557 229.483 201.584C229.552 201.612 229.62 201.638 229.681 201.667C229.805 201.723 229.923 201.774 230.024 201.825C230.128 201.873 230.216 201.92 230.29 201.957C230.361 201.997 230.423 202.025 230.461 202.047C230.501 202.069 230.523 202.082 230.523 202.082Z" fill="black"/>
<path d="M235.096 206.275C235.096 206.275 235.935 204.81 236.75 202.8C235.893 204.833 235.096 206.275 235.096 206.275Z" fill="#CF9166"/>
<path d="M236.219 191.907C235.391 191.989 234.529 191.97 233.701 191.987C231.712 192.031 229.722 191.973 227.732 192.009C226.549 192.031 225.367 192.083 224.187 192.175C224.086 192.183 221.347 192.463 221.432 192.428C219.391 192.707 217.358 193.062 215.324 193.374C214.536 193.495 213.761 193.561 212.994 193.596C215.296 194.083 218.277 193.942 220.356 193.739C220.244 193.774 220.145 193.8 220.024 193.842C217.876 194.572 219.651 196.962 223.42 198.569C228.635 200.792 233.362 199.911 233.362 199.911C233.362 199.911 232.519 201.441 232.336 204.136C232.211 205.981 232.668 208.241 232.968 209.483C233.107 210.054 233.212 210.411 233.212 210.411L232.526 211.644C232.526 211.644 234.042 209.081 236.747 205.745C242.383 198.794 241.79 194.76 240.702 192.798C239.174 192.719 237.656 192.43 236.219 191.907Z" fill="#361710"/>
<path d="M235.853 200.75C235.853 200.75 224.638 201.233 205.917 193.789C196.96 190.227 211.613 189.974 211.613 189.974L228.946 189.577L235.853 200.75Z" fill="#2D2C44"/>
<path d="M238.144 204.02C238.144 204.02 237.488 202.637 235.853 200.75C233.972 198.579 230.795 195.739 225.835 193.578C216.573 189.541 211.613 189.975 211.613 189.975C211.613 189.975 212.367 184.535 219.537 181.827C222.323 180.775 225.192 180.493 227.935 180.94C232.538 181.689 236.788 184.488 239.7 189.138C244.324 196.522 238.144 204.02 238.144 204.02Z" fill="#2D2C44"/>
<path d="M235.853 200.75C233.972 198.578 230.795 195.739 225.836 193.578C216.573 189.54 211.613 189.974 211.613 189.974C211.613 189.974 212.367 184.535 219.537 181.827C222.323 180.774 225.193 180.493 227.935 180.94C230.307 181.969 232.551 183.573 234.52 185.744C239.792 191.557 236.724 198.955 235.853 200.75Z" fill="#A7A6BB"/>
<path d="M234.212 208.691C234.212 208.691 226.53 211.719 223.386 214.033C222.56 214.642 222.117 216.704 219.42 216.704C216.08 216.704 216.606 215.109 214.417 213.598C213.193 212.752 210.595 211.895 209.859 210.833C208.239 208.499 208.251 200.993 208.251 200.993C208.251 200.993 206.024 206.814 207.72 212.337C208.449 214.71 209.375 220.882 217.614 221.186C225.407 221.474 226.622 219.076 228.142 217.509C229.662 215.944 234.212 208.691 234.212 208.691Z" fill="#361710"/>
<path d="M181.412 203.364L184.515 204.908C187.811 206.546 189.154 210.547 187.516 213.843L185.933 217.026C184.294 220.321 180.293 221.665 176.998 220.026L173.895 218.482C170.599 216.843 169.256 212.843 170.894 209.547L172.477 206.365C174.116 203.069 178.117 201.726 181.412 203.364Z" fill="#FCC822"/>
<path d="M189.047 223.874L187.969 221.503C187.701 220.709 187.601 219.868 187.676 219.033L188.155 213.7C188.219 213.004 188.003 212.31 187.555 211.773L183.26 206.612C182.986 206.283 182.469 206.323 182.248 206.69C182.118 206.909 182.133 207.184 182.288 207.387L184.279 209.997L182.433 208.531C182.075 208.247 181.544 208.397 181.388 208.826C181.296 209.082 181.367 209.369 181.569 209.55L184.452 212.153L181.73 210.386C181.355 210.141 180.85 210.311 180.697 210.732C180.583 211.048 180.711 211.401 181.001 211.571L183.501 213.028L180.836 212.137C180.514 212.03 180.165 212.199 180.05 212.517C179.944 212.81 180.069 213.137 180.343 213.283L181.877 214.1C182.895 214.644 183.443 215.785 183.23 216.919L182.731 219.581C182.449 221.089 182.752 222.649 183.58 223.942L184.932 226.053L189.047 223.874Z" fill="#EDAC7C"/>
<path d="M222.799 227.924L204.36 237.797C203.137 238.453 201.615 238.057 200.865 236.889L190.086 220.273L182.062 224.644L197.588 250.036C198.706 251.694 200.891 252.249 202.666 251.326L228.15 238.057C230.674 236.743 231.851 233.775 230.913 231.088C229.753 227.765 225.901 226.263 222.799 227.924Z" fill="#A7A6BB"/>
<path d="M211.915 260.787C211.915 270.831 203.773 278.976 193.725 278.976L176.138 277.406L163.573 276.283V273.351C163.573 266.411 169.199 260.787 176.138 260.787H211.915Z" fill="#2D2C44"/>
<path d="M175.777 260.787V309.593L164.754 307.313L163.348 273.352C163.348 266.412 168.674 260.787 175.777 260.787Z" fill="#2D2C44"/>
<path d="M156.952 300.837C151.84 300.955 147.731 305.133 147.731 310.274C147.731 310.754 148.12 311.144 148.6 311.144H156.952V300.837Z" fill="white"/>
<path d="M163.653 292.182V299.963C163.653 300.442 163.263 300.831 162.784 300.831H157.174C156.885 300.831 156.6 300.844 156.318 300.87V308.443H176.228V292.182H163.653Z" fill="#361710"/>
<path d="M172.493 298.198C172.493 299.655 171.312 300.837 169.855 300.837C168.397 300.837 167.216 299.655 167.216 298.198C167.216 296.741 168.397 295.559 169.855 295.559C171.312 295.559 172.493 296.741 172.493 298.198Z" fill="white"/>
<path d="M148.286 307.081C147.928 308.078 147.731 309.153 147.731 310.274C147.731 310.754 148.12 311.142 148.6 311.142H175.359C175.839 311.142 176.228 310.754 176.228 310.274V307.081H148.286Z" fill="white"/>
<path d="M229.634 119.367C237.696 123.376 242.359 129.302 243.622 137.141C244.641 143.339 243.622 149.514 240.562 155.667C235.444 165.957 225.917 173.427 211.981 178.074C207.121 179.694 203.518 182.6 201.169 186.79C200.349 188.169 199.505 189.733 198.634 191.485C196.995 194.78 192.995 196.124 189.699 194.484L186.596 192.941C183.3 191.303 181.957 187.302 183.595 184.007C188.265 174.617 194.041 168.79 200.925 166.523C208.363 164.069 214.303 160.704 218.746 156.429C221.31 153.933 223.424 151.015 225.086 147.673C226.8 144.225 227.376 141.137 226.814 138.409C226.249 135.285 224.246 133.13 220.799 131.944C217.591 130.813 214.374 131.826 211.149 134.986C210.989 135.138 210.829 135.294 210.67 135.455C208.352 137.809 204.649 138.091 201.99 136.129L199.384 134.207C196.157 131.827 195.738 127.145 198.504 124.243C201.252 121.358 204.407 119.153 207.972 117.626C211.835 115.975 216.26 115.594 221.243 116.485C223.866 116.929 226.663 117.889 229.634 119.367Z" fill="#FCC822"/>
<path d="M216.721 214.342C216.939 214.342 217.126 214.194 217.181 213.983C217.398 213.144 218.154 212.523 219.061 212.523C219.969 212.523 220.725 213.144 220.942 213.983C220.996 214.194 221.184 214.342 221.401 214.342C221.706 214.342 221.947 214.057 221.872 213.76C221.555 212.5 220.421 211.565 219.061 211.565C217.702 211.565 216.568 212.5 216.25 213.76C216.176 214.057 216.416 214.342 216.721 214.342Z" fill="#F05B4E"/>
<path d="M225.165 213.501C224.722 211.396 223.231 209.656 221.233 208.895C220.857 208.752 220.431 208.82 220.133 209.089C219.802 209.386 219.442 209.705 219.061 209.705C218.661 209.705 218.283 209.37 217.939 209.059C217.646 208.793 217.229 208.719 216.856 208.854C215.056 209.5 213.622 210.945 213.002 212.786C212.809 213.357 213.089 214.017 213.665 214.19C214.23 214.359 214.787 214.042 214.957 213.513C215.534 211.715 217.257 210.458 219.23 210.572C221.204 210.686 222.771 212.133 223.137 213.985C223.229 214.45 223.619 214.794 224.091 214.822H224.092C224.786 214.822 225.308 214.181 225.165 213.501Z" fill="#361710"/>
<path d="M184.969 260.865C184.969 260.865 198.153 261.217 203.893 266.088C209.633 270.958 210.938 271.045 210.938 271.045C210.938 271.045 211.771 261.244 214.878 254.88C217.985 248.517 214.069 250.258 213.287 251.215C212.504 252.171 202.676 260.427 202.676 260.427L200.731 260.788L184.969 260.865Z" fill="#727293"/>
<path d="M263.143 164.456C263.143 164.456 262.274 167.787 263.704 168.547C265.135 169.308 268.791 169.706 268.827 168.547C268.863 167.388 269.877 166.266 268.067 165.469C266.256 164.673 264.12 164.456 264.12 164.456H263.143Z" fill="#C9BDBD"/>
<path d="M298.141 125.402C298.104 125.409 298.067 125.417 298.029 125.426C297.734 125.489 297.561 125.549 297.561 125.549V125.562C297.492 125.588 297.421 125.61 297.352 125.64C293.546 127.342 293.546 130.825 293.546 130.825L295.895 137.792C295.895 137.792 296.551 137.823 297.535 137.733L297.466 169.285L297.808 169.48C300.357 170.943 303.491 170.95 306.046 169.495L306.418 169.285C306.418 169.285 306.874 156.609 307.043 139.382C307.187 124.718 300.219 124.996 298.141 125.402Z" fill="#161616"/>
<path d="M292.597 130.376L294.004 128.521C294.183 128.286 294.513 128.23 294.756 128.397C296.293 129.454 301.305 133.288 300.621 137.905L292.597 130.376Z" fill="white"/>
<path d="M286.689 159.794C286.692 159.776 288.128 159.615 288.214 159.599C289.47 159.369 290.702 158.991 291.872 158.48C295.487 156.899 298.267 153.983 299.642 150.277C300.629 147.615 300.906 144.735 300.799 141.914C300.642 137.775 299.686 133.253 296.042 130.724C292.938 128.571 291.418 129.225 291.418 129.225C291.418 129.225 286.691 159.784 286.689 159.794Z" fill="#161616"/>
<path d="M287.534 154.493L281.213 154.092C281.213 154.092 280.343 163.975 280.319 163.974C280.319 163.974 280.658 165.977 283.46 166.199C286.262 166.419 287.085 164.402 287.085 164.402C287.065 164.345 287.534 154.493 287.534 154.493Z" fill="#F8D0B7"/>
<path d="M283.686 162.151C281.612 161.987 280.859 161.26 280.608 160.894C280.87 157.994 281.213 154.092 281.213 154.092L287.534 154.493C287.534 154.493 287.354 158.268 287.222 161.158C287.05 161.383 286.166 162.346 283.686 162.151Z" fill="#EFBDAC"/>
<path d="M284.83 157.653L278.509 157.252C278.509 157.252 278.348 158.512 278.208 159.582C278.186 159.738 279.985 160.128 280.181 160.171C281.712 160.514 283.249 160.412 284.779 160.124C284.799 159.02 284.83 157.653 284.83 157.653Z" fill="#CF9166"/>
<path d="M270.874 139.555C271.051 138.285 271.185 137.208 272.207 136.008C274.706 133.074 278.693 131.399 282.521 131.405C288.28 131.415 294.25 133.622 295.79 139.645C296.317 141.708 296.329 143.872 296.125 145.991C295.804 149.334 294.909 152.713 292.892 155.399C290.475 158.617 286.481 160.589 282.456 160.551C276.311 160.494 271.393 157.192 269.74 151.831C268.55 147.973 269.661 144.95 270.58 141.197C270.724 140.605 270.803 140.065 270.874 139.555Z" fill="#F8D0B7"/>
<path d="M298.268 146.69C298.282 146.708 298.299 146.733 298.299 146.733C298.299 146.733 298.297 146.707 298.29 146.657C298.283 146.609 298.272 146.534 298.241 146.443C298.209 146.353 298.167 146.239 298.082 146.119C297.999 145.999 297.88 145.863 297.692 145.75C297.6 145.692 297.491 145.642 297.37 145.6C297.31 145.581 297.247 145.562 297.18 145.55L297.13 145.54L297.075 145.531L296.989 145.519C296.936 145.509 296.865 145.504 296.791 145.501C296.717 145.495 296.645 145.494 296.577 145.497C296.506 145.497 296.434 145.5 296.363 145.508C296.292 145.515 296.221 145.522 296.15 145.535C296.068 145.549 295.99 145.572 295.909 145.592C295.916 145.051 295.897 144.511 295.844 143.975C296.544 143.876 297.328 143.944 298.197 144.309C301.86 145.847 300.047 152.87 294.268 153.162C294.417 152.851 294.551 152.536 294.676 152.217C297.772 151.319 298.912 148.27 298.268 146.69Z" fill="#F8D0B7"/>
<path d="M296.472 145.98C296.524 145.969 296.575 145.962 296.627 145.956C296.68 145.947 296.729 145.943 296.775 145.94C296.82 145.937 296.867 145.933 296.93 145.936L297.017 145.937L297.039 145.938H297.05H297.055C297.05 145.937 297.07 145.939 297.045 145.936H297.047L297.081 145.939C297.127 145.941 297.17 145.948 297.214 145.953C297.3 145.967 297.384 145.988 297.461 146.016C297.77 146.135 297.98 146.341 298.107 146.487C298.171 146.562 298.22 146.622 298.251 146.667C298.262 146.682 298.261 146.679 298.268 146.689C298.912 148.269 297.772 151.319 294.676 152.216C295.267 150.713 295.615 149.122 295.789 147.539C295.839 147.085 295.875 146.629 295.895 146.172C296.035 146.113 296.174 146.05 296.316 146.014C296.368 145.999 296.42 145.99 296.472 145.98Z" fill="#FFB7A1"/>
<path d="M296.364 145.508C296.435 145.499 296.506 145.497 296.576 145.496C296.645 145.493 296.716 145.495 296.791 145.5C296.865 145.504 296.937 145.509 296.989 145.519L297.074 145.531L297.13 145.54L297.18 145.55C297.246 145.562 297.31 145.581 297.371 145.6C297.491 145.642 297.6 145.692 297.692 145.75C297.88 145.863 297.999 145.998 298.082 146.119C298.167 146.239 298.21 146.352 298.241 146.443C298.272 146.534 298.283 146.609 298.291 146.657C298.296 146.707 298.299 146.733 298.299 146.733C298.299 146.733 298.281 146.708 298.268 146.69C298.26 146.68 298.262 146.682 298.251 146.667C298.22 146.622 298.17 146.562 298.108 146.488C297.98 146.341 297.771 146.135 297.46 146.017C297.384 145.988 297.3 145.968 297.214 145.954C297.17 145.949 297.127 145.942 297.081 145.94L297.047 145.937H297.045C297.07 145.94 297.05 145.937 297.055 145.938H297.05H297.039L297.017 145.937L296.93 145.936C296.867 145.933 296.82 145.937 296.775 145.941C296.729 145.943 296.68 145.947 296.627 145.956C296.575 145.963 296.523 145.969 296.471 145.98C296.42 145.99 296.367 145.999 296.317 146.015C296.174 146.051 296.035 146.113 295.895 146.172C295.904 145.98 295.908 145.786 295.91 145.592C295.99 145.572 296.069 145.549 296.15 145.536C296.22 145.522 296.293 145.515 296.364 145.508Z" fill="#FFA792"/>
<path d="M279.76 145.766C279.76 145.766 279.92 148.53 278.638 148.233C276.157 147.663 275.868 153.03 279.755 151.231C281.222 150.553 280.996 145.869 280.996 145.869L279.76 145.766Z" fill="#F48470"/>
<path d="M275.476 153.097C275.403 154.249 274.395 155.122 273.224 155.047C272.053 154.973 271.162 153.98 271.234 152.828C271.308 151.677 272.316 150.804 273.487 150.878C274.658 150.953 275.549 151.946 275.476 153.097Z" fill="#FFB7A1"/>
<path d="M290.771 152.72C290.698 153.872 289.69 154.745 288.517 154.67C287.348 154.596 286.457 153.604 286.529 152.453C286.603 151.301 287.611 150.428 288.781 150.502C289.953 150.576 290.845 151.57 290.771 152.72Z" fill="#FFB7A1"/>
<path d="M271.704 144.086C271.704 144.086 271.764 144.008 271.894 143.894C271.959 143.837 272.039 143.765 272.139 143.699C272.236 143.628 272.351 143.556 272.482 143.484C272.612 143.411 272.759 143.34 272.916 143.276C273.075 143.214 273.245 143.148 273.428 143.103C273.607 143.049 273.798 143.015 273.993 142.984C274.189 142.948 274.39 142.945 274.59 142.927C274.79 142.927 274.991 142.929 275.187 142.941C275.383 142.961 275.575 142.986 275.758 143.015C275.941 143.056 276.116 143.1 276.28 143.143C276.447 143.19 276.595 143.253 276.733 143.305C276.87 143.36 276.996 143.408 277.102 143.47C277.208 143.526 277.299 143.58 277.374 143.623C277.521 143.708 277.602 143.765 277.602 143.765C277.602 143.765 277.5 143.764 277.33 143.749C277.246 143.742 277.143 143.733 277.026 143.719C276.913 143.701 276.781 143.695 276.639 143.684C276.498 143.675 276.348 143.65 276.188 143.642C276.028 143.634 275.861 143.625 275.689 143.609C275.516 143.604 275.34 143.604 275.159 143.594C274.981 143.596 274.8 143.597 274.617 143.6C274.526 143.604 274.435 143.61 274.346 143.615C274.255 143.62 274.165 143.62 274.077 143.632C273.988 143.642 273.9 143.649 273.812 143.656C273.724 143.661 273.641 143.68 273.555 143.689C273.384 143.706 273.222 143.736 273.065 143.76C272.986 143.77 272.912 143.792 272.839 143.803C272.765 143.818 272.693 143.829 272.626 143.847C272.49 143.876 272.363 143.904 272.253 143.933C272.139 143.959 272.042 143.989 271.959 144.01C271.882 144.035 271.814 144.049 271.773 144.065C271.727 144.079 271.704 144.086 271.704 144.086Z" fill="#161616"/>
<path d="M288.487 143.167C288.487 143.167 288.424 143.091 288.291 142.98C288.223 142.928 288.142 142.858 288.041 142.794C287.941 142.727 287.822 142.658 287.691 142.589C287.559 142.522 287.41 142.457 287.249 142.397C287.086 142.341 286.915 142.28 286.732 142.242C286.551 142.193 286.359 142.165 286.163 142.14C285.967 142.111 285.765 142.114 285.566 142.102C285.364 142.109 285.165 142.117 284.969 142.136C284.773 142.162 284.582 142.194 284.399 142.23C284.218 142.276 284.045 142.326 283.881 142.374C283.719 142.425 283.572 142.494 283.435 142.549C283.299 142.609 283.175 142.663 283.073 142.726C282.969 142.786 282.878 142.843 282.807 142.888C282.66 142.979 282.581 143.038 282.581 143.038C282.581 143.038 282.683 143.035 282.852 143.013C282.937 143.004 283.04 142.992 283.155 142.974C283.269 142.952 283.399 142.942 283.541 142.925C283.681 142.912 283.831 142.884 283.992 142.87C284.152 142.857 284.317 142.841 284.488 142.82C284.66 142.811 284.839 142.803 285.018 142.787C285.197 142.783 285.378 142.78 285.56 142.775C285.651 142.777 285.741 142.779 285.832 142.782C285.921 142.784 286.011 142.781 286.101 142.791C286.19 142.798 286.278 142.803 286.366 142.805C286.454 142.808 286.54 142.824 286.624 142.83C286.796 142.842 286.958 142.867 287.117 142.886C287.195 142.892 287.269 142.912 287.343 142.922C287.418 142.933 287.49 142.943 287.558 142.957C287.694 142.983 287.823 143.006 287.934 143.032C288.048 143.054 288.146 143.08 288.227 143.098C288.308 143.122 288.375 143.134 288.419 143.148C288.463 143.159 288.487 143.167 288.487 143.167Z" fill="#050607"/>
<path d="M284.467 145.876C284.253 146.666 284.722 147.466 285.513 147.664C286.303 147.862 287.117 147.382 287.328 146.592C287.542 145.803 287.074 145.002 286.283 144.804C285.493 144.607 284.679 145.087 284.467 145.876Z" fill="#050607"/>
<path d="M285.062 145.612C284.985 145.898 285.18 146.194 285.497 146.273C285.814 146.353 286.133 146.186 286.211 145.899C286.287 145.614 286.092 145.317 285.776 145.239C285.459 145.158 285.139 145.327 285.062 145.612Z" fill="white"/>
<path d="M276.064 145.533C276.277 146.322 275.809 147.123 275.018 147.321C274.227 147.519 273.414 147.039 273.202 146.249C272.989 145.459 273.457 144.659 274.248 144.461C275.038 144.264 275.852 144.744 276.064 145.533Z" fill="#050607"/>
<path d="M275.469 145.268C275.546 145.554 275.351 145.85 275.034 145.929C274.717 146.009 274.397 145.842 274.321 145.555C274.243 145.27 274.438 144.973 274.755 144.895C275.072 144.814 275.392 144.983 275.469 145.268Z" fill="white"/>
<path d="M289.768 139.111C289.768 139.111 294.725 154.284 290.189 158.821C290.189 158.821 296.778 155.21 297.377 138.651L289.768 139.111Z" fill="#161616"/>
<path d="M296.45 142.273C298.153 141.999 298.272 134.738 298.013 133.748C297.125 130.345 292.266 128.254 289.3 127.141C284.627 125.389 278.752 125.102 274.526 128.137C272.261 129.765 271.149 132.055 270.092 134.551C269.897 135.011 267.787 140.815 267.774 140.815C267.775 140.815 283.865 141.634 283.739 141.627L285.26 141.704C285.26 141.704 295.253 142.465 296.45 142.273Z" fill="#161616"/>
<path d="M309.094 187.417H308.989C307.76 187.422 306.562 187.854 305.501 188.488C306.629 189.965 307.895 191.325 309.523 192.271C309.631 192.334 309.734 192.388 309.835 192.439C310.045 192.197 310.241 191.944 310.415 191.674C311.545 189.925 311.706 187.457 309.094 187.417Z" fill="#E8B79E"/>
<path d="M273.432 232.216C273.432 232.216 274.239 256.978 274.292 259.284C274.346 261.589 277.551 282.226 277.939 287.283C278.328 292.34 276.939 302.729 275.814 306.872L274.448 310.386C274.448 310.386 278.829 312.139 280.532 311.376C283.212 310.174 283.749 305.916 284.424 303.411C285.139 300.755 285.669 298.004 285.556 295.241C285.446 292.584 283.987 290.567 283.431 288.034C281.915 281.137 284.495 274 284.864 267.099C285.192 260.942 284.365 254.799 283.443 248.726C282.583 243.061 285.206 238.044 284.935 232.442C284.935 232.442 274.486 224.999 273.315 231.042" fill="#EFC8B1"/>
<path d="M275.331 308.112C275.263 308.417 276.158 308.74 276.36 308.831C277.836 309.5 280.177 310.145 281.392 308.647C282.877 306.823 283.217 303.659 283.846 301.457C284.558 298.964 285.298 296.098 285.078 293.48L284.974 292.246C284.974 292.246 288.446 294.367 288.227 297.312C288.008 300.257 285.047 305.195 284.862 308.275C284.748 310.173 283.825 312.061 282.274 313.188C279.904 314.911 275.812 314.789 273.278 313.489C272.342 313.009 271.603 310.776 272.83 310.211C274.36 309.508 276.835 302.316 276.577 302.074L275.813 306.871C275.813 306.871 275.331 308.109 275.331 308.112Z" fill="#122738"/>
<path d="M288.063 298.04C288.063 298.04 287.079 304.379 287.553 307.926L286.52 308.267L285.491 303.511L288.063 298.04Z" fill="#312E2F"/>
<path d="M296.929 298.04C296.929 298.04 296.098 307.53 296.572 311.078L295.063 311.12L294.357 303.511L296.929 298.04Z" fill="#0C1B26"/>
<path d="M281.284 232.216C281.284 232.216 283.104 256.978 283.158 259.284C283.211 261.589 286.416 282.226 286.805 287.283C287.193 292.34 285.805 302.729 284.679 306.872L283.313 310.386C283.313 310.386 287.696 312.139 289.398 311.376C292.078 310.174 292.615 305.916 293.29 303.411C294.005 300.755 294.535 298.004 294.422 295.241C294.313 292.584 292.852 290.567 292.296 288.034C290.781 281.137 293.361 274 293.729 267.099C294.058 260.942 293.23 254.799 292.309 248.726C291.449 243.061 294.071 238.044 293.8 232.442C293.8 232.442 282.339 224.999 281.167 231.042" fill="#F8D0B7"/>
<path d="M284.197 308.112C284.129 308.417 285.024 308.74 285.226 308.831C286.702 309.5 289.043 310.145 290.258 308.647C291.743 306.823 292.083 303.659 292.712 301.457C293.424 298.964 294.164 296.098 293.944 293.48L293.84 292.246C293.84 292.246 297.311 294.367 297.093 297.312C296.874 300.257 293.913 305.195 293.728 308.275C293.614 310.173 292.691 312.061 291.14 313.188C288.77 314.911 284.678 314.789 282.144 313.489C281.208 313.009 280.469 310.776 281.696 310.211C283.226 309.508 285.701 302.316 285.443 302.074L284.679 306.871C284.679 306.871 284.197 308.109 284.197 308.112Z" fill="#122738"/>
<path d="M292.868 179.011C293.73 174.94 296.744 170.779 296.928 169.865C292.177 165.118 287.937 163.433 286.939 163.122L281.031 163.148C279.451 163.79 277.858 164.401 276.272 165.03C275.676 165.266 275.12 165.391 274.744 165.909C274.284 166.544 274.049 167.632 273.746 168.368C272.916 170.381 272.062 172.423 271.653 174.579C271.388 175.971 271.718 177.471 272.281 179.011H292.868Z" fill="#F8D0B7"/>
<path d="M298.785 210.11C296.909 204.743 294.379 199.561 293.433 193.916C290.145 195.31 277.642 194.884 275.205 192.728C274.671 199.742 271.074 206.447 269.366 213.276C268.299 217.544 267.408 221.883 267.247 226.29C267.081 230.901 268.743 244.897 269.081 250.048C282.622 258.81 298.011 250.406 298.624 248.817C301.842 240.486 301.685 228.024 300.889 219.05C300.615 215.949 299.796 213.003 298.785 210.11Z" fill="#122738"/>
<path d="M269.366 213.276C269.295 213.558 269.228 213.842 269.159 214.125C273.971 216.7 292.726 218.25 299.811 213.356C299.507 212.264 299.16 211.183 298.785 210.11C296.983 204.955 294.581 199.967 293.555 194.579L290.688 194.514C287.725 194.856 283.455 194.773 280.084 194.274L276.148 194.184C276.148 194.184 274.73 204.932 270.163 210.477C269.871 211.409 269.6 212.341 269.366 213.276Z" fill="#0B1C28"/>
<path d="M280.598 173.381C280.586 173.178 280.561 172.981 280.535 172.783C280.53 172.75 280.525 172.718 280.519 172.685C280.173 170.365 278.845 168.424 277.139 167.13C274.997 165.58 272.716 164.245 270.47 162.856C265.961 160.12 262.094 157.917 257.532 155.267C256.118 152.657 254.683 150.064 253.188 147.512C252.433 146.237 251.678 144.962 250.829 143.752C249.874 142.637 249.177 141.346 248.495 140.017C247.118 137.385 245.931 134.579 244.036 132.307C243.001 131.117 241.874 130.032 240.695 129.01C240.801 129.195 244.37 135.419 244.004 141.656C244.004 141.656 243.997 141.658 243.992 141.659C244.42 141.911 244.845 142.177 245.274 142.428L245.736 142.708L245.967 142.848C246.053 142.892 246.126 142.945 246.124 142.992C246.244 143.241 246.362 143.664 246.468 144.013C246.893 145.49 247.332 146.971 247.851 148.411C248.885 151.285 250.18 154.054 251.974 156.42C252.871 157.594 253.879 158.695 255.029 159.592C256.158 160.506 257.306 161.397 258.46 162.276C260.773 164.032 262.452 165.252 264.871 166.855C267.294 168.454 269.767 169.981 272.347 171.326C274.954 172.621 277.619 173.84 280.612 174.295C280.614 174.243 280.608 174.193 280.609 174.141C280.618 173.996 280.622 173.733 280.598 173.381Z" fill="#EFC8B1"/>
<path d="M242.327 132.329C242.246 133.227 241.746 135.52 241.407 136.336C240.762 136.239 240.13 135.972 239.571 135.635C238.949 135.282 238.471 134.76 237.872 134.299C237.57 134.08 237.245 133.886 236.875 133.76C236.503 133.661 236.083 133.541 235.591 133.854C235.534 133.898 235.454 133.965 235.418 134.093C235.37 134.226 235.407 134.266 235.407 134.354C235.439 134.473 235.484 134.573 235.533 134.661C235.632 134.835 235.741 134.993 235.857 135.14C236.088 135.438 236.335 135.711 236.588 135.979C237.579 137.058 238.696 138.009 239.723 139.023L240.48 139.814C240.753 140.085 241.072 140.293 241.403 140.467C242.065 140.815 242.776 141.028 243.418 141.332C243.648 141.449 243.873 141.586 244.099 141.721V134.847C243.222 134.587 243.099 132.774 242.327 132.329Z" fill="#EFC8B1"/>
<path d="M264.894 159.539C264.894 159.539 266.094 161.487 265.714 165.397C265.334 169.307 263.704 168.547 263.704 168.547C263.704 168.547 267.778 171.642 271.85 173.815C275.924 175.987 275.761 165.614 275.761 165.614C275.761 165.614 265.323 158.244 264.894 159.539Z" fill="white"/>
<path d="M275.125 193.906C275.11 194.184 274.987 194.535 275.183 194.671C281.441 198.973 293.574 194.485 293.487 193.952C293.066 191.385 292.998 188.733 293.491 186.171C294.601 180.401 298.86 174.808 296.996 168.736C296.989 168.714 296.983 168.693 296.975 168.672C296.348 166.801 290.167 164.632 289.629 164.283C289.811 164.758 289.312 165.307 289.141 165.521C288.298 166.569 286.973 167.223 285.708 167.595C284.239 168.027 282.697 168.201 281.169 168.142C280.312 168.108 279.451 167.999 278.61 167.827C278.094 167.722 277.457 167.557 277.113 167.133C276.48 166.354 277.078 165.22 277.469 164.466C277.469 164.466 276.721 164.746 275.762 164.764C274.571 164.787 270.928 162.371 270.928 162.371C270.257 164.435 271.284 172.652 270.485 174.653C269.983 175.912 269.72 177.298 269.965 178.632C270.363 180.787 271.976 182.426 272.667 184.468C273.544 187.06 275.274 191.083 275.125 193.906Z" fill="white"/>
<path d="M274.893 191.433C274.893 191.433 273.137 204.753 267.236 209.388C262.818 212.857 290.483 216.797 298.907 210.351C299.265 210.076 299.318 209.553 299.025 209.209C298.561 208.662 297.846 207.528 296.928 205.177C295.221 200.807 293.228 191.848 293.228 191.848L274.893 191.433Z" fill="white"/>
<path d="M312.002 192.312C311.553 192.875 310.776 193 309.524 192.271C307.83 191.287 306.526 189.856 305.364 188.311C303.884 186.34 302.122 184.592 300.437 182.787C298.162 180.349 295.775 177.955 293.687 175.353C291.981 173.229 290.622 171.615 291.418 168.65C291.539 168.198 291.715 167.749 292.025 167.394C292.494 166.855 293.24 166.716 293.919 166.796C295.614 167 296.748 168.193 297.811 169.38C298.919 170.617 300.15 171.755 301.311 172.944C303.789 175.485 306.211 178.101 308.254 181.007C309.586 182.902 311.006 184.777 311.929 186.919C312.867 189.096 312.919 191.165 312.002 192.312Z" fill="#EFC8B1"/>
<path d="M309.094 187.417H308.989C307.76 187.422 306.562 187.854 305.501 188.488C306.629 189.965 307.895 191.325 309.523 192.271C309.631 192.334 309.734 192.388 309.835 192.439C310.045 192.197 310.241 191.944 310.415 191.674C311.545 189.925 311.706 187.457 309.094 187.417Z" fill="#E8B79E"/>
<path d="M310.261 187.966C310.226 187.971 310.191 187.976 310.157 187.981C308.788 188.188 307.539 188.922 306.508 189.849C304.315 191.819 302.511 194.408 300.549 196.616C299.02 198.336 297.49 200.241 295.8 201.909C295.906 202.022 295.996 202.149 296.063 202.296C296.723 203.757 296.969 204.664 297.878 205.986C299.525 203.029 306.413 198.748 310.245 194.662C311.001 193.854 311.726 192.994 312.186 191.987C313.05 190.093 312.851 187.627 310.261 187.966Z" fill="#EFC8B1"/>
<path d="M295.703 204.296C295.701 204.3 293.839 206.45 293.48 206.414C293.121 206.379 292.648 205.918 292.648 205.918L295.09 202.739C295.09 202.739 292.515 205.179 291.889 205.219C291.263 205.261 290.795 204.749 290.795 204.749L294.093 201.293C294.093 201.293 291.919 203.875 291.17 204.111C290.421 204.348 289.846 203.876 289.846 203.876L293.031 199.995L292.918 200.606C292.918 200.606 291.349 201.797 290.738 201.684C290.127 201.572 289.645 201.213 289.645 201.213C289.645 201.213 291.317 200.032 292.179 199.185C293.04 198.338 293.907 198.476 293.907 198.476C295.45 199.752 296.408 201.698 297.393 203.431C298.153 204.77 298.174 207.336 298.174 207.336C298.174 207.336 297.695 208.203 295.703 204.296Z" fill="#F8D0B7"/>
<path d="M272.324 138.958C272.324 138.958 269.587 144.225 269.74 151.831C269.74 151.831 264.618 145.13 271.302 135.555L272.324 138.958Z" fill="#161616"/>
<path d="M299.19 183.03C299.19 183.03 305.284 182.161 306.518 177.598C306.518 177.598 297.695 167.469 293.888 166.216C290.08 164.963 288.414 169.344 290.225 172.421C292.035 175.499 299.19 183.03 299.19 183.03Z" fill="white"/>
<path d="M270.563 174.417C270.563 174.417 270.827 173.093 271.885 171.627C272.945 170.161 270.821 171.066 268.766 172.017C268.766 172.017 270.577 173.027 270.574 173.68C270.573 174.046 270.563 174.417 270.563 174.417Z" fill="#E1E4E5"/>
<path d="M280.069 154.993C280.287 154.993 280.474 154.845 280.529 154.635C280.745 153.795 281.501 153.175 282.409 153.175C283.316 153.175 284.073 153.795 284.29 154.635C284.344 154.845 284.532 154.993 284.749 154.993C285.054 154.993 285.295 154.708 285.22 154.412C284.903 153.151 283.769 152.217 282.409 152.217C281.049 152.217 279.916 153.151 279.598 154.412C279.524 154.708 279.764 154.993 280.069 154.993Z" fill="#F05B4E"/>
<defs>
<filter id="filter0_d_29_30" x="161.724" y="101.436" width="36.3373" height="36.3373" filterUnits="userSpaceOnUse" color-interpolation-filters="sRGB">
<feFlood flood-opacity="0" result="BackgroundImageFix"/>
<feColorMatrix in="SourceAlpha" type="matrix" values="0 0 0 0 0 0 0 0 0 0 0 0 0 0 0 0 0 0 127 0" result="hardAlpha"/>
<feMorphology radius="6.33402" operator="erode" in="SourceAlpha" result="effect1_dropShadow_29_30"/>
<feOffset dy="9.50103"/>
<feGaussianBlur stdDeviation="10.5567"/>
<feColorMatrix type="matrix" values="0 0 0 0 0.243137 0 0 0 0 0.741176 0 0 0 0 1 0 0 0 0.45 0"/>
<feBlend mode="normal" in2="BackgroundImageFix" result="effect1_dropShadow_29_30"/>
<feBlend mode="normal" in="SourceGraphic" in2="effect1_dropShadow_29_30" result="shape"/>
</filter>
<filter id="filter1_d_29_30" x="345.197" y="188.653" width="36.3373" height="36.3373" filterUnits="userSpaceOnUse" color-interpolation-filters="sRGB">
<feFlood flood-opacity="0" result="BackgroundImageFix"/>
<feColorMatrix in="SourceAlpha" type="matrix" values="0 0 0 0 0 0 0 0 0 0 0 0 0 0 0 0 0 0 127 0" result="hardAlpha"/>
<feMorphology radius="6.33402" operator="erode" in="SourceAlpha" result="effect1_dropShadow_29_30"/>
<feOffset dy="9.50103"/>
<feGaussianBlur stdDeviation="10.5567"/>
<feColorMatrix type="matrix" values="0 0 0 0 0.243137 0 0 0 0 0.741176 0 0 0 0 1 0 0 0 0.45 0"/>
<feBlend mode="normal" in2="BackgroundImageFix" result="effect1_dropShadow_29_30"/>
<feBlend mode="normal" in="SourceGraphic" in2="effect1_dropShadow_29_30" result="shape"/>
</filter>
<filter id="filter2_d_29_30" x="272.892" y="257.342" width="36.3373" height="36.3373" filterUnits="userSpaceOnUse" color-interpolation-filters="sRGB">
<feFlood flood-opacity="0" result="BackgroundImageFix"/>
<feColorMatrix in="SourceAlpha" type="matrix" values="0 0 0 0 0 0 0 0 0 0 0 0 0 0 0 0 0 0 127 0" result="hardAlpha"/>
<feMorphology radius="6.33402" operator="erode" in="SourceAlpha" result="effect1_dropShadow_29_30"/>
<feOffset dy="9.50103"/>
<feGaussianBlur stdDeviation="10.5567"/>
<feColorMatrix type="matrix" values="0 0 0 0 0.243137 0 0 0 0 0.741176 0 0 0 0 1 0 0 0 0.45 0"/>
<feBlend mode="normal" in2="BackgroundImageFix" result="effect1_dropShadow_29_30"/>
<feBlend mode="normal" in="SourceGraphic" in2="effect1_dropShadow_29_30" result="shape"/>
</filter>
<filter id="filter3_d_29_30" x="144.1" y="251.919" width="43.5677" height="43.5678" filterUnits="userSpaceOnUse" color-interpolation-filters="sRGB">
<feFlood flood-opacity="0" result="BackgroundImageFix"/>
<feColorMatrix in="SourceAlpha" type="matrix" values="0 0 0 0 0 0 0 0 0 0 0 0 0 0 0 0 0 0 127 0" result="hardAlpha"/>
<feMorphology radius="6.33402" operator="erode" in="SourceAlpha" result="effect1_dropShadow_29_30"/>
<feOffset dy="9.50103"/>
<feGaussianBlur stdDeviation="10.5567"/>
<feColorMatrix type="matrix" values="0 0 0 0 0.243137 0 0 0 0 0.741176 0 0 0 0 1 0 0 0 0.45 0"/>
<feBlend mode="normal" in2="BackgroundImageFix" result="effect1_dropShadow_29_30"/>
<feBlend mode="normal" in="SourceGraphic" in2="effect1_dropShadow_29_30" result="shape"/>
</filter>
<filter id="filter4_d_29_30" x="268.825" y="231.132" width="37.693" height="37.693" filterUnits="userSpaceOnUse" color-interpolation-filters="sRGB">
<feFlood flood-opacity="0" result="BackgroundImageFix"/>
<feColorMatrix in="SourceAlpha" type="matrix" values="0 0 0 0 0 0 0 0 0 0 0 0 0 0 0 0 0 0 127 0" result="hardAlpha"/>
<feMorphology radius="6.33402" operator="erode" in="SourceAlpha" result="effect1_dropShadow_29_30"/>
<feOffset dy="9.50103"/>
<feGaussianBlur stdDeviation="10.5567"/>
<feColorMatrix type="matrix" values="0 0 0 0 0.243137 0 0 0 0 0.741176 0 0 0 0 1 0 0 0 0.45 0"/>
<feBlend mode="normal" in2="BackgroundImageFix" result="effect1_dropShadow_29_30"/>
<feBlend mode="normal" in="SourceGraphic" in2="effect1_dropShadow_29_30" result="shape"/>
</filter>
<filter id="filter5_d_29_30" x="51.0083" y="230.679" width="37.693" height="37.693" filterUnits="userSpaceOnUse" color-interpolation-filters="sRGB">
<feFlood flood-opacity="0" result="BackgroundImageFix"/>
<feColorMatrix in="SourceAlpha" type="matrix" values="0 0 0 0 0 0 0 0 0 0 0 0 0 0 0 0 0 0 127 0" result="hardAlpha"/>
<feMorphology radius="6.33402" operator="erode" in="SourceAlpha" result="effect1_dropShadow_29_30"/>
<feOffset dy="9.50103"/>
<feGaussianBlur stdDeviation="10.5567"/>
<feColorMatrix type="matrix" values="0 0 0 0 0.243137 0 0 0 0 0.741176 0 0 0 0 1 0 0 0 0.45 0"/>
<feBlend mode="normal" in2="BackgroundImageFix" result="effect1_dropShadow_29_30"/>
<feBlend mode="normal" in="SourceGraphic" in2="effect1_dropShadow_29_30" result="shape"/>
</filter>
<filter id="filter6_d_29_30" x="225.894" y="267.736" width="33.6259" height="33.6259" filterUnits="userSpaceOnUse" color-interpolation-filters="sRGB">
<feFlood flood-opacity="0" result="BackgroundImageFix"/>
<feColorMatrix in="SourceAlpha" type="matrix" values="0 0 0 0 0 0 0 0 0 0 0 0 0 0 0 0 0 0 127 0" result="hardAlpha"/>
<feMorphology radius="6.33402" operator="erode" in="SourceAlpha" result="effect1_dropShadow_29_30"/>
<feOffset dy="9.50103"/>
<feGaussianBlur stdDeviation="10.5567"/>
<feColorMatrix type="matrix" values="0 0 0 0 0.243137 0 0 0 0 0.741176 0 0 0 0 1 0 0 0 0.45 0"/>
<feBlend mode="normal" in2="BackgroundImageFix" result="effect1_dropShadow_29_30"/>
<feBlend mode="normal" in="SourceGraphic" in2="effect1_dropShadow_29_30" result="shape"/>
</filter>
<linearGradient id="paint0_linear_29_30" x1="176.504" y1="106.714" x2="183.852" y2="107.401" gradientUnits="userSpaceOnUse">
<stop stop-color="#FCC822"/>
<stop offset="1" stop-color="#FFDD72"/>
</linearGradient>
<linearGradient id="paint1_linear_29_30" x1="359.976" y1="193.931" x2="367.325" y2="194.618" gradientUnits="userSpaceOnUse">
<stop stop-color="#FCC822"/>
<stop offset="1" stop-color="#FFDD72"/>
</linearGradient>
<linearGradient id="paint2_linear_29_30" x1="287.672" y1="262.62" x2="295.02" y2="263.308" gradientUnits="userSpaceOnUse">
<stop stop-color="#FCC822"/>
<stop offset="1" stop-color="#FFDD72"/>
</linearGradient>
<linearGradient id="paint3_linear_29_30" x1="158.879" y1="257.197" x2="174.066" y2="258.617" gradientUnits="userSpaceOnUse">
<stop stop-color="#FCC822"/>
<stop offset="1" stop-color="#FFDD72"/>
</linearGradient>
<linearGradient id="paint4_linear_29_30" x1="283.605" y1="236.41" x2="292.423" y2="237.235" gradientUnits="userSpaceOnUse">
<stop stop-color="#FCC822"/>
<stop offset="1" stop-color="#FFDD72"/>
</linearGradient>
<linearGradient id="paint5_linear_29_30" x1="65.7876" y1="235.958" x2="74.6055" y2="236.782" gradientUnits="userSpaceOnUse">
<stop stop-color="#FCC822"/>
<stop offset="1" stop-color="#FFDD72"/>
</linearGradient>
<linearGradient id="paint6_linear_29_30" x1="240.674" y1="273.014" x2="245.083" y2="273.427" gradientUnits="userSpaceOnUse">
<stop stop-color="#FDC68A"/>
<stop offset="1" stop-color="#FCC822"/>
</linearGradient>
<linearGradient id="paint7_linear_29_30" x1="248.808" y1="166.365" x2="248.808" y2="171.788" gradientUnits="userSpaceOnUse">
<stop stop-color="#FCC822"/>
<stop offset="1" stop-color="#FFDD72"/>
</linearGradient>
<linearGradient id="paint8_linear_29_30" x1="262.365" y1="183.394" x2="262.365" y2="188.817" gradientUnits="userSpaceOnUse">
<stop stop-color="#FCC822"/>
<stop offset="1" stop-color="#FFDD72"/>
</linearGradient>
<linearGradient id="paint9_linear_29_30" x1="270.951" y1="184.75" x2="270.951" y2="187.461" gradientUnits="userSpaceOnUse">
<stop stop-color="#FCC822"/>
<stop offset="1" stop-color="#FFDD72"/>
</linearGradient>
<linearGradient id="paint10_linear_29_30" x1="268.436" y1="190.821" x2="268.436" y2="193.532" gradientUnits="userSpaceOnUse">
<stop stop-color="#FCC822"/>
<stop offset="1" stop-color="#FFDD72"/>
</linearGradient>
<linearGradient id="paint11_linear_29_30" x1="262.22" y1="193.336" x2="262.22" y2="196.047" gradientUnits="userSpaceOnUse">
<stop stop-color="#FCC822"/>
<stop offset="1" stop-color="#FFDD72"/>
</linearGradient>
<linearGradient id="paint12_linear_29_30" x1="256.148" y1="190.821" x2="256.148" y2="193.533" gradientUnits="userSpaceOnUse">
<stop stop-color="#FCC822"/>
<stop offset="1" stop-color="#FFDD72"/>
</linearGradient>
<linearGradient id="paint13_linear_29_30" x1="253.779" y1="184.75" x2="253.779" y2="187.461" gradientUnits="userSpaceOnUse">
<stop stop-color="#FCC822"/>
<stop offset="1" stop-color="#FFDD72"/>
</linearGradient>
<linearGradient id="paint14_linear_29_30" x1="256.294" y1="178.678" x2="256.294" y2="181.39" gradientUnits="userSpaceOnUse">
<stop stop-color="#FCC822"/>
<stop offset="1" stop-color="#FFDD72"/>
</linearGradient>
<linearGradient id="paint15_linear_29_30" x1="262.22" y1="176.164" x2="262.22" y2="178.875" gradientUnits="userSpaceOnUse">
<stop stop-color="#FCC822"/>
<stop offset="1" stop-color="#FFDD72"/>
</linearGradient>
<linearGradient id="paint16_linear_29_30" x1="268.291" y1="178.678" x2="268.291" y2="181.39" gradientUnits="userSpaceOnUse">
<stop stop-color="#FCC822"/>
<stop offset="1" stop-color="#FFDD72"/>
</linearGradient>
</defs>
</svg>
