<?xml version="1.0" encoding="utf-8"?>
<!-- Generator: Adobe Illustrator 27.5.0, SVG Export Plug-In . SVG Version: 6.00 Build 0)  -->
<svg version="1.1" xmlns="http://www.w3.org/2000/svg" xmlns:xlink="http://www.w3.org/1999/xlink" x="0px" y="0px"
	 viewBox="0 0 500 500" style="enable-background:new 0 0 500 500;" xml:space="preserve">
<g id="BACKGROUND">
	<rect style="fill:#FFFFFF;" width="500" height="500"/>
</g>
<g id="OBJECTS">
	<g>
		<path style="fill:#EAF9F8;" d="M417.757,232.272c-23.343,34.949-73.156,143.037-60.903,183.151l-178.707,0.041
			c0,0-25.823-19.226-50.909-52.653c-4.559-6.073-9.093-12.621-13.439-19.603c-4.616-7.399-9.02-15.289-13.022-23.638
			c-11.631-24.211-19.93-52.268-20.266-83.28C79.34,128.939,172.254,29.167,298.652,69.428
			C425.049,109.689,441.091,197.323,417.757,232.272z"/>
		<g>
			<g>
				<path style="fill:#E03C03;" d="M305.944,416.689c-0.359,0-0.715-0.157-0.957-0.458l-95.302-118.494
					c-0.425-0.528-0.341-1.301,0.187-1.727c0.528-0.424,1.301-0.34,1.726,0.187L306.9,414.691c0.425,0.528,0.341,1.301-0.187,1.727
					C306.486,416.6,306.214,416.689,305.944,416.689z"/>
			</g>
			<g>
				<path style="fill:#FF6224;" d="M158.111,416.689c-0.27,0-0.542-0.089-0.769-0.271c-0.528-0.425-0.612-1.198-0.187-1.727
					l95.302-118.494c0.427-0.527,1.198-0.611,1.726-0.187c0.528,0.425,0.612,1.198,0.187,1.727l-95.302,118.494
					C158.826,416.532,158.47,416.689,158.111,416.689z"/>
			</g>
			<g>
				<path style="fill:#FF6224;" d="M253.415,416.689c-0.359,0-0.715-0.157-0.958-0.458l-95.302-118.494
					c-0.425-0.528-0.341-1.301,0.187-1.727c0.529-0.424,1.301-0.34,1.726,0.187l95.302,118.494c0.425,0.528,0.341,1.301-0.187,1.727
					C253.957,416.6,253.685,416.689,253.415,416.689z"/>
			</g>
			<path style="fill:#E03C03;" d="M174.999,300.113h-44.276c-1.737,0-3.146-1.408-3.146-3.146l0,0c0-1.737,1.408-3.146,3.146-3.146
				h44.276c1.737,0,3.146,1.408,3.146,3.146l0,0C178.145,298.704,176.736,300.113,174.999,300.113z"/>
			<path style="fill:#FF6224;" d="M302.392,300.113H175.844c-1.737,0-3.145-1.408-3.145-3.146l0,0c0-1.737,1.408-3.146,3.145-3.146
				h126.548V300.113z"/>
			<g>
				<path style="fill:#E03C03;" d="M209.199,356.214c0,1.898-1.538,3.436-3.436,3.436c-1.898,0-3.436-1.538-3.436-3.436
					c0-1.898,1.538-3.436,3.436-3.436C207.661,352.778,209.199,354.316,209.199,356.214z"/>
			</g>
			<path style="fill:#FFC947;" d="M261.728,356.214c0,1.898-1.538,3.436-3.436,3.436c-1.898,0-3.436-1.538-3.436-3.436
				c0-1.898,1.538-3.436,3.436-3.436C260.189,352.778,261.728,354.316,261.728,356.214z"/>
		</g>
		<g>
			<path style="fill:#20C3C5;" d="M216.007,199.904h-44.606c-2.203,0-3.988-1.786-3.988-3.988v-33.174
				c0-2.203,1.785-3.988,3.988-3.988h44.606c2.203,0,3.988,1.786,3.988,3.988v33.174
				C219.995,198.118,218.21,199.904,216.007,199.904z"/>
			<path style="fill:#FFFFFF;" d="M205.115,176.925h-1.651c-0.253-0.902-0.627-1.757-1.114-2.54l1.274-1.274
				c0.486-0.486,0.486-1.273,0-1.759l-1.793-1.793c-0.486-0.486-1.273-0.486-1.759,0l-1.354,1.354
				c-0.748-0.421-1.55-0.752-2.397-0.966v-2.03c0-0.687-0.557-1.243-1.243-1.243h-2.535c-0.687,0-1.243,0.557-1.243,1.243v2.053
				c-0.822,0.212-1.601,0.523-2.327,0.924l-1.486-1.486c-0.486-0.486-1.273-0.486-1.759,0l-1.793,1.793
				c-0.486,0.486-0.486,1.273,0,1.759l1.376,1.376c-0.46,0.732-0.822,1.531-1.082,2.375h-1.936c-0.687,0-1.243,0.557-1.243,1.243
				v2.535c0,0.687,0.557,1.243,1.243,1.243h1.696c0.191,0.937,0.513,1.83,0.953,2.655l-1.158,1.158
				c-0.486,0.486-0.486,1.273,0,1.758l1.793,1.793c0.486,0.486,1.273,0.486,1.759,0l1.007-1.007
				c0.839,0.547,1.763,0.968,2.744,1.241v1.407c0,0.687,0.557,1.243,1.243,1.243h2.535c0.687,0,1.243-0.557,1.243-1.243v-1.313
				c1.016-0.239,1.973-0.626,2.844-1.147l0.969,0.969c0.486,0.486,1.273,0.486,1.759,0l1.793-1.793c0.486-0.486,0.486-1.273,0-1.758
				l-0.995-0.995c0.493-0.848,0.865-1.773,1.093-2.756h1.544c0.687,0,1.243-0.557,1.243-1.243v-2.535
				C206.358,177.482,205.802,176.925,205.115,176.925z M195.059,185.941c-4.503,0.852-8.372-3.017-7.52-7.52
				c0.476-2.516,2.504-4.544,5.02-5.02c4.503-0.852,8.372,3.017,7.52,7.52C199.603,183.437,197.575,185.466,195.059,185.941z"/>
		</g>
		<g>
			<path style="fill:#FF6224;" d="M283.163,177.172h-44.606c-2.202,0-3.988-1.785-3.988-3.988v-33.173
				c0-2.202,1.786-3.988,3.988-3.988h44.606c2.203,0,3.988,1.786,3.988,3.988v33.173
				C287.151,175.387,285.365,177.172,283.163,177.172z"/>
			<g>
				<g>
					<g>
						<path style="fill:#FFFFFF;" d="M251.981,163.514c-0.314,0-0.628-0.128-0.868-0.385l-5.542-5.931
							c-0.48-0.513-0.48-1.345,0-1.858l5.636-6.031c0.48-0.513,1.257-0.513,1.736,0c0.48,0.513,0.48,1.345,0,1.858l-4.768,5.102
							l4.674,5.003c0.48,0.513,0.48,1.345,0,1.858C252.609,163.385,252.295,163.514,251.981,163.514z"/>
					</g>
					<g>
						<path style="fill:#FFFFFF;" d="M269.737,163.514c-0.314,0-0.628-0.128-0.868-0.385c-0.48-0.513-0.48-1.345,0-1.858
							l4.675-5.003l-4.769-5.102c-0.48-0.513-0.48-1.345,0-1.858c0.479-0.513,1.256-0.513,1.736,0l5.637,6.031
							c0.23,0.246,0.36,0.58,0.36,0.929c0,0.349-0.129,0.683-0.36,0.929l-5.543,5.931
							C270.365,163.385,270.051,163.514,269.737,163.514z"/>
					</g>
				</g>
				<g>
					<path style="fill:#FFFFFF;" d="M258.108,165.143c-0.153,0-0.31-0.031-0.462-0.098c-0.628-0.273-0.93-1.04-0.675-1.712
						l5.501-14.463c0.256-0.671,0.968-0.997,1.6-0.722c0.628,0.273,0.93,1.04,0.675,1.712l-5.501,14.463
						C259.052,164.834,258.593,165.143,258.108,165.143z"/>
				</g>
			</g>
		</g>
		<g>
			<g>
				<path style="fill:#FFFFFF;" d="M323.429,185.079H212.751v-3.397c0-0.917,0.743-1.66,1.659-1.66h107.358
					c0.917,0,1.66,0.743,1.66,1.66V185.079z"/>
				<path style="fill:#383873;" d="M320.338,244.085H215.842c-1.707,0-3.09-1.384-3.09-3.09v-55.915h110.677v55.915
					C323.429,242.701,322.045,244.085,320.338,244.085z"/>
				<g>
					<g>
						<path style="fill:#FF6224;" d="M318.116,182.551c0,0.43-0.348,0.778-0.778,0.778c-0.43,0-0.778-0.348-0.778-0.778
							c0-0.43,0.348-0.778,0.778-0.778C317.768,181.773,318.116,182.121,318.116,182.551z"/>
						<path style="fill:#FF6224;" d="M312.768,182.551c0,0.43-0.348,0.778-0.778,0.778c-0.43,0-0.778-0.348-0.778-0.778
							c0-0.43,0.348-0.778,0.778-0.778C312.42,181.773,312.768,182.121,312.768,182.551z"/>
						<path style="fill:#FF6224;" d="M307.419,182.551c0,0.43-0.348,0.778-0.778,0.778c-0.43,0-0.778-0.348-0.778-0.778
							c0-0.43,0.348-0.778,0.778-0.778C307.071,181.773,307.419,182.121,307.419,182.551z"/>
					</g>
				</g>
				<path style="fill:#20C3C5;" d="M279.948,193.053h-61.459c-0.591,0-1.07-0.479-1.07-1.07l0,0c0-0.591,0.479-1.07,1.07-1.07
					h61.459c0.591,0,1.07,0.479,1.07,1.07l0,0C281.017,192.574,280.538,193.053,279.948,193.053z"/>
				<path style="fill:#20C3C5;" d="M279.948,199.861h-61.459c-0.591,0-1.07-0.479-1.07-1.07l0,0c0-0.591,0.479-1.07,1.07-1.07
					h61.459c0.591,0,1.07,0.479,1.07,1.07l0,0C281.017,199.382,280.538,199.861,279.948,199.861z"/>
				<path style="fill:#20C3C5;" d="M250.628,206.668h-32.139c-0.591,0-1.07-0.479-1.07-1.07l0,0c0-0.591,0.479-1.07,1.07-1.07
					h32.139c0.591,0,1.07,0.479,1.07,1.07l0,0C251.698,206.189,251.219,206.668,250.628,206.668z"/>
				<path style="fill:#FF6224;" d="M279.948,220.282h-61.459c-0.591,0-1.07-0.479-1.07-1.07l0,0c0-0.591,0.479-1.07,1.07-1.07
					h61.459c0.591,0,1.07,0.479,1.07,1.07l0,0C281.017,219.803,280.538,220.282,279.948,220.282z"/>
				<path style="fill:#FF6224;" d="M250.628,227.089h-32.139c-0.591,0-1.07-0.479-1.07-1.07l0,0c0-0.591,0.479-1.07,1.07-1.07
					h32.139c0.591,0,1.07,0.479,1.07,1.07l0,0C251.698,226.61,251.219,227.089,250.628,227.089z"/>
				<path style="fill:#20C3C5;" d="M250.628,233.896h-32.139c-0.591,0-1.07-0.479-1.07-1.07l0,0c0-0.591,0.479-1.07,1.07-1.07
					h32.139c0.591,0,1.07,0.479,1.07,1.07l0,0C251.698,233.417,251.219,233.896,250.628,233.896z"/>
				<path style="fill:#FFFFFF;" d="M279.948,206.668h-23.096c-0.591,0-1.07-0.479-1.07-1.07l0,0c0-0.591,0.479-1.07,1.07-1.07
					h23.096c0.591,0,1.07,0.479,1.07,1.07l0,0C281.017,206.189,280.538,206.668,279.948,206.668z"/>
				<path style="fill:#FF6224;" d="M310.455,191.382l-16.331,16.331c-0.418,0.418-1.095,0.418-1.513,0l0,0
					c-0.418-0.418-0.418-1.095,0-1.513l16.331-16.331c0.418-0.418,1.095-0.418,1.513,0l0,0
					C310.873,190.287,310.873,190.964,310.455,191.382z"/>
				
					<ellipse transform="matrix(0.2307 -0.973 0.973 0.2307 15.6887 464.3943)" style="fill:#FF6224;" cx="301.533" cy="222.275" rx="9.63" ry="9.63"/>
				<path style="fill:#20C3C5;" d="M300.273,228.987c0,3.011-2.441,5.452-5.452,5.452c-3.011,0-5.452-2.441-5.452-5.452
					c0-3.011,2.441-5.452,5.452-5.452C297.833,223.535,300.273,225.976,300.273,228.987z"/>
			</g>
			<polyline style="fill:#383873;" points="212.751,238.114 212.751,257.584 230.646,239.689 			"/>
		</g>
		<g>
			<polygon style="fill:#86BFBC;" points="193.704,262.848 232.966,262.848 247.164,290.174 207.902,290.174 			"/>
			<path style="fill:#FFFFFF;" d="M208.696,288.153l-11.756-22.626c-0.247-0.474,0.098-1.041,0.632-1.041h33.966
				c0.266,0,0.51,0.148,0.632,0.384l11.756,22.626c0.247,0.474-0.098,1.041-0.632,1.041h-33.966
				C209.063,288.537,208.819,288.389,208.696,288.153z"/>
			<rect x="207.902" y="290.174" style="fill:#B8E3E2;" width="31.799" height="3.648"/>
			<path style="fill:#9FCCC9;" d="M267.02,290.174h-31.379c-1.007,0-1.824,0.816-1.824,1.824l0,0c0,1.007,0.817,1.824,1.824,1.824
				h31.379c1.007,0,1.824-0.816,1.824-1.824l0,0C268.844,290.991,268.027,290.174,267.02,290.174z"/>
			<path style="fill:#B8E3E2;" d="M207.902,290.174l-14.198-27.326l-0.711,0.534c-0.46,0.345-0.601,0.972-0.333,1.481l15.243,28.959
				V290.174z"/>
			<rect x="218.696" y="291.876" style="fill:#9FCCC9;" width="3.501" height="0.607"/>
			<rect x="223.096" y="291.876" style="fill:#9FCCC9;" width="3.501" height="0.607"/>
			<rect x="227.496" y="291.876" style="fill:#9FCCC9;" width="3.501" height="0.607"/>
		</g>
		<g>
			<path style="fill:#383873;" d="M279.483,343.659c0,0-32.567,25.356-37.732,31.798c-1.948,2.439-5.345,6.712-8.864,11.09
				c-5.779,7.194-11.909,14.692-12.637,14.872c-1.162,0.295-10.935-7.145-11.23-8.749c-0.18-0.999,8.717-16.271,16.419-28.549
				c4.69-7.465,8.93-13.832,10.419-15.207c3.937-3.65,28.164-16.484,28.164-16.484L279.483,343.659z"/>
			<path style="opacity:0.15;fill:none;stroke:#000000;stroke-width:0.8185;stroke-linecap:round;stroke-miterlimit:10;" d="
				M217.334,396.009c0,0,30.425-43.306,45.699-50.6"/>
			<path style="fill:#382424;" d="M313.425,232.46c-0.344,0.786-0.737,1.604-1.179,2.439c-2.382,4.551-0.622,9.11-3.339,10.272
				c-0.164,0.066-0.344,0.131-0.548,0.172c-3.503,0.777-11.573-3.888-11.925-6.221c-0.352-2.333,2.488-6.327,0-6.81
				c-2.488-0.483-3.83,3.7-3.83,3.7c-2.046,0.213-2.775-3.217-6.13-3.217c-0.475,0-0.941,0.066-1.391,0.18
				c-1.58,0.393-2.963,1.367-3.847,2.12c-0.655,0.548-1.031,0.982-1.031,0.982s-2.987-1.891-2.848-5.615
				c0.237-5.901,2.414-10.206,7.661-11.082c0.581-6.564,5.983-10.067,13.202-10.288c6.327-0.196,7.276,5.492,7.424,6.908
				c-0.057-1.056-0.352-4.526-1.858-6.908c3.167-0.139,5.959,2.12,5.23,9.486c0.729-2.193,3.282-3.577,5.247-1.973
				c-1.817,0-3.569,3.061-3.569,3.061s2.136,1.367,3.593,3.896C315.496,225.651,315.038,228.736,313.425,232.46z"/>
			<path style="fill:#FFAD94;" d="M308.907,245.171l-0.082,1.08l-0.278,3.83c0,0-5.827,4.985-9.134,0
				c-0.025-0.033-0.041-0.066-0.074-0.098c-1.023-1.522-1.948-2.054-2.791-2.153c-1.825-0.221-3.298,1.563-4.821-0.368
				c-4.354-5.525-6.09-11.925-6.646-14.487c0.45-0.115,0.917-0.18,1.391-0.18c3.356,0,4.084,3.429,6.13,3.217
				c0,0,1.342-4.182,3.83-3.7c2.488,0.483-0.352,4.477,0,6.81c0.156,1.04,1.85,2.546,3.994,3.822
				c2.496,1.498,5.607,2.685,7.579,2.455c0.123-0.016,0.237-0.033,0.352-0.057C308.563,245.302,308.743,245.237,308.907,245.171z"/>
			<path style="opacity:0.25;" d="M309.816,252.3c-2.627,1.792-7.44,2.087-7.44,2.087l-3.937-0.581c0,0-1.645-2.39-0.876-3.724
				c0.147-0.262,0.516-0.622,1.04-1.048c1.056-0.868,2.758-1.981,4.518-2.897c1.817-0.941,3.691-1.686,5.042-1.768
				C311.469,244.181,312.443,250.5,309.816,252.3z"/>
			<path style="fill:#20C3C5;" d="M309.038,316.142c-5.86,1.129-18.26-2.325-24.194-4.993c-1.751-0.786-2.947-1.506-3.233-2.013
				c-1.138-2.005,0.008-3.544,2.832-9.912c0.319-0.72,0.655-1.498,1.015-2.341c1.915-4.51,1.923-14.127,1.915-22.418
				c-0.025-7.096-0.057-13.218,1.072-14.307c2.447-2.357,14.659-10.075,14.659-10.075l2.431,12.67c0,0,1.375,6.433,2.824,14.831
				C311.027,293.044,313.957,315.192,309.038,316.142z"/>
			<path style="fill:#383873;" d="M313.122,321.781c0,0.581-5.836,14.192-10.73,16.14c-4.894,1.948-34.392-0.196-34.392-0.196
				l-14.585,9.535l3.053,28.729l2.128,20.02l0.065,0.647c-4.461,2.914-15.698,3.699-16.91,1.187
				c-0.008-0.008-0.008-0.016-0.008-0.016c-1.17-2.529-19.062-56.401-12.056-65.74c6.998-9.331,51.924-22.95,51.924-22.95
				c1.17,0.745,2.529,1.416,4.01,2.013c4.993,2.046,11.336,3.331,16.165,4.084c1.858,0.286,3.487,0.499,4.731,0.647
				c1.572,0.188,2.521,0.262,2.521,0.262S313.122,321.191,313.122,321.781z"/>
			<path style="fill:#0C2059;" d="M260.511,415.423h-37.928c-0.188-0.671,0.065-1.351,0.638-2.038
				c1.539-1.85,5.394-3.708,9.11-5.312c3.528-1.522,6.916-2.832,8.054-3.732c2.676-2.12,1.44-6.245,1.367-6.499
				c0.409,0.843,1.956,1.318,4.002,1.457c4.019,0.286,9.953-0.712,12.907-2.644l-0.065-0.647c1.129,2.161,1.661,12.842,1.842,17.376
				C260.486,414.637,260.511,415.423,260.511,415.423z"/>
			<path style="fill:#2E4780;" d="M245.753,399.299c-0.115,1.809-0.376,4.739-0.9,5.525c-0.777,1.171-9.142,5.255-10.305,4.862
				c-0.753-0.245-1.67-1.064-2.218-1.612c3.528-1.522,6.916-2.832,8.054-3.732c2.676-2.12,1.44-6.245,1.367-6.499
				C242.16,398.685,243.707,399.16,245.753,399.299z"/>
			<path style="fill:#2E4780;" d="M260.511,415.423h-37.928c-0.188-0.671,0.065-1.351,0.638-2.038h37.216
				C260.486,414.637,260.511,415.423,260.511,415.423z"/>
			<path style="fill:#0C2059;" d="M220.25,401.419c0,0-2.881,7.596-5.377,11.614c-0.99,1.604-1.932,2.644-2.595,2.39
				c-2.333-0.876-25.774-20.806-23.531-22.263c0.327-0.213,0.851-0.36,1.506-0.442c2.038-0.262,5.418,0.024,8.545,0.344
				c2.685,0.278,5.181,0.581,6.482,0.581c3.307,0,3.74-0.974,3.74-0.974c0.074,0.385,0.696,1.113,1.62,1.997
				C213.538,397.416,219.366,401.64,220.25,401.419z"/>
			<path style="fill:#2E4780;" d="M210.641,394.666c-4.968,3.29-10.149,1.309-11.172,0.556c-0.753-0.548-0.753-1.572-0.671-2.161
				c2.685,0.278,5.181,0.581,6.482,0.581c3.307,0,3.74-0.974,3.74-0.974C209.094,393.054,209.716,393.782,210.641,394.666z"/>
			<path style="fill:#2E4780;" d="M214.872,413.033c-0.99,1.604-1.932,2.644-2.595,2.39c-2.333-0.876-25.774-20.806-23.531-22.263
				c0.327-0.213,0.851-0.36,1.506-0.442L214.872,413.033z"/>
			<path style="fill:#FFAD94;" d="M284.86,291.317c-1.833,2.554-5.115,6.45-7.816,6.057c-0.098-0.016-0.205-0.033-0.336-0.057
				c-5.156-0.909-35.481-8.512-36.913-8.799c-1.457-0.286-11.663-0.385-11.082-1.457c0.581-1.072,6.417-4.469,7.972-4.387
				c1.555,0.082,7.686,1.858,13.808,1.662c6.13-0.188,22.173,0,22.173,0l0.778-1.342l1.146-1.981
				C274.269,286.955,281.431,291.8,284.86,291.317z"/>
			<path style="opacity:0.15;fill:none;stroke:#000000;stroke-width:0.8185;stroke-linecap:round;stroke-miterlimit:10;" d="
				M284.86,313.464c0,0-1.397,7.439,4.047,9.919"/>
			<path style="opacity:0.15;fill:none;stroke:#000000;stroke-width:0.8185;stroke-linecap:round;stroke-miterlimit:10;" d="
				M282.002,319.445c0,0-36.023,15.365-37.752,20.13c-1.729,4.765,9.164,56.434,9.164,56.434"/>
			<path style="opacity:0.15;" d="M313.122,321.781c0,0.581-5.836,14.192-10.73,16.14c-4.894,1.948-34.392-0.196-34.392-0.196
				l-14.585,9.535l3.053,28.729c0,0-6.163-32.813-6.163-34.957c0-1.833,40.744-13.546,51.482-25.798
				c4.207,0.663,7.252,0.909,7.252,0.909S313.122,321.191,313.122,321.781z"/>
			<path style="opacity:0.25;" d="M293.913,286.963c-2.529,3.585-6.605,8.136-9.47,12.261c0.319-0.72,0.655-1.498,1.015-2.341
				c1.915-4.51,1.923-14.127,1.915-22.418l8.733-5.779C296.106,268.686,297.997,281.176,293.913,286.963z"/>
			<path style="fill:#169799;" d="M286.456,290.212c-0.376,0.344-0.761,0.687-1.146,1.007c-0.139,0.049-0.286,0.082-0.45,0.098
				c-3.429,0.483-10.591-4.363-10.272-10.305c0.025-0.442,0.376-1.326,0.949-2.48c2.93-5.909,11.745-19.062,13.366-18.457
				c0,0,5.664,0.876,7.203,8.61C297.547,275.946,292.349,284.753,286.456,290.212z"/>
			<path style="opacity:0.25;" d="M306.517,315.88c-1.244-0.147-2.873-0.36-4.731-0.647c-4.829-0.753-11.172-2.038-16.165-4.084
				c4.403-0.156,13.824-3.053,14.962-24.62c0.516,4.035,1.293,8.217,2.374,12.498C304.406,304.716,305.772,310.715,306.517,315.88z"
				/>
			<path style="opacity:0.25;" d="M304.193,244.738c-0.45,0.524-0.802,0.998-1.072,1.4c-1.76,0.917-3.462,2.03-4.518,2.897
				c-0.737-0.81-1.416-1.13-2.054-1.203l3.88-4.886C301.606,243.657,302.924,244.287,304.193,244.738z"/>
			<path style="opacity:0.25;" d="M284.86,291.317c-1.833,2.554-5.115,6.45-7.816,6.057c-0.098-0.016-0.205-0.033-0.336-0.057
				c-3.339-4.829-3.462-11.156-3.266-14.323l1.146-1.981C274.269,286.955,281.431,291.8,284.86,291.317z"/>
			<path style="opacity:0.25;" d="M313.425,232.46c-0.344,0.786-0.737,1.604-1.179,2.439c-1.171,2.234-1.334,4.461-1.531,6.302
				c-0.393-0.303-0.794-0.581-1.195-0.819c-2.529,1.506-4.232,3.069-5.328,4.354l-0.008,0.008c-3.569-1.277-7.505-4.01-7.751-5.623
				c-0.352-2.333,2.488-6.327,0-6.81c-2.488-0.483-3.83,3.7-3.83,3.7c-2.046,0.213-2.775-3.217-6.13-3.217
				c-0.475,0-0.941,0.066-1.391,0.18c-1.58,0.393-2.963,1.367-3.847,2.12c0,0,3.781-5.312,9.715-4.24c0,0-0.868-1.653-4.862-1.457
				c8.365-2.725,13.709-1.653,16.288,1.359C304.479,233.221,309.415,236.266,313.425,232.46z"/>
		</g>
		<g>
			<path style="fill:#B8E3E2;" d="M330.433,347.26h-29.179c0,0,23.147-6.81,23.147-52.71c0-0.589,0-1.17-0.008-1.752
				c-0.237-30.676-6.793-47.594-14.872-52.415c2.529-1.498,5.893-2.93,10.337-3.921c1.94-0.442,4.076-0.794,6.442-1.039
				c19.979-2.038,35.939,5.795,37.838,14.659C366.029,258.946,354.349,347.26,330.433,347.26z"/>
			<path style="fill:#86BFBC;" d="M324.401,294.55c0,45.9-23.147,52.71-23.147,52.71h-47.84l1.989-1.416L268,337.725l25.283-1.751
				c1.359-5.639,5.058-5.828,10.698-6.417c3.282-0.336,3.601-5.877,2.603-13.202c-0.728-5.271-2.136-11.467-3.626-17.327
				c-1.08-4.281-1.858-8.463-2.374-12.498c-0.614-4.723-0.884-9.232-0.908-13.48c-0.074-9.674,1.105-17.941,2.349-23.916
				c0.115-0.581,0.237-1.138,0.36-1.67c0-0.016,0.008-0.041,0.008-0.057c0.115-0.254,0.614-1.285,1.793-2.66l0.008-0.008
				c1.097-1.285,2.799-2.848,5.328-4.354c0.401,0.237,0.802,0.516,1.195,0.819c7.522,5.729,13.448,22.451,13.677,51.597
				C324.401,293.38,324.401,293.961,324.401,294.55z"/>
			<path style="fill:#B8E3E2;" d="M315.169,415.423h-34.442c-1.179,0-1.694-1.49-0.761-2.218l8.618-6.744
				c3.822-2.996,6.057-7.587,6.057-12.441v-46.76h6.613v46.76c0,4.854,2.234,9.445,6.065,12.441l8.61,6.744
				C316.863,413.933,316.347,415.423,315.169,415.423z"/>
			<g style="opacity:0.25;">
				<g>
					<path style="fill:none;stroke:#000000;stroke-width:0.8185;stroke-linecap:round;stroke-miterlimit:10;" d="M341.437,237.185
						c0,0,0.251,0.643,0.663,1.931"/>
					
						<path style="fill:none;stroke:#000000;stroke-width:0.8185;stroke-linecap:round;stroke-miterlimit:10;stroke-dasharray:4.1525,4.1525;" d="
						M343.259,243.099c1.17,4.388,2.691,11.224,3.898,20.527c3.132,24.155-0.049,58.058-21.053,79.535"/>
					<path style="fill:none;stroke:#000000;stroke-width:0.8185;stroke-linecap:round;stroke-miterlimit:10;" d="M324.621,344.627
						c-0.491,0.47-0.992,0.934-1.502,1.391"/>
				</g>
			</g>
			<path style="opacity:0.15;" d="M301.254,347.26v12.768c-2.292,1.195-4.616,2.112-6.613,2.783V347.26H301.254z"/>
			<path style="opacity:0.15;" d="M310.397,327.42c-1.555,4.862-11.27,3.991-12.449,7.587c-2.501,7.63-3.888,4.272-13.505,5.246
				c-5.5,0.557-9.494,4.084-11.901,7.006h-19.128l1.989-1.416L268,337.725l25.283-1.751c1.359-5.639,5.058-5.828,10.698-6.417
				c3.282-0.336,3.601-5.877,2.603-13.202c-0.728-5.271-2.136-11.467-3.626-17.327c-1.08-4.281-1.858-8.463-2.374-12.498
				c-0.614-4.723-0.884-9.232-0.908-13.48C303.415,292.545,311.551,323.819,310.397,327.42z"/>
			<path style="opacity:0.15;" d="M324.401,294.55c0-0.589,0-1.17-0.008-1.752c-0.237-30.676-6.793-47.594-14.872-52.415
				c2.529-1.498,5.893-2.93,10.337-3.921c-1.334,1.923-2.725,4.813-2.071,7.898c1.171,5.459,14.397,26.461,9.339,60.109
				c-3.65,24.276-2.439,36.905,1.375,42.79h-27.247C301.254,347.26,324.401,340.45,324.401,294.55z"/>
		</g>
		<path style="opacity:0.25;" d="M157.456,269.546c-0.016,1.064-0.115,2.071-0.311,2.963h-9.388
			c-2.758-1.833-7.26-5.459-9.961-10.902c2.513,2.734,6.802,6.065,11.172,7.08C152.783,269.57,155.623,269.194,157.456,269.546z"/>
		<g>
			<path style="fill:#20C3C5;" d="M179.26,232.272c-1.048,3.806-5.852,11.189-10.239,19.095c-4.796,8.627-9.085,17.867-7.407,23.736
				c0.417,1.473,0.606,2.554,0.606,3.331c0.016,2.554-1.923,1.76-3.88,0.311c-1.997-1.482-4.019-3.642-4.019-3.642l0.147-11.377
				c0,0-6.45-5.926-1.154-18.891c0.336-0.818,0.72-1.67,1.154-2.554c7.293-14.733,18.227-30.194,7.874-34.573
				C176.641,206.834,181.454,224.308,179.26,232.272z"/>
			<g style="opacity:0.53;">
				<path d="M162.342,207.71c2.678,0.583,5.012,2.378,6.492,4.668c0.4,0.559,0.682,1.186,0.999,1.793
					c0.239,0.64,0.543,1.262,0.706,1.928c0.191,0.658,0.378,1.318,0.475,1.998l0.178,1.012l0.064,1.034
					c-0.057,2.768-0.937,5.412-1.849,7.978c-0.953,2.564-2.053,5.068-3.19,7.551c-2.277,4.964-4.732,9.841-6.898,14.837
					c-1.072,2.499-2.101,5.024-2.861,7.619c-0.388,1.294-0.68,2.612-0.851,3.933c-0.166,1.316-0.154,2.67,0.266,3.864l0.004,0.011
					c0.075,0.213-0.037,0.447-0.25,0.522c-0.213,0.075-0.447-0.037-0.522-0.25c0-0.001-0.001-0.005-0.002-0.006
					c-0.47-1.402-0.443-2.858-0.257-4.234c0.195-1.381,0.515-2.732,0.926-4.046c0.809-2.634,1.877-5.161,2.986-7.66
					c2.239-4.991,4.754-9.836,7.089-14.763c1.166-2.464,2.294-4.946,3.273-7.485c0.94-2.539,1.843-5.158,1.932-7.871l-0.049-1.009
					l-0.164-1.005c-0.088-0.675-0.265-1.331-0.445-1.986c-0.152-0.663-0.447-1.281-0.675-1.92c-0.306-0.605-0.579-1.231-0.968-1.79
					C167.309,210.145,165.012,208.327,162.342,207.71z"/>
			</g>
			<path style="fill:#169799;" d="M172.696,255.263c-4.371,11.524,0,20.265-6.564,21.51c-3.004,0.573-4.33-1.653-4.878-4.24
				c-0.655-3.061-0.221-6.621-0.221-6.621s1.113-2.848,3.454-5.615C166.394,258.046,169.103,255.852,172.696,255.263z"/>
			<path style="fill:#B8E3E2;" d="M157.456,269.546c-0.025,2.685-0.63,4.96-1.874,6.155c-0.123,0.123-0.246,0.229-0.36,0.319
				c-3.102,2.513-5.083-2.087-5.083-2.087s-8.25-4.068-12.343-12.326c-3.135-6.343-3.83-15.166,3.544-26.51
				c1.08,8.078,5.508,13.579,9.895,18.801c0,0.008,0,0.008,0,0.008c0.548,0.655,1.089,1.293,1.629,1.94
				C155.901,259.486,157.497,265.085,157.456,269.546z"/>
			<g style="opacity:0.53;">
				<path d="M141.337,235.097c-0.714,3.474-0.886,7.054-0.556,10.572c0.372,3.506,1.337,6.992,3.241,9.961
					c1.833,3.018,4.379,5.504,6.688,8.218c1.149,1.361,2.253,2.805,3.026,4.465c0.783,1.65,1.14,3.527,0.991,5.367
					c-0.018,0.225-0.216,0.393-0.441,0.375c-0.225-0.018-0.393-0.216-0.375-0.441c0-0.002,0.001-0.006,0.001-0.008
					c0.168-1.702-0.122-3.426-0.829-4.997c-0.697-1.578-1.738-3.004-2.846-4.369c-2.226-2.724-4.759-5.292-6.565-8.397
					c-1.881-3.062-2.79-6.622-3.095-10.154C140.314,242.141,140.556,238.558,141.337,235.097z"/>
			</g>
			<g style="opacity:0.25;">
				<path d="M172.699,255.263c-1.253,1.45-2.419,2.973-3.534,4.528c-1.106,1.561-2.166,3.156-3.115,4.813
					c-1.893,3.298-3.503,6.836-4.032,10.555l-0.002,0.014c-0.032,0.224-0.239,0.38-0.463,0.348c-0.224-0.032-0.38-0.239-0.348-0.463
					c0.001-0.004,0.002-0.01,0.002-0.015c0.697-3.883,2.469-7.39,4.492-10.65c1.015-1.635,2.137-3.198,3.301-4.724
					C170.173,258.15,171.395,256.668,172.699,255.263z"/>
			</g>
			<path style="fill:#B8E3E2;" d="M170.044,275.389l-2.799,17.188c-0.139,0.72-0.769,1.244-1.506,1.244h-17.442
				c-0.737,0-1.367-0.524-1.506-1.244l-2.275-13.955l-0.524-3.233c-0.172-0.941,0.548-1.809,1.506-1.809h23.04
				C169.496,273.581,170.216,274.448,170.044,275.389z"/>
			<path style="fill:#86BFBC;" d="M172.696,278.893H141.34l0.827-4.682c0.18-0.982,1.031-1.702,2.03-1.702h25.651
				c0.99,0,1.85,0.72,2.022,1.702L172.696,278.893z"/>
			<path style="opacity:0.25;" d="M161.033,265.911c0,0-0.434,3.544,0.213,6.597h-4.101c0.196-0.892,0.295-1.899,0.311-2.963
				c0.041-4.461-1.555-10.059-4.592-13.701c-0.54-0.647-1.08-1.285-1.629-1.94c0,0,0,0,0-0.008c0.066-2.513,0.638-5.525,2.079-9.061
				c0.237,4.133,1.252,11.32,5.377,12.081c3.135,0.573,7.219-2.537,10.329-5.549c-1.645,2.955-3.225,5.983-4.534,8.93
				C162.146,263.063,161.033,265.911,161.033,265.911z"/>
			<path style="opacity:0.25;" d="M158.708,293.822h-10.411c-0.737,0-1.367-0.524-1.506-1.244l-2.234-13.685h8.995
				c-0.221,1.915-0.491,5.492,0.188,8.267C154.272,289.361,156.204,292.193,158.708,293.822z"/>
		</g>
		<g>
			<path style="fill:#383873;" d="M237.581,152.245h-44.606c-2.202,0-3.988-1.786-3.988-3.988v-33.174
				c0-2.202,1.786-3.988,3.988-3.988h44.606c2.203,0,3.988,1.786,3.988,3.988v33.174
				C241.569,150.459,239.784,152.245,237.581,152.245z"/>
			<g>
				<path style="fill:#FFFFFF;" d="M201.229,125.65v4.429c0,0.355,0.288,0.642,0.642,0.642h2.452c0.355,0,0.642-0.288,0.642-0.642
					v-4.429c0-0.355,0.288-0.642,0.642-0.642h0.237c0.355,0,0.642,0.288,0.642,0.642v12.04c0,0.355-0.288,0.642-0.642,0.642h-0.237
					c-0.355,0-0.642-0.288-0.642-0.642v-4.943c0-0.355-0.288-0.642-0.642-0.642h-2.452c-0.355,0-0.642,0.288-0.642,0.642v4.943
					c0,0.355-0.288,0.642-0.642,0.642h-0.238c-0.355,0-0.642-0.288-0.642-0.642v-12.04c0-0.355,0.288-0.642,0.642-0.642h0.238
					C200.941,125.008,201.229,125.295,201.229,125.65z"/>
				<path style="fill:#FFFFFF;" d="M209.776,126.372h-1.147c-0.355,0-0.642-0.288-0.642-0.642v-0.08
					c0-0.355,0.288-0.642,0.642-0.642h5.1c0.355,0,0.642,0.288,0.642,0.642v0.08c0,0.355-0.288,0.642-0.642,0.642h-1.147
					c-0.355,0-0.642,0.288-0.642,0.642v10.676c0,0.355-0.288,0.642-0.642,0.642h-0.238c-0.355,0-0.642-0.288-0.642-0.642v-10.676
					C210.418,126.66,210.131,126.372,209.776,126.372z"/>
				<path style="fill:#FFFFFF;" d="M223.839,132.599c-0.099-1.76-0.198-3.717-0.138-5.219h-0.079
					c-0.297,1.482-0.653,3.064-1.068,4.626l-1.641,6.247h-0.969l-1.562-5.99c-0.435-1.7-0.83-3.341-1.087-4.883h-0.059
					c0,1.562-0.08,3.42-0.158,5.318l-0.229,5.021c-0.016,0.343-0.298,0.613-0.642,0.613h-0.069c-0.37,0-0.663-0.311-0.641-0.68
					l0.714-12.04c0.02-0.339,0.301-0.604,0.641-0.604h0.537c0.293,0,0.549,0.199,0.622,0.483l1.439,5.606
					c0.454,1.76,0.791,3.064,1.067,4.587h0.059c0.257-1.523,0.554-2.788,0.989-4.587l1.382-5.601
					c0.071-0.287,0.328-0.489,0.624-0.489h0.59c0.34,0,0.622,0.266,0.641,0.605l0.696,12.04c0.021,0.369-0.272,0.679-0.641,0.679
					h-0.131c-0.343,0-0.625-0.269-0.642-0.611L223.839,132.599z"/>
				<path style="fill:#FFFFFF;" d="M228.254,125.008h0.238c0.355,0,0.642,0.288,0.642,0.642v10.755c0,0.355,0.288,0.642,0.642,0.642
					h2.471c0.355,0,0.642,0.288,0.642,0.642l0,0c0,0.355-0.288,0.642-0.642,0.642h-3.993c-0.355,0-0.642-0.288-0.642-0.642v-12.04
					C227.611,125.295,227.899,125.008,228.254,125.008z"/>
			</g>
		</g>
		<g>
			<g>
				<g>
					<path style="fill:#383873;" d="M257.916,114.62c1.669,0,2.063-1.123,2.063-2.124c0-0.88-0.091-1.73-0.182-2.579
						c-0.091-0.91-0.182-1.73-0.182-2.671c0-2.731,1.669-3.884,3.824-3.884h0.364v1.578h-0.455c-1.275,0-1.791,0.911-1.791,2.276
						c0,0.82,0.092,1.578,0.182,2.307c0.061,0.789,0.151,1.517,0.151,2.246c0.03,2.367-0.789,3.186-2.094,3.551v0.061
						c1.305,0.395,2.124,1.214,2.094,3.611c0,0.759-0.091,1.517-0.151,2.276c-0.091,0.759-0.182,1.518-0.182,2.337
						c0,1.366,0.455,2.306,1.821,2.306h0.425v1.578h-0.395c-2.003,0-3.793-1.001-3.793-3.884c0-0.91,0.092-1.821,0.182-2.701
						c0.091-0.88,0.182-1.76,0.182-2.61c0-0.971-0.395-2.155-2.063-2.155V114.62z"/>
					<path style="fill:#383873;" d="M288.853,116.138c-1.669,0-2.063,1.184-2.063,2.155c0,0.85,0.091,1.73,0.182,2.61
						c0.091,0.88,0.182,1.79,0.182,2.701c0,2.883-1.791,3.884-3.793,3.884h-0.395v-1.578h0.425c1.366-0.152,1.821-0.941,1.821-2.306
						c0-0.819-0.091-1.578-0.152-2.337c-0.091-0.759-0.182-1.517-0.182-2.276c-0.03-2.397,0.789-3.217,2.094-3.611v-0.061
						c-1.305-0.364-2.124-1.183-2.094-3.551c0-0.728,0.091-1.457,0.182-2.246c0.061-0.728,0.152-1.487,0.152-2.307
						c0-1.365-0.517-2.124-1.791-2.276h-0.455v-1.578h0.364c2.154,0,3.824,1.153,3.824,3.884c0,0.94-0.091,1.76-0.182,2.671
						c-0.091,0.85-0.182,1.699-0.182,2.579c0,1.001,0.395,2.124,2.063,2.124V116.138z"/>
				</g>
			</g>
			<polygon style="fill:#FF6224;" points="278.44,118.344 278.44,112.506 273.384,109.587 268.329,112.506 268.329,118.344 
				273.384,121.262 			"/>
		</g>
		<g>
			<path style="fill:#FF6224;" d="M316.476,147.43c-4.751-2.366-10.467-1.432-14.223,2.324c-4.636,4.636-4.79,12.067-0.49,16.906
				l-1.853-0.22c-0.224-0.027-0.428,0.133-0.455,0.358c-0.027,0.225,0.134,0.428,0.358,0.455l2.823,0.335
				c0.112,0.014,0.219-0.02,0.302-0.085c0.082-0.065,0.14-0.161,0.153-0.273l0.325-2.731c0.027-0.225-0.133-0.428-0.358-0.455
				c-0.225-0.027-0.428,0.134-0.455,0.358l-0.207,1.739c-4.038-4.517-3.901-11.472,0.435-15.809
				c3.506-3.506,8.843-4.379,13.279-2.171c0.202,0.102,0.448,0.018,0.549-0.184C316.761,147.776,316.678,147.531,316.476,147.43z"/>
			<path style="fill:#FF6224;" d="M305.851,170.079c4.751,2.366,10.467,1.432,14.223-2.324c4.636-4.636,4.791-12.067,0.49-16.906
				l1.853,0.22c0.225,0.027,0.428-0.134,0.455-0.358c0.027-0.225-0.134-0.428-0.358-0.455l-2.823-0.336
				c-0.112-0.013-0.219,0.02-0.301,0.085c-0.082,0.065-0.14,0.161-0.153,0.273l-0.325,2.731c-0.027,0.224,0.133,0.428,0.358,0.455
				c0.225,0.027,0.428-0.133,0.455-0.358l0.207-1.739c4.038,4.518,3.901,11.472-0.435,15.809c-3.506,3.506-8.843,4.379-13.279,2.171
				c-0.202-0.102-0.448-0.018-0.549,0.184C305.566,169.733,305.649,169.978,305.851,170.079z"/>
		</g>
		<g>
			<path style="fill:#FF6224;" d="M415.312,193.053h-74.073c-1.35,0-2.445-1.095-2.445-2.445l0,0c0-1.35,1.094-2.445,2.445-2.445
				h74.073c1.35,0,2.445,1.094,2.445,2.445l0,0C417.756,191.959,416.662,193.053,415.312,193.053z"/>
			<path style="fill:#20C3C5;" d="M388.861,203.68h-47.623c-1.35,0-2.445-1.095-2.445-2.445l0,0c0-1.35,1.094-2.445,2.445-2.445
				h47.623c1.35,0,2.445,1.094,2.445,2.445l0,0C391.306,202.586,390.211,203.68,388.861,203.68z"/>
			<path style="fill:#20C3C5;" d="M388.861,215.09h-47.623c-1.35,0-2.445-1.094-2.445-2.445l0,0c0-1.35,1.094-2.445,2.445-2.445
				h47.623c1.35,0,2.445,1.094,2.445,2.445l0,0C391.306,213.995,390.211,215.09,388.861,215.09z"/>
		</g>
		<g>
			<path style="fill:#20C3C5;" d="M152.667,152.433H114.19c-1.35,0-2.445-1.095-2.445-2.445l0,0c0-1.35,1.094-2.445,2.445-2.445
				h38.477c1.35,0,2.445,1.094,2.445,2.445l0,0C155.111,151.339,154.017,152.433,152.667,152.433z"/>
			<path style="fill:#FF6224;" d="M138.14,163.06h-23.95c-1.35,0-2.445-1.095-2.445-2.445l0,0c0-1.35,1.094-2.445,2.445-2.445h23.95
				c1.35,0,2.445,1.094,2.445,2.445l0,0C140.585,161.966,139.49,163.06,138.14,163.06z"/>
			<path style="fill:#FF6224;" d="M138.14,174.47h-23.95c-1.35,0-2.445-1.095-2.445-2.445l0,0c0-1.35,1.094-2.445,2.445-2.445h23.95
				c1.35,0,2.445,1.094,2.445,2.445l0,0C140.585,173.375,139.49,174.47,138.14,174.47z"/>
		</g>
		<g>
			<path style="fill:#169799;" d="M381.94,329.655c-2.398,6.957-5.263,13.03-8.259,18.514
				c-10.354,18.915-22.377,30.947-22.827,48.585c0,0-3.732-16.615-0.737-35.547c1.678-10.632,5.476-21.993,13.243-31.552
				c21.616-26.584,18.416-50.762,18.416-50.762S392.613,298.724,381.94,329.655z"/>
			<g style="opacity:0.25;">
				<path d="M356.472,376.064c-0.317-2.205-0.231-4.351-0.029-6.506c0.213-2.147,0.599-4.275,1.151-6.355
					c1.072-4.171,2.665-8.19,4.6-12.02c0.932-1.936,2.045-3.774,3.133-5.621l3.48-5.374c2.218-3.613,4.089-7.445,5.664-11.396
					c1.588-3.946,2.925-7.996,4.047-12.105c1.133-4.106,2.06-8.271,2.79-12.47c0.733-4.198,1.269-8.434,1.534-12.689
					c0.127-2.127,0.186-4.261,0.094-6.391c-0.053-1.064-0.12-2.13-0.293-3.182c-0.175-1.046-0.37-2.112-0.867-3.064
					c0.513,0.944,0.727,2.01,0.919,3.055c0.191,1.052,0.275,2.119,0.346,3.185c0.127,2.133,0.103,4.273,0.011,6.407
					c-0.186,4.27-0.69,8.522-1.376,12.74c-0.686,4.219-1.57,8.406-2.663,12.541c-1.082,4.137-2.38,8.222-3.936,12.212
					c-1.543,3.994-3.387,7.882-5.595,11.569l-3.449,5.393c-1.071,1.831-2.169,3.652-3.083,5.567
					c-1.902,3.789-3.461,7.756-4.504,11.857c-0.534,2.046-0.909,4.132-1.141,6.228c-0.218,2.084-0.305,4.239-0.029,6.266
					l0.005,0.038c0.03,0.224-0.126,0.43-0.35,0.46C356.709,376.441,356.504,376.286,356.472,376.064z"/>
			</g>
			<path style="opacity:0.25;" d="M373.682,348.169c-10.354,18.915-22.377,30.947-22.827,48.585c0,0-3.732-16.615-0.737-35.547
				C356.829,358.465,366.266,353.996,373.682,348.169z"/>
			<path style="fill:#20C3C5;" d="M356.856,415.426c0,0-7.561-12.927,10.332-28.879c17.893-15.952,31.896-37.049,29.173-54.118
				c-17.115,19.884-62.626,48.08-49.789,82.994L356.856,415.426z"/>
			<g style="opacity:0.25;">
				<path d="M396.362,332.429c-1.708,3.767-3.997,7.243-6.461,10.558c-2.491,3.301-5.229,6.413-8.146,9.347
					c-2.889,2.964-6.081,5.618-9.244,8.268c-3.144,2.664-5.993,5.673-8.533,8.914c-5.077,6.482-9.047,13.862-11.439,21.732
					c-1.168,3.936-1.971,8-2.084,12.096c-0.12,4.078,0.402,8.228,2.035,11.954c0.091,0.207-0.002,0.448-0.209,0.54
					c-0.207,0.091-0.448-0.002-0.54-0.209l-0.002-0.004c-1.665-3.888-2.156-8.15-2-12.305c0.15-4.173,1-8.282,2.212-12.251
					c2.483-7.933,6.544-15.327,11.705-21.807c2.583-3.24,5.473-6.242,8.656-8.895c3.192-2.63,6.387-5.241,9.297-8.178
					c2.934-2.903,5.693-5.987,8.208-9.264C392.308,339.635,394.623,336.181,396.362,332.429z"/>
			</g>
		</g>
		<g>
			<path style="fill:#169799;" d="M100.057,321.779c0,0-9.336-8.508-14.295-29.781c28.59,24.238,35.592,45.825,35.592,45.825
				L100.057,321.779z"/>
			<g style="opacity:0.25;">
				<path d="M85.762,291.998c3.977,5.691,7.867,11.444,11.652,17.268c1.891,2.913,3.743,5.852,5.542,8.827
					c1.789,2.981,3.54,5.988,4.993,9.188c0.093,0.206,0.003,0.448-0.203,0.542c-0.206,0.093-0.448,0.002-0.542-0.203
					c-0.001-0.002-0.002-0.004-0.002-0.005l-0.006-0.014c-1.357-3.151-3.045-6.194-4.769-9.196
					c-1.735-3.001-3.526-5.973-5.358-8.919C93.401,303.593,89.626,297.766,85.762,291.998z"/>
			</g>
			<path style="fill:#20C3C5;" d="M120.772,333.739c-5.14-4.633-12.752-9.224-19.995-14.168
				c-9.633-6.572-18.612-13.791-20.274-22.606c-3.781,31.814,33.222,46.138,33.222,46.138l0.074,0.106l13.439,19.603
				C127.238,362.811,132.73,344.535,120.772,333.739z"/>
			<g style="opacity:0.25;">
				<path d="M80.503,296.965c0.023,3.546,1.053,7.015,2.545,10.201c1.556,3.169,3.668,6.053,6.184,8.521
					c2.514,2.478,5.415,4.515,8.377,6.437c2.96,1.929,5.969,3.791,8.896,5.786c5.835,3.965,11.429,8.593,15.341,14.599
					c3.97,5.959,5.802,13.185,5.802,20.303c0.001,0.226-0.181,0.41-0.407,0.411c-0.226,0.001-0.41-0.181-0.411-0.407v-0.006
					c0.064-6.994-1.656-14.072-5.499-19.969c-3.787-5.941-9.278-10.587-15.057-14.595c-2.898-2.017-5.887-3.906-8.833-5.867
					c-2.947-1.952-5.846-4.029-8.352-6.548c-2.507-2.507-4.602-5.427-6.132-8.622C81.488,303.998,80.492,300.511,80.503,296.965z"/>
			</g>
		</g>
		<path style="fill:#EAF9F8;" d="M384.206,429.622h-248.61c-3.921,0-7.099-3.178-7.099-7.099l0,0c0-3.921,3.179-7.099,7.099-7.099
			h248.61c3.921,0,7.1,3.178,7.1,7.099l0,0C391.306,426.443,388.127,429.622,384.206,429.622z"/>
	</g>
</g>
<g id="DESIGNED_BY_FREEPIK">
	<g>
		<g id="XMLID_319_">
			<g id="XMLID_338_">
				<path id="XMLID_346_" style="fill:#1D262D;" d="M260.104,465.465c-0.432,0.443-0.803,0.931-1.108,1.453l-0.465-0.241
					c-0.067-0.298-0.349-0.503-0.659-0.466c-0.331,0.039-0.568,0.339-0.529,0.67c0.039,0.331,0.339,0.568,0.67,0.529
					c0.066-0.008,0.127-0.026,0.184-0.052l0.451,0.234c-0.251,0.554-0.433,1.139-0.539,1.744l0.747,0.132
					c0.23-1.306,0.85-2.507,1.792-3.473L260.104,465.465z"/>
				<path id="XMLID_345_" style="fill:#1D262D;" d="M265.592,463.163c-0.171,0-0.341,0.006-0.51,0.017l-0.074-0.626
					c0.188-0.149,0.296-0.389,0.266-0.645c-0.046-0.393-0.402-0.674-0.795-0.628c-0.393,0.046-0.674,0.402-0.628,0.795
					c0.03,0.254,0.189,0.461,0.404,0.564l0.074,0.624c-0.714,0.116-1.403,0.332-2.06,0.646l0.327,0.684
					c0.934-0.447,1.942-0.673,2.995-0.673c0.496,0,0.993,0.053,1.475,0.158l0.161-0.741
					C266.692,463.222,266.142,463.163,265.592,463.163z"/>
				<path id="XMLID_344_" style="fill:#1D262D;" d="M272.194,465.711c0.331-0.04,0.566-0.341,0.526-0.672
					c-0.04-0.331-0.341-0.566-0.672-0.526c-0.309,0.038-0.535,0.304-0.53,0.609l-0.416,0.363c-0.418-0.43-0.889-0.813-1.408-1.139
					l-0.404,0.641c1.134,0.715,2.021,1.726,2.563,2.925l0.69-0.313c-0.251-0.554-0.567-1.072-0.942-1.545l0.402-0.351
					C272.065,465.716,272.129,465.719,272.194,465.711z"/>
				<path id="XMLID_343_" style="fill:#1D262D;" d="M265.044,473.372c-0.386,0.023-0.775,0.035-1.157,0.035
					c-0.88,0-1.733-0.061-2.478-0.179c-0.39-0.062-0.846-0.155-1.27-0.292c1.046,1.861,3.069,3.125,5.388,3.125
					c2.855,0,5.262-1.916,5.95-4.504c-0.682,0.449-1.505,0.825-2.459,1.123C267.839,473.047,266.463,473.286,265.044,473.372z"/>
				<path id="XMLID_339_" style="fill:#1D262D;" d="M265.592,464.68c-3.352,0-6.08,2.666-6.08,5.943
					c0,0.426,0.046,0.849,0.137,1.261c0.673,0.483,2.706,0.89,5.348,0.731c2.879-0.173,5.297-0.957,6.672-2.159
					c-0.006-0.195-0.021-0.39-0.045-0.582C271.244,466.913,268.65,464.68,265.592,464.68z M263.432,471.194
					c-1.02,0-1.85-0.83-1.85-1.85c0-1.02,0.83-1.85,1.85-1.85c1.02,0,1.85,0.83,1.85,1.85
					C265.282,470.365,264.452,471.194,263.432,471.194z M268.17,470.286c-0.75,0-1.36-0.61-1.36-1.36s0.61-1.361,1.36-1.361
					c0.75,0,1.361,0.61,1.361,1.361S268.92,470.286,268.17,470.286z"/>
			</g>
			<path id="XMLID_336_" style="fill:#1D262D;" d="M281.595,466.547c-0.295-0.116-0.805-0.309-1.382-0.237
				c-0.551,0.069-0.844,0.341-0.844,1.007v0.866h2.228v1.717h-2.228v5.455h-1.932v-5.455h-1.34v-1.717h1.34v-0.888
				c0-1.68,0.896-2.783,2.568-2.783c0.643,0,1.157,0.122,1.59,0.308L281.595,466.547z"/>
			<path id="XMLID_334_" style="fill:#1D262D;" d="M286.298,469.879c-0.177-0.03-0.358-0.046-0.526-0.046
				c-0.896,0-1.51,0.548-1.51,1.614v3.908h-1.932v-7.172h1.873v0.785c0.451-0.673,1.14-0.977,2.021-0.977
				c0.414,0,0.848,0.128,1.094,0.337L286.298,469.879z"/>
			<path id="XMLID_331_" style="fill:#1D262D;" d="M293.965,471.757c0,0.222-0.015,0.489-0.037,0.651h-5.085
				c0.207,1.036,0.933,1.488,1.843,1.488c0.622,0,1.295-0.252,1.813-0.688l1.133,1.243c-0.814,0.748-1.85,1.088-3.057,1.088
				c-2.198,0-3.723-1.495-3.723-3.753c0-2.258,1.48-3.797,3.627-3.797C292.544,467.99,293.958,469.522,293.965,471.757z
				 M288.851,471.091h3.175c-0.177-0.918-0.733-1.436-1.562-1.436C289.554,469.655,289.021,470.203,288.851,471.091z"/>
			<path id="XMLID_328_" style="fill:#1D262D;" d="M301.618,471.757c0,0.222-0.015,0.489-0.037,0.651h-5.085
				c0.207,1.036,0.932,1.488,1.843,1.488c0.622,0,1.295-0.252,1.814-0.688l1.132,1.243c-0.814,0.748-1.85,1.088-3.057,1.088
				c-2.198,0-3.723-1.495-3.723-3.753c0-2.258,1.48-3.797,3.627-3.797C300.197,467.99,301.611,469.522,301.618,471.757z
				 M296.504,471.091h3.175c-0.178-0.918-0.733-1.436-1.562-1.436C297.207,469.655,296.674,470.203,296.504,471.091z"/>
			<path id="XMLID_325_" style="fill:#1D262D;" d="M309.964,471.764c0,2.154-1.495,3.775-3.471,3.775
				c-0.962,0-1.643-0.378-2.109-0.933v3.708h-1.924v-10.133h1.887v0.792c0.466-0.585,1.155-0.984,2.139-0.984
				C308.469,467.99,309.964,469.61,309.964,471.764z M304.287,471.764c0,1.132,0.747,1.976,1.843,1.976
				c1.14,0,1.85-0.881,1.85-1.976c0-1.095-0.71-1.976-1.85-1.976C305.035,469.788,304.287,470.632,304.287,471.764z"/>
			<path id="XMLID_322_" style="fill:#1D262D;" d="M313.068,465.836c0,0.696-0.54,1.229-1.236,1.229
				c-0.696,0-1.229-0.533-1.229-1.229c0-0.696,0.533-1.243,1.229-1.243C312.527,464.592,313.068,465.14,313.068,465.836z
				 M312.809,475.354h-1.932v-7.172h1.932V475.354z"/>
			<path id="XMLID_320_" style="fill:#1D262D;" d="M316.032,470.736l2.701-2.554h2.368l-3.479,3.375l3.501,3.797h-2.376
				l-2.716-2.901v2.901H314.1v-10.658h1.932V470.736z"/>
		</g>
		<g>
			<path style="fill:#1D262D;" d="M184.412,475.289v-1.055c-0.527,0.718-1.391,1.23-2.388,1.23c-1.846,0-3.149-1.406-3.149-3.706
				c0-2.256,1.289-3.721,3.149-3.721c0.952,0,1.816,0.469,2.388,1.245v-3.765h1.099v9.77H184.412z M184.412,473.37v-3.208
				c-0.395-0.615-1.245-1.143-2.124-1.143c-1.421,0-2.27,1.172-2.27,2.739c0,1.567,0.85,2.724,2.27,2.724
				C183.168,474.483,184.017,473.986,184.412,473.37z"/>
			<path style="fill:#1D262D;" d="M186.932,471.744c0-2.051,1.465-3.706,3.486-3.706c2.139,0,3.398,1.67,3.398,3.794v0.279h-5.727
				c0.088,1.333,1.025,2.446,2.549,2.446c0.805,0,1.626-0.322,2.182-0.894l0.527,0.718c-0.703,0.703-1.655,1.084-2.812,1.084
				C188.44,475.465,186.932,473.956,186.932,471.744z M190.403,468.947c-1.509,0-2.256,1.274-2.314,2.358h4.643
				C192.718,470.25,192.015,468.947,190.403,468.947z"/>
			<path style="fill:#1D262D;" d="M194.607,474.351l0.571-0.791c0.469,0.542,1.362,1.011,2.329,1.011c1.084,0,1.67-0.513,1.67-1.216
				c0-1.714-4.38-0.659-4.38-3.281c0-1.098,0.952-2.036,2.636-2.036c1.201,0,2.051,0.454,2.622,1.026l-0.513,0.762
				c-0.424-0.513-1.201-0.894-2.109-0.894c-0.967,0-1.567,0.483-1.567,1.113c0,1.552,4.38,0.527,4.38,3.281
				c0,1.187-0.952,2.138-2.783,2.138C196.306,475.465,195.325,475.113,194.607,474.351z"/>
			<path style="fill:#1D262D;" d="M201.477,466.471c0-0.41,0.337-0.747,0.732-0.747c0.41,0,0.747,0.337,0.747,0.747
				c0,0.41-0.337,0.732-0.747,0.732C201.814,467.203,201.477,466.881,201.477,466.471z M201.667,475.289v-7.075h1.099v7.075H201.667
				z"/>
			<path style="fill:#1D262D;" d="M204.582,477.105l0.556-0.82c0.586,0.703,1.289,0.967,2.3,0.967c1.172,0,2.27-0.571,2.27-2.124
				v-1.011c-0.513,0.718-1.377,1.26-2.373,1.26c-1.845,0-3.149-1.377-3.149-3.662c0-2.27,1.289-3.677,3.149-3.677
				c0.952,0,1.802,0.469,2.373,1.245v-1.069h1.098v6.87c0,2.344-1.641,3.076-3.369,3.076
				C206.237,478.16,205.417,477.926,204.582,477.105z M209.709,473.253v-3.091c-0.381-0.615-1.23-1.143-2.109-1.143
				c-1.421,0-2.27,1.128-2.27,2.695c0,1.553,0.849,2.695,2.27,2.695C208.478,474.41,209.328,473.868,209.709,473.253z"/>
			<path style="fill:#1D262D;" d="M217.413,475.289v-4.629c0-1.245-0.63-1.641-1.582-1.641c-0.865,0-1.685,0.527-2.095,1.099v5.17
				h-1.099v-7.075h1.099v1.025c0.498-0.586,1.465-1.201,2.519-1.201c1.48,0,2.256,0.747,2.256,2.285v4.966H217.413z"/>
			<path style="fill:#1D262D;" d="M219.932,471.744c0-2.051,1.465-3.706,3.486-3.706c2.139,0,3.398,1.67,3.398,3.794v0.279h-5.727
				c0.088,1.333,1.025,2.446,2.549,2.446c0.806,0,1.626-0.322,2.183-0.894l0.527,0.718c-0.703,0.703-1.655,1.084-2.812,1.084
				C221.441,475.465,219.932,473.956,219.932,471.744z M223.404,468.947c-1.509,0-2.256,1.274-2.314,2.358h4.643
				C225.718,470.25,225.015,468.947,223.404,468.947z"/>
			<path style="fill:#1D262D;" d="M233.35,475.289v-1.055c-0.527,0.718-1.392,1.23-2.388,1.23c-1.846,0-3.149-1.406-3.149-3.706
				c0-2.256,1.289-3.721,3.149-3.721c0.952,0,1.817,0.469,2.388,1.245v-3.765h1.098v9.77H233.35z M233.35,473.37v-3.208
				c-0.396-0.615-1.245-1.143-2.124-1.143c-1.421,0-2.27,1.172-2.27,2.739c0,1.567,0.849,2.724,2.27,2.724
				C232.105,474.483,232.954,473.986,233.35,473.37z"/>
			<path style="fill:#1D262D;" d="M239.692,475.289v-9.77h1.098v3.765c0.572-0.776,1.421-1.245,2.388-1.245
				c1.845,0,3.149,1.465,3.149,3.721c0,2.299-1.304,3.706-3.149,3.706c-0.996,0-1.86-0.513-2.388-1.23v1.055H239.692z
				 M242.9,474.483c1.436,0,2.285-1.157,2.285-2.724c0-1.568-0.85-2.739-2.285-2.739c-0.864,0-1.728,0.527-2.109,1.143v3.208
				C241.171,473.986,242.036,474.483,242.9,474.483z"/>
			<path style="fill:#1D262D;" d="M247.528,477.061c0.161,0.073,0.425,0.117,0.601,0.117c0.483,0,0.805-0.161,1.055-0.747
				l0.469-1.069l-2.959-7.148h1.187l2.358,5.8l2.344-5.8h1.201l-3.545,8.51c-0.425,1.025-1.143,1.421-2.08,1.435
				c-0.234,0-0.601-0.044-0.805-0.103L247.528,477.061z"/>
		</g>
	</g>
</g>
</svg>
