<?xml version="1.0" encoding="utf-8"?>
<!-- Generator: Adobe Illustrator 27.5.0, SVG Export Plug-In . SVG Version: 6.00 Build 0)  -->
<svg version="1.1" xmlns="http://www.w3.org/2000/svg" xmlns:xlink="http://www.w3.org/1999/xlink" x="0px" y="0px"
	 viewBox="0 0 500 500" style="enable-background:new 0 0 500 500;" xml:space="preserve">
<g id="BACKGROUND">
	<rect x="-0.64" y="-0.278" style="fill:#FFFFFF;" width="500.667" height="500.271"/>
	<g style="opacity:0.59;">
		<path style="fill:#E6E0FF;" d="M207.438,77.132c-19.29-1.13-50.894,4.28-71.371,9.613c-20.477,5.333-42.329,17.839-59.295,39.307
			c-14.744,18.656-24.675,42.724-29.778,66.075c-6.377,29.18-5.578,58.15,3.047,80.191c8.625,22.041,25.173,36.805,45.734,39.373
			c22.841,2.853,51.634-8.087,67.045,9.768c8.739,10.125,10.89,27.408,14.602,42.729c11.508,47.51,41.391,80.861,80.313,89.638
			c38.922,8.776,86.288-7.157,127.304-42.823c27.287-23.728,52.791-58.11,62.538-96.041c6.489-25.252,5.438-49.988-0.101-70.693
			c-5.539-20.705-15.336-37.748-26.164-53.195C363.32,108.34,289.402,52.388,139.746,85.535"/>
	</g>
	<path style="opacity:0.59;fill:none;stroke:#E6E0FF;stroke-miterlimit:10;" d="M201.55,80.237
		c-19.29-1.13-50.894,4.28-71.371,9.613c-20.477,5.333-42.329,17.839-59.295,39.307c-14.744,18.656-24.675,42.724-29.778,66.075
		c-6.377,29.18-5.578,58.15,3.048,80.191c8.625,22.041,25.173,36.805,45.734,39.373c22.841,2.853,51.635-8.087,67.045,9.768
		c8.739,10.125,10.89,27.408,14.602,42.729c11.508,47.51,41.391,80.861,80.313,89.638c38.922,8.777,86.288-7.157,127.304-42.823
		c27.287-23.728,52.791-58.11,62.538-96.041c6.489-25.252,5.438-49.988-0.101-70.693c-5.539-20.705-15.336-37.748-26.164-53.195
		c-57.992-82.733-131.91-138.685-281.566-105.538"/>
</g>
<g id="OBJECTS">
	<g>
		<g>
			<g style="enable-background:new    ;">
				<g style="enable-background:new    ;">
					<defs>
						<path id="SVGID_1_" style="enable-background:new    ;" d="M417.652,190.648l9.086,8.004c-1.303-1.148-2.986-1.938-4.983-2.16
							l-9.086-8.004C414.666,188.71,416.349,189.5,417.652,190.648z"/>
					</defs>
					<clipPath id="SVGID_00000007392639858995577650000000143466575950855589_">
						<use xlink:href="#SVGID_1_"  style="overflow:visible;"/>
					</clipPath>
					<g style="clip-path:url(#SVGID_00000007392639858995577650000000143466575950855589_);enable-background:new    ;">
						<path style="fill:#551189;" d="M421.755,196.492l-9.086-8.004c0.034,0.004,0.069,0.008,0.103,0.012l9.086,8.004
							C421.824,196.5,421.79,196.496,421.755,196.492"/>
						<path style="fill:#58118D;" d="M421.859,196.504l-9.086-8.004c1.519,0.185,2.854,0.7,3.975,1.451l9.086,8.004
							C424.712,197.204,423.378,196.689,421.859,196.504"/>
						<path style="fill:#551189;" d="M425.833,197.955l-9.086-8.004c0.319,0.214,0.621,0.447,0.905,0.697l9.086,8.004
							C426.454,198.402,426.153,198.169,425.833,197.955"/>
					</g>
				</g>
				<g style="enable-background:new    ;">
					<defs>
						<path id="SVGID_00000078034895055857607060000003717179033514508979_" style="enable-background:new    ;" d="
							M145.597,416.753l-9.086-8.004c-2.252-1.984-3.538-5.089-2.893-8.638l9.086,8.004
							C142.059,411.664,143.345,414.769,145.597,416.753z"/>
					</defs>
					<clipPath id="SVGID_00000057848932949129098290000014020621695337474729_">
						<use xlink:href="#SVGID_00000078034895055857607060000003717179033514508979_"  style="overflow:visible;"/>
					</clipPath>
					<g style="clip-path:url(#SVGID_00000057848932949129098290000014020621695337474729_);enable-background:new    ;">
						<path style="fill:#450E6F;" d="M145.597,416.753l-9.086-8.004c-2.252-1.984-3.538-5.089-2.893-8.638l9.086,8.004
							C142.059,411.664,143.345,414.769,145.597,416.753"/>
					</g>
				</g>
				<g>
					<polygon style="fill:#591190;" points="318.43,184.984 309.343,176.98 412.669,188.488 421.755,196.492 					"/>
				</g>
				<g style="enable-background:new    ;">
					<defs>
						<path id="SVGID_00000108994898031466353110000014567360955121416580_" style="enable-background:new    ;" d="
							M313.446,182.787l-9.086-8.004c1.369,1.206,3.096,1.984,4.984,2.198l9.086,8.004
							C316.542,184.771,314.814,183.992,313.446,182.787z"/>
					</defs>
					<clipPath id="SVGID_00000124852936232761234200000013153018321116483256_">
						<use xlink:href="#SVGID_00000108994898031466353110000014567360955121416580_"  style="overflow:visible;"/>
					</clipPath>
					<g style="clip-path:url(#SVGID_00000124852936232761234200000013153018321116483256_);enable-background:new    ;">
						<path style="fill:#551189;" d="M313.446,182.787l-9.086-8.004c0.298,0.262,0.613,0.505,0.943,0.725l9.086,8.004
							C314.059,183.291,313.744,183.049,313.446,182.787"/>
						<path style="fill:#58118D;" d="M314.388,183.512l-9.086-8.004c1.168,0.781,2.522,1.29,3.974,1.465l9.086,8.004
							C316.911,184.802,315.556,184.292,314.388,183.512"/>
						<path style="fill:#551189;" d="M318.362,184.977l-9.086-8.004c0.022,0.003,0.045,0.005,0.067,0.008l9.086,8.004
							C318.407,184.982,318.385,184.979,318.362,184.977"/>
					</g>
				</g>
				<g>
					<polygon style="fill:#430D6B;" points="142.704,408.114 133.618,400.11 152.638,295.82 161.724,303.824 					"/>
				</g>
				<g style="enable-background:new    ;">
					<defs>
						<path id="SVGID_00000176020993863819826690000000791382915544014250_" style="enable-background:new    ;" d="
							M161.724,303.824l-9.086-8.004c0.575-3.13-0.419-6.275-2.634-8.4l9.086,8.004C161.306,297.55,162.299,300.695,161.724,303.824
							z"/>
					</defs>
					<clipPath id="SVGID_00000022533305203962752270000005751190645880096647_">
						<use xlink:href="#SVGID_00000176020993863819826690000000791382915544014250_"  style="overflow:visible;"/>
					</clipPath>
					<g style="clip-path:url(#SVGID_00000022533305203962752270000005751190645880096647_);enable-background:new    ;">
						<path style="fill:#450E6F;" d="M161.724,303.824l-9.086-8.004c0.575-3.13-0.419-6.275-2.634-8.4l9.086,8.004
							C161.306,297.55,162.299,300.695,161.724,303.824"/>
					</g>
				</g>
				<g style="enable-background:new    ;">
					<defs>
						<path id="SVGID_00000089569730562036826250000010493339737594917053_" style="enable-background:new    ;" d="M194.34,189.318
							l-9.086-8.004c3.117-0.567,5.833-2.626,7.254-5.503l9.086,8.004C200.173,186.692,197.457,188.751,194.34,189.318z"/>
					</defs>
					<clipPath id="SVGID_00000060727545133173509700000009174590570245639590_">
						<use xlink:href="#SVGID_00000089569730562036826250000010493339737594917053_"  style="overflow:visible;"/>
					</clipPath>
					<g style="clip-path:url(#SVGID_00000060727545133173509700000009174590570245639590_);enable-background:new    ;">
						<path style="fill:#521085;" d="M194.34,189.318l-9.086-8.004c0.248-0.045,0.493-0.1,0.736-0.163l9.086,8.004
							C194.834,189.218,194.588,189.273,194.34,189.318"/>
						<path style="fill:#501080;" d="M195.076,189.154l-9.086-8.004c0.439-0.115,0.867-0.26,1.284-0.433l9.086,8.004
							C195.944,188.894,195.515,189.039,195.076,189.154"/>
						<path style="fill:#4D0F7C;" d="M196.36,188.721l-9.086-8.004c0.41-0.17,0.808-0.367,1.191-0.589l9.086,8.004
							C197.168,188.354,196.77,188.551,196.36,188.721"/>
						<path style="fill:#4A0F78;" d="M197.551,188.132l-9.086-8.004c0.407-0.236,0.797-0.5,1.168-0.789l9.086,8.004
							C198.349,187.633,197.958,187.897,197.551,188.132"/>
						<path style="fill:#480E74;" d="M198.719,187.343l-9.086-8.004c0.438-0.342,0.849-0.721,1.228-1.132l9.086,8.004
							C199.569,186.622,199.158,187.001,198.719,187.343"/>
						<path style="fill:#450E6F;" d="M199.947,186.211l-9.086-8.004c0.654-0.709,1.211-1.514,1.647-2.397l9.086,8.004
							C201.159,184.697,200.601,185.502,199.947,186.211"/>
					</g>
				</g>
				<g style="enable-background:new    ;">
					<defs>
						<path id="SVGID_00000146486988814658486450000009360753926102366905_" style="enable-background:new    ;" d="M255.003,76.424
							l9.086,8.004c-1.768-1.558-4.053-2.288-6.349-2.208l-9.086-8.004C250.949,74.136,253.234,74.866,255.003,76.424z"/>
					</defs>
					<clipPath id="SVGID_00000037663657651306617510000004794254224746527159_">
						<use xlink:href="#SVGID_00000146486988814658486450000009360753926102366905_"  style="overflow:visible;"/>
					</clipPath>
					<g style="clip-path:url(#SVGID_00000037663657651306617510000004794254224746527159_);enable-background:new    ;">
						<path style="fill:#551189;" d="M257.74,82.221l-9.086-8.004c0.498-0.017,0.996,0.003,1.488,0.063l9.086,8.004
							C258.736,82.224,258.238,82.203,257.74,82.221"/>
						<path style="fill:#58118D;" d="M259.228,82.283l-9.086-8.004c1.403,0.168,2.759,0.648,3.95,1.444l9.086,8.004
							C261.987,82.932,260.63,82.452,259.228,82.283"/>
						<path style="fill:#551189;" d="M263.178,83.727l-9.086-8.004c0.316,0.211,0.621,0.445,0.911,0.701l9.086,8.004
							C263.798,84.172,263.494,83.939,263.178,83.727"/>
					</g>
				</g>
				<g>
					<polygon style="fill:#440D6E;" points="201.594,183.814 192.508,175.81 240.023,79.863 249.109,87.867 					"/>
				</g>
				<g style="enable-background:new    ;">
					<defs>
						<path id="SVGID_00000149375188818556666130000001412309576882621862_" style="enable-background:new    ;" d="M249.109,87.867
							l-9.086-8.004c1.799-3.626,5.227-5.527,8.631-5.646l9.086,8.004C254.335,82.34,250.908,84.241,249.109,87.867z"/>
					</defs>
					<clipPath id="SVGID_00000096049666990265299080000001742064662505874080_">
						<use xlink:href="#SVGID_00000149375188818556666130000001412309576882621862_"  style="overflow:visible;"/>
					</clipPath>
					<g style="clip-path:url(#SVGID_00000096049666990265299080000001742064662505874080_);enable-background:new    ;">
						<path style="fill:#450E6F;" d="M249.109,87.867l-9.086-8.004c0.46-0.928,1.028-1.743,1.674-2.445l9.086,8.004
							C250.137,86.123,249.569,86.939,249.109,87.867"/>
						<path style="fill:#480E74;" d="M250.783,85.422l-9.086-8.004c0.374-0.406,0.774-0.773,1.196-1.103l9.086,8.004
							C251.557,84.649,251.157,85.017,250.783,85.422"/>
						<path style="fill:#4A0F78;" d="M251.979,84.32l-9.086-8.004c0.363-0.284,0.743-0.539,1.134-0.766l9.086,8.004
							C252.721,83.78,252.342,84.036,251.979,84.32"/>
						<path style="fill:#4D0F7C;" d="M253.113,83.554l-9.086-8.004c0.381-0.221,0.773-0.414,1.174-0.58l9.086,8.004
							C253.886,83.14,253.494,83.333,253.113,83.554"/>
						<path style="fill:#501080;" d="M254.287,82.973l-9.086-8.004c0.421-0.175,0.852-0.319,1.288-0.434l9.086,8.004
							C255.138,82.654,254.708,82.799,254.287,82.973"/>
						<path style="fill:#521085;" d="M255.574,82.539l-9.086-8.004c0.5-0.131,1.008-0.223,1.517-0.275l9.086,8.004
							C256.582,82.317,256.075,82.408,255.574,82.539"/>
						<path style="fill:#551189;" d="M257.092,82.265l-9.086-8.004c0.216-0.022,0.432-0.037,0.649-0.044l9.086,8.004
							C257.524,82.228,257.308,82.243,257.092,82.265"/>
					</g>
				</g>
				<g>
					<polygon style="fill:#430D6B;" points="159.091,295.425 150.004,287.421 76.044,216.609 85.13,224.614 					"/>
				</g>
				<g>
					<polygon style="fill:#56118B;" points="90.625,208.055 81.539,200.051 185.254,181.313 194.34,189.318 					"/>
				</g>
				<g style="enable-background:new    ;">
					<defs>
						<path id="SVGID_00000026127564557605567160000010369508501059084683_" style="enable-background:new    ;" d="M85.13,224.614
							l-9.086-8.004c-5.599-5.354-2.346-15.14,5.495-16.559l9.086,8.004C82.785,209.474,79.531,219.26,85.13,224.614z"/>
					</defs>
					<clipPath id="SVGID_00000002342753559517288830000007286032112335264686_">
						<use xlink:href="#SVGID_00000026127564557605567160000010369508501059084683_"  style="overflow:visible;"/>
					</clipPath>
					<g style="clip-path:url(#SVGID_00000002342753559517288830000007286032112335264686_);enable-background:new    ;">
						<path style="fill:#450E6F;" d="M85.13,224.614l-9.086-8.004c-3.962-3.789-3.491-9.798-0.098-13.489l9.086,8.004
							C81.639,214.816,81.168,220.825,85.13,224.614"/>
						<path style="fill:#480E74;" d="M85.032,211.124l-9.086-8.004c0.366-0.398,0.766-0.77,1.198-1.108l9.086,8.004
							C85.798,210.355,85.398,210.726,85.032,211.124"/>
						<path style="fill:#4A0F78;" d="M86.23,210.016l-9.086-8.004c0.359-0.281,0.739-0.54,1.141-0.772l9.086,8.004
							C86.97,209.477,86.589,209.735,86.23,210.016"/>
						<path style="fill:#4D0F7C;" d="M87.371,209.244l-9.086-8.004c0.372-0.215,0.762-0.409,1.169-0.578l9.086,8.004
							C88.133,208.835,87.743,209.028,87.371,209.244"/>
						<path style="fill:#501080;" d="M88.54,208.666l-9.086-8.004c0.419-0.174,0.856-0.321,1.31-0.44l9.086,8.004
							C89.396,208.345,88.959,208.492,88.54,208.666"/>
						<path style="fill:#521085;" d="M89.851,208.226l-9.086-8.004c0.253-0.066,0.511-0.123,0.775-0.171l9.086,8.004
							C90.362,208.103,90.104,208.16,89.851,208.226"/>
					</g>
				</g>
				<g>
					<path style="fill:#7316B9;" d="M257.74,82.221c3.405-0.119,6.787,1.544,8.494,5.048l45.077,92.714
						c1.357,2.78,4.022,4.652,7.119,5.001l103.326,11.507c7.82,0.872,10.824,10.439,5.083,16.189l-75.851,76.043
						c-2.281,2.282-3.347,5.499-2.853,8.591l16.342,103.055c0.981,6.17-3.988,11.383-9.551,11.577
						c-1.467,0.051-2.975-0.246-4.426-0.968l-91.961-45.721c-1.384-0.683-2.906-0.995-4.432-0.942
						c-1.526,0.053-3.056,0.472-4.454,1.252l-93.222,52.188c-1.471,0.823-2.989,1.227-4.455,1.278
						c-5.564,0.194-10.404-4.676-9.27-10.92l19.02-104.29c0.575-3.129-0.419-6.275-2.634-8.4L85.13,224.614
						c-5.599-5.354-2.345-15.14,5.495-16.558l103.715-18.738c3.117-0.567,5.833-2.626,7.254-5.503l47.514-95.948
						C250.908,84.241,254.335,82.34,257.74,82.221z"/>
				</g>
			</g>
		</g>
	</g>
	<g>
		<path style="fill:#FFFFFF;" d="M378.634,306.373l1.124,4.834c0.034,0.145,0.137,0.264,0.276,0.319l4.62,1.814
			c0.349,0.137,0.39,0.616,0.068,0.81l-4.25,2.563c-0.128,0.077-0.209,0.212-0.218,0.361l-0.298,4.954
			c-0.022,0.375-0.465,0.561-0.749,0.315l-3.751-3.25c-0.113-0.098-0.266-0.134-0.41-0.096l-4.804,1.247
			c-0.363,0.094-0.677-0.269-0.531-0.615l1.932-4.572c0.058-0.137,0.045-0.294-0.035-0.42l-2.671-4.183
			c-0.202-0.316,0.046-0.727,0.421-0.695l4.945,0.424c0.149,0.013,0.294-0.048,0.389-0.164l3.153-3.833
			C378.081,305.898,378.549,306.007,378.634,306.373z"/>
	</g>
	<g>
		<path style="fill:#FFFFFF;" d="M138.855,111.448l1.124,4.834c0.034,0.145,0.137,0.264,0.276,0.319l4.62,1.814
			c0.349,0.137,0.39,0.616,0.068,0.809l-4.25,2.563c-0.128,0.077-0.209,0.212-0.218,0.361l-0.298,4.954
			c-0.023,0.375-0.465,0.561-0.749,0.315l-3.751-3.25c-0.113-0.098-0.266-0.134-0.41-0.096l-4.804,1.248
			c-0.363,0.094-0.677-0.269-0.531-0.615l1.932-4.572c0.058-0.137,0.045-0.294-0.036-0.42l-2.671-4.183
			c-0.202-0.316,0.046-0.727,0.421-0.695l4.945,0.424c0.149,0.013,0.294-0.048,0.389-0.163l3.153-3.833
			C138.303,110.973,138.77,111.083,138.855,111.448z"/>
	</g>
	<g>
		<path style="fill:#851AD6;" d="M341.946,70.189l2.247,2.656c0.068,0.08,0.17,0.121,0.274,0.111l3.461-0.345
			c0.262-0.026,0.44,0.259,0.301,0.483l-1.832,2.957c-0.055,0.089-0.063,0.199-0.021,0.295l1.398,3.185
			c0.106,0.241-0.111,0.499-0.366,0.436l-3.379-0.828c-0.102-0.025-0.209,0.002-0.287,0.071l-2.598,2.314
			c-0.197,0.175-0.508,0.049-0.528-0.214l-0.257-3.469c-0.008-0.104-0.066-0.198-0.156-0.251l-3.003-1.755
			c-0.227-0.133-0.203-0.468,0.04-0.568l3.22-1.316c0.097-0.039,0.168-0.124,0.19-0.226l0.741-3.399
			C341.45,70.069,341.776,69.988,341.946,70.189z"/>
	</g>
	<g>
		<path style="fill:#851AD6;" d="M434.529,384.274l2.247,2.656c0.067,0.08,0.17,0.121,0.274,0.111l3.461-0.345
			c0.262-0.026,0.44,0.259,0.301,0.483l-1.832,2.957c-0.055,0.089-0.063,0.199-0.021,0.295l1.398,3.185
			c0.106,0.241-0.111,0.499-0.366,0.436l-3.379-0.828c-0.102-0.025-0.209,0.002-0.287,0.071l-2.597,2.314
			c-0.197,0.175-0.508,0.049-0.528-0.214l-0.257-3.469c-0.008-0.104-0.066-0.198-0.157-0.251l-3.003-1.755
			c-0.227-0.133-0.204-0.469,0.04-0.568l3.22-1.316c0.097-0.04,0.168-0.124,0.19-0.226l0.741-3.399
			C434.033,384.154,434.359,384.073,434.529,384.274z"/>
	</g>
	<g>
		<path style="fill:#851AD6;" d="M63.429,95.08l2.722,3.218c0.082,0.097,0.206,0.147,0.332,0.134l4.194-0.418
			c0.317-0.032,0.533,0.314,0.365,0.585l-2.219,3.584c-0.067,0.108-0.076,0.241-0.025,0.357l1.694,3.86
			c0.128,0.292-0.134,0.604-0.444,0.528l-4.094-1.003c-0.123-0.03-0.253,0.002-0.347,0.086l-3.148,2.804
			c-0.238,0.212-0.616,0.059-0.64-0.259l-0.311-4.204c-0.009-0.126-0.08-0.24-0.19-0.304l-3.639-2.127
			c-0.275-0.161-0.247-0.568,0.049-0.688l3.902-1.595c0.117-0.048,0.203-0.15,0.23-0.274l0.899-4.118
			C62.827,94.935,63.223,94.836,63.429,95.08z"/>
	</g>
	<g>
		<path style="fill:#FFFFFF;" d="M273.26,390.282l-0.42,3.453c-0.013,0.104,0.027,0.207,0.105,0.276l2.606,2.304
			c0.197,0.174,0.109,0.499-0.149,0.549l-3.414,0.667c-0.102,0.02-0.189,0.089-0.23,0.185l-1.385,3.191
			c-0.105,0.241-0.441,0.258-0.569,0.028l-1.69-3.041c-0.051-0.091-0.143-0.152-0.247-0.162l-3.463-0.332
			c-0.262-0.025-0.382-0.34-0.202-0.532l2.37-2.547c0.071-0.077,0.1-0.183,0.078-0.285l-0.755-3.396
			c-0.057-0.257,0.205-0.468,0.444-0.357l3.154,1.467c0.095,0.044,0.205,0.039,0.295-0.014l2.997-1.767
			C273.01,389.837,273.291,390.021,273.26,390.282z"/>
	</g>
	<g>
		<path style="fill:#FFFFFF;" d="M98.636,271.034l3.73,3.274c0.112,0.098,0.265,0.135,0.41,0.099l4.811-1.217
			c0.364-0.092,0.676,0.273,0.527,0.618l-1.96,4.559c-0.059,0.137-0.047,0.294,0.033,0.42l2.644,4.2
			c0.2,0.318-0.051,0.727-0.425,0.693l-4.942-0.456c-0.148-0.014-0.294,0.046-0.39,0.161l-3.177,3.813
			c-0.24,0.288-0.707,0.176-0.79-0.19l-1.094-4.841c-0.033-0.145-0.135-0.265-0.274-0.321l-4.608-1.843
			c-0.349-0.139-0.386-0.618-0.063-0.81l4.266-2.536c0.128-0.076,0.211-0.211,0.22-0.359l0.329-4.952
			C97.91,270.97,98.354,270.787,98.636,271.034z"/>
	</g>
	<g>
		<path style="fill:#8D25DB;" d="M176.589,440.948l3.73,3.273c0.112,0.098,0.265,0.135,0.41,0.099l4.811-1.217
			c0.364-0.092,0.676,0.273,0.527,0.618l-1.961,4.559c-0.059,0.137-0.047,0.294,0.033,0.42l2.644,4.2
			c0.2,0.318-0.051,0.727-0.425,0.693l-4.942-0.456c-0.148-0.014-0.294,0.047-0.39,0.161l-3.177,3.813
			c-0.24,0.288-0.707,0.176-0.79-0.19l-1.094-4.841c-0.033-0.145-0.135-0.265-0.274-0.321l-4.608-1.843
			c-0.349-0.139-0.386-0.618-0.063-0.81l4.266-2.536c0.128-0.076,0.211-0.211,0.221-0.359l0.329-4.952
			C175.863,440.884,176.307,440.701,176.589,440.948z"/>
	</g>
	<g>
		<path style="fill:none;stroke:#4A1473;stroke-miterlimit:10;" d="M429.549,108.381H300.187c-3.146,0-5.696,2.55-5.696,5.696
			v82.135c0,3.146,2.55,5.696,5.696,5.696h12.174v17.88c0,0.578,0.699,0.868,1.108,0.459l18.339-18.339h97.741
			c3.146,0,5.696-2.55,5.696-5.696v-82.135C435.244,110.93,432.694,108.381,429.549,108.381z"/>
		<g>
			<path style="fill:#E4AC28;" d="M369.15,178.777c-8.052-2.632-15.874-6.84-21.057-13.541c-5.183-6.701-7.242-16.233-3.572-23.868
				c1.852-3.853,5.015-7.057,6.276-11.142c2.118-6.862-1.633-14.305-0.44-21.386c0.999-5.934,3.637-13.979,7.731-18.389
				c6.007-6.471,14.171-9.978,22.76-12.026c9.887-2.357,20.614,2.509,26.88,10.511c3.438,4.39,5.666,9.56,6.898,15.008
				c1.484,6.563,5.981,12.164,12.141,14.872c2.29,1.007,4.37,2.482,6.028,4.358c4.145,4.69,7.581,12.739,5.456,18.627
				c-2.166,6.002-7.664,11.691-5.665,17.751c1.487,4.507,6.448,6.654,10.086,9.701c9.251,7.747,10.797,24.693,1.48,32.36
				c-9.318,7.667-29.052,2.911-34.873-7.659"/>
		</g>
		<g>
			<defs>
				
					<rect id="SVGID_00000142891394459097119670000011649790331244186252_" x="304.925" y="73.213" width="139.226" height="128.399"/>
			</defs>
			<clipPath id="SVGID_00000034791664942940505410000011425755314439773320_">
				<use xlink:href="#SVGID_00000142891394459097119670000011649790331244186252_"  style="overflow:visible;"/>
			</clipPath>
			<g style="clip-path:url(#SVGID_00000034791664942940505410000011425755314439773320_);">
				<path style="fill:#F0C094;" d="M291.026,209.908l40.937-6.552c0,0,20.57-21.991,34.34-41.278
					c4.502,4.456,7.004,11.303,11.539,15.716l-33.629,37.197c-1.213,1.342-2.935,2.11-4.744,2.116l-46.686,0.155l-15.976,1.273
					V208.31L291.026,209.908z"/>
				<path style="fill:#192436;" d="M364.164,199.124c0,0,17.436-17.878,21.923-25.645c4.487-7.767-3.056-2.711-10.759-4.754
					c-2.917-0.774-2.179-17.87-7.694-12.313c-9.048,9.117-20.423,25.059-20.423,25.059L364.164,199.124z"/>
				<path style="fill:#192436;" d="M388.953,148.568c0,0,15.648-3.089,22.788,2.877c7.141,5.966-1.53,59.006-1.522,67.799
					c0.008,8.793,4.903,33.635,4.903,33.635s-47.426,8.301-54.96-4.898c0,0-2.143-50.289-1.824-56.613
					c0.319-6.324,7.35-32.187,9.295-34.957C369.577,153.642,388.953,148.568,388.953,148.568z"/>
				<path style="fill:#FFCC9D;" d="M389.052,124.364c0,0,0.082,0.468,0.23,1.264c0.71,3.819,3.443,16.488,5.289,19.972
					c2.231,4.209-7.638,17.634-17.138,15.995c-2.828-0.488,2.39-12.335,2.139-13.59c-0.48-2.402-1.131-5.68-1.797-9.04
					c-0.376-1.896-0.757-3.818-1.114-5.624c-1.016-5.133-1.845-9.332-1.845-9.332L389.052,124.364z"/>
				<path style="fill:#E0B48A;" d="M389.282,125.628c-0.148-0.796-0.23-1.264-0.23-1.264l-14.235-0.354c0,0,0.829,4.199,1.845,9.332
					c0.355,1.796,0.734,3.707,1.108,5.592c2.197-0.323,4.494-1.389,6.796-3.401c2.51-2.193,4.155-4.828,5.148-7.641
					C389.538,126.994,389.392,126.22,389.282,125.628z"/>
				<path style="fill:#FFCC9D;" d="M321.143,208.204l44.048-9.745c0,0,15.93-20.468,31.229-38.085
					c4.502,4.456,7.005,11.303,11.539,15.716l-33.629,37.197c-1.213,1.341-4.041,3.774-5.85,3.78h-45.748l-15.807-0.237v-10.224
					L321.143,208.204z"/>
				<path style="fill:#192436;" d="M393.281,198.421c0,0,17.436-17.878,21.923-25.645c4.487-7.767,1.159-20.78-6.545-22.824
					c-7.704-2.044-32.331,30.816-32.331,30.816L393.281,198.421z"/>
				<path style="fill:#FFCC9D;" d="M376.419,94.114c0,0,6.962-0.806,11.326,4.851c4.364,5.657,9.068,23.152-1.773,32.663
					c-10.841,9.511-21.552-1.255-23.141-12.67C361.243,107.543,360.626,93.702,376.419,94.114z"/>
				<path style="fill:#E4AC28;" d="M375.64,92.244c0,0,9.301,16.637,15.955,17.405c6.654,0.769,7.527,9.609,7.527,9.609
					s-2.379-20.369-8.966-24.298C383.57,91.032,375.64,92.244,375.64,92.244z"/>
				<path style="fill:#FFCC9D;" d="M389.851,113.83c-0.541,2.954,0.547,5.664,2.431,6.052c1.883,0.388,3.849-1.693,4.39-4.647
					c0.541-2.954-0.547-5.664-2.431-6.051C392.358,108.795,390.392,110.875,389.851,113.83z"/>
			</g>
		</g>
	</g>
	<g>
		<g>
			<path style="fill:#192436;" d="M133.79,356.137l18.03,1.21c1.015,0.068,1.855-0.78,1.777-1.794l-2.244-29.104l-8.781-2.103
				L133.79,356.137z"/>
			<g>
				<path style="fill:none;stroke:#4A1473;stroke-miterlimit:10;" d="M82.122,420.555h129.084c3.139,0,5.683-2.545,5.683-5.683
					v-81.959c0-3.139-2.545-5.683-5.683-5.683h-12.148v-17.838c0-0.578-0.699-0.867-1.108-0.459l-18.297,18.297H82.122
					c-3.139,0-5.683,2.544-5.683,5.683v81.959C76.438,418.011,78.983,420.555,82.122,420.555z"/>
				<g>
					<defs>
						
							<rect id="SVGID_00000089551373728198105010000013198720970096748970_" x="67.551" y="292.432" transform="matrix(-1 -1.224647e-16 1.224647e-16 -1 274.0288 712.9871)" width="138.927" height="128.123"/>
					</defs>
					<clipPath id="SVGID_00000088845565175944632150000008734573105978575498_">
						<use xlink:href="#SVGID_00000089551373728198105010000013198720970096748970_"  style="overflow:visible;"/>
					</clipPath>
					<g style="clip-path:url(#SVGID_00000088845565175944632150000008734573105978575498_);">
						<path style="fill:#F0C094;" d="M220.347,428.832l-40.849-6.538c0,0-20.526-21.944-34.267-41.189
							c-4.493,4.447-6.989,11.279-11.514,15.682l33.557,37.117c1.21,1.339,2.929,2.105,4.733,2.111l46.585,0.155l15.941,1.27
							v-10.202L220.347,428.832z"/>
						<path style="fill:#E4AC28;" d="M147.366,418.072c0,0-17.398-17.839-21.876-25.59c-4.477-7.751,3.049-2.705,10.736-4.744
							c2.911-0.772,2.174-17.832,7.677-12.286c9.029,9.097,20.379,25.005,20.379,25.005L147.366,418.072z"/>
						<path style="fill:#E4AC28;" d="M122.63,367.625c0,0-15.614-3.082-22.739,2.87c-7.125,5.953,1.526,58.879,1.519,67.653
							c-0.008,8.774-4.893,33.563-4.893,33.563s47.324,8.283,54.841-4.888c0,0,2.139-50.181,1.82-56.491
							c-0.318-6.31-7.335-32.118-9.275-34.882C141.965,372.688,122.63,367.625,122.63,367.625z"/>
						<path style="fill:#FFCC9D;" d="M122.532,343.473c0,0-0.082,0.467-0.23,1.261c-0.708,3.811-3.435,16.453-5.278,19.929
							c-2.227,4.2,11.385,21.928,19.203,23.075c5.771,0.846-4.487-19.422-4.236-20.674c0.479-2.397,1.128-5.667,1.793-9.02
							c0.375-1.891,0.755-3.809,1.111-5.612c1.014-5.122,1.841-9.312,1.841-9.312L122.532,343.473z"/>
						<path style="fill:#E0B48A;" d="M122.302,344.734c0.147-0.794,0.23-1.261,0.23-1.261l14.204-0.353c0,0-0.827,4.189-1.841,9.312
							c-0.355,1.792-0.732,3.699-1.105,5.58c-2.193-0.322-4.484-1.386-6.782-3.393c-2.505-2.188-4.146-4.817-5.137-7.625
							C122.046,346.097,122.192,345.325,122.302,344.734z"/>
						<path style="fill:#FFCC9D;" d="M169.183,459.608l-38.35-23.574c0,0-8.336-24.502-17.008-46.109
							c-5.701,2.731-10.296,8.37-16.012,11.05l19.561,46.055c0.705,1.661,2.578,4.879,4.281,5.475l43.136,14.941l14.982,4.939
							l3.339-9.641L169.183,459.608z"/>
						<path style="fill:#E4AC28;" d="M102.352,417.627c0,0-8.569-23.4-9.479-32.304c-0.911-8.904,7.435-19.391,15.284-18.104
							c7.848,1.287,16.842,41.264,16.842,41.264L102.352,417.627z"/>
						<path style="fill:#FFCC9D;" d="M135.137,313.288c0,0-6.947-0.805-11.302,4.84c-4.355,5.645-9.048,23.102,1.769,32.593
							c10.817,9.491,21.506-1.252,23.091-12.643C150.281,326.688,150.896,312.877,135.137,313.288z"/>
						<path style="fill:#FFCC9D;" d="M121.734,332.961c0.54,2.948-0.546,5.652-2.426,6.038c-1.879,0.387-3.841-1.689-4.381-4.637
							c-0.54-2.948,0.546-5.652,2.426-6.039C119.233,327.937,121.194,330.013,121.734,332.961z"/>
					</g>
				</g>
			</g>
			<path style="fill:#192436;" d="M117.353,326.449h33.999c0,0,1.725-19.313-14.338-19.673S117.353,326.449,117.353,326.449z"/>
			<path style="fill:#192436;" d="M124.458,324.345l2.566,31.529c0.082,1.015-0.806,1.839-1.812,1.681l-17.399-2.735
				c-0.751-0.118-1.312-0.753-1.328-1.513c-0.176-8.359,0.334-53.639,32.477-46.531"/>
		</g>
		<polygon style="fill:#FFCC9D;" points="135.965,328.243 138.963,320.058 138.963,328.243 		"/>
		<polygon style="fill:#FFCC9D;" points="138.963,330.541 140.912,322.356 141.961,330.541 		"/>
	</g>
	<g>
		<path style="fill:#DB3262;" d="M112.196,155.512c2.38,7.38-1.673,15.292-9.052,17.672c-7.38,2.38-15.292-1.673-17.672-9.052
			c-2.38-7.38,1.672-15.292,9.052-17.672C101.903,144.079,109.815,148.132,112.196,155.512z"/>
		<path style="fill:#FFFFFF;" d="M102.909,155.595c-3.515-2.176-4.879,1.736-4.879,1.736s-3.393-2.378-4.974,1.442
			c-1.547,3.737,5.98,6.295,7.471,6.299C101.734,164.197,106.348,157.723,102.909,155.595z"/>
	</g>
	<g>
		<path style="fill:#DB3262;" d="M424.667,287.471c-1.968,7.5-9.644,11.985-17.144,10.017c-7.5-1.968-11.985-9.644-10.017-17.144
			c1.968-7.5,9.644-11.985,17.144-10.017C422.151,272.296,426.636,279.971,424.667,287.471z"/>
		<path style="fill:#FFFFFF;" d="M416.797,282.541c-1.79-3.727-5.046-1.165-5.046-1.165s-1.578-3.83-4.968-1.463
			c-3.315,2.316,1.65,8.524,2.903,9.331C411.175,289.157,418.549,286.186,416.797,282.541z"/>
	</g>
	<g>
		<g>
			<path style="fill:#AC9FE3;" d="M192.08,125.618c-0.231-0.689-0.829-1.145-1.503-1.24c0.481-0.482,0.684-1.206,0.453-1.895
				c-0.325-0.971-1.376-1.494-2.346-1.169c-0.098,0.033-0.285,0.095-0.285,0.095l-4.244,1.527c0,0-0.371-4.103-1.387-6.034
				c-1.017-1.931-4.075-1.911-3.358,0.385c0.717,2.296,0.686,3.152-0.403,5.736c-0.712,1.689-0.992,2.918-1.1,3.566
				c-0.054,0.324-0.023,0.653,0.081,0.964l2.892,8.633c0.158,0.472,0.669,0.727,1.141,0.568l10.356-3.469
				c0,0,0.187-0.063,0.285-0.096c0.971-0.325,1.602-1.327,1.2-2.269c-0.329-0.771-1.4-0.746-1.4-0.746s1.143-0.532,0.758-1.68
				c-0.358-1.069-1.111-1.107-1.592-0.981C192.108,127.032,192.311,126.308,192.08,125.618z"/>
			<path style="fill:#AC9FE3;" d="M175.369,127.73l-3.737,1.252c-0.612,0.205-0.942,0.868-0.737,1.48l3.273,9.77
				c0.205,0.612,0.868,0.942,1.48,0.737l3.737-1.252c0.612-0.205,0.942-0.868,0.737-1.48l-3.273-9.77
				C176.644,127.855,175.981,127.525,175.369,127.73z"/>
		</g>
	</g>
	<g style="opacity:0.59;">
		<g>
			<path style="fill:#AC9FE3;" d="M407.616,352.746c0.252-0.67,0.079-1.391-0.377-1.882c0.667-0.069,1.272-0.496,1.524-1.166
				c0.355-0.944-0.122-1.997-1.066-2.352c-0.095-0.036-0.277-0.104-0.277-0.104l-4.191-1.471c0,0,2.268-3.365,2.691-5.472
				c0.424-2.108-1.925-3.993-2.805-1.793c-0.88,2.199-1.435,2.834-3.874,4.131c-1.594,0.848-2.571,1.612-3.057,2.04
				c-0.242,0.214-0.424,0.485-0.538,0.787l-3.158,8.393c-0.173,0.459,0.059,0.971,0.518,1.144l10.068,3.788
				c0,0,0.182,0.069,0.277,0.104c0.944,0.355,2.049-0.018,2.327-0.987c0.228-0.793-0.606-1.44-0.606-1.44s1.204,0.304,1.624-0.813
				c0.391-1.039-0.16-1.536-0.606-1.74C406.759,353.843,407.364,353.416,407.616,352.746z"/>
			<path style="fill:#AC9FE3;" d="M393.537,343.969l-3.633-1.367c-0.595-0.224-1.259,0.077-1.483,0.672l-3.574,9.499
				c-0.224,0.595,0.077,1.259,0.672,1.483l3.633,1.367c0.595,0.224,1.259-0.077,1.483-0.672l3.574-9.499
				C394.434,344.857,394.133,344.193,393.537,343.969z"/>
		</g>
	</g>
	<text transform="matrix(1 0 0 1 182.4096 284.6736)" style="fill:#FFFFFF; font-family:'Antonio-Regular'; font-size:41.8717px;">FEEDBACK</text>
	<g>
		<polygon style="fill:#FFFFFF;" points="226.144,226.987 227.572,229.881 230.765,230.345 228.454,232.597 229,235.777 
			226.144,234.276 223.288,235.777 223.833,232.597 221.523,230.345 224.716,229.881 		"/>
		<polygon style="fill:#FFFFFF;" points="239.647,226.987 241.075,229.881 244.268,230.345 241.957,232.597 242.502,235.777 
			239.647,234.276 236.791,235.777 237.336,232.597 235.025,230.345 238.219,229.881 		"/>
		<polygon style="fill:#FFFFFF;" points="253.149,226.987 254.577,229.881 257.77,230.345 255.46,232.597 256.005,235.777 
			253.149,234.276 250.293,235.777 250.839,232.597 248.528,230.345 251.721,229.881 		"/>
		<polygon style="fill:#FFFFFF;" points="266.652,226.987 268.08,229.881 271.273,230.345 268.962,232.597 269.508,235.777 
			266.652,234.276 263.796,235.777 264.341,232.597 262.031,230.345 265.224,229.881 		"/>
		<polygon style="fill:#FFFFFF;" points="280.154,226.987 281.582,229.881 284.775,230.345 282.465,232.597 283.01,235.777 
			280.154,234.276 277.298,235.777 277.844,232.597 275.533,230.345 278.726,229.881 		"/>
	</g>
	<g>
		<polygon style="fill:#FFFFFF;" points="226.144,299.035 227.572,301.929 230.765,302.393 228.454,304.645 229,307.825 
			226.144,306.324 223.288,307.825 223.833,304.645 221.523,302.393 224.716,301.929 		"/>
		<polygon style="fill:#FFFFFF;" points="239.647,299.035 241.075,301.929 244.268,302.393 241.957,304.645 242.502,307.825 
			239.647,306.324 236.791,307.825 237.336,304.645 235.025,302.393 238.219,301.929 		"/>
		<polygon style="fill:#FFFFFF;" points="253.149,299.035 254.577,301.929 257.77,302.393 255.46,304.645 256.005,307.825 
			253.149,306.324 250.293,307.825 250.839,304.645 248.528,302.393 251.721,301.929 		"/>
		<polygon style="fill:#FFFFFF;" points="266.652,299.035 268.08,301.929 271.273,302.393 268.962,304.645 269.508,307.825 
			266.652,306.324 263.796,307.825 264.341,304.645 262.031,302.393 265.224,301.929 		"/>
		<polygon style="fill:#FFFFFF;" points="280.154,299.035 281.582,301.929 284.775,302.393 282.465,304.645 283.01,307.825 
			280.154,306.324 277.298,307.825 277.844,304.645 275.533,302.393 278.726,301.929 		"/>
	</g>
	<g style="opacity:0.59;">
		<g>
			<path style="fill:#DAD1FF;" d="M61.513,322.982c1.609,0,1.611-2.5,0-2.5C59.905,320.482,59.902,322.982,61.513,322.982
				L61.513,322.982z"/>
		</g>
	</g>
	<g style="opacity:0.59;">
		<g>
			<path style="fill:#DAD1FF;" d="M456.027,211.638c1.609,0,1.611-2.5,0-2.5C454.418,209.138,454.415,211.638,456.027,211.638
				L456.027,211.638z"/>
		</g>
	</g>
	<g style="opacity:0.59;">
		<g>
			<path style="fill:#DAD1FF;" d="M202.86,448.283c1.609,0,1.611-2.5,0-2.5C201.251,445.783,201.249,448.283,202.86,448.283
				L202.86,448.283z"/>
		</g>
	</g>
	<g style="opacity:0.59;">
		<g>
			<path style="fill:#DAD1FF;" d="M86.36,88.649c1.609,0,1.611-2.5,0-2.5C84.751,86.149,84.749,88.649,86.36,88.649L86.36,88.649z"
				/>
		</g>
	</g>
	<g>
		<g>
			<path style="fill:#FFFFFF;" d="M405.661,251.107c1.609,0,1.611-2.5,0-2.5C404.053,248.607,404.05,251.107,405.661,251.107
				L405.661,251.107z"/>
		</g>
	</g>
	<g>
		<g>
			<path style="fill:#FFFFFF;" d="M83.36,251.25c1.609,0,1.611-2.5,0-2.5C81.751,248.75,81.749,251.25,83.36,251.25L83.36,251.25z"
				/>
		</g>
	</g>
	<g>
		<g>
			<path style="fill:#FFFFFF;" d="M157.36,166.117c1.609,0,1.611-2.5,0-2.5C155.751,163.617,155.749,166.117,157.36,166.117
				L157.36,166.117z"/>
		</g>
	</g>
	<g>
		<g>
			<path style="fill:#FFFFFF;" d="M287.86,100.359c1.609,0,1.611-2.5,0-2.5C286.251,97.859,286.249,100.359,287.86,100.359
				L287.86,100.359z"/>
		</g>
	</g>
	<g>
		<g>
			<path style="fill:#FFFFFF;" d="M294.491,410.305c1.609,0,1.611-2.5,0-2.5C292.883,407.805,292.88,410.305,294.491,410.305
				L294.491,410.305z"/>
		</g>
	</g>
</g>
</svg>
