<?xml version="1.0" encoding="utf-8"?>
<!-- Generator: Adobe Illustrator 27.5.0, SVG Export Plug-In . SVG Version: 6.00 Build 0)  -->
<svg version="1.1" xmlns="http://www.w3.org/2000/svg" xmlns:xlink="http://www.w3.org/1999/xlink" x="0px" y="0px"
	 viewBox="0 0 750 500" style="enable-background:new 0 0 750 500;" xml:space="preserve">
<g id="BACKGROUND">
	<rect x="125" style="fill-rule:evenodd;clip-rule:evenodd;fill:#FFFFFF;" width="500" height="500"/>
	<rect style="fill-rule:evenodd;clip-rule:evenodd;fill:#FFFFFF;" width="750" height="500"/>
</g>
<g id="OBJECTS">
	<g>
		<path style="fill-rule:evenodd;clip-rule:evenodd;fill:#E1E8F6;" d="M160.445,342.623h-57.357H101.6
			c-31.668,0-57.585,25.91-57.585,57.578l0,0c0,31.666,25.917,57.576,57.585,57.576h168.095h28.953h318.099
			c51.281,0,93.254-41.955,93.254-93.235l0,0c0-51.281-41.973-93.237-93.254-93.237l0,0c-21.673,0-39.421-17.748-39.421-39.422l0,0
			c0-21.688,17.748-39.436,39.421-39.436h47.453c22.541,0,40.992-18.434,40.992-40.975l0,0c0-22.557-18.451-40.991-40.992-40.991
			H553.281c-8.784,0-15.965-7.182-15.965-15.965l0,0c0-8.768,7.181-15.949,15.965-15.949h10.583c6.053,0,11.007-4.956,11.007-11.008
			l0,0c0-6.069-4.954-11.025-11.007-11.025h-39.65c0,0,11.68,0-2.928,0c-14.623,0-16.259,17.273-53.178,17.273
			c-57.069,0-86.791,0-143.861,0c-7.917,0-14.378,6.461-14.378,14.362l0,0c0,7.9,6.478,14.378,14.378,14.378h13.789
			c11.45,0,20.823,9.373,20.823,20.823l0,0c0,11.45-9.373,20.822-20.823,20.822h-20.757c-56.09,0-64.007,14.656-73.837,43.806
			c-9.814,29.147-60.831,31.503-60.831,31.503h-31.554c-17.257,0-31.381,14.116-31.381,31.373l0,0
			c0,17.257,14.125,31.373,31.381,31.373h9.389c16.603,0,30.18,13.594,30.18,30.196l0,0
			C190.625,329.029,177.048,342.623,160.445,342.623L160.445,342.623z M74.97,282.264c-17.331,0-31.381-14.051-31.381-31.39
			c0-17.322,14.05-31.373,31.381-31.373c17.331,0,31.382,14.051,31.382,31.373C106.352,268.213,92.3,282.264,74.97,282.264
			L74.97,282.264z M594.762,78.566c-6.085,0-11.008-4.939-11.008-11.008c0-6.085,4.923-11.025,11.008-11.025
			c6.085,0,11.009,4.94,11.009,11.025C605.771,73.627,600.847,78.566,594.762,78.566z"/>
		<g>
			<g>
				<path style="fill-rule:evenodd;clip-rule:evenodd;fill:#1B7154;" d="M67.486,435.417c12.816,7.148,18.533,8.325,49.997,22.36
					h32.698l0.85-14.951c-28.552-27.217-37.99-42.118-65.863-52.979C36.285,370.79,22.145,410.179,67.486,435.417z"/>
				<path style="fill-rule:evenodd;clip-rule:evenodd;fill:#0E2D34;" d="M174.529,432.178c-14.836-13.428-35.07,10.779-54.421-0.425
					c-21.469-12.446-44.189-23.014-64.808-30.555c-0.531-0.196-1.08,0.082-1.235,0.622c-0.155,0.556,0.147,1.145,0.671,1.341
					c0.171,0.065,30.343,10.977,64.211,30.374c17.102,9.799,37.049-15.178,52.638-1.357H174.529z"/>
			</g>
			<g>
				<path style="fill-rule:evenodd;clip-rule:evenodd;fill:#4A9075;" d="M135.721,457.777
					c-10.166-8.539-20.602-19.563-27.595-32.812c-18.034-34.186-23.645-44.967-32.437-47.846
					c-7.598-2.502,58.069-30.784,120.169,35.61c-2.175,15.228-10.517,31.568-31.585,45.047H135.721z"/>
				<path style="fill-rule:evenodd;clip-rule:evenodd;fill:#1B7154;" d="M84.367,371.739c35.708,13.069,71.367,40.37,100.533,67.391
					c-0.507,0.671-1.031,1.357-1.587,2.028c-29.885-27.708-66.599-55.679-103.06-68.061
					C81.439,372.639,82.821,372.181,84.367,371.739z"/>
			</g>
			<g>
				<path style="fill-rule:evenodd;clip-rule:evenodd;fill:#A6C86B;" d="M134.584,303.889
					c10.493,10.518,29.313,34.121,50.839,60.424c0.016,0,21.918,35.119,3.991,67.8c-39.225-24.878-77.935-56.235-99.928-84.893
					C46.1,290.688,85.561,254.751,134.584,303.889z"/>
				<path style="fill-rule:evenodd;clip-rule:evenodd;fill:#5F9850;" d="M195.924,412.272
					C136.842,367.191,89.806,302.923,89.61,302.646c-0.45-0.605-0.368-1.473,0.196-1.914c0.564-0.441,1.382-0.295,1.84,0.311
					c0.196,0.278,46.472,63.5,104.605,108.204C196.169,410.244,196.055,411.259,195.924,412.272z"/>
			</g>
			<g>
				<path style="fill-rule:evenodd;clip-rule:evenodd;fill:#A6C86B;" d="M167.119,455.863c-7.459-8.882-17.232-18.844-28.903-26.94
					c-28.355-19.677-56.531-8.635-59.222,2.012c-1.096,4.352-0.123,14.591,4.875,26.843h80.389
					C165.238,457.155,166.187,456.518,167.119,455.863z"/>
				<path style="fill-rule:evenodd;clip-rule:evenodd;fill:#5F9850;" d="M146.272,457.777c-2.519-6.314-7.059-17.126-10.771-22.982
					c-0.319-0.507-0.826-0.686-1.137-0.425c-0.311,0.277-0.303,0.916,0.008,1.406c3.501,5.529,7.811,15.752,10.322,22.001H146.272
					L146.272,457.777z M142.796,457.777h-6.51c-2.11-1.26-4.269-2.503-6.477-3.713c-0.924,0.752-2.429,2.012-4.277,3.713h-3.067
					c2.159-2.094,4.016-3.729,5.316-4.81c-7.598-4.057-15.728-7.786-24.34-10.927c-2.249,1.293-6.968,4.352-10.354,9.177
					c-0.253,0.36-0.752,0.295-1.12-0.147c-0.368-0.458-0.458-1.112-0.205-1.472c2.805-3.991,6.502-6.821,9.054-8.489
					c-5.504-1.897-11.197-3.55-17.061-4.892c-0.883-0.196-1.685-1.275-1.791-2.404c-0.106-1.129,0.523-1.881,1.407-1.685
					c12.047,2.748,23.383,6.805,33.885,11.63c-6.208-12.71-12.039-20.461-12.056-20.477c-0.351-0.475-0.417-1.112-0.139-1.44
					c0.278-0.344,0.777-0.229,1.129,0.245c0.024,0.033,6.518,8.651,13.16,22.653C127.739,448.715,135.574,453.148,142.796,457.777z"
					/>
			</g>
		</g>
		<g>
			<path style="fill-rule:evenodd;clip-rule:evenodd;fill:#0E2D34;" d="M579.255,183.794c14.264,5.104,35.643,10.092,60.703,7.23
				c35.512-4.04-21.478-27.529-73.198-37.032l8.554,24.323L579.255,183.794z"/>
			<g>
				<path style="fill-rule:evenodd;clip-rule:evenodd;fill:#1B7154;" d="M642.575,173.489c-13.185,3.468-44.819,7.393-76.356,12.774
					l-29.165-3.893l3.402-17.273c31.716-17.732,69.419-33.025,96.785-36.33C685.219,122.978,688.817,161.352,642.575,173.489z"/>
				<path style="fill-rule:evenodd;clip-rule:evenodd;fill:#0E2D34;" d="M537.219,181.52
					c51.949-28.854,123.807-35.758,124.068-35.773c0.523-0.066,0.949,0.327,0.966,0.851c0.017,0.507-0.392,0.981-0.916,1.03
					c-0.245,0.017-70.959,6.821-122.385,35.005l-1.897-0.262L537.219,181.52z"/>
			</g>
			<g>
				
					<path style="fill-rule:evenodd;clip-rule:evenodd;fill:#A6C86B;stroke:#1B7154;stroke-width:0.216;stroke-miterlimit:22.9256;" d="
					M619.249,87.188c-10.648,9.471-31.995,33.745-55.058,58.33c-2.731,13.577-0.638,27.579,5.545,39.65
					c32.026-17.666,64.071-40.55,82.702-62.076C688.932,80.972,659.799,51.103,619.249,87.188z"/>
				<path style="fill-rule:evenodd;clip-rule:evenodd;fill:#5F9850;" d="M564.388,170.233c49.087-32.436,89.85-81.737,90.03-81.934
					c0.376-0.458,0.343-1.146-0.066-1.505c-0.425-0.377-1.063-0.312-1.455,0.146c-0.164,0.213-40.469,48.941-88.934,81.149
					C564.094,168.811,564.24,169.53,564.388,170.233z"/>
			</g>
			<g>
				<path style="fill-rule:evenodd;clip-rule:evenodd;fill:#1B7154;" d="M621.31,88.839c-6.658,11.876-25.779,37.377-43.806,63.811
					l-23.029,18.304l-10.076-14.443c9.241-35.136,24.405-72.889,41.022-94.873C614.555,23.067,644.685,47.112,621.31,88.839z"/>
				<path style="fill-rule:evenodd;clip-rule:evenodd;fill:#0E2D34;" d="M553.969,170.25
					c15.294-57.431,60.193-113.945,60.356-114.158c0.327-0.409,0.9-0.441,1.276-0.099c0.393,0.36,0.441,0.966,0.114,1.374
					c-0.147,0.196-44.343,55.828-59.752,112.393l-1.488,1.193L553.969,170.25z"/>
			</g>
		</g>
		<g>
			<path style="fill-rule:evenodd;clip-rule:evenodd;fill:#FCC100;" d="M413.64,137.584h-30.784c-0.147,0-0.295,0-0.442,0.017
				c-2.519-0.671-2.617-3.042-2.764-6.51c-0.065-1.686-0.147-3.615-0.491-5.726c-0.851-5.267-6.46-14.673-9.176-19.023
				c-0.016-0.017-0.032-0.033-0.032-0.049l-0.017-0.017c-0.769-1.243-1.309-2.045-1.406-2.208c-1.325-2.225-2.389-4.63-3.174-7.148
				c-1.03-3.255-1.57-6.723-1.57-10.321c0-9.504,3.86-18.124,10.093-24.373c6.232-6.232,14.852-10.093,24.372-10.093
				c9.52,0,18.141,3.86,24.373,10.093c6.248,6.249,10.107,14.869,10.107,24.373c0,3.599-0.557,7.066-1.57,10.321
				c-0.8,2.519-1.863,4.924-3.172,7.148c-0.114,0.163-0.654,0.965-1.423,2.208v0.017c-0.017,0.016-0.033,0.032-0.05,0.049
				c-2.715,4.351-8.31,13.757-9.176,19.023c-0.344,2.11-0.426,4.04-0.491,5.726c-0.148,3.468-0.245,5.839-2.765,6.51
				C413.935,137.584,413.787,137.584,413.64,137.584z"/>
			<path style="fill-rule:evenodd;clip-rule:evenodd;fill:#FFFFFF;" d="M402.811,138.059c0,0.426,0.327,0.753,0.752,0.753
				c0.409,0,0.753-0.327,0.753-0.753v-22.59c0-0.294,0-0.572,0.016-0.851c0.491-0.114,0.966-0.245,1.424-0.393
				c1.832-0.572,3.287-1.357,4.302-2.24c1.112-0.949,1.701-2.045,1.701-3.157c0-0.311-0.049-0.622-0.147-0.933
				c-0.294-0.948-0.998-1.619-1.914-1.914c-0.638-0.212-1.374-0.245-2.109-0.032c-0.704,0.18-1.439,0.589-2.11,1.227
				c-1.211,1.161-2.241,3.157-2.568,6.199c-1.391,0.262-2.961,0.393-4.662,0.393c-1.701,0-3.255-0.131-4.661-0.393
				c-0.327-3.042-1.342-5.038-2.568-6.199c-0.671-0.638-1.391-1.047-2.11-1.227c-0.736-0.213-1.472-0.18-2.11,0.032
				c-0.899,0.295-1.619,0.966-1.913,1.914c-0.099,0.311-0.147,0.622-0.147,0.933c0,1.112,0.605,2.208,1.701,3.157
				c1.014,0.883,2.47,1.668,4.302,2.24c0.458,0.147,0.933,0.278,1.423,0.393c0.017,0.278,0.017,0.557,0.017,0.851v22.59
				c0,0.426,0.344,0.753,0.769,0.753c0.409,0,0.753-0.327,0.753-0.753v-22.59c0-0.18,0-0.359-0.017-0.539
				c1.391,0.229,2.912,0.359,4.564,0.359c1.652,0,3.174-0.131,4.564-0.359c0,0.18,0,0.359,0,0.539V138.059L402.811,138.059z
				 M389.971,108.256c0.933,0.899,1.733,2.437,2.061,4.776c-0.294-0.065-0.572-0.147-0.834-0.23
				c-1.636-0.523-2.911-1.194-3.778-1.946c-0.768-0.671-1.178-1.374-1.178-2.028c0-0.164,0.032-0.311,0.082-0.475
				c0.147-0.458,0.49-0.802,0.948-0.948c0.36-0.115,0.802-0.131,1.243,0C389.006,107.536,389.513,107.813,389.971,108.256
				L389.971,108.256z M404.463,113.032c0.327-2.34,1.129-3.877,2.061-4.776c0.475-0.442,0.965-0.72,1.456-0.851
				c0.458-0.131,0.883-0.115,1.243,0c0.458,0.147,0.801,0.49,0.948,0.948c0.049,0.164,0.082,0.311,0.082,0.475
				c0,0.654-0.409,1.357-1.178,2.028c-0.867,0.752-2.143,1.423-3.778,1.946C405.036,112.885,404.758,112.967,404.463,113.032z"/>
			<path style="fill-rule:evenodd;clip-rule:evenodd;fill:#101537;" d="M391.034,156.035c0,3.305,3.238,5.987,7.213,5.987
				c3.991,0,7.214-2.683,7.214-5.987c0-3.304-3.795-3.517-3.795-3.517L391.034,156.035z"/>
			<path style="fill-rule:evenodd;clip-rule:evenodd;fill:#101537;" d="M413.542,137.307h-30.589c-1.03,0-1.963,0.425-2.649,1.096
				c-0.671,0.687-1.097,1.619-1.097,2.65c0,1.031,0.426,1.979,1.097,2.65c0.49,0.49,1.112,0.851,1.815,1.014
				c-0.523,0.639-0.818,1.456-0.818,2.323c0,1.047,0.409,1.98,1.097,2.649c0.67,0.688,1.619,1.112,2.649,1.112h0.491
				c-0.475,0.622-0.753,1.391-0.753,2.241c0,1.03,0.426,1.963,1.096,2.65c0.688,0.67,1.62,1.096,2.65,1.096h19.433
				c1.03,0,1.979-0.426,2.649-1.096c0.688-0.688,1.097-1.62,1.097-2.65c0-0.851-0.278-1.619-0.736-2.241h0.475
				c1.047,0,1.979-0.425,2.65-1.112c0.688-0.67,1.112-1.603,1.112-2.649c0-0.867-0.311-1.685-0.834-2.323
				c0.703-0.163,1.325-0.523,1.815-1.014c0.688-0.671,1.096-1.619,1.096-2.65c0-1.03-0.408-1.963-1.096-2.65
				C415.521,137.731,414.572,137.307,413.542,137.307z"/>
		</g>
		<path style="fill-rule:evenodd;clip-rule:evenodd;fill:#1874BA;" d="M51.817,79.94c6.296,0,11.425-5.136,11.425-11.434
			c0-6.281-5.128-11.417-11.425-11.417c-6.29,0-11.426,5.136-11.426,11.417C40.391,74.805,45.527,79.94,51.817,79.94z"/>
		<path style="fill-rule:evenodd;clip-rule:evenodd;fill:#E94D90;" d="M51.817,118.79c6.296,0,11.425-5.137,11.425-11.435
			c0-6.281-5.128-11.417-11.425-11.417c-6.29,0-11.426,5.136-11.426,11.417C40.391,113.653,45.527,118.79,51.817,118.79z"/>
		<path style="fill-rule:evenodd;clip-rule:evenodd;fill:#5EB9BD;" d="M51.817,157.639c6.296,0,11.425-5.137,11.425-11.418
			c0-6.297-5.128-11.434-11.425-11.434c-6.29,0-11.426,5.137-11.426,11.434C40.391,152.502,45.527,157.639,51.817,157.639z"/>
		<g>
			<path style="fill-rule:evenodd;clip-rule:evenodd;fill:#00000F;" d="M141.782,255.438h304.571c2.454,0,4.09,2.012,3.615,4.466
				l-36.557,193.425c-0.475,2.438-2.863,4.449-5.316,4.449H103.53c-2.454,0-4.081-2.012-3.623-4.449l36.575-193.425
				C136.94,257.449,139.328,255.438,141.782,255.438z"/>
			<path style="fill-rule:evenodd;clip-rule:evenodd;fill:#3B405F;" d="M446.352,255.438H141.782c-2.454,0-4.081,2.012-3.615,4.466
				l36.575,193.425c0.458,2.438,2.846,4.449,5.3,4.449h304.572c2.453,0,4.072-2.012,3.614-4.449l-36.575-193.425
				C451.194,257.449,448.807,255.438,446.352,255.438z"/>
			<path style="fill-rule:evenodd;clip-rule:evenodd;fill:#101537;" d="M451.179,255.438H146.607c-2.454,0-4.081,2.012-3.615,4.466
				l36.575,193.425c0.458,2.438,2.846,4.449,5.3,4.449h304.571c2.453,0,4.073-2.012,3.615-4.449l-36.575-193.425
				C456.02,257.449,453.632,255.438,451.179,255.438z"/>
			<path style="fill-rule:evenodd;clip-rule:evenodd;fill:#3B405F;" d="M447.138,259.805h-294.83c-1.595,0-2.658,1.309-2.355,2.912
				l32.429,171.538c0.196,0.998,1.161,1.816,2.159,1.816h297.014c0.998,0,1.652-0.818,1.473-1.816L450.59,262.717
				C450.295,261.113,448.725,259.805,447.138,259.805z"/>
			<polygon style="fill-rule:evenodd;clip-rule:evenodd;fill:#00000F;" points="445.044,266.986 475.649,428.906 187.73,428.906 
				157.108,266.986 			"/>
			<g>
				<path style="fill-rule:evenodd;clip-rule:evenodd;fill:#FFFFFF;" d="M259.259,317.138l2.536,2.077l6.297,29.035
					c-0.082,2.748-1.456,4.481-4.073,5.169l-4.924-8.294l-4.727-21.755L259.259,317.138L259.259,317.138z M261.958,353.451
					l-4.924-8.326H232.09l-7.606,3.125c1.276,2.764,3.386,4.498,6.298,5.201H261.958L261.958,353.451z M223.993,346.172
					l-5.856-26.94l1.636-2.094l7.59,6.232l4.27,19.678L223.993,346.172L223.993,346.172z M244.423,287.105h-24.846l-8.997-3.124
					c0.082-2.765,1.456-4.515,4.057-5.202h31.078L244.423,287.105L244.423,287.105z M219.92,289.183l-8.997-3.124l5.856,26.94
					l2.535,2.094l4.891-6.232L219.92,289.183L219.92,289.183z M251.211,308.861l-4.727-21.756l1.325-8.276
					c2.912,0.67,5.038,2.404,6.314,5.152l6.314,29.034l-1.619,2.077L251.211,308.861L251.211,308.861z M305.763,311.952l5.054,4.172
					l-3.239,4.154h-27.022l-5.038-4.154l3.239-4.172H305.763L305.763,311.952z M313.14,317.138l-4.891,6.232l4.727,21.755
					l4.924,8.294c2.617-0.688,3.991-2.421,4.073-5.169l-6.297-29.035L313.14,317.138L313.14,317.138z M315.839,353.451h-31.177
					c-2.912-0.703-5.022-2.438-6.298-5.201l7.606-3.125h24.945L315.839,353.451L315.839,353.451z M277.874,346.172l7.639-3.124
					l-4.27-19.678l-7.59-6.232l-1.636,2.094L277.874,346.172L277.874,346.172z M301.412,287.105h-27.955l-8.997-3.124
					c0.082-2.765,1.456-4.515,4.057-5.202h34.204L301.412,287.105L301.412,287.105z M273.801,289.183l-8.997-3.124l5.856,26.94
					l2.535,2.094l4.891-6.232L273.801,289.183L273.801,289.183z M341.651,353.451h-8.326l-1.799-8.326h8.326L341.651,353.451
					L341.651,353.451z M385.685,317.138l2.52,2.077l6.313,29.035c-0.081,2.748-1.455,4.481-4.089,5.169l-4.907-8.294l-4.728-21.755
					L385.685,317.138L385.685,317.138z M388.367,353.451l-4.923-8.326h-24.945l-7.606,3.125c1.292,2.764,3.402,4.498,6.298,5.201
					H388.367L388.367,353.451z M350.402,346.172l-5.856-26.94l1.636-2.094l7.59,6.232l4.286,19.678L350.402,346.172L350.402,346.172
					z M370.832,287.105h-24.83l-8.996-3.124c0.082-2.765,1.439-4.515,4.057-5.202h31.079L370.832,287.105L370.832,287.105z
					 M346.346,289.183l-9.013-3.124l5.856,26.94l2.552,2.094l4.875-6.232L346.346,289.183L346.346,289.183z M377.637,308.861
					l-4.726-21.756l1.309-8.276c2.927,0.67,5.053,2.404,6.33,5.152l6.314,29.034l-1.619,2.077L377.637,308.861L377.637,308.861z
					 M439.564,317.138l2.52,2.077l6.313,29.035c-0.082,2.748-1.456,4.481-4.089,5.169l-4.907-8.294l-4.728-21.755L439.564,317.138
					L439.564,317.138z M442.247,353.451l-4.924-8.326H412.38l-7.605,3.125c1.292,2.764,3.402,4.498,6.297,5.201H442.247
					L442.247,353.451z M404.283,346.172l-5.855-26.94l1.636-2.094l7.59,6.232l4.285,19.678L404.283,346.172L404.283,346.172z
					 M424.714,287.105h-24.831l-8.996-3.124c0.082-2.765,1.44-4.515,4.057-5.202h31.079L424.714,287.105L424.714,287.105z
					 M400.227,289.183l-9.013-3.124l5.855,26.94l2.552,2.094l4.875-6.232L400.227,289.183L400.227,289.183z M431.517,308.861
					l-4.726-21.756l1.309-8.276c2.927,0.67,5.053,2.404,6.329,5.152l6.314,29.034l-1.619,2.077L431.517,308.861z"/>
				<g>
					<path style="fill-rule:evenodd;clip-rule:evenodd;fill:#5EB9BD;" d="M303.26,401.673l1.063,0.884l2.683,12.333
						c-0.033,1.178-0.605,1.914-1.734,2.208l-2.094-3.517l-2.012-9.258L303.26,401.673L303.26,401.673z M296.946,388.882h-10.567
						l-3.828-1.325c0.033-1.178,0.622-1.914,1.718-2.208h13.217L296.946,388.882L296.946,388.882z M286.527,389.765l-3.828-1.325
						l2.486,11.467l1.08,0.884l2.077-2.65L286.527,389.765L286.527,389.765z M299.825,398.14l-2.012-9.258l0.572-3.518
						c1.243,0.295,2.143,1.031,2.683,2.192l2.683,12.35l-0.687,0.884L299.825,398.14L299.825,398.14z M323.02,399.448l2.159,1.783
						l-1.374,1.767h-11.499l-2.143-1.767l1.374-1.783H323.02L323.02,399.448z M326.161,401.656l-2.077,2.65l2.012,9.258l2.094,3.517
						c1.112-0.295,1.701-1.031,1.734-2.192l-2.683-12.35L326.161,401.656L326.161,401.656z M327.306,417.098h-13.25
						c-1.243-0.294-2.143-1.03-2.699-2.208l3.255-1.325h10.6L327.306,417.098L327.306,417.098z M321.172,388.882h-11.876
						l-3.828-1.325c0.033-1.178,0.605-1.914,1.717-2.208h14.542L321.172,388.882L321.172,388.882z M309.427,389.765l-3.828-1.325
						l2.502,11.467l1.08,0.884l2.078-2.65L309.427,389.765L309.427,389.765z M341.717,396.063l2.912-10.665
						c1.767,0,3.075,0.589,3.909,1.767l-3.811,13.658h-1.979L341.717,396.063L341.717,396.063z M342.943,406.433l-2.912,10.665
						c-1.767,0-3.075-0.589-3.926-1.767l3.828-13.658h1.979L342.943,406.433L342.943,406.433z M334.781,388.914h-2.634l-3.811-1.309
						c0.033-1.178,0.605-1.914,1.717-2.208h5.3L334.781,388.914L334.781,388.914z M332.344,389.798l-3.811-1.325l1.145,5.283
						c0.54,1.178,1.439,1.914,2.683,2.208l0.556-3.517L332.344,389.798L332.344,389.798z M333.783,392.447h2.65l3.811,1.309
						c-0.033,1.178-0.605,1.914-1.734,2.208h-5.284L333.783,392.447L333.783,392.447z M336.237,391.565l3.812,1.324l-1.145-5.3
						c-0.54-1.161-1.439-1.897-2.683-2.191l-0.556,3.517L336.237,391.565L336.237,391.565z M352.316,412.698l-0.573-2.65
						l0.556-3.517c1.243,0.294,2.143,1.03,2.683,2.191l1.145,5.3L352.316,412.698L352.316,412.698z M350.877,410.048h-2.65
						l-3.812-1.309c0.033-1.178,0.605-1.914,1.734-2.208h5.284L350.877,410.048L350.877,410.048z M348.423,410.932l-3.828-1.325
						l1.161,5.283c0.54,1.178,1.439,1.914,2.683,2.208l0.556-3.517L348.423,410.932L348.423,410.932z M349.879,413.581l-0.572,3.517
						h5.283c1.129-0.294,1.701-1.03,1.734-2.208l-3.811-1.309H349.879z"/>
					<path style="fill-rule:evenodd;clip-rule:evenodd;fill:#5EB9BD;" d="M381.121,399.448l2.159,1.783l-1.391,1.767h-11.482
						l-2.143-1.767l1.374-1.783H381.121L381.121,399.448z M386.731,417.098h-14.574c-1.243-0.294-2.143-1.03-2.683-2.208
						l3.239-1.325h11.923L386.731,417.098L386.731,417.098z M369.262,414.007l3.256-1.325l-1.816-8.375l-3.238-2.65l-0.688,0.9
						L369.262,414.007L369.262,414.007z M377.948,388.882h-10.55l-3.828-1.325c0.033-1.178,0.605-1.914,1.718-2.208h13.216
						L377.948,388.882L377.948,388.882z M380.843,398.14l3.239,2.65l0.687-0.884l-2.683-12.35c-0.556-1.161-1.455-1.897-2.698-2.192
						l-0.557,3.518L380.843,398.14L380.843,398.14z M407.179,401.673l1.079,0.884l2.683,12.333
						c-0.032,1.178-0.621,1.914-1.733,2.208l-2.094-3.517l-2.012-9.258L407.179,401.673L407.179,401.673z M400.864,388.882h-10.566
						l-3.828-1.325c0.05-1.178,0.622-1.914,1.734-2.208h13.217L400.864,388.882L400.864,388.882z M390.445,389.765l-3.828-1.325
						l2.486,11.467l1.096,0.884l2.061-2.65L390.445,389.765L390.445,389.765z M403.76,398.14l-2.012-9.258l0.556-3.518
						c1.243,0.295,2.144,1.031,2.683,2.192l2.683,12.35l-0.686,0.884L403.76,398.14L403.76,398.14z M419.3,417.098h-3.533
						l-0.77-3.533h3.533L419.3,417.098L419.3,417.098z M434.837,399.448l2.144,1.783l-1.374,1.767h-11.465l-2.144-1.767l1.391-1.783
						H434.837L434.837,399.448z M437.977,401.656l-2.094,2.65l2.013,9.258l2.094,3.517c1.112-0.295,1.701-1.031,1.733-2.192
						l-2.683-12.35L437.977,401.656L437.977,401.656z M439.123,417.098h-13.231c-1.243-0.294-2.127-1.03-2.683-2.208l3.238-1.325
						h10.565L439.123,417.098L439.123,417.098z M431.664,388.882h-10.532l-3.812-1.325c0.032-1.178,0.605-1.914,1.718-2.208h13.182
						L431.664,388.882L431.664,388.882z M434.543,398.14l3.238,2.65l0.688-0.884l-2.683-12.35c-0.54-1.161-1.439-1.897-2.683-2.192
						l-0.572,3.518L434.543,398.14L434.543,398.14z M463.364,417.098h-14.541c-1.243-0.294-2.143-1.03-2.683-2.208l3.238-1.325
						h11.892L463.364,417.098L463.364,417.098z M445.928,414.007l3.255-1.325l-1.815-8.375l-3.239-2.65l-0.686,0.9L445.928,414.007
						L445.928,414.007z M455.922,388.882h-11.859l-3.81-1.325c0.032-1.178,0.604-1.914,1.717-2.208h14.493L455.922,388.882
						L455.922,388.882z M444.193,389.765l-3.827-1.325l2.503,11.467l1.079,0.884l2.077-2.65L444.193,389.765z"/>
				</g>
				<polygon style="fill-rule:evenodd;clip-rule:evenodd;fill:#3B405F;" points="190.658,417.098 216.567,417.098 215.618,412.714 
					189.709,412.714 				"/>
				<polygon style="fill-rule:evenodd;clip-rule:evenodd;fill:#3B405F;" points="189.186,410.343 215.095,410.343 214.146,405.959 
					188.237,405.959 				"/>
				<polygon style="fill-rule:evenodd;clip-rule:evenodd;fill:#3B405F;" points="187.713,403.57 213.623,403.57 212.674,399.203 
					186.765,399.203 				"/>
				<polygon style="fill-rule:evenodd;clip-rule:evenodd;fill:#3B405F;" points="186.241,396.815 212.15,396.815 211.202,392.431 
					185.292,392.431 				"/>
				<polygon style="fill-rule:evenodd;clip-rule:evenodd;fill:#E94D90;" points="221.311,417.098 247.22,417.098 246.271,412.714 
					220.362,412.714 				"/>
				<polygon style="fill-rule:evenodd;clip-rule:evenodd;fill:#E94D90;" points="219.838,410.343 245.748,410.343 244.799,405.959 
					218.89,405.959 				"/>
				<polygon style="fill-rule:evenodd;clip-rule:evenodd;fill:#FCE4D6;" points="251.963,417.098 277.874,417.098 276.925,412.714 
					251.015,412.714 				"/>
				<polygon style="fill-rule:evenodd;clip-rule:evenodd;fill:#FCE4D6;" points="250.491,410.343 276.418,410.343 275.453,405.959 
					249.542,405.959 				"/>
				<polygon style="fill-rule:evenodd;clip-rule:evenodd;fill:#FCE4D6;" points="249.036,403.57 274.946,403.57 273.98,399.203 
					248.07,399.203 				"/>
				<polygon style="fill-rule:evenodd;clip-rule:evenodd;fill:#3B405F;" points="178.52,361.303 362.115,361.303 365.713,377.873 
					182.135,377.873 				"/>
				<polygon style="fill-rule:evenodd;clip-rule:evenodd;fill:#3B405F;" points="407.064,361.303 368.968,361.303 372.583,377.873 
					410.663,377.873 				"/>
				<polygon style="fill-rule:evenodd;clip-rule:evenodd;fill:#3B405F;" points="451.227,361.303 437.716,361.303 441.314,377.873 
					454.843,377.873 				"/>
				<polygon style="fill-rule:evenodd;clip-rule:evenodd;fill:#3B405F;" points="433.676,361.303 411.398,361.303 414.997,377.873 
					437.274,377.873 				"/>
				<path style="fill-rule:evenodd;clip-rule:evenodd;fill:#E13C83;" d="M181.923,278.779c8.571,0,17.027,6.952,18.892,15.523
					c1.865,8.571-3.566,15.523-12.137,15.523c-8.587,0-17.044-6.952-18.909-15.523C167.904,285.731,173.352,278.779,181.923,278.779
					z"/>
				<polygon style="fill-rule:evenodd;clip-rule:evenodd;fill:#00888B;" points="178.39,322.11 204.299,322.11 203.35,317.727 
					177.441,317.727 				"/>
				<polygon style="fill-rule:evenodd;clip-rule:evenodd;fill:#00888B;" points="180.614,332.399 206.54,332.399 205.575,328.016 
					179.665,328.016 				"/>
				<polygon style="fill-rule:evenodd;clip-rule:evenodd;fill:#00888B;" points="182.855,342.672 208.765,342.672 207.816,338.305 
					181.906,338.305 				"/>
			</g>
		</g>
		<g>
			<g>
				<path style="fill-rule:evenodd;clip-rule:evenodd;fill:#E94D90;" d="M206.344,124.548c0,26.008-21.068,47.093-47.076,47.093
					c-26.016,0-47.093-21.085-47.093-47.093c0-26.009,21.077-47.077,47.093-47.077C185.276,77.471,206.344,98.539,206.344,124.548z"
					/>
				<path style="fill-rule:evenodd;clip-rule:evenodd;fill:#FFFFFF;" d="M197.527,124.548c0,21.134-17.126,38.276-38.259,38.276
					c-21.142,0-38.276-17.143-38.276-38.276c0-21.134,17.135-38.261,38.276-38.261C180.401,86.287,197.527,103.414,197.527,124.548z
					"/>
				<path style="fill-rule:evenodd;clip-rule:evenodd;fill:#1874BA;" d="M186.47,124.548c0,15.032-12.186,27.219-27.203,27.219
					c-15.032,0-27.219-12.187-27.219-27.219c0-15.017,12.187-27.203,27.219-27.203C174.284,97.345,186.47,109.531,186.47,124.548z"
					/>
				<path style="fill-rule:evenodd;clip-rule:evenodd;fill:#FFFFFF;" d="M173.924,124.548c0,8.113-6.559,14.672-14.656,14.672
					c-8.105,0-14.672-6.559-14.672-14.672c0-8.098,6.567-14.656,14.672-14.656C167.365,109.892,173.924,116.45,173.924,124.548z"/>
			</g>
			<path style="fill-rule:evenodd;clip-rule:evenodd;fill:#101537;" d="M159.268,125.758c-0.67,0-1.21-0.54-1.21-1.21
				c0-0.654,0.54-1.194,1.21-1.194h64.039l7.704-7.704c0.475-0.475,1.227-0.475,1.701,0c0.475,0.474,0.475,1.243,0,1.701
				l-5.986,6.003h4.743l9.063-9.063c0.458-0.474,1.227-0.474,1.7,0c0.474,0.475,0.474,1.243,0,1.701l-8.554,8.556l8.554,8.555
				c0.474,0.475,0.474,1.243,0,1.718c-0.474,0.458-1.242,0.458-1.7,0l-9.063-9.063h-4.743l5.986,6.003
				c0.475,0.458,0.475,1.228,0,1.701c-0.474,0.475-1.227,0.475-1.701,0l-7.704-7.704H159.268z"/>
		</g>
		<g>
			<path style="fill-rule:evenodd;clip-rule:evenodd;fill:#5EB9BD;" d="M70.185,180.833h93.793c1.21,0,2.208,0.998,2.208,2.209
				v21.574c0,1.21-0.998,2.191-2.208,2.191H70.185c-1.218,0-2.208-0.981-2.208-2.191v-21.574
				C67.977,181.831,68.967,180.833,70.185,180.833z"/>
			<path style="fill-rule:evenodd;clip-rule:evenodd;fill:#FFFFFF;" d="M73.653,185.037h14.42c0.629,0,1.153,0.523,1.153,1.161
				v15.261c0,0.622-0.523,1.146-1.153,1.146h-14.42c-0.638,0-1.153-0.523-1.153-1.146v-15.261
				C72.5,185.561,73.015,185.037,73.653,185.037z"/>
			<g>
				<path style="fill-rule:evenodd;clip-rule:evenodd;fill:#FFFFFF;" d="M96.553,186.314h61.095c0.54,0,0.981,0.425,0.981,0.965l0,0
					c0,0.54-0.442,0.965-0.981,0.965H96.553c-0.539,0-0.973-0.425-0.973-0.965l0,0C95.58,186.738,96.014,186.314,96.553,186.314z"/>
				<path style="fill-rule:evenodd;clip-rule:evenodd;fill:#FFFFFF;" d="M96.553,192.855h61.095c0.54,0,0.981,0.441,0.981,0.965l0,0
					c0,0.54-0.442,0.982-0.981,0.982H96.553c-0.539,0-0.973-0.441-0.973-0.982l0,0C95.58,193.297,96.014,192.855,96.553,192.855z"/>
				<path style="fill-rule:evenodd;clip-rule:evenodd;fill:#FFFFFF;" d="M96.553,199.398h27.244c0.531,0,0.973,0.441,0.973,0.981
					l0,0c0,0.523-0.442,0.965-0.973,0.965H96.553c-0.539,0-0.973-0.441-0.973-0.965l0,0C95.58,199.84,96.014,199.398,96.553,199.398
					z"/>
			</g>
		</g>
		<path style="fill-rule:evenodd;clip-rule:evenodd;fill:#C0CDEA;" d="M147.13,228.465c0-0.622,0.507-1.129,1.121-1.129
			c0.622,0,1.121,0.507,1.121,1.129v2.633h2.642c0.613,0,1.121,0.507,1.121,1.112c0,0.622-0.507,1.129-1.121,1.129h-2.642v2.634
			c0,0.621-0.499,1.128-1.121,1.128c-0.613,0-1.121-0.507-1.121-1.128v-2.634h-2.633c-0.622,0-1.121-0.507-1.121-1.129
			c0-0.605,0.499-1.112,1.121-1.112h2.633V228.465z"/>
		<path style="fill-rule:evenodd;clip-rule:evenodd;fill:#9FB2D9;" d="M195.94,177.316c1.521,0,2.879,0.622,3.876,1.604l0,0
			c0.998,0.997,1.603,2.371,1.603,3.876s-0.605,2.879-1.603,3.877c-0.981,0.981-2.355,1.604-3.876,1.604
			c-1.504,0-2.862-0.622-3.86-1.604l-0.016-0.017c-0.982-0.981-1.603-2.355-1.603-3.86c0-1.52,0.622-2.879,1.619-3.876
			C193.062,177.939,194.436,177.316,195.94,177.316L195.94,177.316z M198.541,180.195c-0.654-0.671-1.57-1.079-2.601-1.079
			c-1.014,0-1.93,0.408-2.6,1.079c-0.654,0.671-1.063,1.587-1.063,2.601c0,1.015,0.409,1.931,1.063,2.602l0,0
			c0.67,0.67,1.586,1.079,2.6,1.079c1.014,0,1.946-0.425,2.601-1.079c0.671-0.671,1.08-1.587,1.08-2.602
			C199.621,181.782,199.212,180.85,198.541,180.195z"/>
		<g>
			<path style="fill-rule:evenodd;clip-rule:evenodd;fill:#C0CDEA;" d="M671.511,343.735c-1.406-1.407-3.107-2.552-5.005-3.337
				c-1.816-0.753-3.795-1.178-5.889-1.178c-2.078,0-4.073,0.425-5.889,1.178c-1.881,0.785-3.582,1.93-5.006,3.337
				c-1.406,1.423-2.552,3.124-3.337,5.005c-0.752,1.815-1.161,3.812-1.161,5.889c0,2.077,0.409,4.073,1.161,5.889
				c0.785,1.897,1.931,3.582,3.337,5.006c1.424,1.406,3.125,2.552,5.006,3.337c1.815,0.752,3.811,1.178,5.889,1.178
				c2.094,0,4.072-0.426,5.889-1.178c1.897-0.785,3.599-1.931,5.005-3.337c1.423-1.424,2.568-3.108,3.354-5.006
				c0.753-1.816,1.161-3.812,1.161-5.889c0-2.077-0.408-4.073-1.161-5.889C674.079,346.859,672.934,345.158,671.511,343.735
				L671.511,343.735z M665.966,341.707c1.701,0.703,3.255,1.75,4.531,3.042c1.292,1.292,2.339,2.83,3.042,4.531
				c0.688,1.652,1.063,3.451,1.063,5.349s-0.376,3.697-1.063,5.349c-0.703,1.701-1.75,3.239-3.042,4.531
				c-1.276,1.292-2.83,2.339-4.531,3.043c-1.636,0.687-3.451,1.047-5.349,1.047c-1.898,0-3.697-0.36-5.333-1.047
				c-1.718-0.704-3.255-1.751-4.547-3.043c-1.292-1.292-2.323-2.83-3.043-4.531c-0.67-1.651-1.047-3.451-1.047-5.349
				s0.377-3.696,1.047-5.349c0.72-1.701,1.751-3.239,3.043-4.531s2.829-2.339,4.53-3.042c1.652-0.671,3.452-1.047,5.35-1.047
				C662.515,340.66,664.33,341.036,665.966,341.707L665.966,341.707z M667.667,330.371c0.965,0.278,1.914,0.621,2.847,1.014
				c0.932,0.409,1.848,0.867,2.715,1.358c0.899,0.523,1.75,1.096,2.584,1.701c0.818,0.638,1.604,1.292,2.34,2.012
				c0.262,0.245,0.589,0.393,0.916,0.441c0.344,0.033,0.703-0.032,1.014-0.213c2.258-1.309,4.629-2.601,6.854-3.958
				c0.099-0.049,0.213-0.082,0.328-0.099c0.131-0.016,0.262,0,0.376,0.033c0.131,0.032,0.245,0.082,0.343,0.163
				c0.099,0.082,0.197,0.164,0.262,0.278c1.652,2.503,3.305,5.726,4.826,8.375c0.065,0.114,0.114,0.229,0.114,0.344
				c0.017,0.131,0.017,0.262-0.017,0.393c-0.032,0.131-0.098,0.245-0.18,0.344c-0.065,0.098-0.164,0.196-0.278,0.262
				c-2.028,1.341-4.661,2.683-6.821,3.926c-0.311,0.18-0.539,0.458-0.67,0.769c-0.049,0.114-0.082,0.213-0.099,0.344l-0.147,0.032
				l0.164,0.638c0.114,0.508,0.229,0.998,0.327,1.505c0.082,0.475,0.163,0.982,0.229,1.522c0.049,0.507,0.098,1.015,0.131,1.521
				c0.032,0.507,0.049,1.014,0.049,1.554s-0.017,1.047-0.049,1.554c-0.033,0.508-0.082,1.015-0.131,1.522
				c-0.066,0.54-0.147,1.047-0.229,1.521c-0.099,0.507-0.213,0.998-0.327,1.505c-0.098,0.376-0.049,0.736,0.098,1.063
				c0.147,0.311,0.393,0.589,0.721,0.752l6.035,3.484l0,0l0.72,0.409c0.114,0.065,0.213,0.163,0.278,0.262
				c0.082,0.098,0.147,0.212,0.18,0.343c0.033,0.131,0.033,0.262,0.017,0.393c0,0.115-0.049,0.246-0.114,0.344l-4.466,7.754l0,0
				l-0.36,0.621c-0.064,0.114-0.163,0.213-0.262,0.278c-0.098,0.082-0.212,0.131-0.343,0.163c-0.131,0.05-0.262,0.05-0.376,0.033
				c-0.131-0.017-0.246-0.049-0.36-0.114c-2.159-1.358-4.597-2.65-6.821-3.942c-0.327-0.18-0.67-0.245-0.998-0.213
				c-0.343,0.049-0.67,0.196-0.932,0.441l0,0c-0.736,0.72-1.521,1.391-2.355,2.013c-0.818,0.604-1.669,1.178-2.552,1.701
				c-0.884,0.507-1.8,0.965-2.748,1.357c-0.933,0.409-1.897,0.736-2.896,1.03c-0.344,0.099-0.638,0.311-0.851,0.572
				c-0.196,0.278-0.327,0.622-0.327,0.981v7.868c0,0.131-0.017,0.262-0.065,0.376c-0.049,0.115-0.131,0.229-0.213,0.311
				c-0.098,0.098-0.196,0.163-0.327,0.212c-0.114,0.05-0.229,0.082-0.359,0.082h-9.668c-0.131,0-0.262-0.032-0.376-0.082
				c-0.114-0.049-0.229-0.114-0.31-0.212c-0.099-0.082-0.163-0.196-0.213-0.311c-0.049-0.114-0.081-0.245-0.081-0.376v-7.868
				c0-0.376-0.131-0.72-0.344-0.997c-0.229-0.278-0.54-0.491-0.9-0.573c-0.965-0.277-1.913-0.621-2.829-1.014
				c-0.949-0.409-1.849-0.85-2.731-1.357c-0.884-0.523-1.751-1.097-2.568-1.701c-0.818-0.622-1.604-1.293-2.339-2.013
				c-0.278-0.262-0.622-0.408-0.981-0.441c-0.36-0.032-0.72,0.065-1.031,0.262l-6.739,3.893c-0.114,0.065-0.229,0.098-0.359,0.114
				c-0.131,0.017-0.262,0.017-0.393-0.033c-0.114-0.032-0.245-0.081-0.344-0.163c-0.098-0.065-0.18-0.164-0.245-0.278
				c-1.604-2.797-3.223-5.578-4.825-8.375c-0.065-0.098-0.115-0.229-0.131-0.344c-0.017-0.131,0-0.262,0.032-0.393
				c0.033-0.131,0.082-0.245,0.164-0.343c0.081-0.099,0.163-0.196,0.277-0.262l6.821-3.926c0.327-0.181,0.557-0.458,0.688-0.77
				c0.032-0.081,0.066-0.163,0.081-0.262l0.181-0.032l-0.181-0.72c-0.131-0.507-0.229-0.998-0.327-1.505
				c-0.081-0.475-0.163-0.981-0.228-1.521c-0.065-0.507-0.114-1.014-0.147-1.522c-0.017-0.507-0.032-1.014-0.032-1.554
				s0.016-1.047,0.032-1.554c0.033-0.491,0.082-1.015,0.147-1.521c0.065-0.54,0.147-1.047,0.228-1.522
				c0.099-0.507,0.196-0.997,0.327-1.505c0.082-0.376,0.05-0.735-0.098-1.063c-0.164-0.312-0.409-0.589-0.736-0.753l-6.756-3.893
				c-0.098-0.065-0.196-0.147-0.277-0.262c-0.082-0.099-0.131-0.213-0.164-0.344c-0.032-0.131-0.049-0.262-0.032-0.376
				c0.016-0.131,0.065-0.246,0.131-0.36c1.636-2.453,3.287-5.725,4.825-8.375c0.065-0.114,0.147-0.196,0.245-0.278
				c0.099-0.081,0.229-0.131,0.344-0.163c0.131-0.049,0.262-0.049,0.393-0.033c0.114,0.017,0.245,0.05,0.359,0.115l6.821,3.941
				c0.327,0.196,0.687,0.246,1.015,0.213c0.343-0.049,0.67-0.213,0.932-0.458c0.736-0.72,1.521-1.391,2.34-1.995
				c0.801-0.605,1.668-1.178,2.552-1.701c0.883-0.508,1.799-0.966,2.748-1.358c0.932-0.393,1.897-0.735,2.879-1.03
				c0.359-0.098,0.654-0.311,0.85-0.572c0.213-0.278,0.328-0.622,0.328-0.981v-7.868c0-0.131,0.032-0.262,0.081-0.376
				c0.05-0.114,0.114-0.23,0.213-0.311c0.082-0.099,0.196-0.164,0.31-0.213c0.114-0.049,0.245-0.082,0.376-0.082h9.668
				c0.131,0,0.245,0.033,0.359,0.082c0.131,0.049,0.23,0.114,0.327,0.213c0.181,0.18,0.278,0.425,0.278,0.686v7.868
				c0,0.376,0.131,0.72,0.359,0.998C666.996,330.093,667.307,330.289,667.667,330.371L667.667,330.371z M671.069,330.076
				c0.998,0.426,1.946,0.9,2.879,1.439c0.948,0.557,1.849,1.146,2.716,1.8c0.866,0.654,1.685,1.358,2.47,2.11
				c0.032,0.032,0.065,0.049,0.114,0.049c0.033,0.017,0.082,0,0.114-0.017c2.29-1.325,4.597-2.649,6.887-3.975
				c0.262-0.147,0.556-0.245,0.851-0.278c0.311-0.032,0.621,0,0.916,0.065c0.295,0.082,0.589,0.229,0.834,0.426
				c0.246,0.18,0.458,0.425,0.622,0.703c1.668,2.683,3.238,5.61,4.825,8.358c0.164,0.278,0.262,0.589,0.31,0.884
				c0.033,0.327,0.017,0.638-0.065,0.948c-0.081,0.295-0.229,0.589-0.409,0.834c-0.195,0.246-0.425,0.458-0.703,0.622
				c-2.208,1.357-4.58,2.634-6.82,3.942c-0.033,0.016-0.066,0.049-0.082,0.081c-0.017,0.033-0.017,0.082-0.017,0.115l0.163,0.638
				l-0.016,0.017c0.082,0.294,0.131,0.621,0.196,0.932c0.098,0.54,0.18,1.08,0.245,1.603c0.065,0.523,0.114,1.064,0.147,1.619
				c0.032,0.557,0.049,1.112,0.049,1.636s-0.017,1.08-0.049,1.636c-0.033,0.557-0.082,1.096-0.147,1.619
				c-0.065,0.523-0.148,1.064-0.245,1.604c-0.099,0.54-0.213,1.064-0.344,1.587c0,0.032,0,0.081,0.017,0.114
				c0.016,0.049,0.049,0.082,0.082,0.098c2.502,1.342,5.054,2.912,7.523,4.335l-0.081,0.114l0.081,0.099
				c0.181,0.245,0.328,0.54,0.409,0.834c0.082,0.31,0.099,0.622,0.065,0.949c-0.049,0.294-0.146,0.605-0.31,0.883l-5.186,8.997
				l-0.098-0.065c-0.049,0.049-0.099,0.098-0.164,0.131c-0.245,0.196-0.539,0.343-0.834,0.425c-0.295,0.082-0.621,0.099-0.933,0.049
				c-0.311-0.032-0.604-0.131-0.866-0.277c-2.274-1.211-4.613-2.667-6.854-3.959c-0.032-0.017-0.081-0.017-0.114-0.017
				c-0.049,0-0.082,0.017-0.114,0.05c-0.785,0.752-1.604,1.455-2.47,2.109c-0.867,0.654-1.768,1.26-2.716,1.8
				c-0.933,0.54-1.897,1.03-2.896,1.456c-0.998,0.408-2.012,0.769-3.059,1.079c-0.049,0-0.082,0.033-0.098,0.065
				c-0.033,0.033-0.05,0.065-0.033,0.114v7.868c0,0.327-0.065,0.638-0.196,0.916c-0.114,0.295-0.294,0.572-0.523,0.785
				c-0.213,0.229-0.475,0.393-0.769,0.523c-0.295,0.114-0.606,0.18-0.916,0.18h-9.668c-0.326,0-0.638-0.065-0.916-0.18
				c-0.294-0.131-0.556-0.294-0.785-0.523c-0.212-0.213-0.393-0.49-0.523-0.785c-0.114-0.278-0.18-0.589-0.18-0.916v-7.868
				c0-0.049-0.016-0.081-0.032-0.114c-0.033-0.032-0.065-0.065-0.114-0.065l-0.033-0.017c-1.047-0.311-2.06-0.67-3.026-1.079
				c-0.997-0.426-1.963-0.899-2.895-1.439c-0.933-0.54-1.849-1.145-2.699-1.8c-0.867-0.654-1.701-1.357-2.486-2.109
				c-0.033-0.033-0.065-0.05-0.114-0.05c-0.033-0.016-0.082,0-0.115,0.033l-6.82,3.926c-0.278,0.163-0.573,0.262-0.884,0.294
				c-0.311,0.05-0.638,0.033-0.933-0.049c-0.311-0.082-0.589-0.229-0.851-0.425c-0.229-0.181-0.441-0.409-0.604-0.671
				c-1.783-2.896-3.484-6.036-5.185-8.997l0.082-0.065c-0.017-0.065-0.017-0.147-0.033-0.212c-0.049-0.327-0.017-0.639,0.065-0.949
				c0.082-0.294,0.213-0.589,0.409-0.834c0.18-0.245,0.425-0.458,0.703-0.622l6.821-3.941c0.032-0.017,0.065-0.05,0.082-0.082
				c0.016-0.033,0.016-0.082,0-0.114l-0.181-0.736h0.017c-0.065-0.278-0.114-0.557-0.163-0.851c-0.115-0.54-0.196-1.08-0.246-1.604
				c-0.065-0.523-0.114-1.063-0.146-1.619c-0.033-0.556-0.065-1.112-0.065-1.636s0.032-1.079,0.065-1.636
				c0.032-0.556,0.081-1.096,0.146-1.619c0.05-0.523,0.131-1.047,0.246-1.603c0.098-0.539,0.212-1.063,0.327-1.586
				c0.016-0.033,0.016-0.082,0-0.115c-0.033-0.049-0.05-0.081-0.099-0.098l-6.805-3.926c-0.278-0.164-0.523-0.376-0.703-0.622
				c-0.196-0.245-0.327-0.539-0.409-0.834c-0.082-0.311-0.114-0.621-0.065-0.933c0.033-0.31,0.131-0.604,0.295-0.883
				c1.619-2.993,3.483-6.036,5.201-9.013l0.099,0.065c0.049-0.05,0.098-0.099,0.146-0.131c0.262-0.196,0.54-0.344,0.851-0.426
				c0.295-0.065,0.622-0.098,0.933-0.049c0.31,0.032,0.605,0.131,0.884,0.294l0.507,0.278v0.017l6.33,3.648
				c0.033,0.017,0.065,0.033,0.114,0.017c0.033,0,0.082-0.017,0.115-0.049l0.016-0.017c0.769-0.753,1.587-1.456,2.471-2.11
				c0.851-0.638,1.767-1.243,2.698-1.783c0.933-0.539,1.897-1.014,2.896-1.439c0.998-0.425,2.012-0.785,3.059-1.096
				c0.033,0,0.065-0.032,0.099-0.065c0.017-0.032,0.032-0.065,0.032-0.114v-7.868c0-0.327,0.065-0.638,0.18-0.916
				c0.131-0.294,0.311-0.556,0.523-0.785c0.229-0.213,0.491-0.393,0.785-0.523c0.278-0.114,0.59-0.18,0.916-0.18h9.668
				c0.31,0,0.621,0.066,0.916,0.18c0.294,0.131,0.556,0.311,0.769,0.523c0.441,0.441,0.72,1.03,0.72,1.701v7.868
				c0,0.049,0,0.082,0.033,0.131c0.016,0.017,0.064,0.049,0.098,0.049l0.033,0.017C669.074,329.308,670.088,329.668,671.069,330.076
				z"/>
			<g>
				<path style="fill-rule:evenodd;clip-rule:evenodd;fill:#9FB2D9;" d="M423.847,175.697c-6.281,0-11.974,2.552-16.079,6.657
					c-4.122,4.122-6.674,9.797-6.674,16.078c0,6.281,2.552,11.974,6.674,16.096c4.105,4.105,9.798,6.657,16.079,6.657
					c6.281,0,11.956-2.552,16.078-6.657c4.105-4.122,6.657-9.814,6.657-16.096c0-6.281-2.552-11.956-6.657-16.078
					C435.803,178.249,430.128,175.697,423.847,175.697L423.847,175.697z M409.06,183.663c3.778-3.795,9.013-6.134,14.787-6.134
					c5.774,0,10.99,2.339,14.785,6.134c3.779,3.778,6.118,8.996,6.118,14.77c0,5.774-2.339,11.009-6.118,14.787
					c-3.795,3.795-9.011,6.134-14.785,6.134c-5.774,0-11.009-2.339-14.787-6.134c-3.778-3.778-6.117-9.013-6.117-14.787
					C402.942,192.659,405.281,187.441,409.06,183.663z"/>
				<path style="fill-rule:evenodd;clip-rule:evenodd;fill:#9FB2D9;" d="M404.741,198.09c-0.196,0-0.344,0.163-0.344,0.343
					c0,0.196,0.147,0.344,0.344,0.344h1.685c0.196,0,0.344-0.147,0.344-0.344c0-0.18-0.147-0.343-0.344-0.343H404.741
					L404.741,198.09z M436.603,210.718c-0.131-0.131-0.343-0.131-0.474,0c-0.147,0.131-0.147,0.359,0,0.49l0.769,0.769
					c0.131,0.131,0.344,0.131,0.49,0c0.131-0.131,0.131-0.343,0-0.49L436.603,210.718L436.603,210.718z M410.794,184.906
					c-0.131-0.147-0.36-0.147-0.491,0c-0.131,0.131-0.131,0.344,0,0.475l0.769,0.785c0.131,0.131,0.36,0.131,0.491,0
					c0.131-0.147,0.131-0.36,0-0.491L410.794,184.906L410.794,184.906z M424.19,215.852c0-0.196-0.164-0.343-0.344-0.343
					c-0.196,0-0.344,0.146-0.344,0.343v1.701c0,0.181,0.147,0.344,0.344,0.344c0.18,0,0.344-0.163,0.344-0.344V215.852
					L424.19,215.852z M424.19,179.328c0-0.18-0.164-0.343-0.344-0.343c-0.196,0-0.344,0.163-0.344,0.343v1.701
					c0,0.196,0.147,0.344,0.344,0.344c0.18,0,0.344-0.147,0.344-0.344V179.328L424.19,179.328z M436.13,185.675
					c-0.147,0.131-0.147,0.344,0,0.491c0.131,0.131,0.343,0.131,0.474,0l0.785-0.785c0.131-0.131,0.131-0.344,0-0.475
					c-0.147-0.147-0.359-0.147-0.49,0L436.13,185.675L436.13,185.675z M410.303,211.486c-0.131,0.148-0.131,0.359,0,0.49
					c0.131,0.131,0.36,0.131,0.491,0l0.769-0.769c0.131-0.131,0.131-0.359,0-0.49c-0.131-0.131-0.36-0.131-0.491,0L410.303,211.486
					L410.303,211.486z M441.249,198.09c-0.196,0-0.343,0.163-0.343,0.343c0,0.196,0.146,0.344,0.343,0.344h1.701
					c0.196,0,0.344-0.147,0.344-0.344c0-0.18-0.147-0.343-0.344-0.343H441.249z"/>
				<path style="fill-rule:evenodd;clip-rule:evenodd;fill:#9FB2D9;" d="M423.16,198.433c0,0.393,0.311,0.688,0.686,0.688
					c0.376,0,0.688-0.295,0.688-0.688v-15.489c0-0.376-0.311-0.687-0.688-0.687c-0.376,0-0.686,0.311-0.686,0.687V198.433z"/>
				<path style="fill-rule:evenodd;clip-rule:evenodd;fill:#9FB2D9;" d="M424.435,198.776c0.196-0.327,0.082-0.736-0.245-0.933
					c-0.327-0.18-0.753-0.065-0.933,0.262l-6.33,10.927c-0.18,0.327-0.065,0.753,0.262,0.933c0.327,0.196,0.736,0.082,0.933-0.245
					L424.435,198.776z"/>
				<path style="fill-rule:evenodd;clip-rule:evenodd;fill:#9FB2D9;" d="M423.847,200.298c1.015,0,1.865-0.834,1.865-1.865
					c0-1.014-0.851-1.848-1.865-1.848c-1.03,0-1.864,0.834-1.864,1.848C421.982,199.464,422.816,200.298,423.847,200.298z"/>
			</g>
			<path style="fill-rule:evenodd;clip-rule:evenodd;fill:#C0CDEA;" d="M346.804,125.447c0.785,0,1.194-0.965,0.638-1.522
				c-0.18-0.18-0.393-0.278-0.638-0.278h-1.799c-0.801,0-1.211,0.981-0.654,1.538c0.18,0.18,0.393,0.262,0.654,0.262H346.804
				L346.804,125.447z M224.157,123.647c-0.802,0-1.21,0.981-0.654,1.538c0.18,0.18,0.393,0.262,0.654,0.262h0.278
				c0.785,0,1.194-0.965,0.638-1.522c-0.18-0.18-0.393-0.278-0.638-0.278H224.157L224.157,123.647z M229.833,123.647
				c-0.801,0-1.21,0.981-0.638,1.538c0.18,0.18,0.376,0.262,0.638,0.262h1.8c0.801,0,1.194-0.965,0.638-1.522
				c-0.18-0.18-0.393-0.278-0.638-0.278H229.833L229.833,123.647z M237.03,123.647c-0.801,0-1.21,0.981-0.638,1.538
				c0.18,0.18,0.376,0.262,0.638,0.262h1.8c0.801,0,1.194-0.965,0.638-1.522c-0.18-0.18-0.393-0.278-0.638-0.278H237.03
				L237.03,123.647z M244.227,123.647c-0.802,0-1.21,0.981-0.638,1.538c0.18,0.18,0.376,0.262,0.638,0.262h1.799
				c0.801,0,1.194-0.965,0.638-1.522c-0.18-0.18-0.393-0.278-0.638-0.278H244.227L244.227,123.647z M251.424,123.647
				c-0.802,0-1.21,0.981-0.638,1.538c0.18,0.18,0.376,0.262,0.638,0.262h1.799c0.801,0,1.194-0.965,0.638-1.522
				c-0.18-0.18-0.393-0.278-0.638-0.278H251.424L251.424,123.647z M258.621,123.647c-0.802,0-1.194,0.981-0.638,1.538
				c0.18,0.18,0.393,0.262,0.638,0.262h1.799c0.801,0,1.194-0.965,0.638-1.522c-0.18-0.18-0.393-0.278-0.638-0.278H258.621
				L258.621,123.647z M265.818,123.647c-0.802,0-1.194,0.981-0.638,1.538c0.18,0.18,0.393,0.262,0.638,0.262h1.799
				c0.801,0,1.194-0.965,0.638-1.522c-0.18-0.18-0.393-0.278-0.638-0.278H265.818L265.818,123.647z M273.016,123.647
				c-0.802,0-1.194,0.981-0.638,1.538c0.18,0.18,0.393,0.262,0.638,0.262h1.799c0.801,0,1.194-0.965,0.638-1.522
				c-0.18-0.18-0.393-0.278-0.638-0.278H273.016L273.016,123.647z M280.213,123.647c-0.802,0-1.194,0.981-0.638,1.538
				c0.18,0.18,0.393,0.262,0.638,0.262h1.799c0.801,0,1.21-0.965,0.638-1.522c-0.18-0.18-0.376-0.278-0.638-0.278H280.213
				L280.213,123.647z M287.41,123.647c-0.802,0-1.194,0.981-0.638,1.538c0.18,0.18,0.393,0.262,0.638,0.262h1.799
				c0.801,0,1.21-0.965,0.638-1.522c-0.18-0.18-0.376-0.278-0.638-0.278H287.41L287.41,123.647z M294.607,123.647
				c-0.802,0-1.194,0.981-0.638,1.538c0.18,0.18,0.393,0.262,0.638,0.262h1.799c0.801,0,1.21-0.965,0.638-1.522
				c-0.18-0.18-0.376-0.278-0.638-0.278H294.607L294.607,123.647z M301.805,123.647c-0.802,0-1.194,0.981-0.638,1.538
				c0.18,0.18,0.393,0.262,0.638,0.262h1.799c0.801,0,1.21-0.965,0.638-1.522c-0.18-0.18-0.376-0.278-0.638-0.278H301.805
				L301.805,123.647z M309.002,123.647c-0.785,0-1.194,0.981-0.638,1.538c0.18,0.18,0.392,0.262,0.638,0.262h1.799
				c0.801,0,1.21-0.965,0.638-1.522c-0.18-0.18-0.376-0.278-0.638-0.278H309.002L309.002,123.647z M316.199,123.647
				c-0.785,0-1.194,0.981-0.638,1.538c0.18,0.18,0.393,0.262,0.638,0.262h1.799c0.801,0,1.211-0.965,0.638-1.522
				c-0.18-0.18-0.376-0.278-0.638-0.278H316.199L316.199,123.647z M323.396,123.647c-0.785,0-1.194,0.981-0.638,1.538
				c0.18,0.18,0.393,0.262,0.638,0.262h1.799c0.801,0,1.21-0.965,0.638-1.522c-0.18-0.18-0.376-0.278-0.638-0.278H323.396
				L323.396,123.647z M330.594,123.647c-0.785,0-1.194,0.981-0.638,1.538c0.18,0.18,0.392,0.262,0.638,0.262h1.799
				c0.801,0,1.21-0.965,0.654-1.522c-0.196-0.18-0.393-0.278-0.654-0.278H330.594L330.594,123.647z M337.791,123.647
				c-0.785,0-1.194,0.981-0.638,1.538c0.18,0.18,0.393,0.262,0.638,0.262h1.799c0.801,0,1.21-0.965,0.654-1.522
				c-0.18-0.18-0.393-0.278-0.654-0.278H337.791z"/>
			<path style="fill-rule:evenodd;clip-rule:evenodd;fill:#C0CDEA;" d="M296.39,187.36L296.39,187.36L296.39,187.36z
				 M293.004,174.421c-1.194-1.178-2.83-1.913-4.629-1.913c-1.799,0-3.435,0.735-4.629,1.913c-1.178,1.194-1.914,2.83-1.914,4.63
				c0,1.799,0.736,3.435,1.914,4.629c1.194,1.178,2.83,1.914,4.629,1.914c1.799,0,3.435-0.736,4.629-1.914
				c1.178-1.194,1.914-2.83,1.914-4.629C294.918,177.251,294.182,175.615,293.004,174.421L293.004,174.421z M291.581,167.943
				c0.916,0.262,1.767,0.639,2.568,1.097c0.818,0.474,1.57,1.047,2.241,1.685c0.147,0.131,0.344,0.148,0.491,0.065l3.026-1.75
				l0.016-0.017c0.18-0.099,0.376-0.114,0.556-0.065c0.196,0.049,0.36,0.18,0.458,0.359l0.017,0.017l2.143,3.697
				c0.098,0.18,0.115,0.393,0.065,0.572c-0.049,0.196-0.164,0.359-0.343,0.458l-0.017,0.017l-3.026,1.733
				c-0.147,0.099-0.229,0.278-0.18,0.441l0,0c0.115,0.458,0.196,0.916,0.246,1.391c0.065,0.458,0.082,0.933,0.082,1.407
				c0,0.474-0.016,0.948-0.082,1.406c-0.049,0.475-0.131,0.933-0.246,1.374c-0.049,0.196,0.049,0.376,0.213,0.458l3.01,1.75l0,0
				c0.18,0.099,0.294,0.262,0.343,0.458c0.049,0.181,0.033,0.393-0.065,0.573l-2.159,3.713l0,0c-0.098,0.18-0.262,0.311-0.458,0.359
				c-0.18,0.05-0.393,0.017-0.572-0.081l-0.017-0.017l-3.01-1.734c-0.164-0.098-0.36-0.065-0.491,0.05
				c-0.67,0.654-1.423,1.227-2.241,1.701c-0.802,0.458-1.668,0.834-2.584,1.096c-0.164,0.049-0.278,0.212-0.278,0.392v3.5
				c0,0.196-0.098,0.393-0.229,0.523c-0.131,0.147-0.327,0.23-0.523,0.23h-4.302c-0.213,0-0.393-0.082-0.54-0.23
				c-0.131-0.131-0.212-0.327-0.212-0.523v-3.5c0-0.195-0.131-0.359-0.311-0.392c-0.916-0.262-1.767-0.638-2.568-1.096
				c-0.818-0.475-1.57-1.047-2.241-1.701c-0.147-0.131-0.343-0.147-0.507-0.033l-3.01,1.734c-0.18,0.098-0.393,0.131-0.573,0.081
				c-0.196-0.049-0.36-0.18-0.458-0.359l-0.016-0.017l-2.143-3.696l0,0c-0.098-0.181-0.114-0.393-0.065-0.573
				c0.049-0.196,0.164-0.359,0.344-0.458l3.042-1.75c0.147-0.098,0.229-0.278,0.18-0.458l0,0c-0.098-0.441-0.196-0.9-0.245-1.374
				c-0.049-0.458-0.082-0.933-0.082-1.406c0-0.475,0.033-0.949,0.082-1.407c0.049-0.475,0.147-0.933,0.245-1.391
				c0.049-0.18-0.033-0.376-0.212-0.441l-3.01-1.75c-0.18-0.099-0.294-0.262-0.344-0.458c-0.049-0.18-0.033-0.393,0.065-0.572
				l0.017-0.017l2.143-3.697l0,0c0.098-0.18,0.262-0.311,0.458-0.359c0.18-0.049,0.393-0.033,0.573,0.082l0,0l3.026,1.75
				c0.164,0.098,0.376,0.066,0.491-0.065c0.671-0.654,1.423-1.211,2.241-1.685c0.801-0.475,1.668-0.835,2.584-1.097
				c0.18-0.049,0.295-0.212,0.295-0.393v-3.5c0-0.213,0.081-0.393,0.212-0.523c0.147-0.147,0.327-0.229,0.54-0.229h4.302
				c0.196,0,0.393,0.082,0.523,0.229c0.131,0.131,0.229,0.311,0.229,0.523v3.5C291.287,167.747,291.418,167.911,291.581,167.943z"/>
			<path style="fill-rule:evenodd;clip-rule:evenodd;fill:#C0CDEA;" d="M454.172,239.227c0-0.622,0.507-1.129,1.129-1.129
				c0.605,0,1.112,0.507,1.112,1.129v2.634h2.633c0.622,0,1.129,0.507,1.129,1.128c0,0.622-0.507,1.112-1.129,1.112h-2.633v2.65
				c0,0.605-0.508,1.112-1.112,1.112c-0.622,0-1.129-0.507-1.129-1.112v-2.65h-2.634c-0.621,0-1.129-0.49-1.129-1.112
				c0-0.621,0.508-1.128,1.129-1.128h2.634V239.227z"/>
			<path style="fill-rule:evenodd;clip-rule:evenodd;fill:#9FB2D9;" d="M579.19,271.844c1.505,0,2.879,0.605,3.877,1.603l0,0
				c0.982,0.998,1.603,2.355,1.603,3.877c0,1.505-0.622,2.879-1.603,3.86c-0.998,0.997-2.356,1.603-3.877,1.603
				c-1.505,0-2.879-0.605-3.86-1.603h-0.016c-0.982-0.998-1.603-2.355-1.603-3.86c0-1.521,0.622-2.895,1.603-3.877
				C576.31,272.449,577.685,271.844,579.19,271.844L579.19,271.844z M581.791,274.723c-0.654-0.67-1.587-1.079-2.602-1.079
				c-1.014,0-1.93,0.409-2.601,1.079c-0.671,0.654-1.079,1.587-1.079,2.602c0,1.014,0.408,1.93,1.079,2.601l0,0
				c0.671,0.654,1.587,1.064,2.601,1.064c1.015,0,1.931-0.409,2.602-1.064c0.67-0.671,1.079-1.587,1.079-2.601
				C582.87,276.293,582.461,275.377,581.791,274.723z"/>
			<path style="fill-rule:evenodd;clip-rule:evenodd;fill:#C0CDEA;" d="M694.854,256.648c0-0.622,0.507-1.129,1.128-1.129
				c0.606,0,1.112,0.507,1.112,1.129v2.633h2.634c0.622,0,1.129,0.508,1.129,1.129c0,0.622-0.507,1.112-1.129,1.112h-2.634v2.634
				c0,0.621-0.507,1.129-1.112,1.129c-0.621,0-1.128-0.508-1.128-1.129v-2.634h-2.634c-0.622,0-1.129-0.49-1.129-1.112
				c0-0.621,0.507-1.129,1.129-1.129h2.634V256.648z"/>
			<path style="fill-rule:evenodd;clip-rule:evenodd;fill:#C0CDEA;" d="M626.299,409.001c0-0.621,0.491-1.112,1.112-1.112
				c0.622,0,1.129,0.491,1.129,1.112v2.634h2.634c0.621,0,1.112,0.507,1.112,1.129c0,0.621-0.491,1.112-1.112,1.112h-2.634v2.649
				c0,0.622-0.507,1.112-1.129,1.112c-0.621,0-1.112-0.49-1.112-1.112v-2.649h-2.649c-0.606,0-1.112-0.491-1.112-1.112
				c0-0.622,0.507-1.129,1.112-1.129h2.649V409.001z"/>
			<path style="fill-rule:evenodd;clip-rule:evenodd;fill:#C0CDEA;" d="M511.259,71.533c0-0.622,0.508-1.129,1.129-1.129
				c0.622,0,1.112,0.507,1.112,1.129v2.634h2.65c0.604,0,1.112,0.507,1.112,1.128c0,0.622-0.508,1.112-1.112,1.112h-2.65v2.634
				c0,0.622-0.49,1.129-1.112,1.129c-0.621,0-1.129-0.507-1.129-1.129v-2.634h-2.633c-0.622,0-1.112-0.49-1.112-1.112
				c0-0.621,0.49-1.128,1.112-1.128h2.633V71.533z"/>
			<path style="fill-rule:evenodd;clip-rule:evenodd;fill:#C0CDEA;" d="M275.109,89.052c0-0.621,0.507-1.112,1.128-1.112
				c0.622,0,1.112,0.491,1.112,1.112v2.634h2.634c0.622,0,1.128,0.507,1.128,1.129c0,0.621-0.507,1.112-1.128,1.112h-2.634v2.649
				c0,0.605-0.491,1.112-1.112,1.112c-0.622,0-1.128-0.507-1.128-1.112v-2.649h-2.634c-0.622,0-1.128-0.491-1.128-1.112
				c0-0.622,0.507-1.129,1.128-1.129h2.634V89.052z"/>
			<path style="fill-rule:evenodd;clip-rule:evenodd;fill:#C0CDEA;" d="M105.992,74.575c0-0.621,0.507-1.112,1.128-1.112
				c0.614,0,1.121,0.491,1.121,1.112v2.634h2.634c0.622,0,1.12,0.507,1.12,1.129c0,0.621-0.498,1.129-1.12,1.129h-2.634V82.1
				c0,0.622-0.507,1.112-1.121,1.112c-0.622,0-1.128-0.49-1.128-1.112v-2.633h-2.634c-0.622,0-1.12-0.508-1.12-1.129
				c0-0.622,0.498-1.129,1.12-1.129h2.634V74.575z"/>
			<path style="fill-rule:evenodd;clip-rule:evenodd;fill:#C0CDEA;" d="M54.196,309.204c0-0.621,0.499-1.112,1.121-1.112
				c0.622,0,1.121,0.491,1.121,1.112v2.634h2.633c0.622,0,1.121,0.507,1.121,1.129c0,0.621-0.499,1.129-1.121,1.129h-2.633v2.633
				c0,0.622-0.499,1.112-1.121,1.112c-0.622,0-1.121-0.49-1.121-1.112v-2.633h-2.641c-0.614,0-1.121-0.508-1.121-1.129
				c0-0.622,0.507-1.129,1.121-1.129h2.641V309.204z"/>
			<path style="fill-rule:evenodd;clip-rule:evenodd;fill:#9FB2D9;" d="M226.414,78.289c1.521,0,2.879,0.604,3.876,1.603l0,0
				c0.998,0.998,1.604,2.355,1.604,3.877c0,1.505-0.605,2.879-1.604,3.86c-0.997,0.998-2.355,1.603-3.876,1.603
				c-1.505,0-2.879-0.604-3.86-1.603h-0.016c-0.981-0.998-1.604-2.355-1.604-3.86c0-1.521,0.622-2.896,1.604-3.877
				C223.535,78.894,224.909,78.289,226.414,78.289L226.414,78.289z M229.015,81.151c-0.654-0.654-1.587-1.063-2.601-1.063
				c-1.014,0-1.93,0.409-2.601,1.08c-0.654,0.654-1.079,1.57-1.079,2.601c0,1.014,0.409,1.93,1.079,2.601l0,0
				c0.671,0.654,1.587,1.063,2.601,1.063c1.014,0,1.947-0.409,2.601-1.063c0.67-0.671,1.079-1.587,1.079-2.601
				C230.094,82.738,229.686,81.822,229.015,81.151z"/>
			<path style="fill-rule:evenodd;clip-rule:evenodd;fill:#9FB2D9;" d="M436.669,114.095c1.505,0,2.879,0.605,3.86,1.603h0.017
				c0.981,0.982,1.603,2.356,1.603,3.86c0,1.521-0.622,2.896-1.603,3.877c-0.998,0.997-2.372,1.603-3.877,1.603
				c-1.505,0-2.879-0.605-3.876-1.603l0,0c-0.982-0.998-1.604-2.355-1.604-3.877c0-1.505,0.622-2.879,1.604-3.86
				C433.79,114.7,435.164,114.095,436.669,114.095L436.669,114.095z M439.27,116.958c-0.671-0.654-1.587-1.063-2.602-1.063
				c-1.014,0-1.93,0.409-2.6,1.063c-0.671,0.67-1.079,1.586-1.079,2.601c0,1.03,0.408,1.946,1.079,2.601v0.017
				c0.671,0.654,1.587,1.064,2.6,1.064c1.015,0,1.931-0.409,2.602-1.08c0.67-0.654,1.079-1.57,1.079-2.601
				C440.35,118.544,439.94,117.628,439.27,116.958z"/>
			<path style="fill-rule:evenodd;clip-rule:evenodd;fill:#9FB2D9;" d="M690.338,87.433c1.521,0,2.879,0.605,3.877,1.603l0,0
				c0.998,0.981,1.604,2.355,1.604,3.86c0,1.521-0.605,2.896-1.604,3.877c-0.998,0.998-2.355,1.604-3.877,1.604
				c-1.504,0-2.879-0.605-3.859-1.604h-0.017c-0.981-0.998-1.604-2.355-1.604-3.877c0-1.505,0.622-2.879,1.62-3.86
				C687.459,88.038,688.834,87.433,690.338,87.433L690.338,87.433z M692.94,90.295c-0.654-0.654-1.587-1.063-2.602-1.063
				c-1.014,0-1.93,0.409-2.601,1.063c-0.654,0.671-1.079,1.587-1.079,2.601c0,1.031,0.425,1.947,1.079,2.602v0.016
				c0.671,0.654,1.587,1.063,2.601,1.063c1.015,0,1.947-0.409,2.602-1.079c0.67-0.654,1.079-1.587,1.079-2.602
				C694.019,91.882,693.609,90.966,692.94,90.295z"/>
		</g>
		<g>
			<g>
				<path style="fill-rule:evenodd;clip-rule:evenodd;fill:#FFFFFF;" d="M533.342,449.288L533.342,449.288
					c1.456,0,2.896-0.05,4.335-0.131h73.115v-77.32v-7.966c0-27.317-14.345-51.444-35.871-65.25l0,0l-0.05-0.032
					c-0.785-0.508-1.586-0.998-2.404-1.473c-25.581-16.112-25.581-31.242-0.017-47.355c0.818-0.475,1.62-0.981,2.421-1.488
					l0.05-0.033l0,0c21.526-13.789,35.871-37.915,35.871-65.248v-7.966V97.705h-73.115c-1.44-0.082-2.879-0.131-4.335-0.131l0,0
					c-1.456,0-2.912,0.049-4.335,0.131H455.89v77.321v7.966c0,27.333,14.345,51.459,35.871,65.248h-0.016l0.065,0.033
					c0.785,0.507,1.603,0.997,2.421,1.488c25.567,16.112,25.567,31.242-0.017,47.355c-0.818,0.475-1.619,0.965-2.404,1.473
					l-0.065,0.032h0.016c-21.526,13.806-35.871,37.933-35.871,65.25v7.966v77.32h73.117
					C530.43,449.238,531.886,449.288,533.342,449.288z"/>
				<path style="fill-rule:evenodd;clip-rule:evenodd;fill:#98295F;" d="M501.706,417.671h21.265
					c13.691,0,14.248-12.383,23.816-12.383c9.569,0,31.323,0,42.953,0c11.63,0,13.839,10.878,13.839,10.878v14.916H537.48
					l-0.196,0.017c-1.325,0.065-2.634,0.114-3.942,0.114s-2.634-0.049-3.942-0.114l-0.196-0.017h-27.497V417.671z"/>
				<path style="fill-rule:evenodd;clip-rule:evenodd;fill:#98295F;" d="M473.474,201.623
					c-6.674-10.846-10.371-23.473-10.371-36.624c0-62.566,42.366,4.335,85.468,7.737c8.571,0.671,15.899-0.262,22.164-2.191
					c1.618,4.498,2.697,7.818,2.697,8.751c0,3.746-36.753,31.503-43.133,33.008c-6.379,1.505-39.012,3.369-52.507-7.132
					C476.401,204.093,474.945,202.898,473.474,201.623z"/>
				<path style="fill-rule:evenodd;clip-rule:evenodd;fill:#E94D90;" d="M533.358,360.959L533.358,360.959
					c6.984,0,12.692,5.726,12.692,12.693v0.688c0,6.984-5.708,12.693-12.692,12.693l0,0c-6.985,0-12.693-5.709-12.693-12.693v-0.688
					C520.665,366.685,526.373,360.959,533.358,360.959z"/>
				<path style="fill-rule:evenodd;clip-rule:evenodd;fill:#E94D90;" d="M533.358,350.082L533.358,350.082
					c6.984,0,12.692-5.709,12.692-12.678v-9.503c0-6.985-5.708-12.693-12.692-12.693l0,0c-6.985,0-12.693,5.708-12.693,12.693v9.503
					C520.665,344.373,526.373,350.082,533.358,350.082z"/>
				<path style="fill-rule:evenodd;clip-rule:evenodd;fill:#E94D90;" d="M546.067,274.887c-0.752-10.616,6.756-21.265,22.541-31.226
					l0.098-0.049l0.099-0.049c0.736-0.442,1.472-0.884,2.191-1.358l0.065-0.032l0.05-0.033
					c20.117-12.939,32.468-35.135,32.468-59.146c0-62.566-42.364,4.352-85.466,7.753c-42.759,3.369-55.011-33.385-55.011-33.385
					v25.632c0,24.045,12.366,46.257,32.486,59.163l0.049,0.017c0.736,0.475,1.488,0.933,2.241,1.391l0.098,0.049l0.082,0.049
					c15.802,9.962,23.31,20.61,22.557,31.226h0.05v21.444c0,6.969,5.708,12.693,12.693,12.693l0,0
					c6.984,0,12.692-5.725,12.692-12.693v-21.444H546.067z"/>
				<path style="fill-rule:evenodd;clip-rule:evenodd;fill:#E94D90;" d="M603.579,441.96v-25.794c0,7.132-5.3,12.381-13.168,12.381
					c-7.885,0-33.008,0-46.699,0c-13.69,0-14.247-12.381-23.816-12.381c-9.568,0-31.324,0-42.954,0
					c-11.63,0-13.839,10.876-13.839,10.876v14.918h66.101l0.196,0.016c1.309,0.065,2.634,0.115,3.942,0.115s2.617-0.05,3.942-0.115
					l0.196-0.016H603.579z"/>
				<path style="fill-rule:evenodd;clip-rule:evenodd;fill:#1E2343;" d="M458.146,89.085h150.389c5.332,0,9.7,4.367,9.7,9.716l0,0
					c0,5.333-4.368,9.7-9.7,9.7H458.146c-5.332,0-9.7-4.367-9.7-9.7l0,0C448.446,93.452,452.814,89.085,458.146,89.085z"/>
				<path style="fill-rule:evenodd;clip-rule:evenodd;fill:#1E2343;" d="M458.146,457.777h150.389c5.332,0,9.7-4.367,9.7-9.7l0,0
					c0-5.332-4.368-9.7-9.7-9.7H458.146c-5.332,0-9.7,4.368-9.7,9.7l0,0C448.446,453.41,452.814,457.777,458.146,457.777z"/>
				<path style="fill-rule:evenodd;clip-rule:evenodd;fill:#00000F;" d="M565.059,89.085h43.477c5.332,0,9.7,4.367,9.7,9.716l0,0
					c0,5.333-4.368,9.7-9.7,9.7h-43.477c-5.332,0-9.7-4.367-9.7-9.7l0,0C555.358,93.452,559.727,89.085,565.059,89.085z"/>
				<path style="fill-rule:evenodd;clip-rule:evenodd;fill:#00000F;" d="M565.059,457.777h43.477c5.332,0,9.7-4.367,9.7-9.7l0,0
					c0-5.332-4.368-9.7-9.7-9.7h-43.477c-5.332,0-9.7,4.368-9.7,9.7l0,0C555.358,453.41,559.727,457.777,565.059,457.777z"/>
			</g>
			<g>
				<path style="fill-rule:evenodd;clip-rule:evenodd;fill:#AEAFBC;" d="M481.211,416.166l-16.619-87.84
					c-5.546,10.648-8.702,22.753-8.702,35.545v7.966v66.802c0.735-0.18,1.488-0.262,2.257-0.262h4.956v-11.335
					c0,0,2.209-10.876,13.839-10.876H481.211z"/>
				<path style="fill-rule:evenodd;clip-rule:evenodd;fill:#A0A1AC;" d="M486.036,416.166l-17.797-94.104
					c-7.803,12.071-12.35,26.434-12.35,41.81v7.966v66.802c0.735-0.18,1.488-0.262,2.257-0.262h4.956v-11.335
					c0,0,2.209-10.876,13.839-10.876H486.036z"/>
				<path style="fill-rule:evenodd;clip-rule:evenodd;fill:#AEAFBC;" d="M455.89,436.071h7.213v-9.029
					c0,0,2.209-10.876,13.839-10.876h2.666l-16.178-85.517c-4.825,10.076-7.54,21.346-7.54,33.222v7.966V436.071z"/>
				<path style="fill-rule:evenodd;clip-rule:evenodd;fill:#999AA0;" d="M459.161,341.674l14.165,74.885
					c-8.489,1.946-10.224,10.483-10.224,10.483v1.864h-7.213v-57.069v-7.966C455.89,356.167,457.034,348.708,459.161,341.674z"/>
			</g>
			<path style="fill-rule:evenodd;clip-rule:evenodd;fill:#98295F;" d="M585.504,171.869c0.213,0,1.178,0.033,1.832,0.115
				c0.18-0.066,0.344-0.115,0.523-0.115c2.012,0,3.631,4.188,3.631,9.341c0,5.152-1.619,9.322-3.631,9.322c-0.065,0-0.131,0-0.196,0
				c-0.622,0.164-1.783,0-2.159,0c-2.012,0-3.632-4.17-3.632-9.322C581.872,176.057,583.492,171.869,585.504,171.869z"/>
			<path style="fill-rule:evenodd;clip-rule:evenodd;fill:#1C60AB;" d="M586.534,167.78c0.393,0,2.765,0.049,3.124,0.229
				c2.045,0.998,1.555,4.727,1.555,9.111c0,3.926,0.245,7.77-1.473,9.144c-0.54,0.426-2.584,0.181-3.206,0.181
				c-2.568,0-4.662-4.172-4.662-9.324C581.872,171.968,583.966,167.78,586.534,167.78z"/>
			<path style="fill-rule:evenodd;clip-rule:evenodd;fill:#1874BA;" d="M589.593,186.444c2.568,0,4.662-4.188,4.662-9.324
				c0-5.152-2.094-9.34-4.662-9.34c-2.584,0-4.678,4.188-4.678,9.34C584.915,182.257,587.009,186.444,589.593,186.444z"/>
		</g>
		<g>
			<g>
				<path style="fill-rule:evenodd;clip-rule:evenodd;fill:#F08E70;" d="M597.313,183.843c-1.423-0.327-3.435,1.587-3.156,3.729
					c0.343,2.438,3.778,4.236,4.367,3.107C598.721,190.305,598.655,184.17,597.313,183.843z"/>
				<path style="fill-rule:evenodd;clip-rule:evenodd;fill:#F5AC83;" d="M592.144,175.256c3.518,4.138,8.915,8.179,8.915,8.179
					l6.216,12.528l-6.33,2.895l-0.622-4.139c0,0-3.582-1.26-4.515-1.767c-0.604-0.344-2.143-1.946-2.78-3.041
					c-1.178-2.013,0.523-2.602,1.014-2.209c0.818,0.671,2.847,1.718,2.847,1.718s1.341-1.554,0.965-3.255
					C597.494,184.448,588.89,176.744,592.144,175.256z"/>
			</g>
			<path style="fill-rule:evenodd;clip-rule:evenodd;fill:#545664;" d="M574.267,249.074l20.708,17.094
				c0.736,0.605,0.834,1.685,0.245,2.421l0,0c-0.604,0.72-1.684,0.834-2.421,0.229l-20.708-17.094
				c-0.734-0.605-0.833-1.685-0.229-2.421l0,0C572.467,248.584,573.547,248.485,574.267,249.074z"/>
			<path style="fill-rule:evenodd;clip-rule:evenodd;fill:#F5AC83;" d="M600.504,268.523c-1.489-0.654-3.174-3.631-4.139-5.087
				c0,0-4.498-1.146-4.171,0c0.327,1.129,2.47,2.666,2.47,2.666s-1.309,1.996-4.548,0.36c-3.222-1.652-5.446-2.274-5.315-1.031
				c0.114,1.243,1.799,2.127,1.799,2.127s0.441,2.061,1.554,3.075c1.112,1.014,1.228,1.129,1.228,1.129s0.163,1.259,2.862,2.567
				c2.699,1.309,9.88,1.473,10.355,0.508C603.088,273.856,600.504,268.523,600.504,268.523z"/>
			<path style="fill-rule:evenodd;clip-rule:evenodd;fill:#F18A00;" d="M663.676,230.967c-10.714-2.045-24.503-0.049-34.187-5.561
				c-6.724-3.844-20.807-27.25-22.541-33.189c-0.147-0.507-8.473,3.976-7.59,5.905c3.484,7.704,11.925,29.639,23.669,39.159
				c15.049,12.17,39.373,11.385,39.699,11.516c1.816,0.703-6.477-8.85-5.577-10.158C658.065,237.33,666.342,232.75,663.676,230.967z
				"/>
			<path style="fill-rule:evenodd;clip-rule:evenodd;fill:#EE9073;" d="M653.027,440.209l-6.821,1.424c0,0,0.475,3.173-0.556,4.727
				c-1.047,1.555,5.594,4.106,5.594,4.106l3.141-3.959l0.18-3.141L653.027,440.209z"/>
			<path style="fill-rule:evenodd;clip-rule:evenodd;fill:#080321;" d="M640.269,302.874l-5.169,9.39c0,0,5.087,56.776,6.232,63.319
				c1.128,6.412,6.166,47.109,4.351,66.05c-0.131,1.406-0.359,1.93,0.638,2.24l7.9,0.23c1.178,0,0.818-0.753,0.802-2.421
				c-0.032-8.375,3.075-41.138,3.305-45.914c0.245-5.169-0.981-10.108-1.161-11.63c-0.197-1.537,8.047-69.191,7.147-79.595
				C663.414,294.155,640.269,302.874,640.269,302.874z"/>
			<path style="fill-rule:evenodd;clip-rule:evenodd;fill:#FCC100;" d="M650.917,444.004l0.965,0.033
				c0.557-9.536,1.309-23.029,1.62-31.307c0.359-9.766-0.148-20.185-0.458-26.434c-0.131-2.584-0.213-4.449-0.196-5.234
				c0.065-2.715,2.191-67.899,2.191-68.096c0.017-0.262-0.196-0.475-0.458-0.491c-0.262-0.016-0.491,0.196-0.491,0.475
				c-0.016,0.18-2.126,65.299-2.208,68.08c-0.016,0.834,0.065,2.715,0.196,5.315c0.312,6.232,0.818,16.636,0.458,26.353
				C652.226,420.942,651.474,434.468,650.917,444.004z"/>
			<path style="fill-rule:evenodd;clip-rule:evenodd;fill:#EE9073;" d="M649.739,209.965l-2.225,6.134c0,0,8.702,2.421,1.881,10.338
				c-6.82,7.916,10.861,1.586,10.861,1.586s0.312-9.144,0.245-9.896C660.421,217.374,661.468,209.933,649.739,209.965z"/>
			<path style="fill-rule:evenodd;clip-rule:evenodd;fill:#F5AC83;" d="M647.122,215.935c-8.751-3.369-0.899-18.156,1.963-22.933
				c3.647-6.034,10.73-7.212,10.73-7.212c3.827,1.717,8.719,3.991,9.226,6.558C670.84,201.558,663.773,222.363,647.122,215.935z"/>
			<path style="fill-rule:evenodd;clip-rule:evenodd;fill:#FCC100;" d="M635.836,237.297c-2.617,9.242,4.776,24.373,3.238,36.69
				c-3.01,24.078-13.854,50.97-13.707,52.883c0.196,2.634,31.994,6.004,47.387,0.867c0,0,1.75-0.621,1.031-2.257
				c-0.573-1.309-9.717-25.6-10.813-48.991c-0.572-12.022,8.097-31.095,9.732-42.922c0.703-5.103-0.278-6.788-1.701-8.832
				c-1.767-2.552-6.887,0.866-12.072,1.75c-2.191,0.359-7.278,1.799-9.013,1.391c-1.455-0.344,0.246-2.552,0-2.29
				C644.178,231.621,636.621,234.533,635.836,237.297z"/>
			<path style="fill-rule:evenodd;clip-rule:evenodd;fill:#101537;" d="M660.176,191.972c-1.979,1.946-5.693,2.944-10.73,0.491
				c-0.131,0.163-0.246,0.359-0.36,0.539c-0.998,1.669-1.898,3.256-2.666,4.695c0,0-5.872-7.508-4.793-14.296
				c1.064-6.788,16.194-7.966,19.188-7.442c2.993,0.507,3.01,3.991,3.01,3.991s6.56-1.391,11.679,2.126
				c5.103,3.518,6.036,14.083,4.94,19.317c-0.802,3.746-7.95,8.081-7.573,14.524c0.146,2.536,4.94,2.568,6.543,6.429
				c4.138,9.994-37.05,9.323-21.952-7.524c0,0,3.942-7.099,2.993-11.024C659.505,199.889,657.133,198.236,660.176,191.972z"/>
			<path style="fill-rule:evenodd;clip-rule:evenodd;fill:#F18A00;" d="M628.753,456.108h25.206c0,0,1.489-0.081,1.489-1.767
				c0-1.668,0-4.76,0-5.839c0-1.08-1.358-1.996-1.358-1.996s-3.663,2.045-9.929-0.032c0,0-0.916-0.36-2.764,0.114
				c-1.832,0.49-14.673,5.431-14.673,5.431s-1.473,0.752-1.473,2.094C625.252,455.439,625.891,456.043,628.753,456.108z"/>
			<path style="fill-rule:evenodd;clip-rule:evenodd;fill:#FFFFFF;" d="M625.775,455.7h29.428c0.311,0,0.539,0.245,0.539,0.539
				v0.998c0,0.295-0.229,0.54-0.539,0.54h-29.428c-0.294,0-0.539-0.245-0.539-0.54v-0.998
				C625.236,455.945,625.481,455.7,625.775,455.7z"/>
			<path style="fill-rule:evenodd;clip-rule:evenodd;fill:#F08E70;" d="M602.499,191.743c-0.965,0.785-2.438,1.439-4.04,1.636
				c-0.523,0.065-1.08,0.081-1.619,0.032c0.507,0.213,1.079,0.426,1.619,0.638c0.998,0.36,1.864,0.671,1.864,0.671l0.196,1.243
				c0.557-0.523,1.26-1.047,1.98-1.521c1.096-0.735,2.258-1.39,3.124-1.799l-1.848-3.712c-0.017,0.523-0.099,1.03-0.246,1.454
				C603.383,190.843,603.022,191.317,602.499,191.743z"/>
			<path style="fill-rule:evenodd;clip-rule:evenodd;fill:#F18A00;" d="M653.175,233.109c-12.563,13.446-22.917,31.57-22.917,31.57
				l-29.623,3.73l-1.914,7.721c0,0,35.283,5.79,44.165-4.008c6.052-6.674,15.965-19.694,21.657-27.316
				C672.018,234.795,661.369,224.31,653.175,233.109z"/>
		</g>
		<g>
			<path style="fill-rule:evenodd;clip-rule:evenodd;fill:#FFFFFF;" d="M347.556,217.129l2.994,2.438c0,0,6.461,17.403,6.755,18.254
				c0.278,0.851-0.147,6.543-1.701,8.523c-1.57,1.996-5.692,1.57-6.118-0.278c-0.425-1.848-9.536-22.605-9.536-22.605
				L347.556,217.129z"/>
			<path style="fill-rule:evenodd;clip-rule:evenodd;fill:#030822;" d="M290.78,232.799c0,0-4.204,0.703-7.116-1.57
				c-2.912-2.273-11.385-11.303-28.724-4.057c-2.061,0.867-3.991,1.684-5.807,2.47c14.738-6.149,22.982,3.321,27.595,6.184
				c4.695,2.928,6.396,1.439,6.396,1.439l4.907,1.914c0,0,0.834-0.115,2.175-0.36L290.78,232.799z"/>
			<path style="fill-rule:evenodd;clip-rule:evenodd;fill:#98295F;" d="M334.568,208.428l2.536-1.767c0,0,5.202,0.621,9.978,7.377
				c0,0,3.222,4.775,3.549,5.119c0.311,0.327,1.767,7.033,1.767,7.033s-6.183-0.621-11.303-0.801
				C335.992,225.209,334.568,208.428,334.568,208.428z"/>
			<path style="fill-rule:evenodd;clip-rule:evenodd;fill:#EE9073;" d="M221.605,185.74l0.278-1.423c0,0,0-7.115,0-7.9
				c0-0.245,0.18-0.72,0.425-1.276c0.523-1.227,1.391-2.829,1.489-3.271c0.147-0.638-0.769-3.337-1.128-4.057
				c-0.36-0.703-13.577-9.16-14.362-9.372c-0.785-0.213-1.063,1.636-0.36,2.977c0.72,1.357,6.052,9.455,6.478,10.175
				c0.425,0.703,1.21,2.911,1.21,4.973c0,2.061,0,9.241,0,9.241L221.605,185.74z"/>
			<path style="fill-rule:evenodd;clip-rule:evenodd;fill:#98295F;" d="M223.454,174.814c0,0-1.145,0.998-3.174-0.163
				c-2.028-1.178-1.063-3.959-3.189-4.629c-2.143-0.671-3.68,0-3.68,0s-0.818,0.311-1.57-0.393c-0.736-0.688-4.793-8.212-4.94-8.85
				c-0.148-0.638-0.164-2.65,0.949-3.075c1.096-0.426,17.617,11.155,17.617,11.155S225.907,171.854,223.454,174.814z"/>
			<path style="fill-rule:evenodd;clip-rule:evenodd;fill:#E94D90;" d="M225.433,169.269c0.311-0.458,0.18-1.079-0.278-1.391
				l-14.624-10.108c-3.681-2.421-3.354,0.621-2.438,1.227c1.767,1.112,8.637,8.571,15.36,10.976
				C224.517,170.349,225.22,169.596,225.433,169.269z"/>
			<path style="fill-rule:evenodd;clip-rule:evenodd;fill:#EE9073;" d="M238.42,190.941l0.523-1.259c0,0,1.309-6.608,1.439-7.345
				c0.049-0.229,0.294-0.638,0.638-1.112c0.72-1.047,1.815-2.371,1.979-2.764c0.262-0.573-0.114-3.256-0.311-3.991
				c-0.196-0.72-10.959-11.009-11.645-11.336c-0.688-0.344-1.292,1.325-0.884,2.699c0.426,1.39,3.91,9.912,4.171,10.648
				c0.262,0.736,0.589,2.928,0.212,4.842c-0.376,1.93-1.685,8.604-1.685,8.604L238.42,190.941z"/>
			<path style="fill-rule:evenodd;clip-rule:evenodd;fill:#98295F;" d="M242.133,181.128c0,0-1.243,0.72-2.911-0.736
				c-1.669-1.456-0.262-3.86-2.127-4.874c-1.864-1.031-3.418-0.688-3.418-0.688s-0.818,0.147-1.39-0.638
				c-0.573-0.785-2.961-8.522-2.977-9.144c-0.016-0.622,0.327-2.486,1.439-2.683c1.096-0.196,14.361,13.593,14.361,13.593
				S244.962,178.821,242.133,181.128z"/>
			<path style="fill-rule:evenodd;clip-rule:evenodd;fill:#E94D90;" d="M244.275,176.466c0.377,0.376,0.965,0.376,1.341,0
				c0.376-0.376,0.36-0.981-0.016-1.357l-13.756-13.544c-0.376-0.376-0.965-0.376-1.341,0c-0.376,0.376-0.36,0.981,0.017,1.357
				L244.275,176.466z"/>
			<path style="fill-rule:evenodd;clip-rule:evenodd;fill:#030822;" d="M231.419,240.045c1.26-10.125,9.111-45.931,9.798-50.46
				c0,0,0.523-1.57-1.03-1.898s-6.968-1.489-6.968-1.489s-1.767,0.033-2.339,1.701c-0.572,1.652-11.908,37.556-16.128,52.015
				L231.419,240.045z"/>
			<path style="fill-rule:evenodd;clip-rule:evenodd;fill:#101537;" d="M249.199,227.434c-13.56,5.84-20.79,9.569-23.047,10.19
				c-2.552,0.72-2.126-44.065-2.568-51.327c0,0,0.212-1.98-1.701-1.98c-1.914,0-6.854,0-6.854,0s-2.028,0-2.355,2.585
				c-0.311,2.601-4.792,63.808-4.792,63.808s-0.785,4.727,6.33,4.727c7.099,0,74.278,0,74.278,0l1.783-18.827
				c-1.341,0.245-2.175,0.359-2.175,0.359l-4.891-1.913c0,0-1.717,1.488-6.412-1.424C272.181,230.77,263.937,221.3,249.199,227.434z
				"/>
			<path style="fill-rule:evenodd;clip-rule:evenodd;fill:#E94D90;" d="M340.212,205.189c0,0,1.881,2.192,2.814,6.314
				c0.916,4.121-0.998,17.354-0.998,19.12c0,1.783-3.418,6.266-4.4,7.476c-0.998,1.194-18.844,13.364-22.54,15.065
				c-3.697,1.701-5.398,2.273-7.672,2.273c-2.29,0-22.017,0-22.017,0s-3.01-0.327-3.01-2.486c0-2.176,0-13.544,0-16.324
				c0-2.765,4.826-2.192,12.645-9.455c7.819-7.246,12.382-24.584,29.018-24.584C324.051,202.588,336.662,201.263,340.212,205.189z"
				/>
			<path style="fill-rule:evenodd;clip-rule:evenodd;fill:#98295F;" d="M336.629,238.933c-3.975,3.06-18.288,12.727-21.543,14.231
				c-3.697,1.701-5.398,2.273-7.672,2.273c-2.29,0-22.017,0-22.017,0s-3.01-0.327-3.01-2.486v-9.667
				c5.267-0.114,16.423-20.758,16.423-20.758l-2.077,29.116l2.862-18.107l2.208-15.163l0,0l9.078,6.068c0,0,2.127-5.659,2.896-1.619
				c0.753,4.04,3.582,16.111,8.98,16.111H336.629z"/>
			<path style="fill-rule:evenodd;clip-rule:evenodd;fill:#E94D90;" d="M307.072,219.533l-7.181-0.752
				c0,0-10.55,23.587-11.319,25.436c-0.785,1.848-1.996,11.221,5.104,11.221c7.116,0,49.563,0,49.563,0s-1.292-5.741-6.69-5.741
				c-5.398,0-24.961-3.812-27.301-3.812c-2.339,0-3.337,0.278-3.844-1.488c-0.491-1.783,10.19-22.852,10.19-22.852L307.072,219.533z
				"/>
			<path style="fill-rule:evenodd;clip-rule:evenodd;fill:#E94D90;" d="M319.045,203.16c0,0-6.952,0.426-14.411,8.882
				c-2.159,2.829-4.629,5.315-8.277,15.212c0,0,7.034-0.933,10.861,7.459c-0.049-11.613,8.833-8.195,14.689-16.014
				C323.184,216.998,328.598,207.102,319.045,203.16z"/>
			<path style="fill-rule:evenodd;clip-rule:evenodd;fill:#101537;" d="M338.331,255.438h-21.559c-1.112,0-2.012-0.916-2.012-2.028
				l0,0c0-1.112,0.899-2.012,2.012-2.012h21.559c1.112,0,2.028,0.899,2.028,2.012l0,0
				C340.359,254.521,339.443,255.438,338.331,255.438z"/>
			<path style="fill-rule:evenodd;clip-rule:evenodd;fill:#101537;" d="M381.514,255.438h-47.273c-1.341,0-2.159-1.112-1.815-2.453
				l7.966-30.621c0.36-1.357,1.75-2.454,3.092-2.454h47.272c1.357,0,2.176,1.097,1.815,2.454l-7.966,30.621
				C384.262,254.325,382.871,255.438,381.514,255.438z"/>
			<path style="fill-rule:evenodd;clip-rule:evenodd;fill:#00000F;" d="M382.79,255.438h-45.882c-1.358,0-2.176-1.112-1.816-2.453
				l7.966-30.621c0.343-1.357,1.734-2.454,3.091-2.454h45.882c1.342,0,2.159,1.097,1.816,2.454l-7.967,30.621
				C385.521,254.325,384.131,255.438,382.79,255.438z"/>
			<path style="fill-rule:evenodd;clip-rule:evenodd;fill:#98295F;" d="M319.094,197.141c-5.807,2.568-8.097,4.09-6.772,5.513
				c1.341,1.439,14.673,10.665,20.954,12.382c6.281,1.718,11.516-12.088,11.516-12.088S338.805,193.902,319.094,197.141z"/>
			<path style="fill-rule:evenodd;clip-rule:evenodd;fill:#E9695B;" d="M326.243,199.954c0,2.208,0,4.645,0,6.184
				c0,3.451,2.372,5.855,5.578,5.855c0.164,0,0.311-0.017,0.458-0.032c0.164,0.016,0.311,0.032,0.475,0.032
				c3.206,0,5.578-2.404,5.578-5.855c0-1.538,0-3.976,0-6.184c-1.063-1.112-3.566-2.634-6.052-3.32
				C329.809,197.32,327.306,198.842,326.243,199.954z"/>
			<path style="fill-rule:evenodd;clip-rule:evenodd;fill:#00000F;" d="M323.511,177.939l-8.195,8.342c0,0,1.881,5.691,0.18,9.944
				s4.727,8.031,8.931,9.177C328.614,206.563,323.511,177.939,323.511,177.939z"/>
			<path style="fill-rule:evenodd;clip-rule:evenodd;fill:#00000F;" d="M343.287,177.644l8.195,8.343c0,0-1.865,5.691-0.164,9.944
				c1.701,4.253-4.744,8.015-8.931,9.176C338.184,206.269,343.287,177.644,343.287,177.644z"/>
			<path style="fill-rule:evenodd;clip-rule:evenodd;fill:#E9695B;" d="M320.566,191.089c-0.098,0.016-0.196,0.032-0.278,0.049l0,0
				l0,0c-1.669,0.344-2.928,1.799-2.961,3.565c-0.033,2.045,1.603,3.746,3.648,3.779c2.061,0.049,3.746-1.587,3.795-3.632
				c0.016-1.194-0.523-2.273-1.391-2.977c0.098,1.112-0.065,2.47-1.472,2.601l0.033-2.143
				C321.957,191.465,321.155,191.056,320.566,191.089z"/>
			<path style="fill-rule:evenodd;clip-rule:evenodd;fill:#E9695B;" d="M346.248,191.089c0.098,0.016,0.18,0.032,0.278,0.049l0,0
				l0,0c1.652,0.344,2.912,1.799,2.944,3.565c0.049,2.045-1.587,3.746-3.648,3.779c-2.044,0.049-3.746-1.587-3.778-3.632
				c-0.033-1.194,0.523-2.273,1.374-2.977c-0.098,1.112,0.081,2.47,1.488,2.601l-0.049-2.143
				C344.841,191.465,345.659,191.056,346.248,191.089z"/>
			<path style="fill-rule:evenodd;clip-rule:evenodd;fill:#F5AC83;" d="M333.979,172.523L333.979,172.523
				c-7.001,0-12.726,5.726-12.726,12.727v11.564c0,7.001,5.725,12.726,12.726,12.726l0,0c7.001,0,12.726-5.725,12.726-12.726V185.25
				C346.706,178.249,340.98,172.523,333.979,172.523z"/>
			<path style="fill-rule:evenodd;clip-rule:evenodd;fill:#EE9073;" d="M322.497,179.77c-0.801,1.668-1.243,3.517-1.243,5.48v11.564
				c0,7.001,5.725,12.726,12.726,12.726l0,0c0.72,0,1.407-0.05,2.094-0.164c-6.118,0.491-11.352-8.85-11.352-13.985
				c0-5.136,4.057-7.589,5.382-7.589c1.325,0,5.087,0,5.087,0l2.994-1.357c0,0-1.718-5.251-2.585-7.034
				c-0.867-1.799-4.891-0.441-8.195-0.802C325.719,178.429,324.132,179.034,322.497,179.77z"/>
			<path style="fill-rule:evenodd;clip-rule:evenodd;fill:#080927;" d="M346.133,191.481c0,0,0,0.851,0,1.636
				c0,0.785-0.033,1.455,0.572,1.455v-1.782c0,0,0.246-1.325,1.881-1.325c5.005-5.757,4.351-14.9-0.998-19.645
				c-5.349-4.743-16.832-5.038-18.827-4.367c-2.012,0.671-4.073,4.073-4.073,4.073s-1.701-1.521-3.288-0.736
				c-1.587,0.785-6.87,10.747-6.87,13.249c0,2.486,4.825,7.426,4.825,7.426c1.636,0,1.897,1.325,1.897,1.325v1.782
				c0.605,0,1.325-0.883,1.325-1.668s0-1.636,0-1.636c5.038-2.24,6.625-8.931,6.625-8.931S337.938,192.675,346.133,191.481z"/>
			<path style="fill-rule:evenodd;clip-rule:evenodd;fill:#00000F;" d="M333.342,201.492c-0.033,1.75,1.341,3.189,3.091,3.222
				c1.734,0.033,3.173-1.341,3.223-3.075h-0.017c0.017-0.311-0.229-0.556-0.523-0.556l-5.202-0.114
				c-0.294-0.017-0.556,0.229-0.556,0.523H333.342z"/>
			<path style="fill-rule:evenodd;clip-rule:evenodd;fill:#D84743;" d="M334.47,203.979c0.523,0.441,1.211,0.72,1.963,0.735
				c0.605,0.017,1.178-0.146,1.668-0.441c-0.229-0.654-0.916-1.145-1.767-1.194C335.517,203.029,334.797,203.405,334.47,203.979z"/>
			<path style="fill-rule:evenodd;clip-rule:evenodd;fill:#FFFFFF;" d="M339.181,201.083l-4.891-0.099
				c-0.082,0.523,0.147,1.08,0.507,1.211c0.442,0.148,3.991,0.148,4.237-0.131C339.165,201.934,339.181,201.492,339.181,201.083z"/>
		</g>
	</g>
</g>
<g id="DESIGNED_BY_FREEPIK">
	<path style="fill:#1C262D;" d="M385.646,475.844c-0.941,0.966-1.562,2.167-1.791,3.473l-0.748-0.132
		c0.107-0.604,0.289-1.19,0.539-1.743l-0.451-0.234c-0.057,0.026-0.117,0.045-0.184,0.052c-0.33,0.039-0.631-0.197-0.67-0.528
		c-0.037-0.331,0.199-0.631,0.529-0.67c0.31-0.036,0.592,0.169,0.66,0.466l0.465,0.241c0.305-0.522,0.676-1.01,1.107-1.453
		L385.646,475.844z M387.596,474.444c0.936-0.447,1.941-0.674,2.996-0.674c0.496,0,0.992,0.053,1.475,0.158l0.16-0.741
		c-0.535-0.116-1.084-0.175-1.635-0.175c-0.172,0-0.342,0.006-0.51,0.017l-0.074-0.626c0.188-0.149,0.297-0.389,0.266-0.645
		c-0.045-0.393-0.402-0.674-0.795-0.628c-0.393,0.046-0.674,0.402-0.627,0.796c0.029,0.254,0.189,0.461,0.404,0.563l0.072,0.624
		c-0.713,0.116-1.402,0.332-2.059,0.646L387.596,474.444z M397.047,474.362c-0.309,0.038-0.535,0.304-0.529,0.608l-0.416,0.363
		c-0.418-0.43-0.891-0.813-1.408-1.14l-0.404,0.642c1.135,0.715,2.021,1.727,2.564,2.925l0.69-0.313
		c-0.25-0.554-0.566-1.071-0.941-1.545l0.402-0.351c0.061,0.012,0.125,0.016,0.189,0.007c0.332-0.04,0.566-0.341,0.525-0.672
		C397.68,474.557,397.379,474.321,397.047,474.362z M390.045,483.221c-0.387,0.023-0.775,0.035-1.158,0.035
		c-0.879,0-1.732-0.061-2.478-0.18c-0.391-0.062-0.846-0.154-1.27-0.292c1.047,1.861,3.068,3.125,5.389,3.125
		c2.855,0,5.262-1.916,5.949-4.503c-0.682,0.449-1.506,0.825-2.459,1.122C392.838,482.897,391.463,483.136,390.045,483.221z
		 M396.623,479.725c0.025,0.191,0.041,0.387,0.045,0.581c-1.375,1.201-3.791,1.985-6.672,2.159
		c-2.641,0.159-4.674-0.248-5.348-0.731c-0.09-0.412-0.137-0.836-0.137-1.261c0-3.277,2.729-5.943,6.08-5.943
		C393.65,474.529,396.244,476.763,396.623,479.725z M390.281,479.194c0-1.021-0.83-1.85-1.85-1.85c-1.02,0-1.85,0.83-1.85,1.85
		c0,1.02,0.83,1.85,1.85,1.85C389.451,481.044,390.281,480.214,390.281,479.194z M394.529,478.775c0-0.75-0.609-1.36-1.359-1.36
		s-1.361,0.61-1.361,1.36s0.611,1.36,1.361,1.36S394.529,479.525,394.529,478.775z M404.369,477.165
		c0-0.666,0.293-0.938,0.844-1.007c0.576-0.071,1.088,0.122,1.383,0.238v-1.729c-0.434-0.187-0.947-0.308-1.59-0.308
		c-1.674,0-2.568,1.102-2.568,2.782v0.889h-1.34v1.717h1.34v5.455h1.932v-5.455h2.229v-1.717h-2.229V477.165z M411.223,477.839
		c-0.881,0-1.568,0.304-2.02,0.977v-0.784h-1.873v7.172h1.932v-3.908c0-1.065,0.615-1.613,1.51-1.613
		c0.168,0,0.35,0.017,0.525,0.046l1.021-1.552C412.07,477.967,411.637,477.839,411.223,477.839z M418.965,481.606
		c0,0.222-0.016,0.488-0.037,0.651h-5.084c0.207,1.036,0.932,1.487,1.842,1.487c0.623,0,1.295-0.252,1.815-0.688l1.133,1.243
		c-0.814,0.748-1.852,1.089-3.057,1.089c-2.199,0-3.725-1.496-3.725-3.753c0-2.258,1.48-3.797,3.627-3.797
		C417.543,477.839,418.957,479.371,418.965,481.606z M417.025,480.94c-0.178-0.918-0.732-1.436-1.561-1.436
		c-0.91,0-1.443,0.548-1.613,1.436H417.025z M426.619,481.606c0,0.222-0.016,0.488-0.037,0.651h-5.086
		c0.207,1.036,0.934,1.487,1.844,1.487c0.621,0,1.295-0.252,1.813-0.688l1.133,1.243c-0.814,0.748-1.85,1.089-3.057,1.089
		c-2.199,0-3.723-1.496-3.723-3.753c0-2.258,1.48-3.797,3.627-3.797C425.197,477.839,426.611,479.371,426.619,481.606z
		 M424.68,480.94c-0.178-0.918-0.734-1.436-1.563-1.436c-0.91,0-1.443,0.548-1.613,1.436H424.68z M434.965,481.613
		c0,2.154-1.496,3.775-3.473,3.775c-0.961,0-1.643-0.378-2.109-0.933v3.708h-1.924v-10.133h1.887v0.792
		c0.467-0.585,1.154-0.984,2.139-0.984C433.469,477.839,434.965,479.46,434.965,481.613z M432.98,481.613
		c0-1.095-0.711-1.976-1.85-1.976c-1.096,0-1.844,0.844-1.844,1.976c0,1.133,0.748,1.977,1.844,1.977
		C432.27,483.59,432.98,482.709,432.98,481.613z M436.832,474.441c-0.697,0-1.229,0.548-1.229,1.243
		c0,0.696,0.531,1.229,1.229,1.229c0.695,0,1.236-0.533,1.236-1.229C438.068,474.989,437.527,474.441,436.832,474.441z
		 M435.877,485.203h1.932v-7.172h-1.932V485.203z M442.623,481.406l3.479-3.375h-2.367l-2.703,2.554v-6.04H439.1v10.658h1.932
		v-2.901l2.717,2.901h2.377L442.623,481.406z M309.412,475.368h1.099v9.771h-1.099v-1.055c-0.527,0.718-1.392,1.23-2.388,1.23
		c-1.846,0-3.149-1.406-3.149-3.706c0-2.256,1.289-3.721,3.149-3.721c0.952,0,1.816,0.469,2.388,1.245V475.368z M309.412,480.012
		c-0.396-0.615-1.245-1.143-2.124-1.143c-1.421,0-2.27,1.172-2.27,2.739s0.85,2.725,2.27,2.725c0.879,0,1.729-0.498,2.124-1.113
		V480.012z M318.815,481.682v0.278h-5.727c0.088,1.333,1.025,2.446,2.549,2.446c0.806,0,1.626-0.322,2.182-0.894l0.527,0.718
		c-0.703,0.703-1.654,1.084-2.812,1.084c-2.095,0-3.604-1.509-3.604-3.721c0-2.051,1.465-3.706,3.486-3.706
		C317.557,477.888,318.815,479.558,318.815,481.682z M317.732,481.154c-0.015-1.055-0.718-2.358-2.329-2.358
		c-1.509,0-2.256,1.274-2.314,2.358H317.732z M320.866,479.895c0-0.63,0.601-1.113,1.567-1.113c0.908,0,1.685,0.381,2.109,0.893
		l0.513-0.762c-0.571-0.571-1.421-1.025-2.622-1.025c-1.685,0-2.637,0.938-2.637,2.036c0,2.622,4.38,1.567,4.38,3.281
		c0,0.703-0.586,1.216-1.67,1.216c-0.967,0-1.86-0.469-2.329-1.011l-0.571,0.791c0.718,0.762,1.699,1.113,2.857,1.113
		c1.831,0,2.783-0.952,2.783-2.139C325.246,480.422,320.866,481.447,320.866,479.895z M327.209,475.573
		c-0.396,0-0.732,0.337-0.732,0.747c0,0.41,0.337,0.732,0.732,0.732c0.41,0,0.747-0.322,0.747-0.732
		C327.956,475.91,327.619,475.573,327.209,475.573z M326.667,485.139h1.099v-7.075h-1.099V485.139z M334.708,478.064h1.099v6.87
		c0,2.344-1.641,3.076-3.369,3.076c-1.201,0-2.022-0.235-2.855-1.055l0.556-0.82c0.586,0.703,1.289,0.967,2.3,0.967
		c1.172,0,2.271-0.571,2.271-2.124v-1.011c-0.513,0.718-1.377,1.26-2.373,1.26c-1.846,0-3.15-1.377-3.15-3.662
		c0-2.271,1.289-3.677,3.15-3.677c0.952,0,1.802,0.469,2.373,1.245V478.064z M334.708,480.012c-0.381-0.615-1.23-1.143-2.109-1.143
		c-1.421,0-2.27,1.128-2.27,2.695c0,1.553,0.849,2.695,2.27,2.695c0.879,0,1.728-0.542,2.109-1.157V480.012z M341.256,477.888
		c-1.055,0-2.021,0.615-2.52,1.201v-1.025h-1.099v7.075h1.099v-5.171c0.41-0.571,1.23-1.099,2.095-1.099
		c0.952,0,1.582,0.395,1.582,1.641v4.629h1.099v-4.966C343.512,478.635,342.735,477.888,341.256,477.888z M351.816,481.682v0.278
		h-5.727c0.088,1.333,1.025,2.446,2.548,2.446c0.806,0,1.626-0.322,2.183-0.894l0.527,0.718c-0.703,0.703-1.655,1.084-2.813,1.084
		c-2.094,0-3.604-1.509-3.604-3.721c0-2.051,1.465-3.706,3.486-3.706C350.557,477.888,351.816,479.558,351.816,481.682z
		 M350.732,481.154c-0.015-1.055-0.718-2.358-2.329-2.358c-1.509,0-2.256,1.274-2.314,2.358H350.732z M358.35,475.368h1.099v9.771
		h-1.099v-1.055c-0.527,0.718-1.392,1.23-2.388,1.23c-1.846,0-3.149-1.406-3.149-3.706c0-2.256,1.289-3.721,3.149-3.721
		c0.952,0,1.816,0.469,2.388,1.245V475.368z M358.35,480.012c-0.395-0.615-1.245-1.143-2.124-1.143c-1.421,0-2.27,1.172-2.27,2.739
		s0.85,2.725,2.27,2.725c0.879,0,1.729-0.498,2.124-1.113V480.012z M371.327,481.608c0,2.3-1.304,3.706-3.149,3.706
		c-0.996,0-1.86-0.513-2.388-1.23v1.055h-1.099v-9.771h1.099v3.765c0.571-0.776,1.421-1.245,2.388-1.245
		C370.023,477.888,371.327,479.353,371.327,481.608z M370.185,481.608c0-1.567-0.85-2.739-2.285-2.739
		c-0.864,0-1.728,0.527-2.109,1.143v3.208c0.381,0.615,1.245,1.113,2.109,1.113C369.335,484.333,370.185,483.176,370.185,481.608z
		 M375.238,483.864l-2.358-5.801h-1.186l2.959,7.148l-0.469,1.069c-0.249,0.586-0.571,0.747-1.055,0.747
		c-0.176,0-0.439-0.044-0.601-0.117l-0.176,0.995c0.205,0.059,0.571,0.103,0.806,0.103c0.938-0.015,1.655-0.411,2.08-1.436
		l3.545-8.511h-1.201L375.238,483.864z"/>
</g>
</svg>
