<?xml version="1.0" encoding="utf-8"?>
<!-- Generator: Adobe Illustrator 27.5.0, SVG Export Plug-In . SVG Version: 6.00 Build 0)  -->
<svg version="1.1" xmlns="http://www.w3.org/2000/svg" xmlns:xlink="http://www.w3.org/1999/xlink" x="0px" y="0px"
	 viewBox="0 0 750 500" style="enable-background:new 0 0 750 500;" xml:space="preserve">
<g id="BACKGROUND">
	<rect x="0.001" y="0.002" style="fill:#FFFFFF;" width="750" height="500"/>
</g>
<g id="OBJECTS">
	<g>
		<path style="fill:#B4DFD5;" d="M610.087,349.523H139.913c-53.541,0-96.945-43.404-96.945-96.945v0
			c0-53.541,43.404-96.945,96.945-96.945h470.175c53.541,0,96.945,43.404,96.945,96.945v0
			C707.032,306.12,663.629,349.523,610.087,349.523z"/>
		<g>
			<path style="fill:#FDD17A;" d="M403.96,106.541c15.987,6.822,29.404,19.434,37.718,34.669
				c10.098,18.503,3.407,42.793,15.428,59.238c9.896,13.536,28.887,14.499,43.638,18.826c16.632,4.879,32.063,13.484,45.159,25.003
				c10.96,9.64,19.911,22.026,23.455,36.186c4.306,17.204-0.022,36.346-11.312,50.024c-28.126,34.075-84.03,22.425-114.611-1.674
				c-17.486-13.78-32.365-26.332-55.793-27.941c-40.953-2.814-64.372,26.852-90.218,53.213
				c-39.705,40.497-119.92,53.231-156.144,1.474c-17.039-24.345-18.713-58.015-5.992-84.614
				c15.24-31.867,53.238-37.028,85.254-35.332c22.781,1.207,48.493,1.204,64.633-14.918c24.222-24.195,11.965-61.118,28.005-88.423
				c15.298-26.043,54.453-36.432,81.994-28.809C398.175,104.291,401.108,105.324,403.96,106.541z"/>
			<g>
				<path style="fill:none;stroke:#1B4E61;stroke-linecap:round;stroke-linejoin:round;stroke-dasharray:2.0054,5.0136;" d="
					M403.385,132.368c11.949,5.63,21.783,15.583,27.67,27.386c7.149,14.335,1.385,32.592,10.053,45.418
					c7.134,10.557,21.53,11.821,32.61,15.521c12.494,4.172,23.97,11.14,33.591,20.255c8.052,7.628,14.502,17.286,16.796,28.138
					c2.787,13.186-1.037,27.601-9.995,37.67c-22.315,25.087-64.441,14.671-86.988-4.489c-12.892-10.956-23.838-20.905-41.585-22.785
					c-31.021-3.286-49.638,18.584-70.005,37.877c-31.289,29.639-92.561,37.056-118.616-3.264
					c-12.256-18.966-12.581-44.582-2.175-64.424c12.468-23.772,41.468-26.624,65.734-24.437c17.266,1.556,36.792,2.276,49.501-9.514
					c19.074-17.693,10.802-46.077,23.749-66.362c12.349-19.347,42.375-26.138,63.075-19.575
					C399.056,130.498,401.254,131.364,403.385,132.368z"/>
			</g>
		</g>
		<g>
			<path style="fill:#42B093;" d="M596.177,163.407c0.894-6.715-6.494-12.061-13.268-12.075c-1.292-0.003-2.732,0.075-3.703-0.777
				c-0.996-0.875-1.08-2.362-1.207-3.681c-0.89-9.258-7.948-17.611-16.928-20.035c-8.98-2.423-19.282,1.245-24.709,8.798
				c-2.013,2.801-4.095,6.473-7.543,6.404c-2.234-0.045-4.028-1.735-5.891-2.968c-7.368-4.874-18.635-2.13-22.938,5.585
				c-1.253,2.247-2.232,5.048-4.657,5.906c-1.122,0.397-2.353,0.277-3.535,0.418c-8.192,0.975-9.463,11.385-1.542,13.068
				c8.777,1.864,21.648-0.494,30.815-0.275C546.103,164.374,571.152,164.252,596.177,163.407z"/>
			<path style="fill:#1B4E61;" d="M678.44,194.061c0.62-4.656-4.502-8.362-9.199-8.372c-0.896-0.002-1.895,0.052-2.567-0.539
				c-0.69-0.607-0.749-1.637-0.837-2.552c-0.617-6.419-5.51-12.21-11.737-13.891c-6.226-1.68-13.368,0.863-17.131,6.1
				c-1.395,1.942-2.839,4.488-5.23,4.44c-1.549-0.031-2.793-1.203-4.085-2.057c-5.108-3.379-12.92-1.477-15.903,3.872
				c-0.869,1.558-1.547,3.5-3.229,4.094c-0.778,0.275-1.631,0.192-2.451,0.29c-5.68,0.676-6.561,7.893-1.069,9.06
				c6.085,1.292,15.009-0.343,21.365-0.19C643.723,194.731,661.09,194.647,678.44,194.061z"/>
		</g>
		<g>
			<linearGradient id="SVGID_1_" gradientUnits="userSpaceOnUse" x1="211.1432" y1="257.3391" x2="553.7543" y2="257.3391">
				<stop  offset="0" style="stop-color:#FFFFFF;stop-opacity:0"/>
				<stop  offset="0.2929" style="stop-color:#F9D4D3;stop-opacity:0.293"/>
				<stop  offset="0.953" style="stop-color:#E96864;stop-opacity:0.9533"/>
				<stop  offset="0.9997" style="stop-color:#E8605C"/>
			</linearGradient>
			<polygon style="fill:url(#SVGID_1_);" points="514.985,337.637 211.143,337.637 211.143,177.041 582.127,177.041 			"/>
			<g>
				<path style="fill:#E27E5A;" d="M589.233,361.237c0.789-0.014,1.644-0.051,2.251-0.556c0.63-0.524,0.811-1.402,0.953-2.209
					c0.382-2.173,0.997-4.45,1.045-6.63c-3.024-1.427-8.751-1.95-10.798,1.45c-0.93,1.545-0.418,5.712-0.321,7.455
					C582.472,362.702,585.832,361.297,589.233,361.237z"/>
				<path style="fill:#E27E5A;" d="M480.492,357.289c-0.335,0.179-0.717,0.411-0.754,0.788c-0.016,0.168,0.042,0.332,0.101,0.49
					c0.822,2.187,1.994,4.242,3.457,6.063c0.64,0.796,1.452,1.604,2.472,1.637c1.016,0.032,1.869-0.712,2.607-1.41
					c1.923-1.818,3.847-3.635,5.77-5.453c0.817-0.772,1.688-1.653,1.773-2.774c0.2-2.634-4.25-5.894-6.678-5.568
					C486.344,351.452,483.184,355.883,480.492,357.289z"/>
				<path style="fill:#FFFFFF;" d="M587.147,189.874l2.864,0.973l2.063,4.358l-0.023,12.082l-7.381,32.695l-4.246,1.849
					l-1.543-5.587C578.881,236.244,583.238,189.268,587.147,189.874z"/>
				<path style="fill:#E27E5A;" d="M589.545,190.325c-1.829-4.58-4.77-8.711-8.499-11.937c-0.991-0.857-2.144-1.897-1.987-3.198
					c0.094-0.774,0.643-1.4,1.047-2.068c0.687-1.134,0.983-2.5,0.827-3.817c-0.038-0.321-0.099-0.662,0.039-0.953
					c0.146-0.309,0.477-0.48,0.794-0.606c2.229-0.881,4.796-0.516,6.987,0.456c2.191,0.972,4.079,2.502,5.94,4.013
					c1.825,1.483,3.673,2.997,5.159,4.833c0.554,0.685,1.938,2.177,1.942,3.111c0.005,1.26-0.813,1.04-1.909,1.368
					C595.411,182.869,592.246,186.738,589.545,190.325z"/>
				<path style="fill:#F29D7E;" d="M581.149,165.366c-0.395,1.397,0.028,2.995,1.064,4.013c0.482,0.473,1.119,0.833,1.794,0.819
					c0.837-0.017,1.66-0.596,2.457-0.34c0.837,0.269,1.139,1.297,1.171,2.176c0.032,0.879-0.055,1.839,0.456,2.555
					c0.282,0.396,0.712,0.658,1.13,0.907c3.796,2.262,7.648,4.426,11.554,6.492c0.46,0.244,0.963,0.493,1.477,0.408
					c0.981-0.162,1.353-1.359,1.485-2.346c0.315-2.36,0.415-4.748,0.299-7.126c-0.05-1.013-0.092-2.159,0.614-2.886
					c0.255-0.263,0.591-0.447,0.8-0.748c0.477-0.688,0.083-1.655-0.491-2.264c-0.574-0.609-1.326-1.069-1.735-1.799
					c-0.69-1.233-0.181-2.754-0.138-4.166c0.097-3.195-2.574-6.134-5.725-6.668c-3.152-0.533-6.467,1.152-8.203,3.837
					c-1.35,2.088-2.001,3.329-4.445,4.108C583.088,162.856,581.664,163.546,581.149,165.366z"/>
				<path style="fill:#1B4E61;" d="M579.395,175.625c1.154-1.005,1.603-2.604,1.723-4.13c0.12-1.526-0.029-3.071,0.199-4.584
					c0.228-1.514,0.925-3.069,2.265-3.807c1.341-0.739,3.366-0.255,3.833,1.203c0.201,0.629,0.429,1.586,1.063,1.404
					c1.195-1.82-0.353-4.592,0.978-6.316c0.349-0.453,0.853-0.756,1.348-1.042c1.472-0.849,2.979-1.636,4.517-2.357
					c0.744-0.349,1.52-0.689,2.341-0.716c1.382-0.046,2.667,0.821,3.485,1.936c0.818,1.115,1.251,2.458,1.672,3.776
					c1.234-0.858,2.159-2.211,2.32-3.705c0.16-1.494-0.528-3.094-1.824-3.855c-0.448-0.263-0.954-0.426-1.372-0.734
					c-1.405-1.037-1.283-3.199-2.279-4.633c-1.273-1.833-4.115-1.93-6.024-0.775c-0.9,0.545-1.656,1.301-2.542,1.869
					c-2.289,1.466-5.173,1.528-7.779,2.301c-3.48,1.033-6.556,3.463-8.217,6.69c-1.662,3.227-1.838,7.219-0.317,10.514
					c0.596,1.292,1.461,2.608,1.223,4.012c-0.202,1.19-1.252,2.463-0.085,3.412C576.853,176.844,578.604,176.314,579.395,175.625z"
					/>
				<path style="fill:#E8605C;" d="M558.977,281.71c-0.476,2.949-1.856,5.649-3.081,8.365c-3.077,6.872-5.272,14.109-8.531,20.894
					c-1.518,3.15-3.23,6.143-5.133,9.022c-11.421,17.298-29.193,30.085-46.36,42.179c-0.581,0.419-1.269,0.845-1.963,0.674
					c-0.493-0.119-0.869-0.507-1.207-0.888c-3.046-3.401-6.102-6.816-9.148-10.217c-0.482-0.527-0.978-1.122-1.016-1.829
					c-0.06-1.016,0.83-1.813,1.646-2.425c3.916-2.975,7.958-5.782,11.779-8.881c5.216-4.197,10.011-8.896,14.789-13.573
					c5.196-5.073,10.452-10.254,13.865-16.666c2.985-5.608,4.395-11.909,5.761-18.113c0.906-4.044,1.55-8.164,2.191-12.271
					c0.732-4.803,1.452-9.609,2.532-14.294c1.759-7.662,13.302-1.182,17.31,2.162C557.012,269.688,559.944,275.802,558.977,281.71z"
					/>
				<path style="fill:#B94A5B;" d="M558.977,281.71c-0.476,2.949-1.856,5.649-3.081,8.365c-3.077,6.872-5.272,14.109-8.531,20.894
					c-1.518,3.15-3.23,6.143-5.133,9.022c-0.329-0.22-0.577-0.518-0.716-0.901c-0.297-0.809-0.037-1.698,0.211-2.523
					c2.127-7.302,2.258-15.297-0.433-22.41c-2.145-5.662-6-10.801-8.727-16.176c0.732-4.803,1.452-9.609,2.532-14.294
					c1.759-7.662,13.302-1.182,17.31,2.162C557.012,269.688,559.944,275.802,558.977,281.71z"/>
				<path style="fill:#E8605C;" d="M596.692,357.26c-4.845-0.159-9.678-0.527-14.482-1.114c-1.112-0.13-2.373-0.381-2.903-1.352
					c-0.385-0.693-0.265-1.543-0.133-2.311c1.963-11.971,3.935-23.926,5.896-35.883c0.748-4.536,1.329-9.725-1.647-13.218
					c-1.094-1.276-2.538-2.169-3.971-3.046c-8.044-4.923-16.127-9.853-24.655-13.889c-2.719-1.278-5.537-2.522-8.214-3.951
					c-3.469-1.855-6.69-4.047-9.139-7.11c-3.433-4.293-5.7-12.884-4.81-19.997c0.399-3.241,1.453-6.174,3.362-8.246
					c2.641-2.872,9.122-2.696,12.711-3.024c6.276-0.563,12.63-0.278,18.834,0.876c1.085,0.204,2.272,0.494,2.934,1.398
					c0.621,0.844,0.588,2,0.628,3.051c0.028,0.692,0.1,1.366,0.227,2.024c0.066,0.422,0.16,0.836,0.253,1.25
					c1.284,5.394,5.06,10.108,8.667,14.46c7.112,8.539,14.21,17.089,21.31,25.626c1.079,1.286,2.164,2.614,2.81,4.162
					c0.822,1.952,0.875,4.128,0.86,6.239C605.118,321.483,600.888,339.461,596.692,357.26z"/>
				<path style="fill:#B94A5B;" d="M571.582,252.718c-3.648,2.537-8.453,3.429-12.741,2.199c-2.12-0.597-4.073-1.665-6.125-2.487
					c-4.965-1.978-10.716-2.453-15.598-0.307c-1.829,0.805-3.279,1.906-4.485,3.265c0.399-3.241,1.453-6.174,3.362-8.246
					c2.641-2.872,9.122-2.696,12.711-3.024c6.276-0.563,12.63-0.278,18.834,0.876c1.085,0.204,2.272,0.494,2.934,1.398
					c0.621,0.844,0.588,2,0.628,3.051c0.028,0.692,0.1,1.366,0.227,2.024C571.394,251.89,571.488,252.304,571.582,252.718z"/>
				<path style="fill:#E8605C;" d="M570.786,175.235c-2.923-1.182-5.364-3.574-8.473-4.101c-4.064-0.689-7.844,1.966-11.249,4.288
					c-18.495,12.611-41.187,19.424-56.588,35.67c2.857,3.781,5.982,7.359,9.344,10.699c0.257,0.256,0.539,0.522,0.896,0.584
					c0.577,0.1,1.086-0.358,1.498-0.776c10.076-10.213,23.475-17.094,37.646-19.334c-3.619,7.672-7.268,15.436-8.967,23.746
					c-0.833,4.077-1.189,8.255-2.319,12.26c-1.818,6.442-5.635,12.481-5.58,19.174c4.43-5.039,10.066-9.453,16.693-10.502
					c10.324-1.635,20.753,5.138,30.972,2.941c3.673-0.789,7.51-3.433,7.54-7.191c0.009-1.166-0.355-2.296-0.628-3.43
					c-3.339-13.903,7.114-28.086,4.806-42.197c-0.482-2.945-1.509-5.768-2.531-8.571c-1.099-3.015-1.961-8.598-4.032-11.008
					C577.927,175.29,573.571,176.361,570.786,175.235z"/>
				<path style="fill:#E8605C;" d="M590.024,198.975c-0.207,1.607,0.001,3.235,0.054,4.854c0.446,13.629-10.031,26.197-8.228,39.713
					c0.062,0.464,0.146,0.946,0.422,1.325c0.286,0.393,0.739,0.623,1.182,0.822c3.649,1.637,7.7,2.094,11.676,2.53
					c5.831,0.64,11.661,1.279,17.492,1.919c0.527,0.058,1.128,0.093,1.515-0.27c0.275-0.258,0.365-0.654,0.438-1.024
					c0.624-3.17,1.047-6.379,1.264-9.602c0.032-0.472,0.041-0.999-0.274-1.352c-0.235-0.263-0.598-0.363-0.941-0.446
					c-3.798-0.918-7.754-1.178-11.64-0.766c-2.483,0.263-5.068,0.787-7.418-0.054c-2.751-0.985-4.527-3.598-6.11-6.054
					c-0.577-0.894-1.172-1.841-1.24-2.903c-0.082-1.28,0.61-2.464,1.247-3.577c2.848-4.977,5.093-10.564,4.708-16.285
					c-0.102-1.526-0.391-3.041-0.378-4.57c0.017-1.888,1.053-5.38-0.124-7.061C591.871,193.608,590.251,197.21,590.024,198.975z"/>
				<path style="fill:#F29D7E;" d="M488.237,218.294c-0.764,0.844-1.551,1.682-2.13,2.663c-1.144,1.937-1.385,4.258-1.6,6.497
					c-0.076,0.785-0.044,1.773,0.67,2.109c0.216,0.102,0.48,0.13,0.637,0.31c0.358,0.408-0.187,1.039-0.071,1.569
					c0.176,0.805,1.6,0.697,1.859,1.48c0.117,0.355-0.067,0.776,0.111,1.105c0.215,0.398,0.794,0.387,1.219,0.232
					c0.425-0.155,0.861-0.403,1.3-0.293c0.253,0.064,0.474,0.243,0.735,0.263c0.517,0.038,0.841-0.529,1.051-1.003
					c1.645-3.707,4.351-6.936,7.714-9.202c0.362-0.244,0.908-0.456,1.182-0.115c0.119,0.148,0.133,0.352,0.133,0.541
					c-0.001,0.858-0.188,1.715-0.543,2.496c-0.306,0.671-0.741,1.305-0.833,2.037c-0.092,0.732,0.34,1.609,1.076,1.649
					c0.605,0.033,1.086-0.49,1.422-0.994c1.199-1.798,1.802-3.918,2.388-5.998c0.17-0.603,0.341-1.228,0.254-1.848
					c-0.089-0.637-0.441-1.202-0.787-1.743c-0.621-0.973-1.251-1.94-1.889-2.902c-0.542-0.817-1.117-1.657-1.956-2.163
					c-0.643-0.388-1.393-0.551-2.128-0.708c-1.409-0.301-4.492-1.612-5.762-0.863c-0.622,0.367-1.252,1.644-1.722,2.206
					C489.807,216.524,489.031,217.417,488.237,218.294z"/>
				<path style="fill:#FFFFFF;" d="M582.185,178.864c3.056,3.358,6.167,6.858,7.661,11.146c0.094,0.27,0.183,0.551,0.165,0.837
					c-0.037,0.61-0.533,1.079-1,1.473c-1.196,1.009-2.436,1.966-3.715,2.868c-0.77-2.622-1.566-5.236-2.39-7.841
					c-0.428-1.354-0.865-2.709-1.459-3.999c-0.286-0.621-0.61-1.232-0.771-1.897c-0.118-0.486-0.145-0.99-0.253-1.478
					c-0.234-1.059-0.873-1.866-1.339-2.811C580.072,176.582,581.605,178.227,582.185,178.864z"/>
				<path style="fill:#FFFFFF;" d="M591.236,188.062c-0.246,1.305,0.085,2.644,0.467,3.916c0.382,1.271,0.824,2.556,0.804,3.883
					c-0.742-0.178-1.465-0.43-2.157-0.751c-0.049-0.022-0.098-0.046-0.135-0.085c-0.049-0.052-0.069-0.124-0.084-0.194
					c-0.175-0.795,0.025-1.636-0.141-2.433c-0.145-0.692-0.714-1.549-0.393-2.257C589.939,189.387,590.652,188.637,591.236,188.062z
					"/>
				<path style="fill:#FDD17A;" d="M586.408,194.396c-0.171,0.17-0.357,0.397-0.28,0.627c0.039,0.115,0.137,0.199,0.231,0.276
					c0.516,0.426,1.033,0.852,1.549,1.279c0.197,0.162,0.411,0.332,0.665,0.355c0.286,0.026,0.55-0.139,0.79-0.297
					c0.606-0.4,1.211-0.8,1.817-1.199c0.126-0.083,0.263-0.184,0.284-0.333c0.01-0.077-0.013-0.154-0.037-0.227
					c-0.233-0.715-0.912-3.417-1.785-3.531c-0.525-0.068-1.248,1.157-1.585,1.47C587.498,193.331,586.948,193.859,586.408,194.396z"
					/>
				<path style="fill:#FDD17A;" d="M588.4,201.062c-0.447,1.684-1.483,3.139-2.341,4.656c-1.834,3.244-2.89,6.867-3.754,10.492
					c-0.878,3.687-1.574,7.425-1.871,11.203c-0.103,1.314-0.154,2.661,0.219,3.924c0.373,1.264,1.242,2.448,2.486,2.882
					c-0.099-1.449,0.069-2.916,0.492-4.306c0.723-2.374,2.16-4.459,3.171-6.727c0.714-1.602,1.213-3.29,1.71-4.972
					c1.01-3.421,2.02-6.845,2.844-10.316c0.296-1.245,0.568-2.515,0.492-3.792c-0.064-1.074-0.373-2.118-0.501-3.187
					c-0.239-1.987,0.064-4.267-1.292-5.739c-0.073-0.08-0.157-0.159-0.264-0.181c-0.12-0.024-0.24,0.03-0.348,0.086
					c-0.32,0.164-1.086,0.482-1.19,0.849c-0.109,0.384,0.243,1.184,0.3,1.591C588.717,198.7,588.706,199.91,588.4,201.062z"/>
				<polygon style="fill:#527480;" points="639.904,220.641 676.768,237.52 657.085,286.15 619.211,269.995 				"/>
				<polygon style="fill:#76A9B7;" points="639.904,220.641 634.35,221.257 615.705,266.113 619.211,269.995 				"/>
				<path style="fill:#1B4E61;" d="M467.997,357.393c-0.124,3.188,0.435,6.401,1.627,9.361c0.154,0.382,0.358,0.798,0.746,0.936
					c0.274,0.097,0.576,0.029,0.866,0.017c1.43-0.058,2.573,1.301,2.892,2.697c0.319,1.395,0.054,2.847,0.011,4.278
					c-0.124,4.073,1.576,8.033,3.99,11.315c2.414,3.283,5.517,5.984,8.593,8.656c0.838-0.868,0.959-2.229,0.676-3.402
					c-0.284-1.173-0.909-2.229-1.41-3.327c-2.301-5.044-1.866-11.242,1.118-15.914c0.989-1.549,2.296-3.153,2.063-4.976
					c-0.107-0.839-0.539-1.598-0.978-2.321c-1.509-2.486-4.635-8.642-7.697-9.356C479.642,355.159,467.97,358.089,467.997,357.393z"
					/>
				<path style="fill:#1B4E61;" d="M574.437,372.701c2.607,1.84,5.606,3.121,8.737,3.733c0.404,0.079,0.864,0.135,1.191-0.116
					c0.231-0.177,0.338-0.467,0.486-0.717c0.73-1.231,2.493-1.45,3.836-0.957c1.344,0.492,2.418,1.505,3.594,2.32
					c3.348,2.322,7.595,3.053,11.663,2.816c4.068-0.237,8.023-1.368,11.939-2.493c-0.272-1.176-1.347-2.019-2.486-2.419
					c-1.138-0.401-2.364-0.452-3.558-0.63c-5.484-0.817-10.444-4.558-12.738-9.605c-0.76-1.673-1.395-3.642-3.05-4.44
					c-0.762-0.367-1.633-0.418-2.479-0.443c-2.907-0.088-9.772-0.819-12.038,1.361C578.905,361.716,575.006,373.102,574.437,372.701
					z"/>
				<path style="fill:#F29D7E;" d="M617.515,236.169c0.953-1.3,2.657-1.836,4.268-1.908c1.611-0.072,3.215,0.238,4.827,0.253
					c0.667,0.006,1.367-0.031,1.964,0.267c0.597,0.298,1.014,1.082,0.663,1.648c-0.495,0.798-1.747,0.372-2.625,0.703
					c-0.884,0.333-1.252,1.419-1.184,2.361c0.068,0.942,0.448,1.836,0.573,2.772c0.125,0.937-0.092,2.031-0.9,2.519
					c-0.164,0.099-0.358,0.181-0.443,0.352c-0.07,0.141-0.048,0.308-0.053,0.466c-0.025,0.794-0.809,1.401-1.598,1.49
					c-0.789,0.089-1.567-0.215-2.285-0.554c-0.238-0.112-0.497-0.232-0.753-0.175c-0.194,0.043-0.35,0.18-0.508,0.299
					c-1.182,0.887-2.977,0.837-4.107-0.116c0.171-2.158-0.042-4.258-0.047-6.406C615.301,238.512,616.547,237.489,617.515,236.169z"
					/>
				<path style="fill:#7495B6;" d="M625.808,250.972c-0.101,0-0.203-0.021-0.3-0.065l-5.34-2.432l5.066-12.236l5.315,2.174
					c0.371,0.152,0.548,0.575,0.397,0.946c-0.152,0.371-0.574,0.547-0.946,0.397l-3.978-1.627l-3.978,9.607l4.066,1.851
					c0.365,0.166,0.526,0.596,0.36,0.96C626.347,250.814,626.083,250.972,625.808,250.972z"/>
			</g>
			<g>
				
					<linearGradient id="SVGID_00000150098950220077030260000009253013348737706376_" gradientUnits="userSpaceOnUse" x1="293.5413" y1="209.6376" x2="553.7206" y2="209.6376">
					<stop  offset="0" style="stop-color:#FFFFFF;stop-opacity:0"/>
					<stop  offset="0.3353" style="stop-color:#F9D4D3;stop-opacity:0.3355"/>
					<stop  offset="0.9994" style="stop-color:#EC7772"/>
				</linearGradient>
				
					<rect x="293.541" y="205.041" style="fill:url(#SVGID_00000150098950220077030260000009253013348737706376_);" width="281.726" height="9.194"/>
				
					<linearGradient id="SVGID_00000035533134590531868810000015958829734091074218_" gradientUnits="userSpaceOnUse" x1="228.0204" y1="313.9803" x2="548.7096" y2="313.9803">
					<stop  offset="0" style="stop-color:#FFFFFF;stop-opacity:0"/>
					<stop  offset="0.3353" style="stop-color:#F9D4D3;stop-opacity:0.3355"/>
					<stop  offset="0.9994" style="stop-color:#EC7772"/>
				</linearGradient>
				
					<rect x="228.02" y="309.383" style="fill:url(#SVGID_00000035533134590531868810000015958829734091074218_);" width="347.247" height="9.194"/>
				
					<linearGradient id="SVGID_00000138532341586447761160000008614856218518014117_" gradientUnits="userSpaceOnUse" x1="269.9692" y1="240.7733" x2="551.9178" y2="240.7733">
					<stop  offset="0" style="stop-color:#FFFFFF;stop-opacity:0"/>
					<stop  offset="0.2972" style="stop-color:#FEF0D3;stop-opacity:0.1772"/>
					<stop  offset="0.8387" style="stop-color:#FDD17A;stop-opacity:0.5"/>
					<stop  offset="1" style="stop-color:#FFFFFF;stop-opacity:0"/>
				</linearGradient>
				
					<rect x="269.969" y="229.658" style="fill:url(#SVGID_00000138532341586447761160000008614856218518014117_);" width="305.298" height="22.23"/>
				
					<linearGradient id="SVGID_00000148621728633521022620000012334580617982625174_" gradientUnits="userSpaceOnUse" x1="217.4617" y1="280.6357" x2="547.902" y2="280.6357">
					<stop  offset="0" style="stop-color:#FFFFFF;stop-opacity:0"/>
					<stop  offset="0.2972" style="stop-color:#FEF0D3;stop-opacity:0.1772"/>
					<stop  offset="0.8387" style="stop-color:#FDD17A;stop-opacity:0.5"/>
					<stop  offset="1" style="stop-color:#FFFFFF;stop-opacity:0"/>
				</linearGradient>
				
					<rect x="217.462" y="260.722" style="fill:url(#SVGID_00000148621728633521022620000012334580617982625174_);" width="357.805" height="39.827"/>
			</g>
			<g>
				<g>
					<path style="fill:#547989;" d="M225.943,377.965c-0.26,0.378-0.732,0.496-1.18,0.59c-3.423,0.732-6.893,1.298-10.386,1.699
						c-1.062,0.118-2.219,0.189-3.092-0.401c-0.944-0.637-1.275-1.865-1.534-2.974c-1.298-5.547-2.597-11.094-3.494-16.736
						c-1.534-9.843-1.747-19.875-2.762-29.813c-1.77-17.704-5.995-35.148-12.534-51.695c-0.685-1.723-2.125-3.824-3.895-3.21
						c-1.062,0.401-1.534,1.629-1.888,2.715c-4.863,15.508-9.749,31.088-12.77,47.068c-3.399,17.869-4.438,36.068-6.751,54.103
						c-0.094,0.708-0.236,1.511-0.803,1.983c-0.496,0.378-1.18,0.425-1.794,0.425c-3.47,0.071-6.916,0.142-10.363,0.213
						c-0.59,0.024-1.275,0-1.676-0.425c-0.401-0.401-0.425-1.039-0.425-1.582c-0.071-36.186,7.837-71.948,9.489-108.087
						c0.047-0.637,0.071-1.298,0.094-1.959c0.26-6.35-2.195-22.519,4.981-26.319c1.322-0.708,2.856-0.826,4.32-0.921
						c12.865-0.897,25.706-1.794,38.57-2.691c1.228-0.071,2.573-0.142,3.635,0.519c1.322,0.85,1.77,2.549,2.077,4.083
						c0.094,0.449,0.189,0.921,0.26,1.369c2.337,12.204,3.376,24.643,4.39,37.036c2.573,31.253,5.146,62.506,7.719,93.759
						C226.156,377.139,226.203,377.611,225.943,377.965z"/>
					<path style="fill:#E4F3F7;" d="M179.374,169.764c2.347,2.263,5.235,4.703,8.444,4.129c4.007-0.717,5.662-5.484,8.711-8.18
						c1.398,0.79,2.481,2.123,2.968,3.653c0.27,0.849,0.363,1.748,0.657,2.589c0.433,1.238,1.277,2.282,2.101,3.303
						c6.826,8.456,13.529,17.521,15.866,28.135c2.327,10.569,0.082,21.547-2.161,32.134c-0.352,1.663-0.802,3.482-2.183,4.473
						c-0.937,0.672-2.135,0.831-3.28,0.967c-14.439,1.708-28.946,2.843-43.475,3.402c4.909-13.912,7.142-28.763,6.541-43.504
						c-0.227-5.56-0.8-11.29,0.43-16.777c0.597-2.66,2.006-4.766,2.923-7.267C177.799,174.418,177.994,172.022,179.374,169.764z"/>
					<path style="fill:#E8605C;" d="M187.977,181.367c0.161,0.118,0.339,0.242,0.538,0.232c0.311-0.014,0.505-0.331,0.644-0.609
						c0.776-1.555,2.287-3.59,1.383-5.383c-0.579-1.148-1.94-1.714-3.18-1.604c-1.654,0.148-2.54,1.382-3.082,2.848
						C183.471,179.038,186.432,180.231,187.977,181.367z"/>
					<path style="fill:#E8605C;" d="M183.199,187.646c-0.337,1.906-0.437,3.845-0.536,5.778
						c-0.559,10.889-1.118,21.777-1.677,32.666c-0.062,1.209-0.12,2.451,0.259,3.6c0.31,0.939,0.894,1.759,1.469,2.563
						c0.763,1.066,1.526,2.132,2.289,3.198c0.256,0.358,0.559,0.746,0.994,0.812c0.514,0.078,0.964-0.324,1.329-0.695
						c1.913-1.948,3.905-4.033,4.542-6.688c0.253-1.056,0.277-2.151,0.292-3.237c0.222-15.322-0.815-30.661-3.095-45.815
						c-0.506-3.36-2.481-1.443-3.379,0.357C184.519,182.524,183.654,185.072,183.199,187.646z"/>
					<path style="fill:#E27E5A;" d="M178.929,170.183c1.906,1.177,3.813,2.353,5.72,3.53c0.653,0.403,1.323,0.813,2.073,0.975
						c2.334,0.505,4.409-1.454,5.996-3.239c1.123-1.263,2.245-2.527,3.368-3.79c0.243-0.274,0.49-0.554,0.634-0.891
						c0.184-0.431,0.182-0.916,0.177-1.386c-0.026-2.392-0.051-4.784-0.077-7.176c-3.795,0.715-7.606,1.431-11.464,1.576
						c-1.968,0.074-5.927-0.461-6.932,1.704C178.154,162.065,178.684,170.031,178.929,170.183z"/>
					<path style="fill:#F29D7E;" d="M173.483,158.192c0.527,1.152,2.182,1.788,3.129,0.948c0.895,2.305,2.114,4.484,3.61,6.453
						c1.394,1.834,3.232,3.588,5.525,3.806c1.929,0.184,3.826-0.792,5.186-2.171c1.361-1.379,2.271-3.131,3.127-4.868
						c0.462-0.937,0.939-1.91,1.751-2.566c0.862-0.696,2.148-0.09,2.774-0.556c1.085-0.808,1.429-2.963,0.65-4.072
						c-0.287-0.408-2.995-1.512-2.854-1.009c-1.024-3.667,1.158-7.946-0.749-11.241c-1.206-2.085-3.685-3.04-6.024-3.619
						c-2.841-0.702-6.022-1.028-8.54,0.463c-2.604,1.542-3.824,4.6-4.868,7.441c-0.386,1.05-0.78,2.141-0.946,3.251
						c-0.12,0.802,0.37,2.776,0.109,3.357c-0.425,0.946-1.218,0.335-1.695,1.088C173.116,155.769,173.062,157.272,173.483,158.192z"
						/>
					<path style="fill:#10404F;" d="M214.023,245.919c-0.472,0.071-0.968,0.118-1.464,0.189c-11.802,1.487-24.29,2.62-33.991,9.536
						c-3.47,2.478-11.448,12.133-18.483,16.193c0.047-0.637,0.071-1.298,0.094-1.959c0.26-6.35-2.195-22.519,4.981-26.319
						c1.322-0.708,2.856-0.826,4.32-0.921c12.865-0.897,25.706-1.794,38.57-2.691c1.228-0.071,2.573-0.142,3.635,0.519
						c1.322,0.85,1.77,2.549,2.077,4.083C213.858,244.999,213.952,245.471,214.023,245.919z"/>
					<path style="fill:#F29D7E;" d="M121.534,196.055c-0.11-0.38,0.018-1.469-0.251-1.76c-0.293-0.317-0.707-0.518-1.13-0.598
						c-6.888-1.302-12.811-1.014-19.759-0.816c-0.148,0.004-0.304,0.012-0.432,0.088c-0.347,0.208-0.255,0.735-0.07,1.094
						c1.443,2.794,4.5,0.597,6.696,2.848c0.602,0.617,1.075,1.368,1.766,1.883c2.124,1.585,5.598,0.501,7.422,2.423
						c0.666,0.702,0.954,1.668,1.362,2.546c1.165,2.509,3.495,4.447,6.175,5.134c0.425-1.348,0.85-2.695,1.275-4.043
						c0.567-1.799-0.616-1.905-1.396-3.13C122.263,200.265,122.016,197.722,121.534,196.055z"/>
					<path style="fill:#F29D7E;" d="M240.712,148.419c-1.304-0.979-3.066-1.003-4.697-0.986c-1.752,0.018-3.503,0.036-5.255,0.053
						c-1.487,0.015-2.365-0.771-2.598-2.295c-1.075-7.036,8.112-9.814,13.256-7.61c2.625,1.125,4.648,3.415,6.26,5.708
						c2.016,2.868,5.146,4.789,5.551,8.537c0.255,2.367-0.413,4.68-0.404,7.041c0-0.018-5.878-0.084-6.398-0.097
						c-1.705-0.045-2.351-0.055-2.776-1.73C242.963,154.328,243.188,150.277,240.712,148.419z"/>
					<path style="fill:#1B4E61;" d="M176.016,152.582c0.082-2.503,0.519-4.995,1.293-7.377c0.2-0.617,0.452-1.266,0.984-1.637
						c0.847-0.592,1.994-0.246,2.996,0.005c3.253,0.814,6.676,0.367,9.982-0.197c1.016-0.174,2.128-0.342,3.021,0.173
						c1.504,0.867,1.461,3.008,1.285,4.734c-0.209,2.041-0.322,4.176,0.465,6.071c0.23-0.018,0.46-0.036,0.691-0.054
						c1.924-2.387,2.047-5.735,1.776-8.79c-0.268-3.027-1.012-6.324-3.451-8.137c-1.318-0.979-2.964-1.387-4.573-1.713
						c-2.322-0.47-4.869-0.785-6.946,0.353c-1.171,0.641-2.092,1.699-3.318,2.227c-1.198,0.515-2.578,0.474-3.774,0.992
						c-1.339,0.578-2.31,1.808-2.885,3.148s-0.804,2.799-1.027,4.24c-0.237,1.53-0.475,3.078-0.34,4.621
						c0.094,1.078,0.599,3.716,1.743,4.248C175.626,156.275,175.981,153.638,176.016,152.582z"/>
					<path style="fill:#1B4E61;" d="M144.663,386.54c-2.634,2.284-5.398,4.638-8.774,5.513c-0.438,0.635,0.029,1.569,0.728,1.896
						c0.698,0.327,1.512,0.225,2.275,0.117c4.337-0.616,8.673-1.231,13.01-1.846c1.519-0.215,3.07-0.441,4.435-1.14
						c1.977-1.013,3.517-2.988,5.715-3.306c0.909-0.132,1.968-0.004,2.611-0.66c0.348-0.354,0.481-0.862,0.583-1.348
						c0.34-1.625,0.48-3.292,0.415-4.951c-0.012-0.318-11.743,0.079-12.936,0.327C149.392,381.835,147.174,384.363,144.663,386.54z"
						/>
					<path style="fill:#1B4E61;" d="M212.43,387.852c0.934,1.257,2.98,0.306,4.463,0.808c0.472,0.16,0.875,0.468,1.286,0.749
						c4.788,3.274,11.052,3.088,16.844,2.778c0.946-0.05,2.104-0.252,2.406-1.15c0.232-0.687-0.218-1.447-0.825-1.844
						c-0.607-0.396-1.342-0.529-2.041-0.725c-3.835-1.078-6.922-4.463-7.642-8.382c-0.093-0.503-0.157-1.033-0.449-1.453
						c-0.626-0.9-1.939-0.882-3.03-0.77c-2.786,0.289-7.957-0.214-10.123,1.938C212.4,380.716,211.188,387.852,212.43,387.852z"/>
					<path style="fill:#547989;" d="M255.875,179.519c-0.142,0.803-0.331,1.605-0.755,2.313c-0.519,0.826-1.322,1.416-2.125,2.006
						c-2.785,1.983-5.57,3.989-8.71,5.335c-5.358,2.337-11.59,2.62-17.161,0.779c-1.959,3.116-0.803,7.2,0.472,10.646
						c5.405,14.918,11.637,29.553,18.671,43.763c0.26,0.519,0.519,1.086,0.401,1.652c-0.118,0.59-0.614,1.015-1.11,1.416
						c-0.236,0.189-0.472,0.354-0.708,0.543c-6.822,5.287-14.281,9.725-21.693,14.139c-1.912,1.133-4.438,2.266-6.208,0.921
						c-0.991-5.736-2.974-11.307-5.807-16.382c-0.472-0.803-0.944-1.629-1.062-2.573c-0.165-1.298,0.425-2.573,0.968-3.753
						c3.824-8.285,6.137-17.303,6.208-26.39c0.023-2.833-0.189-5.665-0.614-8.474c-0.944-6.208-3.045-12.227-6.326-17.586
						c-3.092-5.004-11.708-11.968-11.307-18.318c0.378-6.043,14.068-3.399,18.223-3.399c1.44,0,3.045,0.071,4.06,1.086
						c0.897,0.897,1.11,2.36,2.148,3.092c0.519,0.378,1.204,0.496,1.841,0.614c5.642,0.968,11.33,1.629,17.043,1.912
						c-0.047-5.264-0.449-10.504-1.204-15.721c4.579-0.213,9.182,0.118,13.691,0.968c0.519,0.094,1.086,0.212,1.393,0.637
						c0.236,0.283,0.283,0.661,0.33,1.039C257.385,166.347,257.173,173.027,255.875,179.519z"/>
					<path style="fill:#10404F;" d="M244.851,247.973c-6.822,5.287-14.281,9.725-21.693,14.139
						c-1.912,1.133-4.438,2.266-6.208,0.921c-0.991-5.736-2.974-11.307-5.807-16.382c-0.472-0.803-0.944-1.629-1.062-2.573
						c-0.165-1.298,0.425-2.573,0.968-3.753c3.824-8.285,6.137-17.303,6.208-26.39c0.023-2.833-0.189-5.665-0.614-8.474
						c1.912,4.225,4.603,8.096,7.199,11.897c6.822,9.914,13.644,19.852,20.465,29.766
						C244.497,247.406,244.686,247.666,244.851,247.973z"/>
					<path style="fill:#547989;" d="M160.854,185.467c-2.207,0.608-4.611,1.144-6.129,2.857c-2.077,2.343-1.693,5.872-1.714,9.003
						c-0.019,2.87-0.487,5.737-1.382,8.465c-0.558,1.7-1.368,3.451-2.894,4.387c-2.732,1.676-6.222,0.023-8.978-1.615
						c-5.176-3.079-10.352-6.157-15.528-9.236c-1.536,3.781-3.072,7.562-4.608,11.342c5.987,3.396,11.974,6.792,17.961,10.189
						c3.015,1.71,6.112,3.45,9.534,4.002c3.422,0.552,7.292-0.325,9.424-3.058c1.216-1.56,1.743-3.528,2.503-5.354
						c0.315-0.757,0.93-1.63,1.727-1.442c0.578,0.136,0.87,0.77,1.057,1.334c5.811,17.532-10.663,36.423-5.727,54.222
						c1.639,0.273,2.821-1.485,3.518-2.993c10.326-22.375,15.394-47.156,14.683-71.788c-0.137-4.742-0.439-9.717,1.621-13.99
						c1.076-2.232,3.338-5.319,1.82-7.76c-2.485,1.779-4.223,5.085-7.018,7.012C167.745,183.096,164.33,184.51,160.854,185.467z"/>
					<polygon style="fill:#E4F3F7;" points="254.813,158.109 254.813,149.238 241.998,154.514 242.611,157.575 					"/>
				</g>
				<g>
					<g>
						<rect x="71.521" y="146.385" style="fill:#527480;" width="68.651" height="44.81"/>
						<rect x="74.076" y="150.649" style="fill:#FAF9DD;" width="63.547" height="36.283"/>
					</g>
					<rect x="71.509" y="189.85" style="fill:#0B3A47;" width="68.65" height="3.579"/>
					<path style="fill:#FAF9DD;" d="M83.604,150.649l-9.528,9.528v9.977l19.505-19.505H83.604z M109.142,150.649l-35.065,35.065
						v1.218h30.903l32.644-32.643v-3.64H109.142z M113.579,186.932h13.284l10.76-10.76v-13.283L113.579,186.932z"/>
				</g>
			</g>
		</g>
		<g>
			
				<ellipse transform="matrix(0.2314 -0.9729 0.9729 0.2314 68.1771 522.0101)" style="fill:#D35353;" cx="364.448" cy="217.858" rx="51.971" ry="51.971"/>
			
				<ellipse transform="matrix(0.9216 -0.3881 0.3881 0.9216 -55.9815 158.4983)" style="fill:#FAF9DD;" cx="364.448" cy="217.858" rx="45.563" ry="45.563"/>
			<g>
				<path style="fill:#7495B6;" d="M364.448,195.928c-0.337,0-0.61-0.273-0.61-0.61v-16.846c0-0.337,0.273-0.61,0.61-0.61
					c0.337,0,0.61,0.273,0.61,0.61v16.846C365.058,195.655,364.785,195.928,364.448,195.928z"/>
				<path style="fill:#7495B6;" d="M353.179,198.948c-0.211,0-0.416-0.11-0.529-0.305l-8.422-14.588
					c-0.169-0.292-0.068-0.665,0.223-0.833c0.293-0.17,0.666-0.068,0.834,0.223l8.422,14.588c0.169,0.292,0.069,0.665-0.223,0.834
					C353.387,198.922,353.282,198.948,353.179,198.948z"/>
				<path style="fill:#7495B6;" d="M344.927,207.198c-0.103,0-0.208-0.027-0.304-0.081l-14.588-8.423
					c-0.292-0.168-0.392-0.542-0.223-0.833c0.168-0.292,0.54-0.392,0.834-0.223l14.588,8.422c0.292,0.169,0.392,0.542,0.223,0.834
					C345.343,207.088,345.138,207.198,344.927,207.198z"/>
				<path style="fill:#7495B6;" d="M341.908,218.469h-16.846c-0.337,0-0.61-0.273-0.61-0.61c0-0.337,0.273-0.61,0.61-0.61h16.846
					c0.337,0,0.61,0.273,0.61,0.61C342.518,218.196,342.245,218.469,341.908,218.469z"/>
				<path style="fill:#7495B6;" d="M330.34,238.162c-0.211,0-0.416-0.11-0.529-0.305c-0.168-0.292-0.068-0.664,0.223-0.834
					l14.588-8.423c0.294-0.164,0.666-0.068,0.834,0.224c0.168,0.293,0.068,0.664-0.223,0.834l-14.588,8.423
					C330.548,238.135,330.443,238.162,330.34,238.162z"/>
				<path style="fill:#7495B6;" d="M344.755,252.578c-0.103,0-0.208-0.027-0.304-0.081c-0.292-0.168-0.392-0.542-0.223-0.834
					l8.422-14.59c0.168-0.291,0.54-0.389,0.834-0.224c0.292,0.168,0.392,0.542,0.223,0.834l-8.422,14.59
					C345.171,252.469,344.966,252.578,344.755,252.578z"/>
				<path style="fill:#7495B6;" d="M364.448,257.855c-0.337,0-0.61-0.273-0.61-0.61v-16.846c0-0.337,0.273-0.61,0.61-0.61
					c0.337,0,0.61,0.273,0.61,0.61v16.846C365.058,257.581,364.785,257.855,364.448,257.855z"/>
				<path style="fill:#7495B6;" d="M384.141,252.578c-0.21,0-0.415-0.11-0.529-0.305l-8.422-14.59
					c-0.168-0.292-0.068-0.666,0.224-0.834c0.291-0.164,0.664-0.067,0.834,0.224l8.422,14.59c0.169,0.292,0.068,0.666-0.224,0.834
					C384.35,252.551,384.244,252.578,384.141,252.578z"/>
				<path style="fill:#7495B6;" d="M398.557,238.162c-0.105,0-0.21-0.027-0.305-0.081l-14.588-8.423
					c-0.292-0.17-0.393-0.542-0.224-0.834c0.172-0.294,0.548-0.386,0.834-0.224l14.588,8.423c0.292,0.17,0.392,0.542,0.224,0.834
					C398.972,238.052,398.767,238.162,398.557,238.162z"/>
				<path style="fill:#7495B6;" d="M403.833,218.469h-16.845c-0.337,0-0.61-0.273-0.61-0.61c0-0.337,0.273-0.61,0.61-0.61h16.845
					c0.337,0,0.61,0.273,0.61,0.61C404.444,218.196,404.17,218.469,403.833,218.469z"/>
				<path style="fill:#7495B6;" d="M383.969,207.198c-0.21,0-0.415-0.11-0.529-0.305c-0.169-0.293-0.068-0.666,0.224-0.834
					l14.588-8.422c0.289-0.167,0.664-0.068,0.834,0.223c0.168,0.292,0.068,0.665-0.224,0.833l-14.588,8.423
					C384.179,207.171,384.072,207.198,383.969,207.198z"/>
				<path style="fill:#7495B6;" d="M375.719,198.948c-0.105,0-0.21-0.026-0.305-0.082c-0.292-0.169-0.393-0.542-0.224-0.834
					l8.422-14.588c0.172-0.294,0.548-0.39,0.834-0.223c0.292,0.169,0.393,0.542,0.224,0.833l-8.422,14.588
					C376.134,198.839,375.929,198.948,375.719,198.948z"/>
			</g>
			<path style="fill:#537999;" d="M364.445,221.114c-1.481,0-2.821-1.019-3.169-2.524c-0.404-1.751,0.69-3.5,2.441-3.903
				l27.995-6.449c1.759-0.394,3.5,0.692,3.903,2.441c0.404,1.751-0.69,3.5-2.441,3.903l-27.995,6.449
				C364.932,221.087,364.686,221.114,364.445,221.114z"/>
			<path style="fill:#244E6B;" d="M364.445,221.114c-0.552,0-1.111-0.14-1.624-0.436c-1.557-0.9-2.09-2.891-1.192-4.447
				l11.271-19.521c0.9-1.557,2.884-2.095,4.447-1.191c1.557,0.899,2.09,2.889,1.192,4.446l-11.271,19.521
				C366.663,220.531,365.57,221.114,364.445,221.114z"/>
		</g>
	</g>
</g>
<g id="DESIGNED_BY_FREEPIK">
	<g>
		<g id="XMLID_319_">
			<g id="XMLID_338_">
				<path id="XMLID_346_" style="fill:#A5B7C6;" d="M385.104,465.465c-0.432,0.443-0.803,0.931-1.108,1.453l-0.465-0.241
					c-0.067-0.298-0.349-0.503-0.659-0.466c-0.331,0.039-0.568,0.339-0.529,0.67s0.339,0.568,0.67,0.529
					c0.065-0.008,0.127-0.026,0.184-0.052l0.451,0.234c-0.251,0.554-0.433,1.139-0.539,1.744l0.746,0.132
					c0.23-1.306,0.85-2.507,1.792-3.473L385.104,465.465z"/>
				<path id="XMLID_345_" style="fill:#A5B7C6;" d="M390.592,463.163c-0.171,0-0.341,0.006-0.51,0.017l-0.074-0.626
					c0.188-0.149,0.296-0.389,0.266-0.645c-0.046-0.393-0.402-0.674-0.795-0.628s-0.674,0.402-0.628,0.795
					c0.03,0.254,0.189,0.461,0.405,0.564l0.073,0.624c-0.714,0.116-1.403,0.332-2.06,0.646l0.327,0.684
					c0.934-0.447,1.942-0.673,2.995-0.673c0.496,0,0.993,0.053,1.475,0.158l0.161-0.741
					C391.693,463.222,391.142,463.163,390.592,463.163z"/>
				<path id="XMLID_344_" style="fill:#A5B7C6;" d="M397.194,465.711c0.331-0.04,0.566-0.341,0.525-0.672
					c-0.04-0.331-0.341-0.566-0.672-0.526c-0.309,0.038-0.535,0.304-0.53,0.609l-0.416,0.363c-0.418-0.43-0.89-0.813-1.408-1.139
					l-0.404,0.641c1.134,0.715,2.021,1.726,2.563,2.925l0.691-0.313c-0.251-0.554-0.568-1.072-0.942-1.545l0.402-0.351
					C397.065,465.716,397.129,465.719,397.194,465.711z"/>
				<path id="XMLID_343_" style="fill:#A5B7C6;" d="M390.044,473.372c-0.386,0.023-0.775,0.035-1.157,0.035
					c-0.88,0-1.733-0.061-2.478-0.179c-0.39-0.062-0.846-0.155-1.27-0.292c1.046,1.861,3.069,3.125,5.388,3.125
					c2.855,0,5.262-1.916,5.95-4.504c-0.682,0.449-1.505,0.825-2.459,1.123C392.839,473.047,391.464,473.286,390.044,473.372z"/>
				<path id="XMLID_339_" style="fill:#A5B7C6;" d="M390.592,464.68c-3.352,0-6.08,2.666-6.08,5.943
					c0,0.426,0.046,0.849,0.137,1.261c0.674,0.483,2.706,0.89,5.348,0.731c2.879-0.173,5.297-0.957,6.672-2.159
					c-0.005-0.195-0.021-0.39-0.045-0.582C396.244,466.913,393.65,464.68,390.592,464.68z M388.432,471.194
					c-1.02,0-1.85-0.83-1.85-1.85c0-1.02,0.83-1.85,1.85-1.85c1.02,0,1.85,0.83,1.85,1.85
					C390.282,470.365,389.452,471.194,388.432,471.194z M393.17,470.286c-0.75,0-1.36-0.61-1.36-1.36s0.61-1.361,1.36-1.361
					c0.75,0,1.361,0.61,1.361,1.361S393.92,470.286,393.17,470.286z"/>
			</g>
			<path id="XMLID_336_" style="fill:#A5B7C6;" d="M406.595,466.547c-0.295-0.116-0.806-0.309-1.382-0.237
				c-0.551,0.069-0.844,0.341-0.844,1.007v0.866h2.228v1.717h-2.228v5.455h-1.932v-5.455h-1.34v-1.717h1.34v-0.888
				c0-1.68,0.896-2.783,2.568-2.783c0.642,0,1.157,0.122,1.59,0.308L406.595,466.547z"/>
			<path id="XMLID_334_" style="fill:#A5B7C6;" d="M411.298,469.879c-0.177-0.03-0.358-0.046-0.526-0.046
				c-0.896,0-1.51,0.548-1.51,1.614v3.908h-1.932v-7.172h1.873v0.785c0.451-0.673,1.14-0.977,2.021-0.977
				c0.414,0,0.848,0.128,1.094,0.337L411.298,469.879z"/>
			<path id="XMLID_331_" style="fill:#A5B7C6;" d="M418.965,471.757c0,0.222-0.015,0.489-0.037,0.651h-5.085
				c0.207,1.036,0.933,1.488,1.843,1.488c0.622,0,1.295-0.252,1.813-0.688l1.132,1.243c-0.814,0.748-1.85,1.088-3.057,1.088
				c-2.198,0-3.723-1.495-3.723-3.753c0-2.258,1.48-3.797,3.627-3.797C417.544,467.99,418.958,469.522,418.965,471.757z
				 M413.851,471.091h3.175c-0.177-0.918-0.733-1.436-1.562-1.436C414.554,469.655,414.021,470.203,413.851,471.091z"/>
			<path id="XMLID_328_" style="fill:#A5B7C6;" d="M426.618,471.757c0,0.222-0.015,0.489-0.037,0.651h-5.085
				c0.207,1.036,0.932,1.488,1.843,1.488c0.622,0,1.295-0.252,1.813-0.688l1.132,1.243c-0.814,0.748-1.85,1.088-3.057,1.088
				c-2.198,0-3.723-1.495-3.723-3.753c0-2.258,1.48-3.797,3.627-3.797C425.197,467.99,426.611,469.522,426.618,471.757z
				 M421.504,471.091h3.175c-0.178-0.918-0.733-1.436-1.562-1.436C422.207,469.655,421.674,470.203,421.504,471.091z"/>
			<path id="XMLID_325_" style="fill:#A5B7C6;" d="M434.964,471.764c0,2.154-1.495,3.775-3.471,3.775
				c-0.962,0-1.643-0.378-2.109-0.933v3.708h-1.924v-10.133h1.887v0.792c0.466-0.585,1.155-0.984,2.139-0.984
				C433.469,467.99,434.964,469.61,434.964,471.764z M429.287,471.764c0,1.132,0.747,1.976,1.843,1.976
				c1.14,0,1.85-0.881,1.85-1.976c0-1.095-0.71-1.976-1.85-1.976C430.035,469.788,429.287,470.632,429.287,471.764z"/>
			<path id="XMLID_322_" style="fill:#A5B7C6;" d="M438.068,465.836c0,0.696-0.54,1.229-1.236,1.229
				c-0.696,0-1.229-0.533-1.229-1.229c0-0.696,0.533-1.243,1.229-1.243C437.527,464.592,438.068,465.14,438.068,465.836z
				 M437.809,475.354h-1.932v-7.172h1.932V475.354z"/>
			<path id="XMLID_320_" style="fill:#A5B7C6;" d="M441.032,470.736l2.702-2.554h2.368l-3.479,3.375l3.501,3.797h-2.376
				l-2.716-2.901v2.901H439.1v-10.658h1.932V470.736z"/>
		</g>
		<g>
			<path style="fill:#A5B7C6;" d="M309.412,475.289v-1.055c-0.527,0.718-1.391,1.23-2.387,1.23c-1.846,0-3.149-1.406-3.149-3.706
				c0-2.256,1.289-3.721,3.149-3.721c0.952,0,1.816,0.469,2.387,1.245v-3.765h1.099v9.77H309.412z M309.412,473.37v-3.208
				c-0.395-0.615-1.245-1.143-2.124-1.143c-1.421,0-2.27,1.172-2.27,2.739c0,1.567,0.85,2.724,2.27,2.724
				C308.168,474.483,309.017,473.986,309.412,473.37z"/>
			<path style="fill:#A5B7C6;" d="M311.932,471.744c0-2.051,1.465-3.706,3.486-3.706c2.139,0,3.398,1.67,3.398,3.794v0.279h-5.727
				c0.088,1.333,1.026,2.446,2.549,2.446c0.805,0,1.626-0.322,2.182-0.894l0.527,0.718c-0.703,0.703-1.655,1.084-2.812,1.084
				C313.44,475.465,311.932,473.956,311.932,471.744z M315.404,468.947c-1.509,0-2.256,1.274-2.315,2.358h4.643
				C317.718,470.25,317.015,468.947,315.404,468.947z"/>
			<path style="fill:#A5B7C6;" d="M319.607,474.351l0.571-0.791c0.469,0.542,1.362,1.011,2.329,1.011c1.084,0,1.67-0.513,1.67-1.216
				c0-1.714-4.38-0.659-4.38-3.281c0-1.098,0.952-2.036,2.636-2.036c1.201,0,2.051,0.454,2.622,1.026l-0.513,0.762
				c-0.424-0.513-1.201-0.894-2.109-0.894c-0.967,0-1.567,0.483-1.567,1.113c0,1.552,4.38,0.527,4.38,3.281
				c0,1.187-0.952,2.138-2.783,2.138C321.306,475.465,320.325,475.113,319.607,474.351z"/>
			<path style="fill:#A5B7C6;" d="M326.477,466.471c0-0.41,0.337-0.747,0.732-0.747c0.41,0,0.747,0.337,0.747,0.747
				c0,0.41-0.337,0.732-0.747,0.732C326.814,467.203,326.477,466.881,326.477,466.471z M326.667,475.289v-7.075h1.099v7.075H326.667
				z"/>
			<path style="fill:#A5B7C6;" d="M329.582,477.105l0.556-0.82c0.586,0.703,1.289,0.967,2.3,0.967c1.172,0,2.27-0.571,2.27-2.124
				v-1.011c-0.513,0.718-1.377,1.26-2.373,1.26c-1.845,0-3.149-1.377-3.149-3.662c0-2.27,1.289-3.677,3.149-3.677
				c0.952,0,1.802,0.469,2.373,1.245v-1.069h1.099v6.87c0,2.344-1.641,3.076-3.369,3.076
				C331.237,478.16,330.417,477.926,329.582,477.105z M334.709,473.253v-3.091c-0.381-0.615-1.23-1.143-2.109-1.143
				c-1.421,0-2.27,1.128-2.27,2.695c0,1.553,0.849,2.695,2.27,2.695C333.478,474.41,334.328,473.868,334.709,473.253z"/>
			<path style="fill:#A5B7C6;" d="M342.413,475.289v-4.629c0-1.245-0.63-1.641-1.582-1.641c-0.865,0-1.685,0.527-2.095,1.099v5.17
				h-1.099v-7.075h1.099v1.025c0.498-0.586,1.465-1.201,2.519-1.201c1.48,0,2.256,0.747,2.256,2.285v4.966H342.413z"/>
			<path style="fill:#A5B7C6;" d="M344.932,471.744c0-2.051,1.465-3.706,3.486-3.706c2.138,0,3.398,1.67,3.398,3.794v0.279h-5.727
				c0.088,1.333,1.025,2.446,2.549,2.446c0.806,0,1.626-0.322,2.183-0.894l0.527,0.718c-0.703,0.703-1.655,1.084-2.812,1.084
				C346.441,475.465,344.932,473.956,344.932,471.744z M348.404,468.947c-1.509,0-2.256,1.274-2.314,2.358h4.643
				C350.718,470.25,350.015,468.947,348.404,468.947z"/>
			<path style="fill:#A5B7C6;" d="M358.35,475.289v-1.055c-0.527,0.718-1.392,1.23-2.388,1.23c-1.845,0-3.149-1.406-3.149-3.706
				c0-2.256,1.289-3.721,3.149-3.721c0.952,0,1.817,0.469,2.388,1.245v-3.765h1.098v9.77H358.35z M358.35,473.37v-3.208
				c-0.396-0.615-1.245-1.143-2.124-1.143c-1.421,0-2.27,1.172-2.27,2.739c0,1.567,0.849,2.724,2.27,2.724
				C357.105,474.483,357.954,473.986,358.35,473.37z"/>
			<path style="fill:#A5B7C6;" d="M364.692,475.289v-9.77h1.099v3.765c0.572-0.776,1.421-1.245,2.388-1.245
				c1.845,0,3.149,1.465,3.149,3.721c0,2.299-1.304,3.706-3.149,3.706c-0.996,0-1.86-0.513-2.388-1.23v1.055H364.692z
				 M367.9,474.483c1.436,0,2.286-1.157,2.286-2.724c0-1.568-0.85-2.739-2.286-2.739c-0.864,0-1.728,0.527-2.109,1.143v3.208
				C366.171,473.986,367.036,474.483,367.9,474.483z"/>
			<path style="fill:#A5B7C6;" d="M372.529,477.061c0.161,0.073,0.425,0.117,0.601,0.117c0.483,0,0.806-0.161,1.055-0.747
				l0.469-1.069l-2.959-7.148h1.187l2.358,5.8l2.344-5.8h1.201l-3.545,8.51c-0.425,1.025-1.143,1.421-2.08,1.435
				c-0.234,0-0.601-0.044-0.806-0.103L372.529,477.061z"/>
		</g>
	</g>
</g>
</svg>
