<?xml version="1.0" encoding="utf-8"?>
<!-- Generator: Adobe Illustrator 27.5.0, SVG Export Plug-In . SVG Version: 6.00 Build 0)  -->
<svg version="1.1" xmlns="http://www.w3.org/2000/svg" xmlns:xlink="http://www.w3.org/1999/xlink" x="0px" y="0px"
	 viewBox="0 0 500 500" style="enable-background:new 0 0 500 500;" xml:space="preserve">
<g id="BACKGROUND">
	<rect y="0" style="fill:#EDF1F0;" width="500" height="500"/>
	<path style="fill:#F2F5F4;" d="M282.163,454.834c-122.992,34.336-216.222-15.811-229.831-91.77
		c-13.609-75.959,52.178-117.052,48.145-225.964C96.444,28.188,264.321-77.358,390.65,118.067S396.144,423.014,282.163,454.834z"/>
</g>
<g id="OBJECTS">
	<g>
		<g>
			<path style="fill:#FFFFFF;" d="M321.434,344.757h-54.861c11.513,17.243,8.491,67.244,8.491,67.244h54.861
				C329.925,412.001,333.321,356.644,321.434,344.757z"/>
			<path style="fill:#E3E9E7;" d="M310.688,342.95h-54.861c11.513,17.243,8.491,67.244,8.491,67.244h54.861
				C319.18,410.194,322.576,354.837,310.688,342.95z"/>
			<path style="fill:#F2F5F4;" d="M306.798,345.367h-54.861c11.513,17.243,8.491,67.244,8.491,67.244h54.861
				C315.289,412.611,318.685,357.254,306.798,345.367z"/>
			<path style="fill:#FFFFFF;" d="M299.045,341.328h-54.861c11.513,17.243,8.491,67.244,8.491,67.244h54.861
				C307.536,408.571,310.932,353.215,299.045,341.328z"/>
			<path style="fill:#E3E9E7;" d="M293.067,340.025h-54.861c11.513,17.243,8.491,67.244,8.491,67.244h54.861
				C301.558,407.269,304.954,351.913,293.067,340.025z"/>
			<path style="fill:#FFFFFF;" d="M276.327,343.484h-54.861c11.513,17.243,8.491,67.244,8.491,67.244h54.861
				C284.819,410.728,288.215,355.371,276.327,343.484z"/>
			<path style="fill:#E3E9E7;" d="M265.582,341.677h-54.861c11.513,17.243,8.491,67.244,8.491,67.244h54.861
				C274.073,408.921,277.469,353.564,265.582,341.677z"/>
			<path style="fill:#F2F5F4;" d="M261.691,344.094H206.83c11.513,17.243,8.491,67.244,8.491,67.244h54.861
				C270.183,411.338,273.579,355.981,261.691,344.094z"/>
			<path style="fill:#FFFFFF;" d="M253.938,340.055h-54.861c11.513,17.243,8.491,67.244,8.491,67.244h54.861
				C262.43,407.298,265.825,351.942,253.938,340.055z"/>
			<path style="fill:#E3E9E7;" d="M247.96,338.753h-54.861c11.513,17.243,8.491,67.244,8.491,67.244h54.861
				C256.452,405.996,259.848,350.64,247.96,338.753z"/>
			<path style="fill:#FFFFFF;" d="M252.262,411.264h-54.868c0,0,1.949-32.31-3.26-53.939l15.755-13.305h33.877
				C255.659,355.905,252.262,411.264,252.262,411.264z"/>
			<g>
				<g>
					<path style="fill:#B22900;" d="M296.552,355.016v116.441h-62.189v-81.244l0,0c18.005,0,32.602-14.596,32.602-32.602v-2.595
						H296.552z"/>
					<rect x="296.553" y="355.017" style="fill:#C43F00;" width="33.411" height="116.441"/>
					<rect x="298.534" y="356.824" style="fill:none;stroke:#B22900;stroke-miterlimit:10;" width="29.448" height="112.827"/>
					<g>
						
							<ellipse transform="matrix(0.2286 -0.9735 0.9735 0.2286 -126.0654 596.3362)" style="fill:#FFFFFF;" cx="313.258" cy="377.716" rx="11.834" ry="11.834"/>
						
							<ellipse transform="matrix(0.2288 -0.9735 0.9735 0.2288 -126.1194 596.2275)" style="fill:#311116;" cx="313.258" cy="377.716" rx="9.363" ry="9.363"/>
						<g>
							<rect x="303.896" y="398.904" style="fill:#FFFFFF;" width="18.725" height="55.93"/>
							<rect x="306.904" y="402.167" style="fill:#A0A6A7;" width="12.709" height="5.814"/>
							<g>
								
									<line style="fill:none;stroke:#E3E9E7;stroke-width:2;stroke-miterlimit:10;" x1="307.932" y1="411.26" x2="307.932" y2="450.756"/>
								
									<line style="fill:none;stroke:#E3E9E7;stroke-width:2;stroke-miterlimit:10;" x1="311.483" y1="411.26" x2="311.483" y2="450.756"/>
								
									<line style="fill:none;stroke:#E3E9E7;stroke-width:2;stroke-miterlimit:10;" x1="315.033" y1="411.26" x2="315.033" y2="450.756"/>
								
									<line style="fill:none;stroke:#E3E9E7;stroke-width:2;stroke-miterlimit:10;" x1="318.584" y1="411.26" x2="318.584" y2="450.756"/>
							</g>
						</g>
					</g>
				</g>
				<g>
					<path style="fill:#EAA105;" d="M256.095,355.016v116.441h-62.19v-81.244h0c18.005,0,32.602-14.596,32.602-32.602v-2.595
						H256.095z"/>
					<rect x="256.095" y="355.017" style="fill:#FFB72F;" width="33.411" height="116.441"/>
					<rect x="258.076" y="356.824" style="fill:none;stroke:#EAA105;stroke-miterlimit:10;" width="29.448" height="112.827"/>
					<g>
						
							<ellipse transform="matrix(0.1596 -0.9872 0.9872 0.1596 -143.6114 586.7388)" style="fill:#FFFFFF;" cx="272.801" cy="377.716" rx="11.834" ry="11.833"/>
						
							<ellipse transform="matrix(0.923 -0.3849 0.3849 0.923 -124.3598 134.091)" style="fill:#311116;" cx="272.801" cy="377.716" rx="9.363" ry="9.363"/>
						<g>
							<rect x="263.438" y="398.904" style="fill:#FFFFFF;" width="18.725" height="55.93"/>
							<rect x="266.446" y="402.167" style="fill:#A0A6A7;" width="12.709" height="5.814"/>
							<g>
								
									<line style="fill:none;stroke:#E3E9E7;stroke-width:2;stroke-miterlimit:10;" x1="267.475" y1="411.26" x2="267.475" y2="450.756"/>
								
									<line style="fill:none;stroke:#E3E9E7;stroke-width:2;stroke-miterlimit:10;" x1="271.025" y1="411.26" x2="271.025" y2="450.756"/>
								
									<line style="fill:none;stroke:#E3E9E7;stroke-width:2;stroke-miterlimit:10;" x1="274.576" y1="411.26" x2="274.576" y2="450.756"/>
								
									<line style="fill:none;stroke:#E3E9E7;stroke-width:2;stroke-miterlimit:10;" x1="278.126" y1="411.26" x2="278.126" y2="450.756"/>
							</g>
						</g>
					</g>
				</g>
			</g>
		</g>
		<g>
			
				<ellipse transform="matrix(0.7071 -0.7071 0.7071 0.7071 32.7366 194.4969)" style="fill:#C43F00;" cx="251.147" cy="57.732" rx="19.447" ry="19.447"/>
			<g>
				
					<line style="fill:none;stroke:#FFFFFF;stroke-width:2;stroke-miterlimit:10;" x1="251.147" y1="48.796" x2="251.147" y2="66.667"/>
				
					<line style="fill:none;stroke:#FFFFFF;stroke-width:2;stroke-miterlimit:10;" x1="242.211" y1="57.732" x2="260.082" y2="57.732"/>
			</g>
		</g>
		<g>
			<path style="fill:#D7E0DD;" d="M458.7,162.195l-15.52,15.52c-2.671,2.671-7.239,0.779-7.239-2.998v-31.041
				c0-3.778,4.567-5.67,7.239-2.998l15.52,15.52C460.356,157.854,460.356,160.539,458.7,162.195z"/>
			<path style="fill:#D7E0DD;" d="M41.574,156.198l15.52-15.52c2.671-2.671,7.239-0.779,7.239,2.998v31.041
				c0,3.778-4.567,5.669-7.239,2.998l-15.52-15.52C39.918,160.539,39.918,157.854,41.574,156.198z"/>
		</g>
		<g>
			<g>
				<path style="fill:#FFFFFF;" d="M293.185,122.41h-86.096c-5.946,0-10.767,4.821-10.767,10.767v161.037
					c0,5.946,4.82,10.767,10.767,10.767h86.096c5.946,0,10.767-4.82,10.767-10.767V133.176
					C303.952,127.23,299.131,122.41,293.185,122.41z"/>
				<g>
					<path style="fill:#E3E9E7;" d="M213.437,296.867c-0.665,0-1.217-0.075-1.656-0.225s-0.773-0.38-1.002-0.691
						c-0.229-0.316-0.376-0.681-0.441-1.096c-0.033-0.218-0.049-0.458-0.049-0.72c0-0.245,0.014-0.51,0.041-0.793l0.024-0.245h2.837
						c-0.044,0.294-0.065,0.545-0.065,0.752c0,0.147,0.011,0.275,0.033,0.384c0.055,0.24,0.237,0.362,0.548,0.368
						c0.327,0,0.54-0.145,0.638-0.433c0.098-0.289,0.207-0.987,0.327-2.093c0.005-0.055,0.011-0.095,0.016-0.123l0.106-0.997
						c-0.153,0.218-0.376,0.387-0.671,0.507c-0.294,0.12-0.619,0.185-0.973,0.196c-0.044,0-0.087,0-0.131,0
						c-0.365-0.005-0.689-0.068-0.973-0.188c-0.316-0.142-0.571-0.339-0.764-0.593c-0.194-0.253-0.35-0.555-0.47-0.904
						c-0.12-0.349-0.185-0.725-0.196-1.128c-0.005-0.098-0.008-0.199-0.008-0.302c0-0.311,0.014-0.632,0.041-0.965
						c0.158-1.532,0.574-2.695,1.247-3.491c0.673-0.796,1.68-1.194,3.021-1.194c1.325,0.005,2.259,0.379,2.805,1.12
						c0.425,0.583,0.638,1.357,0.638,2.322c0,0.262-0.016,0.537-0.049,0.826l-0.54,5.167c-0.06,0.561-0.146,1.06-0.257,1.496
						c-0.112,0.436-0.277,0.85-0.495,1.243c-0.218,0.392-0.482,0.717-0.793,0.973c-0.311,0.256-0.701,0.458-1.169,0.605
						C214.587,296.793,214.048,296.867,213.437,296.867z M214.279,289.345c0.294,0,0.537-0.155,0.728-0.466l0.237-2.24
						c0.027-0.349,0.041-0.613,0.041-0.793c0-0.213-0.046-0.39-0.139-0.531c-0.098-0.147-0.251-0.221-0.458-0.221
						c-0.104,0-0.195,0.018-0.274,0.053c-0.079,0.035-0.148,0.099-0.208,0.192c-0.06,0.093-0.11,0.189-0.151,0.29
						c-0.041,0.101-0.079,0.249-0.114,0.446c-0.036,0.196-0.064,0.382-0.086,0.556c-0.022,0.174-0.049,0.411-0.082,0.711
						c-0.049,0.496-0.074,0.88-0.074,1.153c0,0.163,0.008,0.289,0.025,0.376C213.789,289.186,213.974,289.345,214.279,289.345z"/>
					<path style="fill:#E3E9E7;" d="M222.113,296.932c-0.589,0-1.098-0.069-1.529-0.208s-0.775-0.338-1.034-0.597
						c-0.259-0.259-0.462-0.572-0.609-0.94c-0.147-0.368-0.232-0.778-0.253-1.23c-0.006-0.125-0.006-0.256,0-0.392
						c0-0.343,0.016-0.703,0.049-1.079l0.057-0.482h3.042c0,0.005-0.01,0.093-0.029,0.262c-0.019,0.169-0.029,0.256-0.029,0.262
						c-0.033,0.3-0.049,0.561-0.049,0.785c0,0.289,0.027,0.51,0.082,0.662c0.093,0.262,0.3,0.393,0.622,0.393
						c0.3,0,0.514-0.121,0.642-0.364c0.128-0.242,0.225-0.666,0.29-1.271c0.027-0.234,0.041-0.447,0.041-0.638
						c0-0.382-0.052-0.676-0.155-0.883c-0.153-0.305-0.496-0.458-1.03-0.458h-0.564l0.213-1.962h0.507
						c0.556,0,0.943-0.151,1.161-0.454c0.218-0.303,0.365-0.808,0.441-1.517c0.022-0.191,0.033-0.362,0.033-0.515
						c0-0.272-0.033-0.488-0.098-0.646c-0.098-0.245-0.302-0.368-0.613-0.368c-0.294,0-0.507,0.129-0.638,0.388
						c-0.131,0.259-0.226,0.645-0.286,1.157c-0.055,0.534-0.082,0.804-0.082,0.81h-3.042l0.09-0.916
						c0.131-1.237,0.568-2.191,1.312-2.862c0.744-0.671,1.705-1.006,2.882-1.006c1.215,0,2.129,0.316,2.739,0.948
						c0.507,0.523,0.76,1.251,0.76,2.183c0,0.191-0.011,0.39-0.033,0.597c-0.082,0.763-0.305,1.421-0.671,1.975
						c-0.365,0.553-0.777,0.887-1.235,1.002c0.48,0.191,0.834,0.521,1.063,0.989c0.163,0.338,0.245,0.788,0.245,1.349
						c0,0.224-0.014,0.466-0.041,0.728c-0.065,0.643-0.195,1.22-0.388,1.729c-0.193,0.51-0.456,0.961-0.789,1.353
						c-0.333,0.393-0.759,0.694-1.28,0.904C223.387,296.827,222.789,296.932,222.113,296.932z"/>
					<path style="fill:#E3E9E7;" d="M230.625,290.922c-1.188,0-2.006-0.297-2.453-0.891c-0.338-0.453-0.507-1.109-0.507-1.971
						c0-0.262,0.016-0.545,0.049-0.85l0.049-0.499c0.142-1.308,0.487-2.239,1.034-2.792c0.548-0.553,1.43-0.83,2.645-0.83
						c1.21-0.005,2.039,0.27,2.486,0.826c0.338,0.425,0.51,1.068,0.515,1.93c0,0.262-0.016,0.545-0.049,0.85l-0.057,0.515
						c-0.131,1.286-0.484,2.227-1.059,2.821C232.704,290.625,231.819,290.922,230.625,290.922z M230.813,289.083
						c0.174,0,0.322-0.03,0.441-0.09c0.12-0.06,0.217-0.134,0.29-0.221c0.074-0.087,0.136-0.226,0.188-0.417s0.09-0.373,0.115-0.548
						c0.025-0.174,0.053-0.42,0.086-0.736l0.033-0.245c0.06-0.469,0.09-0.839,0.09-1.112c0-0.273-0.06-0.469-0.18-0.589
						c-0.12-0.12-0.327-0.18-0.621-0.18c-0.18,0-0.328,0.025-0.446,0.074c-0.117,0.049-0.213,0.11-0.286,0.184
						s-0.135,0.2-0.184,0.38c-0.049,0.18-0.084,0.349-0.106,0.507c-0.022,0.158-0.049,0.398-0.082,0.72l-0.033,0.262
						c-0.055,0.474-0.082,0.853-0.082,1.136c0,0.289,0.06,0.507,0.18,0.654C230.336,289.009,230.535,289.083,230.813,289.083z
						 M231.68,296.654l5.691-13.557h1.513l-5.691,13.557H231.68z M239.137,296.662c-1.183,0.005-1.998-0.292-2.445-0.891
						c-0.338-0.458-0.51-1.117-0.515-1.979c0-0.262,0.016-0.545,0.049-0.85l0.049-0.491c0.142-1.308,0.486-2.239,1.034-2.792
						c0.548-0.553,1.43-0.83,2.645-0.83c1.215-0.005,2.047,0.27,2.494,0.826c0.338,0.425,0.507,1.068,0.507,1.93
						c0,0.262-0.016,0.545-0.049,0.85l-0.057,0.515c-0.131,1.286-0.484,2.227-1.059,2.821
						C241.215,296.365,240.331,296.662,239.137,296.662z M239.325,294.823c0.142,0,0.266-0.016,0.372-0.049
						c0.106-0.033,0.198-0.091,0.274-0.176s0.139-0.174,0.188-0.27s0.091-0.23,0.127-0.405c0.035-0.174,0.064-0.338,0.086-0.49
						c0.022-0.153,0.046-0.36,0.074-0.621l0.033-0.245c0.054-0.48,0.082-0.85,0.082-1.112c0.005-0.273-0.052-0.469-0.172-0.589
						c-0.12-0.12-0.327-0.18-0.621-0.18c-0.114,0-0.215,0.007-0.302,0.02c-0.087,0.014-0.165,0.042-0.233,0.086
						c-0.068,0.044-0.125,0.085-0.172,0.123c-0.046,0.038-0.09,0.105-0.131,0.2c-0.041,0.095-0.072,0.179-0.094,0.249
						c-0.022,0.071-0.044,0.181-0.065,0.331c-0.022,0.15-0.039,0.278-0.053,0.384c-0.014,0.106-0.031,0.263-0.053,0.47l-0.033,0.262
						c-0.055,0.474-0.082,0.853-0.082,1.137c0,0.289,0.06,0.507,0.18,0.654C238.848,294.749,239.047,294.823,239.325,294.823z"/>
				</g>
				<g>
					
						<line style="fill:none;stroke:#E3E9E7;stroke-width:5;stroke-linecap:round;stroke-linejoin:round;stroke-miterlimit:10;" x1="214.964" y1="233.199" x2="285.31" y2="233.199"/>
					
						<line style="fill:none;stroke:#E3E9E7;stroke-width:5;stroke-linecap:round;stroke-linejoin:round;stroke-miterlimit:10;" x1="214.964" y1="244.799" x2="285.31" y2="244.799"/>
					
						<line style="fill:none;stroke:#E3E9E7;stroke-width:5;stroke-linecap:round;stroke-linejoin:round;stroke-miterlimit:10;" x1="214.964" y1="256.4" x2="285.31" y2="256.4"/>
					
						<line style="fill:none;stroke:#E3E9E7;stroke-width:5;stroke-linecap:round;stroke-linejoin:round;stroke-miterlimit:10;" x1="232.989" y1="267.818" x2="267.285" y2="267.818"/>
					
						<line style="fill:none;stroke:#E3E9E7;stroke-width:5;stroke-linecap:round;stroke-linejoin:round;stroke-miterlimit:10;" x1="214.964" y1="132.572" x2="285.31" y2="132.572"/>
				</g>
				<polygon style="fill:#FFB72F;" points="289.589,282.325 277.771,282.325 277.771,296.605 283.68,293.501 289.589,296.605 				
					"/>
				<line style="fill:none;stroke:#F2F5F4;stroke-miterlimit:10;" x1="293.98" y1="276.371" x2="206.293" y2="276.371"/>
				<g>
					
						<ellipse transform="matrix(0.0978 -0.9952 0.9952 0.0978 51.4248 414.8895)" style="fill:#E3E9E7;" cx="254.552" cy="179.081" rx="36.197" ry="36.197"/>
					<g>
						<defs>
							
								<ellipse id="SVGID_1_" transform="matrix(0.0978 -0.9952 0.9952 0.0978 51.4248 414.8895)" cx="254.552" cy="179.081" rx="36.197" ry="36.197"/>
						</defs>
						<clipPath id="SVGID_00000160166882883434511560000014836227735747350719_">
							<use xlink:href="#SVGID_1_"  style="overflow:visible;"/>
						</clipPath>
						<path style="clip-path:url(#SVGID_00000160166882883434511560000014836227735747350719_);" d="M255.268,200.231
							c1.05-12.372,2.1-24.744,3.149-37.117l7.589,1.199c-0.31,3.395,0.09,6.852,1.165,10.087c0.815,2.449,2.005,4.753,3.083,7.099
							c1.078,2.346,2.056,4.773,2.405,7.331c0.349,2.558,0.021,5.282-1.358,7.464c-1.38,2.182-3.924,3.708-6.493,3.457"/>
						<g style="clip-path:url(#SVGID_00000160166882883434511560000014836227735747350719_);">
							<path style="fill:#FFB72F;" d="M269.338,187.367c10.119,5.027,13.372,30.659,13.372,30.659l-19.062,2.856L269.338,187.367z"
								/>
							<path style="fill:#FFB72F;" d="M269.338,187.37l-0.431,7.067l-0.845,13.808l-0.122,2.004l-0.39,6.35l-0.489,7.982h-26.52
								l-0.023-0.239l-2.983-34.77l-0.186-2.202l7.743-2.068l15.891-1.295l4.897,1.54c0,0.006,0,0.006,0,0.006L269.338,187.37z"/>
							<g>
								<g>
									<g>
										<g>
											<path style="fill:#FFB72F;" d="M230.628,194.677c-0.615,5.549-1.542,23.616-0.262,38.221l11.307-4.443
												c8.479-36.175-0.18-42.194-0.18-42.194S231.491,186.889,230.628,194.677z"/>
										</g>
									</g>
								</g>
							</g>
							<path style="fill:#A87259;" d="M241.493,186.261l19.488-2.255l4.898,1.538c0,0.005,0,0.005,0,0.005
								C266.403,200.024,247.392,197.634,241.493,186.261z"/>
							<g>
								<g>
									<g>
										<g>
											<path style="fill:#A87259;" d="M256.93,188.804l-5.692-0.011c-2.084-0.004-3.77-1.696-3.766-3.78l0.025-11.277
												l13.501,0.025l-0.024,11.012C260.969,187.003,259.159,188.808,256.93,188.804z"/>
										</g>
									</g>
								</g>
								<g>
									<g>
										<g>
											<path style="fill:#A87259;" d="M257.141,151.858L257.141,151.858c6.534-0.678,12.382,4.069,13.06,10.604l0.405,3.9
												c0.627,6.039-3.761,11.443-9.8,12.07l-10.868,1.128c-1.027,0.107-1.947-0.64-2.053-1.667l-1.347-12.975
												C245.859,158.383,250.606,152.536,257.141,151.858z"/>
										</g>
									</g>
								</g>
								<g>
									<g>
										<g>
											<path d="M247.688,168.901c0,0,14.101-2.347,14.34-17.412c-3.443-0.657-7.527-0.116-7.527-0.116
												S243.947,161.094,247.688,168.901z"/>
										</g>
									</g>
								</g>
								<path d="M254.501,151.373c-10.028,0.033-16.233,2.165-15.98,20.681c0.054,3.92-1.751,7.535-4.713,10.104
									c-3.257,2.826-4.571,7.484-2.991,10.903c3.487-6.174,20.103,0.109,18.934-9.691c-1.169-9.8-1.488-15.728-1.488-15.728
									L254.501,151.373z"/>
								<g>
									<g>
										<g>
											<path style="fill:#A87259;" d="M251.202,169.579c-2.873-5.415-5.473-5.788-7.572-4.69
												c-3.846,2.012-2.168,11.179,4.953,9.235L251.202,169.579z"/>
										</g>
									</g>
								</g>
								<g>
									<g>
										<g>
											<path d="M254.501,151.927c0,0,12.067-1.093,15.856,12.036C270.482,151.278,263.13,150.647,254.501,151.927z"/>
										</g>
									</g>
								</g>
								<g>
									<g>
										<g>
											<path style="fill:none;stroke:#E49100;stroke-miterlimit:10;" d="M244.445,173.401"/>
										</g>
									</g>
								</g>
							</g>
						</g>
					</g>
				</g>
			</g>
			<g>
				<path style="fill:#FFFFFF;" d="M206.949,111.589h86.375c5.409,0,9.794-4.385,9.794-9.795l0,0c0-5.409-4.385-9.794-9.794-9.794
					h-86.375c-5.409,0-9.794,4.385-9.794,9.794l0,0C197.155,107.204,201.54,111.589,206.949,111.589z"/>
				<g>
					<polygon style="fill:#FFB72F;" points="216.384,96.39 218.14,99.948 222.067,100.519 219.225,103.288 219.896,107.199 
						216.384,105.353 212.872,107.199 213.543,103.288 210.702,100.519 214.628,99.948 					"/>
					<polygon style="fill:#FFB72F;" points="233.261,96.39 235.017,99.948 238.943,100.519 236.102,103.288 236.772,107.199 
						233.261,105.353 229.749,107.199 230.419,103.288 227.578,100.519 231.505,99.948 					"/>
					<polygon style="fill:#FFB72F;" points="250.137,96.39 251.893,99.948 255.819,100.519 252.978,103.288 253.649,107.199 
						250.137,105.353 246.625,107.199 247.296,103.288 244.454,100.519 248.381,99.948 					"/>
					<polygon style="fill:#FFB72F;" points="267.013,96.39 268.769,99.948 272.695,100.519 269.854,103.288 270.525,107.199 
						267.013,105.353 263.501,107.199 264.172,103.288 261.331,100.519 265.257,99.948 					"/>
					<polygon style="fill:#E3E9E7;" points="283.889,96.39 285.645,99.948 289.572,100.519 286.731,103.288 287.401,107.199 
						283.889,105.353 280.378,107.199 281.048,103.288 278.207,100.519 282.133,99.948 					"/>
					<polygon style="fill:#FFB72F;" points="283.184,97.816 283.184,105.724 280.38,107.194 281.052,103.287 278.206,100.515 
						282.133,99.948 					"/>
				</g>
			</g>
		</g>
		<g>
			<g>
				<path style="fill:#FFFFFF;" d="M174.159,83.939H88.063c-5.946,0-10.767,4.82-10.767,10.767v134.587
					c0,5.946,4.821,10.767,10.767,10.767h86.096c5.946,0,10.767-4.82,10.767-10.767V94.705
					C184.926,88.759,180.105,83.939,174.159,83.939z"/>
				<g>
					
						<line style="fill:none;stroke:#E3E9E7;stroke-width:5;stroke-linecap:round;stroke-linejoin:round;stroke-miterlimit:10;" x1="95.938" y1="197.107" x2="166.284" y2="197.107"/>
					
						<line style="fill:none;stroke:#E3E9E7;stroke-width:5;stroke-linecap:round;stroke-linejoin:round;stroke-miterlimit:10;" x1="95.938" y1="208.707" x2="166.284" y2="208.707"/>
					
						<line style="fill:none;stroke:#E3E9E7;stroke-width:5;stroke-linecap:round;stroke-linejoin:round;stroke-miterlimit:10;" x1="95.938" y1="220.308" x2="166.284" y2="220.308"/>
					
						<line style="fill:none;stroke:#E3E9E7;stroke-width:5;stroke-linecap:round;stroke-linejoin:round;stroke-miterlimit:10;" x1="113.963" y1="231.726" x2="148.259" y2="231.726"/>
					
						<line style="fill:none;stroke:#E3E9E7;stroke-width:5;stroke-linecap:round;stroke-linejoin:round;stroke-miterlimit:10;" x1="95.938" y1="96.48" x2="166.284" y2="96.48"/>
				</g>
				<g>
					<circle style="fill:#E3E9E7;" cx="131.111" cy="144.293" r="36.197"/>
					<g>
						<defs>
							<circle id="SVGID_00000049930321529590508810000005829197830299463348_" cx="131.111" cy="144.293" r="36.197"/>
						</defs>
						<clipPath id="SVGID_00000101068609626745853120000009127494437534224805_">
							<use xlink:href="#SVGID_00000049930321529590508810000005829197830299463348_"  style="overflow:visible;"/>
						</clipPath>
						<g style="clip-path:url(#SVGID_00000101068609626745853120000009127494437534224805_);">
							<path style="fill:#A0A6A7;" d="M139.899,138.958c2.141-1.277,4.956-2.068,7.057-0.726c2.215,1.414,2.582,4.439,2.76,7.061
								c0.178,2.622,0.646,5.662,2.934,6.956c1.517,0.858,3.384,0.655,5.102,0.95c4.892,0.842,8.278,6.184,7.641,11.107
								c-0.637,4.923-4.694,9.009-9.443,10.456c-4.749,1.447-9.999,0.524-14.43-1.714c-4.431-2.238-8.132-5.698-11.413-9.423
								c-2.938-3.335-5.631-6.987-7.132-11.171c-1.215-3.386-3.044-11.23,2.696-10.824c2.455,0.174,4.546,1.543,7.077,1.135
								C135.482,142.323,137.599,140.33,139.899,138.958z"/>
							<path style="fill:#D9D8D4;" d="M145.897,152.58c10.119,5.027,13.372,30.659,13.372,30.659l-19.062,2.856L145.897,152.58z"/>
							<path style="fill:#A0A6A7;" d="M111.533,135.454c-1.55,0.673-3.069,1.816-3.439,3.465c-0.637,2.84,2.371,5.505,1.875,8.373
								c-0.365,2.109-2.547,3.46-4.66,3.796c-2.114,0.336-4.271-0.06-6.41-0.004c-2.139,0.056-4.475,0.715-5.622,2.523
								c-1.335,2.104-0.561,4.884,0.525,7.127c1.086,2.243,2.487,4.524,2.304,7.009c-0.206,2.793-2.396,5.158-2.541,7.955
								c-0.182,3.503,2.887,6.344,6.063,7.831c4.205,1.969,9.06,2.519,13.599,1.538c4.539-0.98,8.734-3.484,11.752-7.013
								c3.781-4.422,5.615-10.242,6.172-16.033c0.557-5.791-0.07-11.623-0.697-17.407c-0.34-3.137-0.68-6.274-1.02-9.411
								c-0.283-2.608-0.014-6.344-1.413-8.642c-2.478-4.069-8.346,0.821-8.346,0.821
								C120.78,134.404,114.613,134.117,111.533,135.454z"/>
							<path style="fill:#D9D8D4;" d="M145.896,152.582l-0.431,7.067l-0.845,13.808l-0.122,2.004l-0.39,6.35l-0.49,7.982h-26.52
								l-0.023-0.239l-2.983-34.77l-0.186-2.202l7.743-2.068l13.476-3.606l7.312,3.851c0,0.006,0,0.006,0,0.006L145.896,152.582z"/>
							<path style="fill:#FFFFFF;" d="M121.65,150.512l13.476-3.604l7.312,3.849c0,0.005,0,0.005,0,0.005
								C142.962,165.237,127.55,161.885,121.65,150.512z"/>
							<g>
								<g>
									<g>
										<g>
											<path style="fill:#FFFFFF;" d="M133.488,154.017l-5.692-0.011c-2.084-0.004-3.77-1.696-3.766-3.78l0.024-11.277
												l13.501,0.025l-0.024,11.012C137.528,152.216,135.718,154.02,133.488,154.017z"/>
										</g>
									</g>
								</g>
								<g>
									<g>
										<g>
											<path style="fill:#FFFFFF;" d="M137.541,147.212l-0.002,2.007c-5.737,0.593-12.065-3.233-10.299-12.342l0,0l10.318,0.017
												L137.541,147.212z"/>
										</g>
									</g>
								</g>
								<g>
									<g>
										<g>
											<path style="fill:#FFFFFF;" d="M133.7,117.07L133.7,117.07c6.535-0.678,12.382,4.069,13.06,10.604l0.405,3.9
												c0.627,6.039-3.76,11.443-9.8,12.07l-10.868,1.128c-1.027,0.107-1.947-0.64-2.053-1.667l-1.347-12.975
												C122.418,123.596,127.165,117.749,133.7,117.07z"/>
										</g>
									</g>
								</g>
								<g>
									<g>
										<g>
											<path style="fill:#A0A6A7;" d="M124.929,133.688c0,0,7.138-6.064,10.456-16.671
												C116.878,115.544,116.679,132.104,124.929,133.688z"/>
										</g>
									</g>
								</g>
								<g>
									<g>
										<g>
											<path style="fill:#FFFFFF;" d="M127.761,134.792c-2.873-5.416-5.473-5.788-7.572-4.69
												c-3.846,2.012-2.168,11.179,4.953,9.235L127.761,134.792z"/>
										</g>
									</g>
								</g>
								<g>
									<g>
										<g>
											<path style="fill:#A0A6A7;" d="M131.111,117.007c0,0,12.016-0.96,15.805,12.169
												C147.026,117.969,139.755,115.725,131.111,117.007z"/>
										</g>
									</g>
								</g>
								<g>
									<g>
										<g>
											<path style="fill:none;stroke:#E49100;stroke-miterlimit:10;" d="M121.004,138.613"/>
										</g>
									</g>
								</g>
							</g>
							<g>
								<g>
									<g>
										<g>
											<path style="fill:#D9D8D4;" d="M107.187,159.89c-0.615,5.549-1.543,23.616-0.262,38.221l11.307-4.444
												c8.479-36.175-0.181-42.194-0.181-42.194S108.05,152.101,107.187,159.89z"/>
										</g>
									</g>
								</g>
							</g>
						</g>
					</g>
				</g>
			</g>
			<g>
				<path style="fill:#FFFFFF;" d="M87.923,77.321h86.375c5.409,0,9.794-4.385,9.794-9.795l0,0c0-5.409-4.385-9.794-9.794-9.794
					H87.923c-5.409,0-9.794,4.385-9.794,9.794l0,0C78.129,72.936,82.514,77.321,87.923,77.321z"/>
				<g>
					<polygon style="fill:#FFB72F;" points="97.358,62.122 99.114,65.68 103.041,66.251 100.2,69.02 100.87,72.931 97.358,71.084 
						93.846,72.931 94.517,69.02 91.676,66.251 95.602,65.68 					"/>
					<polygon style="fill:#FFB72F;" points="114.235,62.122 115.991,65.68 119.917,66.251 117.076,69.02 117.746,72.931 
						114.235,71.084 110.723,72.931 111.393,69.02 108.552,66.251 112.479,65.68 					"/>
					<polygon style="fill:#E3E9E7;" points="131.111,62.122 132.867,65.68 136.793,66.251 133.952,69.02 134.623,72.931 
						131.111,71.084 127.599,72.931 128.27,69.02 125.428,66.251 129.355,65.68 					"/>
					<polygon style="fill:#E3E9E7;" points="147.987,62.122 149.743,65.68 153.67,66.251 150.828,69.02 151.499,72.931 
						147.987,71.084 144.475,72.931 145.146,69.02 142.305,66.251 146.231,65.68 					"/>
					<polygon style="fill:#E3E9E7;" points="164.863,62.122 166.619,65.68 170.546,66.251 167.705,69.02 168.375,72.931 
						164.863,71.084 161.352,72.931 162.022,69.02 159.181,66.251 163.107,65.68 					"/>
				</g>
			</g>
		</g>
		<g>
			<g>
				<path style="fill:#FFFFFF;" d="M416.484,83.939h-86.096c-5.946,0-10.767,4.82-10.767,10.767v134.587
					c0,5.946,4.82,10.767,10.767,10.767h86.096c5.946,0,10.767-4.82,10.767-10.767V94.705
					C427.251,88.759,422.43,83.939,416.484,83.939z"/>
				<g>
					
						<line style="fill:none;stroke:#E3E9E7;stroke-width:5;stroke-linecap:round;stroke-linejoin:round;stroke-miterlimit:10;" x1="338.263" y1="197.107" x2="408.609" y2="197.107"/>
					
						<line style="fill:none;stroke:#E3E9E7;stroke-width:5;stroke-linecap:round;stroke-linejoin:round;stroke-miterlimit:10;" x1="338.263" y1="208.707" x2="408.609" y2="208.707"/>
					
						<line style="fill:none;stroke:#E3E9E7;stroke-width:5;stroke-linecap:round;stroke-linejoin:round;stroke-miterlimit:10;" x1="338.263" y1="220.308" x2="408.609" y2="220.308"/>
					
						<line style="fill:none;stroke:#E3E9E7;stroke-width:5;stroke-linecap:round;stroke-linejoin:round;stroke-miterlimit:10;" x1="356.288" y1="231.726" x2="390.584" y2="231.726"/>
					
						<line style="fill:none;stroke:#E3E9E7;stroke-width:5;stroke-linecap:round;stroke-linejoin:round;stroke-miterlimit:10;" x1="338.263" y1="96.48" x2="408.609" y2="96.48"/>
				</g>
				<g>
					
						<ellipse transform="matrix(0.1611 -0.9869 0.9869 0.1611 170.8706 489.6081)" style="fill:#E3E9E7;" cx="373.436" cy="144.293" rx="36.197" ry="36.197"/>
					<g>
						<defs>
							
								<ellipse id="SVGID_00000029029246815520342640000013466699772307564451_" transform="matrix(0.1611 -0.9869 0.9869 0.1611 170.8706 489.6081)" cx="373.436" cy="144.293" rx="36.197" ry="36.197"/>
						</defs>
						<clipPath id="SVGID_00000088847542226215775330000004114584170750201021_">
							<use xlink:href="#SVGID_00000029029246815520342640000013466699772307564451_"  style="overflow:visible;"/>
						</clipPath>
						<g style="clip-path:url(#SVGID_00000088847542226215775330000004114584170750201021_);">
							<path style="fill:#A0A6A7;" d="M364.484,158.523l8.03,2.505c-0.013,0.238-0.145,2.604-0.516,5.862
								c-0.548,4.791-1.606,11.492-3.536,16.184c-0.436,1.051-1.328,2.452-2.584,3.985L353.2,175.985
								c1.619-2.551,3.836-7.126,4.636-10.78c0.291-1.348,1.527-3.344,3.265-4.837c0.859-0.747,1.844-1.368,2.901-1.718
								c0.04-0.02,0.092-0.04,0.132-0.046c0.106-0.027,0.205-0.06,0.304-0.092L364.484,158.523z"/>
							<g>
								<path style="fill:#A0A6A7;" d="M395.518,167.868c0,0.04-0.007,0.079-0.013,0.112c-0.423,3.014-1.038,6.047-1.811,8.981
									c-1.375,5.194-3.271,10.098-5.558,14.096c-0.899,1.566-1.857,3-2.868,4.256c-0.159,0.192-0.317,0.383-0.476,0.568
									l-0.872-0.958l-0.198-0.218l-18.498,3.594l-2.966-27.087l-1.216-1.328c-0.516-1.89-0.833-3.364-0.998-4.56
									c-0.211-1.626,0.218-3.212,1.117-4.467c0.277-0.39,0.601-0.753,0.965-1.071c0.046-0.04,0.099-0.086,0.145-0.126
									c0.621-0.516,1.355-0.912,2.168-1.15c0.02-0.007,0.033-0.007,0.053-0.013c6.311-1.85,17.48-3.767,21.346-4.388
									c0.205-0.033,0.383-0.066,0.548-0.092c0.496-0.079,0.786-0.126,0.813-0.126c2.372-0.218,4.163,0.132,5.485,0.952
									c1.883,1.156,2.809,3.251,3.106,5.941C396.021,162.845,395.882,165.257,395.518,167.868z"/>
							</g>
							<path style="fill:#A0A6A7;" d="M357.202,134.657c-3.378-7.169,1.39-18.015,16.397-11.507L357.202,134.657z"/>
							<path style="fill:#FFFFFF;" d="M365.101,158.654c0.646,8.368,16.408,4.896,18.018-3.749l-8.796,0.01L365.101,158.654z"/>
							<path style="fill:#A0A6A7;" d="M374.647,143.399c2.735,7.334,10.738,3.654,10.741-8.584c0.003-11.267-8.699-16.98-25.5-5.607
								L374.647,143.399z"/>
							<polygon style="fill:#FFFFFF;" points="367.492,159.951 381.73,157.129 378.317,138.098 364.079,140.92 							"/>
							<path style="fill:#FFFFFF;" d="M366.832,156.273l3.289-0.59c3.004-0.539,5.003-3.411,4.464-6.415l-1.778-9.914l-8.728,1.565
								L366.832,156.273z"/>
							<g>
								<g>
									<g>
										<path style="fill:#FFFFFF;" d="M379.543,136.713v15.114h-14.559c-4.745,0-8.671-3.45-9.411-7.983
											c-0.086-0.509-0.132-1.031-0.132-1.56v-5.571c0-0.581,0.04-1.15,0.126-1.705c0.159-1.143,0.482-2.227,0.952-3.245
											c1.883-4.183,6.086-7.098,10.977-7.098c0.304,0,0.615,0.013,0.906,0.033c4.494,0.337,8.3,3.139,10.078,7.064
											c0.449,1.018,0.773,2.102,0.932,3.245C379.503,135.563,379.543,136.132,379.543,136.713z"/>
									</g>
								</g>
							</g>
							<g>
								<path style="fill:#A0A6A7;" d="M364.079,123.012c1.327,8.161,11.927,6.832,11.927,6.832s-1.611,6.077,1.074,9.987
									l6.04-3.588l-3.325-9.689L364.079,123.012z"/>
								<g>
									<g>
										<path style="fill:#FFFFFF;" d="M375.451,140.101c3.219-4.954,5.747-5.09,7.668-3.857c2.389,1.533,2.087,6.318-0.932,8.273
											c-2.64,1.709-6.172-0.151-6.584-3.268L375.451,140.101z"/>
									</g>
								</g>
							</g>
							<path style="fill:#A0A6A7;" d="M404.038,174.295l-14.132,2.87c-5.851-17.882-0.61-23.338-0.61-23.338s2.837,0.28,4.845,1.461
								c3.263,1.909,4.809,4.37,7.079,10.11C402.123,167.685,403.059,170.581,404.038,174.295z"/>
						</g>
					</g>
				</g>
			</g>
			<g>
				<path style="fill:#FFFFFF;" d="M330.249,77.321h86.375c5.409,0,9.794-4.385,9.794-9.795l0,0c0-5.409-4.385-9.794-9.794-9.794
					h-86.375c-5.409,0-9.795,4.385-9.795,9.794l0,0C320.454,72.936,324.839,77.321,330.249,77.321z"/>
				<g>
					<polygon style="fill:#FFB72F;" points="339.684,62.122 341.44,65.68 345.366,66.251 342.525,69.02 343.196,72.931 
						339.684,71.084 336.172,72.931 336.842,69.02 334.001,66.251 337.928,65.68 					"/>
					<polygon style="fill:#FFB72F;" points="356.56,62.122 358.316,65.68 362.242,66.251 359.401,69.02 360.072,72.931 
						356.56,71.084 353.048,72.931 353.719,69.02 350.878,66.251 354.804,65.68 					"/>
					<polygon style="fill:#FFB72F;" points="373.436,62.122 375.192,65.68 379.119,66.251 376.277,69.02 376.948,72.931 
						373.436,71.084 369.924,72.931 370.595,69.02 367.754,66.251 371.68,65.68 					"/>
					<polygon style="fill:#E3E9E7;" points="390.313,62.122 392.068,65.68 395.995,66.251 393.154,69.02 393.824,72.931 
						390.313,71.084 386.8,72.931 387.471,69.02 384.63,66.251 388.556,65.68 					"/>
					<polygon style="fill:#E3E9E7;" points="407.189,62.122 408.945,65.68 412.871,66.251 410.03,69.02 410.701,72.931 
						407.189,71.084 403.677,72.931 404.348,69.02 401.506,66.251 405.433,65.68 					"/>
				</g>
			</g>
		</g>
		<g>
			<g>
				<g>
					<g>
						<path style="fill:#E2A8A1;" d="M366.658,256.082c3.45,0.216,6.515-1.562,8.188-4.296c0.881-1.444,1.376-3.155,1.324-4.98
							c-0.112-4.11-2.949-7.475-6.692-8.478c-0.98-0.263-2.024-0.364-3.098-0.274l-38.822,3.271l-0.053,0.002l-0.252,6.14
							C327.254,247.466,343.892,254.66,366.658,256.082z"/>
					</g>
				</g>
				<path style="fill:#E2A8A1;" d="M319.289,246.014c3.589-4.057,7.226-5.082,12.044-2.598
					C331.333,243.416,325.136,241.299,319.289,246.014z"/>
			</g>
			<g>
				<polygon style="fill:#EDC9C2;" points="309.982,252.756 301.907,231.524 320.661,246.743 314.286,256.802 				"/>
				<path style="fill:#EDC9C2;" d="M312.579,242.01l-10.672-10.482l0.104-0.457c0.411-1.795,0.012-3.676-1.092-5.145
					c-0.175-0.238-0.172-0.557-0.005-0.785c0.026-0.036,0.059-0.067,0.091-0.099c0.888-0.812,2.202-0.863,3.136-0.18
					c0.156,0.114,0.294,0.251,0.429,0.406l0.547,0.749l0.054,0.077c0.939,1.293,1.182,2.959,0.652,4.465l6.541,11.093
					L312.579,242.01z"/>
				<path style="fill:#E2A8A1;" d="M307.73,239.387l-4.191-5.748c0.865-2.903,0.174-4.734-0.931-6.202
					c-0.175-0.238-0.172-0.557-0.005-0.785c0.026-0.036,0.059-0.068,0.091-0.099c0.678-0.626,1.612-0.797,2.423-0.536l0.054,0.077
					c0.939,1.293,1.182,2.959,0.652,4.465l-0.739,3.288L307.73,239.387z"/>
				<path style="fill:#EDC9C2;" d="M305.083,233.845l0.104-0.455c0.411-1.791,0.012-3.673-1.091-5.143l0,0
					c-0.204-0.272-0.168-0.654,0.082-0.884l0,0c1.037-0.951,2.657-0.85,3.568,0.222l0.599,0.827
					c0.937,1.293,1.181,2.962,0.654,4.469l0,0l6.756,11.45L305.083,233.845z"/>
			</g>
			<g>
				<g>
					
						<rect x="294.224" y="208.87" transform="matrix(0.7071 -0.7071 0.7071 0.7071 -69.4072 274.2971)" style="fill:#5E2222;" width="4.357" height="24.12"/>
				</g>
				<path style="fill:#412328;" d="M343.039,266.644l-0.923,0.923c-2.852,2.852-7.475,2.852-10.327,0l-31.661-31.661
					c-2.852-2.852-2.852-7.475,0-10.327l0.923-0.923c2.852-2.852,7.475-2.852,10.327,0l31.661,31.661
					C345.89,259.169,345.89,263.793,343.039,266.644z"/>
				<g>
					<path style="fill:#FFB72F;" d="M220.042,144.571c-19.057,19.057-19.057,49.963,0,69.02c19.064,19.064,49.963,19.057,69.02,0
						c19.064-19.064,19.064-49.956,0-69.02C270.005,125.514,239.106,125.507,220.042,144.571z M286.227,210.755
						c-17.486,17.486-45.848,17.486-63.341-0.008c-17.486-17.486-17.486-45.848,0-63.334c17.493-17.493,45.856-17.493,63.341-0.008
						C303.72,164.899,303.72,193.262,286.227,210.755z"/>
					<path style="opacity:0.5;fill:#FFFFFF;" d="M286.227,147.406c17.493,17.493,17.493,45.856,0,63.349
						c-17.486,17.486-45.848,17.486-63.341-0.008c-17.486-17.486-17.486-45.848,0-63.334
						C240.379,129.92,268.741,129.92,286.227,147.406z"/>
				</g>
			</g>
			<g>
				<g>
					<g>
						<g>
							<path style="fill:#E2A8A1;" d="M418.6,438.381c0,0,12.225,14.626,13.382,24.858c0.702,6.206-8.183,5.895-18.505,5.819
								l-22.993-0.169c-2.6-0.019-3.621-3.397-1.456-4.838c0.934-0.621,2.288-1.059,4.246-1.097c0,0,5.047-4.68,17.014-9.466
								c0,0,1.122-13.988-3.888-22.705L418.6,438.381z"/>
						</g>
						<polygon style="fill:#E2A8A1;" points="429.425,455.088 400.546,378.574 377.652,378.574 410.288,453.488 						"/>
					</g>
				</g>
				<g>
					<polygon style="fill:#EDC9C2;" points="355.898,329.811 348.307,379.968 367.536,379.968 382.244,329.811 					"/>
					<g>
						<g>
							<g>
								<path style="fill:#EDC9C2;" d="M320.267,464.867c-1.623,1.499-0.428,4.236,1.781,4.219
									c5.004-0.037,15.054-0.113,22.216-0.171c2.984-0.02,5.84-0.027,8.355-0.181c0.696-0.04,1.371-0.094,2.007-0.167
									c4.716-0.502,7.753-1.846,7.285-5.499c-0.441-3.405-0.368-6.456-0.087-8.977c0.053-0.515,0.12-1.017,0.194-1.485
									c0.582-3.826,3.344-38.866,3.344-38.866l-18.638,19.054l-1.35,18.708c-11.399,4.756-20.557,11.854-20.557,11.854
									C322.555,463.435,321.142,464.058,320.267,464.867z"/>
							</g>
						</g>
						<polygon style="fill:#EDC9C2;" points="345.259,452.384 344.743,380.801 363.945,379.774 361.824,454.091 						"/>
					</g>
				</g>
				<g>
					<polygon style="fill:#E2A8A1;" points="359.659,210.898 365.33,239.177 380.78,232.04 377.91,205.934 377.845,204.644 					"/>
					<path style="fill:#FFB72F;" d="M394,239.386c-0.261,1.471-0.61,2.919-1.013,4.336c-1.536,5.436-3.954,10.458-6.242,14.478
						c-3.257,5.686-6.286,9.369-6.286,9.369l3.78,4.662c2.505,3.094,1.983,7.647-1.155,10.098l-25.458,0.12l-5.621,0.022
						c-3.203-1.449-4.728-5.12-3.497-8.41l2.647-7.125l0.076-10.61c-0.349-0.174-0.675-0.359-0.991-0.577
						c-5.534-3.595-6.177-11.689-0.948-16.057l14.249-11.231h2.222l26.406,0.022l2.201-0.022
						C394.871,232.12,394.665,235.813,394,239.386z"/>
					<path style="fill:#EAA105;" d="M374.076,246.108c-1.264,4.238-3.105,9.652-5.479,15.251c-2.571,6.024-6.253,14.042-10.97,21.09
						l-5.621,0.022c-3.203-1.449-4.728-5.12-3.497-8.41l2.647-7.125l0.076-10.61c-0.349-0.174-0.675-0.359-0.991-0.577l2.255-3.976
						l4.762-7.44c1.122-2.669,3.992-5.027,6.628-5.681c1.514-0.37,2.626,1.235,4.227,1.725
						C372.753,241.815,375.459,241.434,374.076,246.108z"/>
					<g>
						<path style="fill:#EDC9C2;" d="M340.145,265.337l-23.865-13.587l-6.396,0.823c0,0,8.759,19.012,23.189,29.047
							C342.996,288.519,353.209,273.87,340.145,265.337z"/>
						<path style="fill:#EDC9C2;" d="M319.102,244.947l-0.994,8.962l-5.529-1.126l-3.021-5.722l6.184-4.151
							c0.575-0.386,1.301-0.474,1.952-0.236l0,0C318.63,243.017,319.212,243.955,319.102,244.947z"/>
					</g>
					<path style="fill:#FFB72F;" d="M375.128,246.249c-2.244,3.819-5.318,8.638-8.968,13.499
						c-4.871,6.488-12.157,15.529-20.313,21.702c-5.806,4.394-10.053,4.136-13.059,2.245c-4.922-3.096-5.549-10.066-1.552-14.29
						l21.586-22.809l7.554-10.145c1.736-2.32,4.404-3.574,7.122-3.574c1.558,0,3.133,0.415,4.565,1.27
						C376.229,236.655,377.592,242.049,375.128,246.249z"/>
					<path style="fill:#EAA105;" d="M394,239.386c-4.39,1.329-9.031,1.819-13.595,1.373c-4.337-0.424-18.278-7.195-16.199-11.046
						c0.294-0.545,27.964-1.231,27.964-1.231l2.201-0.022C394.871,232.12,394.665,235.813,394,239.386z"/>
					<g>
						<path style="fill:#EDC9C2;" d="M383.964,193.528l-1.676,6.843l-0.768,3.119l-2.055,8.373c-1.11,4.52-4.481,8.144-8.909,9.576
							l-6.885,2.227c-5.968,1.93-12.149-2.178-12.752-8.421c-0.442-4.581-0.478-9.93,1.226-15.625
							c1.982-6.616,7.238-11.811,13.521-13.916l0.025-0.008l1.103-0.338l0.119-0.031c0.551-0.148,1.118-0.271,1.685-0.368
							c1.346-0.249,2.739-0.362,4.146-0.331l4.466,0.097C381.759,184.824,385.046,189.109,383.964,193.528z"/>
						<path style="fill:#EDC9C2;" d="M351.732,202.197c-0.606,3.264-2.533,4.322-3.958,4.649c-0.915,0.209-1.518,1.081-1.396,2.012
							l0,0c0.161,1.228,1.03,2.247,2.218,2.598l4.203,1.243c2.262,0.255,4.253-1.493,4.292-3.77l0.133-7.716L351.732,202.197z"/>
						<path style="fill:#212121;" d="M352.717,205.329c-0.04,1.654,0.539,3.01,1.293,3.028c0.754,0.018,1.398-1.308,1.438-2.962
							c0.04-1.654-0.539-3.01-1.293-3.028C353.401,202.35,352.757,203.676,352.717,205.329z"/>
						<path d="M355.065,197.648c2.84,1.499,3.73-0.301,1.729-1.776C354.642,194.285,351.531,195.782,355.065,197.648z"/>
						<path style="fill:#FFFFFF;" d="M359.338,213.913c0,0-5.367-0.472-6.094,0.611
							C352.517,215.608,357.781,219.306,359.338,213.913z"/>
						<path d="M364.342,210.342c-6.186-4.18-9.276-12.694-6.466-20.555c0.44-1.221,6.584-4.558,14.172-5.712
							c6.647-1.011,14.562-0.231,18.577,3.547c6.859,6.456-1.366,23.588-1.366,23.588L364.342,210.342z"/>
						<path d="M366.387,215.29c-1.091,8.945-5.024,13.169-5.024,13.169c13.688,10.921,36.061,2.222,37.226-5.557
							c-1.019-11.128-1.499-22.193-6.072-32.454l-25.471,17.909L366.387,215.29z"/>
						<path style="fill:#EDC9C2;" d="M362.263,208.547c4.727-7.334,9.874-2.107,8.284,4.558c-1.591,6.665-7.297,3.662-7.297,3.662
							L362.263,208.547z"/>
						<line style="fill:none;stroke:#E2A8A1;stroke-miterlimit:10;" x1="364.283" y1="214.297" x2="366.446" y2="210.668"/>
					</g>
					<polygon style="fill:#311116;" points="400.024,320.794 400.546,378.574 423.208,438.617 401.319,441.628 377.652,383.005 
						365.365,317.249 					"/>
					<polyline style="fill:none;stroke:#412328;stroke-miterlimit:10;" points="384.565,321.485 393.085,379.5 416.669,439.852 
											"/>
					<g>
						<path style="fill:#412328;" d="M400.024,320.794l-51.139,11.379l2.717-40.813l0.12-1.754l0.283-7.135l27.234-0.131
							l3.845-0.011c0,0,3.66,4.303,7.571,10.534c3.126,5.022,6.427,11.286,8.083,17.539
							C399.24,312.308,399.665,316.034,400.024,320.794z"/>
					</g>
					<path style="fill:#311116;" d="M390.65,292.868l-39.048-1.507l0.119-1.753l0.288-7.139l27.234-0.127l3.845-0.017
						C383.088,282.325,386.746,286.635,390.65,292.868z"/>
					<polygon style="fill:none;stroke:#5A4045;stroke-miterlimit:10;" points="366.603,296.158 382.318,294.982 386.105,309.337 
						379.541,314.98 368.536,310.827 					"/>
				</g>
			</g>
			<path style="fill:#E2A8A1;" d="M321.324,237.542L321.324,237.542c2.353,4.637,9.661,5.97,14.443,4.054
				c-1.429-3.877-6.235-5.855-14.183-6.734L321.324,237.542z"/>
			<polygon style="fill:#412328;" points="349.238,326.873 342.661,374.506 342.439,441.751 364.398,441.751 367.536,379.968 
				387.852,317.249 			"/>
			<polyline style="fill:none;stroke:#5A4045;stroke-miterlimit:10;" points="359.877,282.325 357.225,326.873 350.601,373.744 
				351.069,441.751 			"/>
			<path style="fill:none;stroke:#5A4045;stroke-miterlimit:10;" d="M379.74,283.009c10.341,13.822,16.448,25.586,14.913,38.981"/>
			<path style="fill:#EDC9C2;" d="M318.109,246.178l-0.282,0.117c-0.871,0.362-1.87-0.051-2.232-0.922l-2.099-5.052
				c-0.362-0.871,0.051-1.87,0.922-2.232l0.282-0.117c0.871-0.362,1.871,0.051,2.232,0.922l2.1,5.051
				C319.393,244.816,318.98,245.816,318.109,246.178z"/>
			<path style="fill:#E2A8A1;" d="M329.333,238.638l-0.115,0.283c-0.356,0.874-1.352,1.293-2.226,0.938l-9.288-3.781
				c-0.874-0.356-1.293-1.352-0.938-2.226l0.115-0.283c0.356-0.874,1.352-1.293,2.226-0.938l9.288,3.782
				C329.268,236.768,329.688,237.764,329.333,238.638z"/>
			<g>
				<path style="fill:#5E2222;" d="M363.624,469.086c0.556-9.942-1.8-14.995-1.8-14.995c-5.264,0-9.12,3.414-11.717,6.983h-13.085
					c-0.342-2.382-0.273-4.698,0.839-5.986c0,0-18.345,5.69-20.366,13.998v2.372h46.215v-2.372H363.624z"/>
				<path style="fill:#5E2222;" d="M433.511,469.086h0.012c0-9.069-4.472-14.995-4.472-14.995c-5.263,0-8.512,3.414-10.473,6.983
					h-11.892c-0.767-2.382-1.11-4.698-0.228-5.986c0,0-19.941,5.69-20.482,13.998l0.029,2.372h47.535L433.511,469.086z"/>
			</g>
		</g>
		<g>
			<g>
				<g>
					<g>
						<polygon style="fill:#FFFFFF;" points="81.748,453.29 105.114,454.341 109.148,422.574 85.822,423.977 						"/>
						<g>
							<path d="M77.193,472.37h53.067l-0.466-4.737c-0.157-1.545-0.559-2.98-1.177-4.277c-1.308-2.759-3.597-4.884-6.588-6.015
								l-1.339-0.506c-1.313-0.497-2.509-1.15-3.581-1.941c-0.922-0.681-1.75-1.453-2.464-2.327
								c-1.563-1.876-2.635-4.176-3.107-6.77H81.721l-2.92,17.559L77.193,472.37z"/>
							<line style="fill:none;stroke:#FFFFFF;stroke-miterlimit:10;" x1="102.161" y1="448.792" x2="112.644" y2="448.792"/>
							<line style="fill:none;stroke:#FFFFFF;stroke-miterlimit:10;" x1="104.156" y1="452.442" x2="114.639" y2="452.442"/>
							<g>
								<path style="fill:none;stroke:#FFFFFF;stroke-miterlimit:10;" d="M89.636,459.603c-0.161,0.715,0.287,1.294,1.002,1.294
									c0.715,0,1.425-0.579,1.586-1.294c0.161-0.715-0.287-1.294-1.002-1.294C90.507,458.31,89.797,458.889,89.636,459.603z"/>
								<path style="fill:none;stroke:#FFFFFF;stroke-miterlimit:10;" d="M95.967,459.603c-0.161,0.715,0.287,1.294,1.001,1.294
									c0.714,0,1.424-0.579,1.586-1.294c0.161-0.715-0.287-1.294-1.002-1.294S96.128,458.889,95.967,459.603z"/>
							</g>
							<path style="fill:#FFFFFF;" d="M77.193,472.37h53.067l-0.466-4.737c-0.157-1.545-0.559-2.98-1.177-4.277H78.802
								L77.193,472.37z"/>
							
								<line style="fill:none;stroke:#D7E0DD;stroke-width:2;stroke-miterlimit:10;" x1="111.544" y1="467.863" x2="78.172" y2="467.863"/>
							<path style="fill:#FFFFFF;" d="M100.478,472.37h29.783l-0.466-4.737c-0.157-1.545-0.559-2.98-1.177-4.277
								c-1.308-2.759-3.597-4.884-6.588-6.015l-1.339-0.506c-1.313-0.497-2.509-1.15-3.581-1.941
								C109.582,458.086,103.169,464.607,100.478,472.37z"/>
							<path d="M111.539,445.797l1.194-2.64c0.841-1.859-0.173-3.628-2.079-3.628h-2.658c-2.099,0-4.295,1.066-5.83,2.831
								l-2.99,3.437H111.539z"/>
						</g>
					</g>
				</g>
				<path style="fill:#5E2222;" d="M144.928,294.985H88.871c-12.459-1.266-10.013-14.985,4.02-21.508
					c0.336-0.165,0.684-0.319,1.038-0.468l45.611-1.756c0.787,0.433,1.614,0.924,2.446,1.471c0.046,0.029,0.086,0.057,0.131,0.086
					C150.636,278.426,160.164,289.379,144.928,294.985z"/>
				<path d="M85.594,311.165h65.115c-4.193-21.992-12.419-33.703-12.419-33.703l-39.768-2.368
					C89.084,284.395,86.356,300.89,85.594,311.165z"/>
				<polygon points="81.272,437.782 110.858,437.782 115.7,374.325 118.152,305.892 85.594,311.165 86.439,339.148 88.623,373.89 
									"/>
				<path style="fill:none;stroke:#2D2D2D;stroke-miterlimit:10;" d="M86.181,437.782l7.161-59.185l4.216-2.3l-3.665-3.305
					l-2.472-48.821c-0.507-8.967,0.233-17.961,2.199-26.725l2.042-9.101"/>
			</g>
			<g>
				<path style="fill:#450000;" d="M187.881,231.262c10.053,15.085-11.736,34.847-24.137,12.268L187.881,231.262z"/>
				<path style="fill:#450000;" d="M161.621,239.266c-6.52-16.915,19.056-31.447,26.232-6.707L161.621,239.266z"/>
				<path style="fill:#450000;" d="M181.892,227.872l-3.061,22.205c-7.682-0.878-41.708-10.86-53.304-19.073
					c-4.963-3.517-6.406-10.266-3.279-15.488c1.299-2.165,3.215-3.776,5.408-4.714c2.388-1.022,5.091-1.255,7.717-0.523
					L181.892,227.872z"/>
				<g>
					<path d="M193.739,199.535l-1.141,1.708c-1.029,1.541-3.113,1.956-4.653,0.927l-1.059-0.708
						c-1.541-1.029-1.956-3.113-0.927-4.653l1.141-1.708c1.029-1.541,3.112-1.956,4.653-0.926l1.059,0.708
						C194.354,195.911,194.769,197.994,193.739,199.535z"/>
					<path style="fill:#C3826C;" d="M201.492,192.103c-5.113,6.82-1.751,33.409-11.733,49.111c-0.562,0.88-1.205,1.656-1.906,2.332
						c-0.216,0.206-0.439,0.402-0.666,0.588c-8.448,6.91-20.332-3.096-15.426-12.845l2.919-5.799l15.16-30.127L201.492,192.103z"/>
					<path style="fill:#A35D54;" d="M187.854,243.547c-0.207,0.197-0.419,0.384-0.636,0.563c-8.44,6.95-20.368-3.06-15.453-12.825
						l2.916-5.794c-1.908,15.157,5.292,23.069,13.167,18.051C187.851,243.544,187.85,243.543,187.854,243.547z"/>
					<g>
						<path style="fill:#C3826C;" d="M189.84,195.361l-0.168,7.255c13.266,1.262,19.255-6.963,23.908-9.584l-11.574-10.739
							L189.84,195.361z"/>
						<path style="fill:#C3826C;" d="M208.301,186.717c-0.187,0.251-0.333,0.54-0.416,0.86c-0.022,0.088-0.04,0.17-0.052,0.256
							c-0.148,0.896,0.205,1.783,0.877,2.336c0.255,0.216,0.557,0.381,0.89,0.481l2.099,0.638l2.966,0.894
							c0.426,0.127,0.854,0.134,1.253,0.041c0.563-0.127,1.062-0.448,1.411-0.916c0.187-0.251,0.328-0.545,0.411-0.864
							c0.301-1.171-0.305-2.369-1.392-2.842l-0.006-0.004c-0.058-0.026-0.121-0.047-0.184-0.068l-5.02-1.698
							c-0.047-0.018-0.099-0.03-0.15-0.043C209.958,185.508,208.904,185.91,208.301,186.717z"/>
						<path style="fill:#C3826C;" d="M221.346,174.956c-0.242-1.208-1.471-1.945-2.65-1.591l-10.165,3.054l-8.643,6.506l4.825,7.718
							l8.298-10.384l7.092-2.964C221.021,176.912,221.542,175.933,221.346,174.956z"/>
						<polygon style="fill:#A35D54;" points="199.888,182.926 201.658,181.593 209.686,180.045 211.801,181.773 204.256,190.844 
													"/>
						<path style="fill:#C3826C;" d="M217.35,195.221c-0.228,0.841-0.894,1.531-1.803,1.751l-5.161,1.211
							c-1.326,0.309-2.671-0.492-3.024-1.809c-0.099-0.378-0.101-0.76-0.034-1.125c0.009-0.072,0.025-0.131,0.041-0.191
							c0.013-0.049,0.03-0.109,0.053-0.156c0.278-0.827,0.977-1.487,1.896-1.662l5.191-1.044c0.739-0.139,1.481,0.062,2.026,0.518
							c0.078,0.064,0.154,0.137,0.229,0.211c0.268,0.264,0.473,0.606,0.579,0.996C217.464,194.37,217.46,194.815,217.35,195.221z"/>
						<path style="fill:#A35D54;" d="M216.532,192.715c-0.237,0.403-0.594,0.741-1.056,0.956l-4.787,2.258
							c-1.195,0.568-2.988,0.342-3.61-1.327c0.278-0.827,1.318-1.186,2.237-1.362l5.191-1.044
							C215.245,192.057,215.987,192.259,216.532,192.715z"/>
						<path style="fill:#A35D54;" d="M214.01,190.986c-0.128,0.675-0.538,1.296-1.182,1.664l-3.201,1.752
							c-1.183,0.683-2.695,0.292-3.404-0.865c-0.309-0.518-0.421-1.081-0.348-1.631c-0.001-0.052,0.011-0.113,0.02-0.163
							c0.139-0.735,0.587-1.391,1.295-1.768l3.279-1.612c0.556-0.291,1.183-0.349,1.749-0.2c0.588,0.143,1.113,0.513,1.458,1.059
							C214.022,189.768,214.123,190.392,214.01,190.986z"/>
						<path style="fill:#C3826C;" d="M206.988,191.955c-0.012,0.051-0.029,0.109-0.036,0.164c-0.015,0.067-0.02,0.132-0.031,0.193
							l0.005,0.004c-0.064,0.481,0.014,0.981,0.252,1.453c0.614,1.212,2.093,1.717,3.328,1.13l4.793-2.253
							c0.232-0.113,0.44-0.253,0.619-0.423c0.337-0.312,0.576-0.715,0.692-1.149c0.158-0.584,0.106-1.212-0.195-1.785
							c-0.176-0.322-0.403-0.587-0.678-0.8c-0.212-0.158-0.448-0.282-0.699-0.365c-0.55-0.193-1.179-0.186-1.754,0.062l-4.574,1.982
							l-0.294,0.127C207.682,190.617,207.186,191.236,206.988,191.955z"/>
						<path style="fill:#A35D54;" d="M208.741,190.127l-0.294,0.127c-0.733,0.32-1.229,0.939-1.427,1.658
							c-0.012,0.051-0.029,0.109-0.036,0.164c-0.015,0.067-0.02,0.132-0.031,0.193l0.006,0.004c0.839,0.712,2.089,0.803,3.042,0.153
							l1.73-1.181l3.749-2.563c0.104-0.07,0.207-0.149,0.288-0.236c0.276-0.254,0.475-0.556,0.611-0.888l-0.006-0.004
							c-0.058-0.026-0.121-0.047-0.184-0.068l-5.02-1.698c-0.047-0.018-0.099-0.03-0.15-0.043l-3.154,2.044
							C207.717,188.686,208.07,189.574,208.741,190.127z"/>
						<path style="fill:#C3826C;" d="M206.714,183.369c-0.262,0.351-0.434,0.769-0.486,1.233c-0.149,1.363,0.815,2.593,2.164,2.784
							l1.694,0.24l3.553,0.491c0.533,0.076,1.054-0.029,1.491-0.267c0.319-0.161,0.592-0.399,0.809-0.689
							c0.262-0.351,0.429-0.773,0.471-1.236c0.119-1.264-0.759-2.413-2.008-2.633l-1.691-0.29l-1.794-0.315l-1.737-0.298
							C208.2,182.214,207.267,182.628,206.714,183.369z"/>
						<path style="fill:#A35D54;" d="M212.781,187.083c-0.023,0.686-0.333,1.363-0.913,1.826l-2.895,2.222
							c-1.065,0.856-2.618,0.701-3.496-0.333c-0.384-0.464-0.582-1.004-0.594-1.558c-0.008-0.052-0.007-0.113-0.005-0.164
							c0.025-0.748,0.367-1.465,1.009-1.945l2.993-2.096c0.505-0.373,1.115-0.526,1.698-0.466c0.603,0.051,1.178,0.337,1.603,0.823
							C212.606,185.878,212.801,186.479,212.781,187.083z"/>
						<path style="fill:#C3826C;" d="M215.386,186.728c-0.076,0.682-0.438,1.333-1.052,1.749l-4.395,2.963
							c-1.128,0.771-2.665,0.496-3.46-0.604c-0.347-0.493-0.502-1.046-0.471-1.6c-0.004-0.052,0.002-0.113,0.008-0.164
							c0.083-0.744,0.48-1.431,1.157-1.861l4.483-2.83c0.532-0.332,1.153-0.438,1.729-0.333c0.597,0.098,1.148,0.428,1.534,0.945
							C215.305,185.512,215.453,186.127,215.386,186.728z"/>
						<g>
							<g>
								<path style="fill:#A35D54;" d="M193.07,195.488l8.549-10.505l8.149-1.382l-1.221,4.808l-3.007,1.501
									C205.539,189.911,204.375,200.929,193.07,195.488z"/>
								<path style="fill:#A35D54;" d="M209.768,183.602l3.432,3.348c0.746,0.728,0.77,1.919,0.054,2.676l0,0
									c-0.636,0.673-1.663,0.792-2.436,0.282l-2.272-1.498L209.768,183.602z"/>
							</g>
							<g>
								<path style="fill:#C3826C;" d="M189.84,195.361l10.048-12.436l9.614-1.665l-1.422,5.681l-3.543,1.784
									C204.536,188.725,203.208,201.737,189.84,195.361z"/>
								<path style="fill:#A35D54;" d="M210.916,182.688l-1.83,3.977l0.999,0.962l1.316,1.259c0.07,0.069,0.144,0.133,0.216,0.187
									c0.786,0.586,1.866,0.602,2.673,0.008c0.431-0.311,0.715-0.75,0.839-1.23c0.172-0.626,0.072-1.317-0.329-1.884l-2.09-2.964
									L210.916,182.688z"/>
								<path style="fill:#C3826C;" d="M209.502,181.261l4.065,3.938c0.883,0.856,0.917,2.262,0.075,3.159h0
									c-0.748,0.797-1.96,0.941-2.874,0.343l-2.688-1.759L209.502,181.261z"/>
							</g>
						</g>
					</g>
					<polygon points="189.498,195.178 199.556,202.323 198.72,206.333 187.084,199.277 					"/>
				</g>
				<path style="fill:#5E2222;" d="M146.274,289.414l-43.074,0.074l-15.647,0.028c0,0,2.851-6.911,5.337-16.04
					c2.087-7.669,3.917-16.895,3.587-24.901c-0.194-4.784-0.821-9.813-0.815-14.968c0.006-3.273-2.732-25.908,0-27.991
					c6.297-4.801,24.399-5.566,23.31-4.539l14.181,8.063c0.793,2.72,8.473,13.366,9.711,19.536c0.103,0.462,0.188,0.947,0.268,1.42
					c0.245,1.614,0.405,3.262,0.388,4.95c0.006,0.468-0.006,0.964-0.068,1.46c-0.029,0.713-0.108,1.454-0.228,2.173
					c-0.69,4.265-2.674,8.502-6.831,12.22l0.063,0.285l0.011,0.063l2.754,10.708l2.766,10.771l0.074,0.285L146.274,289.414z"/>
				<g>
					<defs>
						<path id="SVGID_00000114071271940437422380000009137803500455346317_" d="M142.664,284.19l-45.742-0.821
							c0,0,0.28-17.257-0.448-34.794c-0.312-7.82-1.797-16.299,0.249-24.905c5.409-22.63,23.335-23.621,22.246-22.594l14.185,8.067
							c0.79,2.718,8.468,13.364,9.71,19.534c0.101,0.46,0.188,0.945,0.264,1.418c0.247,1.615,0.406,3.266,0.392,4.949
							c0.001,0.47-0.01,0.965-0.071,1.459c-0.029,0.717-0.109,1.458-0.224,2.174c-0.694,4.268-2.676,8.505-6.836,12.221l0.068,0.286
							l0.011,0.062L142.664,284.19z"/>
					</defs>
					<clipPath id="SVGID_00000148639989094687350450000002299816419156226969_">
						<use xlink:href="#SVGID_00000114071271940437422380000009137803500455346317_"  style="overflow:visible;"/>
					</clipPath>
					<g style="clip-path:url(#SVGID_00000148639989094687350450000002299816419156226969_);">
						<polygon style="fill:none;stroke:#EAA105;stroke-miterlimit:10;" points="119.601,239.243 111.524,251.858 103.447,239.243 
							111.524,226.629 						"/>
						<polygon style="fill:none;stroke:#EAA105;stroke-miterlimit:10;" points="135.666,239.243 127.59,251.858 119.513,239.243 
							127.59,226.629 						"/>
						<polygon style="fill:none;stroke:#EAA105;stroke-miterlimit:10;" points="151.732,239.243 143.655,251.858 135.579,239.243 
							143.655,226.629 						"/>
					</g>
				</g>
				<path style="opacity:0.4;fill:#450000;" d="M104.763,284.191l-1.562,5.297l-1.078,3.644l-2.88,1.853H88.871
					c-12.459-1.266-10.013-14.985,4.02-21.508c2.087-7.669,3.917-16.895,3.587-24.901c-0.194-4.784-0.821-9.813-0.815-14.968
					l14.207-14.694l-0.355,34.661h28.09l1.616,8.379L104.763,284.191z"/>
				<g>
					<ellipse transform="matrix(0.2307 -0.973 0.973 0.2307 -50.7541 267.6247)" cx="143.869" cy="165.909" rx="9.441" ry="9.441"/>
					<circle cx="134.253" cy="155.23" r="9.441"/>
					
						<ellipse transform="matrix(0.2288 -0.9735 0.9735 0.2288 -60.4425 241.0324)" cx="121.909" cy="158.665" rx="9.441" ry="9.441"/>
					<path d="M110.063,164.43c-3.813,9.766-2.464,15.984,3.695,20.043l5.834-6.366l-3.489-15.314L110.063,164.43z"/>
					<polygon style="fill:#C3826C;" points="113.363,178.108 115.581,201.891 133.294,213.862 133.546,184.542 					"/>
					<polygon points="110.469,184.755 114.667,192.088 117.293,186.499 					"/>
					<path style="fill:#A35D54;" d="M133.38,203.846c0,0-10.926-1.971-11.243-14.303l11.408,3.715L133.38,203.846z"/>
					<path d="M140.684,160.794c5.283,6.477,5.977,15.01,5.977,15.01l-5.729,0.905l-4.353-13.722L140.684,160.794z"/>
					<path style="fill:#C3826C;" d="M115.157,168.381l1.704,6.747l0.781,3.075l2.09,8.256c1.128,4.457,4.484,8.012,8.868,9.395
						l6.816,2.15c5.909,1.864,11.985-2.238,12.535-8.41c0.403-4.528,0.401-9.812-1.323-15.425
						c-2.006-6.52-7.234-11.614-13.455-13.648l-0.025-0.008l-1.092-0.326l-0.118-0.03c-0.545-0.142-1.107-0.259-1.667-0.351
						c-1.331-0.236-2.708-0.338-4.097-0.297l-4.41,0.129C117.272,159.768,114.056,164.024,115.157,168.381z"/>
					<ellipse style="fill:none;stroke:#FFFFFF;stroke-miterlimit:10;" cx="146.194" cy="178.161" rx="5.742" ry="6.366"/>
					<g>
						<path d="M144.034,179.501c0.156,1.617-0.316,2.985-1.053,3.056c-0.737,0.071-1.461-1.182-1.617-2.799
							c-0.156-1.617,0.316-2.985,1.053-3.056C143.154,176.631,143.878,177.884,144.034,179.501z"/>
						<path style="fill:#C3826C;" d="M139.362,177.097c1.479,3.559,3.923,4.292,5.62,4.316c1.09,0.016,1.985,0.859,2.073,1.945l0,0
							c0.115,1.433-0.624,2.8-1.888,3.487l-4.469,2.431c-2.506,0.838-5.189-0.663-5.786-3.237l-2.023-8.725L139.362,177.097z"/>
						<g>
							<path style="fill:#A35D54;" d="M142.349,188.703l-0.272-0.501l2.954-1.607c1.163-0.632,1.846-1.894,1.74-3.214
								c-0.076-0.946-0.847-1.669-1.793-1.683c-1.842-0.027-4.357-0.827-5.88-4.492l0.527-0.219c1.404,3.378,3.69,4.116,5.361,4.141
								c1.241,0.018,2.253,0.967,2.353,2.208c0.124,1.545-0.676,3.021-2.036,3.76L142.349,188.703z"/>
						</g>
						<path d="M134.224,180.963c0.156,1.616-0.316,2.985-1.053,3.056c-0.737,0.071-1.461-1.182-1.617-2.799
							c-0.156-1.617,0.316-2.985,1.053-3.056C133.344,178.093,134.068,179.346,134.224,180.963z"/>
						<path d="M130.063,174.541c-3.675,1.533-4.685-0.354-2.049-1.951C130.85,170.872,134.635,172.634,130.063,174.541z"/>
						<path d="M140.653,172.819c-2.867-0.465-2.071-2.27,0.327-2.298C143.56,170.492,144.22,173.398,140.653,172.819z"/>
						<path style="fill:#FFFFFF;" d="M140.712,189.9l-6.615-0.51c0,0,0.744,3.821,2.664,4.234
							C138.848,194.073,140.712,189.9,140.712,189.9z"/>
					</g>
					<ellipse style="fill:none;stroke:#FFFFFF;stroke-miterlimit:10;" cx="131.662" cy="181.091" rx="5.743" ry="6.366"/>
					<line style="fill:none;stroke:#FFFFFF;stroke-miterlimit:10;" x1="125.928" y1="179.902" x2="119.503" y2="178.083"/>
					<path d="M124.696,159.566c3.47,8.198-3.063,19.412-16.763,18.595C102.164,166.508,102.41,156.086,124.696,159.566z"/>
					<path style="fill:#C3826C;" d="M119.988,179.073c-13.758-18.902-20.904,11.03-0.683,9.46L119.988,179.073z"/>
					<polygon points="119.841,166.968 120.098,182.845 118.767,183.733 113.758,168.468 					"/>
					<path d="M120.6,161.281c10.999,4.308,21.02,0.747,21.02,0.747S137.967,153.234,120.6,161.281z"/>
					<path d="M106.697,163.083c0-5.589-6.172-2.91-1.935,0.709c-7.433-1.004-1.806,8.214,1.616,4.99"/>
				</g>
				<path style="fill:#FFFFFF;" d="M133.975,214.174L133.975,214.174c2.386-12.97-9.816-15.718-19.035-19.507l-5.07,6.522
					L133.975,214.174z"/>
				<g>
					<path style="fill:#5E2222;" d="M90.561,251.343c9.738-1.883,18.698,0.846,13.907,10.467l-14.818,0.872L90.561,251.343z"/>
					<path style="fill:#5E2222;" d="M88.385,279.204c-26.297,6.799-22.045-21.404-6.391-25.63L88.385,279.204z"/>
				</g>
				<path style="fill:#5E2222;" d="M89.566,272.082l-15.656,2.304c-2.8-22.184,3.776-46.376,18.504-65.893
					c3.439-4.557,9.807-5.7,14.615-2.62l0,0c4.145,2.655,6.001,7.756,4.531,12.454L89.566,272.082z"/>
				<g>
					<g>
						<polygon style="fill:#C3826C;" points="131.197,261.167 149.436,242.849 122.884,250.022 122.323,259.478 						"/>
						<path style="fill:#C3826C;" d="M125.185,250.552l-3.895,0.189c-1.151,0.056-2.045-0.989-1.811-2.117l0.072-0.348
							c0.442-2.135,2.624-3.427,4.709-2.788l0,0c1.398,0.429,2.413,1.641,2.589,3.092l0,0
							C126.973,249.596,126.208,250.503,125.185,250.552z"/>
						<path style="fill:#C3826C;" d="M133.483,248.796l15.952-5.943l0.104-0.523c0.405-2.056,1.692-3.826,3.521-4.84
							c0.292-0.166,0.437-0.499,0.369-0.813c-0.011-0.049-0.029-0.097-0.048-0.145c-0.546-1.256-1.888-1.918-3.176-1.642
							c-0.215,0.046-0.422,0.125-0.635,0.222l-0.915,0.524l-0.092,0.054c-1.576,0.908-2.601,2.527-2.748,4.337l-11.942,8.494
							L133.483,248.796z"/>
						<path style="fill:#A35D54;" d="M139.738,248.319l7.022-4.03c0.447-3.418,2.015-5,3.844-6.014
							c0.292-0.166,0.437-0.5,0.37-0.813c-0.011-0.05-0.03-0.097-0.048-0.145c-0.414-0.965-1.305-1.577-2.269-1.681l-0.092,0.054
							c-1.576,0.908-2.601,2.527-2.748,4.337l-0.757,3.76L139.738,248.319z"/>
						<path style="fill:#C3826C;" d="M145.059,243.788l0.102-0.521c0.404-2.052,1.691-3.822,3.519-4.839l0,0
							c0.338-0.188,0.478-0.602,0.324-0.957l0,0c-0.637-1.469-2.366-2.115-3.811-1.424l-1.007,0.581
							c-1.573,0.909-2.601,2.531-2.752,4.341l0,0l-12.332,8.766L145.059,243.788z"/>
					</g>
					<path style="fill:#C3826C;" d="M90.747,257.673l33.871-2.98l6.578,6.474c0,0-20.542,15.738-42.107,18.388
						c-9.327,1.146-14.827-10.153-8.158-16.772l1.048-1.04C84.337,259.405,87.439,257.964,90.747,257.673z"/>
				</g>
				<polygon style="fill:#FFFFFF;" points="86.911,297.789 125.72,303.171 127.842,289.519 89.872,289.515 				"/>
				<polygon style="fill:#FFFFFF;" points="130.85,289.519 133.31,303.171 147.371,297.789 144.412,289.519 				"/>
			</g>
			<g>
				<g>
					<g>
						<g>
							<polygon style="fill:#FFFFFF;" points="151.961,452.713 175.023,452.713 171.331,422.57 148.484,424.318 							"/>
							<g>
								<path d="M150.16,471.524h52.322l-1.368-4.67c-0.451-1.523-1.123-2.938-1.98-4.217c-1.819-2.721-4.483-4.815-7.649-5.931
									l-1.417-0.499c-1.39-0.49-2.694-1.134-3.903-1.914c-1.04-0.671-2.005-1.433-2.875-2.294
									c-1.901-1.85-3.398-4.117-4.361-6.674H149.53l0.488,17.312L150.16,471.524z"/>
								<line style="fill:none;stroke:#FFFFFF;stroke-miterlimit:10;" x1="170.257" y1="448.277" x2="180.592" y2="448.277"/>
								<line style="fill:none;stroke:#FFFFFF;stroke-miterlimit:10;" x1="172.923" y1="451.877" x2="183.259" y2="451.877"/>
								<g>
									<path style="fill:none;stroke:#FFFFFF;stroke-miterlimit:10;" d="M159.98,458.937c-0.022,0.704,0.531,1.275,1.236,1.275
										c0.704,0,1.294-0.571,1.316-1.275c0.022-0.705-0.531-1.276-1.236-1.276C160.591,457.661,160.002,458.233,159.98,458.937z"
										/>
									<path style="fill:none;stroke:#FFFFFF;stroke-miterlimit:10;" d="M166.222,458.937c-0.022,0.704,0.531,1.275,1.236,1.275
										c0.704,0,1.293-0.571,1.316-1.275c0.022-0.705-0.531-1.276-1.236-1.276C166.833,457.661,166.244,458.233,166.222,458.937z"
										/>
								</g>
								<path style="fill:#FFFFFF;" d="M150.16,471.524h52.322l-1.368-4.67c-0.451-1.523-1.123-2.938-1.98-4.217h-49.116
									L150.16,471.524z"/>
								
									<line style="fill:none;stroke:#D7E0DD;stroke-width:2;stroke-miterlimit:10;" x1="149.878" y1="467.081" x2="182.781" y2="467.081"/>
								<path style="fill:#FFFFFF;" d="M173.118,471.524h29.364l-1.368-4.67c-0.451-1.523-1.123-2.938-1.98-4.217
									c-1.819-2.721-4.483-4.815-7.649-5.931l-1.417-0.499c-1.39-0.49-2.694-1.134-3.903-1.914
									C179.355,457.44,174.283,463.87,173.118,471.524z"/>
								<path d="M178.928,445.325l0.671-2.603c0.473-1.833-0.866-3.577-2.745-3.577h-2.621c-2.07,0-4.031,1.051-5.206,2.791
									l-2.289,3.389H178.928z"/>
							</g>
						</g>
					</g>
				</g>
				<g>
					<path d="M119.442,305.883l22.455,69.198l3.205,63.651l29.654-0.551l-5.982-65.874c0,0-4.954-16.481-10.34-35.74
						c-2.387-8.528-4.672-16.434-6.325-22.085c-1.54-5.284-2.53-8.599-2.53-8.599H119.442z"/>
					<polyline style="fill:none;stroke:#2D2D2D;stroke-miterlimit:10;" points="151.87,438.607 148.609,374.291 130.322,311.068 
						122.179,311.165 					"/>
				</g>
			</g>
		</g>
		<g>
			<g>
				<g>
					<g>
						<path style="fill:none;stroke:#EAA105;stroke-miterlimit:10;" d="M178.59,276.891c-0.588,0.347-1.144,0.714-1.671,1.1"/>
						<path style="fill:none;stroke:#EAA105;stroke-miterlimit:10;stroke-dasharray:3.7231,1.8615;" d="M175.47,279.164
							c-10.479,9.386-6.225,27.114,4.254,32.833"/>
						<path style="fill:none;stroke:#EAA105;stroke-miterlimit:10;" d="M180.544,312.415c0.602,0.284,1.223,0.529,1.861,0.731"/>
					</g>
				</g>
				<path style="fill:#EAA105;" d="M181.147,309.962c1.773-0.657,3.742,0.247,4.4,2.019c0.657,1.773-0.247,3.742-2.019,4.4
					c-1.773,0.657-3.742-0.247-4.4-2.019C178.47,312.589,179.374,310.619,181.147,309.962z"/>
			</g>
			<g>
				<g>
					<g>
						<path style="fill:none;stroke:#AABC95;stroke-miterlimit:10;" d="M293.073,317.852c0.53,0.429,1.069,0.822,1.615,1.18"/>
						<path style="fill:none;stroke:#AABC95;stroke-miterlimit:10;stroke-dasharray:3.7231,1.8615;" d="M296.295,319.98
							c12.46,6.532,27.578-3.657,29.269-15.474"/>
						<path style="fill:none;stroke:#AABC95;stroke-miterlimit:10;" d="M325.668,303.591c0.055-0.663,0.067-1.33,0.034-1.999"/>
					</g>
				</g>
				<path style="fill:#AABC95;" d="M323.159,303.885c-1.236-1.43-1.078-3.592,0.352-4.828c1.431-1.236,3.592-1.078,4.828,0.352
					c1.236,1.431,1.078,3.592-0.352,4.828C326.556,305.473,324.395,305.315,323.159,303.885z"/>
			</g>
			<g>
				<g>
					<g>
						<path style="fill:none;stroke:#D7E0DD;stroke-miterlimit:10;" d="M216.253,42.696c-0.257-0.632-0.539-1.236-0.843-1.814"/>
						<path style="fill:none;stroke:#D7E0DD;stroke-miterlimit:10;stroke-dasharray:3.7231,1.8615;" d="M214.46,39.276
							c-7.754-11.739-25.913-10.121-33.103-0.591"/>
						<path style="fill:none;stroke:#D7E0DD;stroke-miterlimit:10;" d="M180.825,39.436c-0.369,0.554-0.702,1.132-0.995,1.734"/>
					</g>
				</g>
				<path style="fill:#D7E0DD;" d="M183.164,40.391c0.391,1.849-0.791,3.666-2.641,4.057c-1.849,0.391-3.666-0.791-4.057-2.641
					c-0.391-1.85,0.791-3.666,2.641-4.057C180.956,37.359,182.773,38.542,183.164,40.391z"/>
			</g>
			<g>
				<path style="fill:#AABC95;" d="M64.868,309.747c0,1.603-1.3,2.903-2.904,2.903s-2.903-1.3-2.903-2.903
					c0-1.603,1.3-2.903,2.903-2.903S64.868,308.144,64.868,309.747z"/>
				<circle style="fill:#AABC95;" cx="295.524" cy="57.732" r="2.909"/>
				<path style="fill:#AABC95;" d="M470.013,86.857c0-1.612-1.306-2.918-2.918-2.918c-1.612,0-2.918,1.307-2.918,2.918
					c0,1.612,1.307,2.918,2.918,2.918C468.706,89.775,470.013,88.468,470.013,86.857z"/>
				<circle style="fill:#AABC95;" cx="29.054" cy="237.798" r="4.515"/>
				<path style="fill:#AABC95;" d="M412.45,270.472c0,1.388-1.125,2.514-2.514,2.514c-1.388,0-2.514-1.125-2.514-2.514
					c0-1.388,1.125-2.514,2.514-2.514C411.325,267.958,412.45,269.083,412.45,270.472z"/>
			</g>
			<g>
				<path style="fill:#D7E0DD;" d="M469.338,237.482c0,2.85-2.311,5.161-5.161,5.161c-2.85,0-5.161-2.311-5.161-5.161
					c0-2.85,2.311-5.161,5.161-5.161C467.027,232.321,469.338,234.632,469.338,237.482z"/>
				<path style="fill:#D7E0DD;" d="M395.344,31c0-1.861-1.509-3.37-3.37-3.37s-3.37,1.509-3.37,3.37c0,1.861,1.509,3.369,3.37,3.369
					S395.344,32.861,395.344,31z"/>
				<path style="fill:#D7E0DD;" d="M57.048,86.857c0,2.604-2.111,4.716-4.716,4.716c-2.604,0-4.716-2.111-4.716-4.716
					c0-2.604,2.111-4.716,4.716-4.716C54.937,82.141,57.048,84.252,57.048,86.857z"/>
				<path style="fill:#D7E0DD;" d="M213.643,327.616c0-1.631-1.322-2.952-2.952-2.952c-1.63,0-2.952,1.322-2.952,2.952
					c0,1.63,1.322,2.952,2.952,2.952C212.322,330.569,213.643,329.247,213.643,327.616z"/>
			</g>
		</g>
		<g>
			<g>
				<path style="fill:#FFB72F;" d="M90.581,160.144v8.494l7.664,9.134H66.047c-9.736,0-17.628-7.892-17.628-17.628l0,0
					c0-9.736,7.892-17.628,17.628-17.628h6.906C82.689,142.516,90.581,150.409,90.581,160.144z"/>
				<g>
					<path style="fill:#FFFFFF;" d="M76.996,164.102c0,1.73,1.403,3.133,3.133,3.133s3.133-1.403,3.133-3.133
						c0-1.73-1.403-3.133-3.133-3.133S76.996,162.372,76.996,164.102z"/>
					<path style="fill:#FFFFFF;" d="M66.347,164.102c0,1.73,1.403,3.133,3.133,3.133c1.73,0,3.133-1.403,3.133-3.133
						c0-1.73-1.403-3.133-3.133-3.133C67.75,160.969,66.347,162.372,66.347,164.102z"/>
					<path style="fill:#FFFFFF;" d="M55.698,164.102c0,1.73,1.403,3.133,3.133,3.133c1.73,0,3.133-1.403,3.133-3.133
						c0-1.73-1.403-3.133-3.133-3.133C57.101,160.969,55.698,162.372,55.698,164.102z"/>
				</g>
			</g>
			<g>
				<path style="fill:#FFB72F;" d="M409.169,195.385v8.494l-7.664,9.134h32.198c9.736,0,17.628-7.892,17.628-17.628l0,0
					c0-9.736-7.892-17.628-17.628-17.628h-6.906C417.061,177.756,409.169,185.649,409.169,195.385z"/>
				<g>
					<path style="fill:#FFFFFF;" d="M422.754,199.342c0,1.73-1.403,3.133-3.133,3.133c-1.73,0-3.133-1.403-3.133-3.133
						c0-1.73,1.403-3.133,3.133-3.133C421.352,196.209,422.754,197.612,422.754,199.342z"/>
					<path style="fill:#FFFFFF;" d="M433.403,199.342c0,1.73-1.403,3.133-3.133,3.133c-1.73,0-3.133-1.403-3.133-3.133
						c0-1.73,1.403-3.133,3.133-3.133C432.001,196.209,433.403,197.612,433.403,199.342z"/>
					<path style="fill:#FFFFFF;" d="M444.052,199.342c0,1.73-1.403,3.133-3.133,3.133c-1.73,0-3.133-1.403-3.133-3.133
						c0-1.73,1.403-3.133,3.133-3.133C442.65,196.209,444.052,197.612,444.052,199.342z"/>
				</g>
			</g>
		</g>
		<path style="fill:#F2F5F4;" d="M209.889,344.02l-15.755,13.314c4.498-1.128,11.985,0.516,14.633,2.342L209.889,344.02z"/>
		<line style="fill:none;stroke:#A0A6A7;stroke-miterlimit:10;" x1="49.56" y1="472.37" x2="464.981" y2="472.37"/>
		<line style="fill:none;stroke:#A0A6A7;stroke-miterlimit:10;" x1="35.019" y1="472.37" x2="47.699" y2="472.37"/>
	</g>
</g>
</svg>
